<svg version="1.1" xmlns="http://www.w3.org/2000/svg" xmlns:xlink="http://www.w3.org/1999/xlink" width="770.72209" height="286.45591" viewBox="0,0,770.72209,286.45591"><g transform="translate(129.62906,-237.10512)"><g data-paper-data="{&quot;isPaintingLayer&quot;:true}" fill-rule="nonzero" stroke-linejoin="miter" stroke-miterlimit="10" stroke-dasharray="" stroke-dashoffset="0" style="mix-blend-mode: normal"><g><path d="M-43.50193,269.26232v171.59159" fill="none" stroke="#66ff6e" stroke-width="30" stroke-linecap="round"/><g><g stroke="none" stroke-width="0" stroke-linecap="butt"><path d="M-129.62906,523.56103v-225h162.00099v225z" fill="#3d0e00"/><path d="M-129.41547,282.06255v-27h162.00099v27z" fill="#66ff6e"/><path d="M-129.57311,307.06255v-26h162.00099v26z" fill="#66ff6e"/></g><path d="M-32.71767,295.79392v80" fill="none" stroke="#66ff6e" stroke-width="30" stroke-linecap="round"/></g></g><g stroke="none" stroke-width="0" stroke-linecap="butt"><path d="M60.38102,276.89489v-34.30272h376.21335v34.30272z" fill="#3d0e00"/><path d="M59.67239,241.22144v-4.11632h376.21335v4.11632z" fill="#66ff6e"/><path d="M60.62005,245.03285v-3.96387h376.21335v3.96387z" fill="#66ff6e"/></g><g><path d="M543.877,440.85395v-171.59159" fill="none" stroke="#66ff6e" stroke-width="30" stroke-linecap="round"/><g><g stroke="none" stroke-width="0" stroke-linecap="butt"><path d="M433.8334,523.56103v-225h206.98672v225z" fill="#3d0e00"/><path d="M434.10631,282.06255v-27h206.98672v27z" fill="#66ff6e"/><path d="M433.90488,307.06255v-26h206.98672v26z" fill="#66ff6e"/></g><path d="M557.65593,295.79392v80" fill="none" stroke="#66ff6e" stroke-width="30" stroke-linecap="round"/></g></g></g></g></svg>