<svg xmlns="http://www.w3.org/2000/svg" viewBox="0 0 49.7 70" height="70" width="49.7"><g style="stroke:#000;stroke-width:1mm;fill:#000" fill="#000" stroke-width="1mm" stroke="#000" font-size="9pt" fill-rule="evenodd" stroke-linecap="round" id="svgGroup"><path d="M 1.8 70 L 1.6 70 A 2.303 2.303 0 0 1 0.967 69.921 Q 0.257 69.718 0.068 68.993 A 2.357 2.357 0 0 1 0 68.4 L 0 1.6 A 2.303 2.303 0 0 1 0.08 0.967 Q 0.283 0.257 1.008 0.068 A 2.357 2.357 0 0 1 1.6 0 L 1.8 0 A 2.303 2.303 0 0 1 2.433 0.08 Q 3.143 0.283 3.332 1.008 A 2.357 2.357 0 0 1 3.4 1.6 L 3.4 31.8 L 46.2 31.8 L 46.2 1.6 A 2.303 2.303 0 0 1 46.28 0.967 Q 46.483 0.257 47.208 0.068 A 2.357 2.357 0 0 1 47.8 0 L 48.1 0 A 2.303 2.303 0 0 1 48.733 0.08 Q 49.443 0.283 49.632 1.008 A 2.357 2.357 0 0 1 49.7 1.6 L 49.7 68.4 A 2.303 2.303 0 0 1 49.621 69.033 Q 49.418 69.743 48.693 69.932 A 2.357 2.357 0 0 1 48.1 70 L 47.8 70 A 2.303 2.303 0 0 1 47.167 69.921 Q 46.457 69.718 46.268 68.993 A 2.357 2.357 0 0 1 46.2 68.4 L 46.2 35.2 L 3.4 35.2 L 3.4 68.4 A 2.303 2.303 0 0 1 3.321 69.033 Q 3.118 69.743 2.393 69.932 A 2.357 2.357 0 0 1 1.8 70 Z"></path></g></svg>