<svg xmlns="http://www.w3.org/2000/svg" viewBox="0 0 54.774 70.001" height="70.001" width="54.774"><g style="stroke:#000;stroke-width:1mm;fill:#000" fill="#000" stroke-width="1mm" stroke="#000" font-size="9pt" fill-rule="evenodd" stroke-linecap="round" id="svgGroup"><path d="M 25.437 68.4 L 0.237 2.3 A 5.542 5.542 0 0 1 0.114 1.899 Q -0.389 0 1.337 0 A 2.751 2.751 0 0 1 2.287 0.155 Q 3.048 0.433 3.464 1.213 A 3.246 3.246 0 0 1 3.637 1.6 L 27.437 64.1 L 51.137 1.6 A 2.798 2.798 0 0 1 51.605 0.774 Q 52.255 0 53.437 0 A 2.242 2.242 0 0 1 53.966 0.057 Q 55.193 0.356 54.558 2.241 A 6.452 6.452 0 0 1 54.537 2.3 L 29.337 68.4 Q 28.737 70 27.437 70 A 1.864 1.864 0 0 1 25.864 69.209 Q 25.647 68.917 25.483 68.517 A 4.282 4.282 0 0 1 25.437 68.4 Z"></path></g></svg>