<svg xmlns="http://www.w3.org/2000/svg" viewBox="0 0 48.401 71.102" height="71.102" width="48.401"><g style="stroke:#000;stroke-width:1mm;fill:#000" fill="#000" stroke-width="1mm" stroke="#000" font-size="9pt" fill-rule="evenodd" stroke-linecap="round" id="svgGroup"><path d="M 0 42.5 L 0 2 Q 0 0 1.8 0 Q 3.398 0 3.494 1.768 A 4.3 4.3 0 0 1 3.5 2 L 3.5 42.5 A 41.838 41.838 0 0 0 4.109 49.857 Q 4.862 54.071 6.548 57.442 A 22.116 22.116 0 0 0 8.65 60.85 A 16.607 16.607 0 0 0 18.975 67.203 A 25.952 25.952 0 0 0 24.2 67.7 A 25.417 25.417 0 0 0 30.373 66.998 A 16.278 16.278 0 0 0 39.8 60.85 Q 44.223 54.91 44.81 45.473 A 47.865 47.865 0 0 0 44.9 42.5 L 44.9 2 Q 44.9 0 46.7 0 Q 48.298 0 48.394 1.768 A 4.3 4.3 0 0 1 48.4 2 L 48.4 42.5 A 48.827 48.827 0 0 1 47.78 50.548 Q 47.055 54.877 45.484 58.333 A 22.437 22.437 0 0 1 42.05 63.75 Q 35.7 71.1 24.2 71.1 A 28.857 28.857 0 0 1 16.751 70.192 A 20.332 20.332 0 0 1 6.35 63.75 Q 0 56.4 0 42.5 Z"></path></g></svg>