<svg xmlns="http://www.w3.org/2000/svg" viewBox="0 0 47.75 70.001" height="70.001" width="47.75"><g style="stroke:#000;stroke-width:1mm;fill:#000" fill="#000" stroke-width="1mm" stroke="#000" font-size="9pt" fill-rule="evenodd" stroke-linecap="round" id="svgGroup"><path d="M 22.25 68 L 22.25 39.9 L 0.45 2.4 A 4.172 4.172 0 0 1 0.213 1.948 Q -0.103 1.236 0.05 0.7 A 1.034 1.034 0 0 1 0.234 0.331 Q 0.417 0.104 0.734 0.033 A 1.446 1.446 0 0 1 1.05 0 Q 3.05 0 3.85 1.4 L 23.95 36 L 43.95 1.4 Q 44.75 0 46.35 0 A 2.185 2.185 0 0 1 46.819 0.047 Q 47.095 0.107 47.291 0.247 A 1.051 1.051 0 0 1 47.65 0.7 Q 47.898 1.279 47.531 2.063 A 3.749 3.749 0 0 1 47.35 2.4 L 25.75 39.9 L 25.75 68 Q 25.75 69.753 24.444 69.97 A 2.411 2.411 0 0 1 24.05 70 Q 22.283 70 22.251 68.072 A 4.323 4.323 0 0 1 22.25 68 Z"></path></g></svg>