<svg version="1.1" xmlns="http://www.w3.org/2000/svg" xmlns:xlink="http://www.w3.org/1999/xlink" width="170" height="170" viewBox="0,0,170,170"><g transform="translate(-155,-95)"><g data-paper-data="{&quot;isPaintingLayer&quot;:true}" fill-rule="nonzero" stroke-linecap="butt" stroke-linejoin="miter" stroke-miterlimit="10" stroke-dasharray="" stroke-dashoffset="0" style="mix-blend-mode: normal"><g><path d="M156,180c0,-46.39192 37.60808,-84 84,-84c46.39192,0 84,37.60808 84,84c0,46.39192 -37.60808,84 -84,84c-46.39192,0 -84,-37.60808 -84,-84z" fill-opacity="0.94413" fill="#c7c7c7" stroke="#989898" stroke-width="2"/><path d="M163.14701,208.07292c-1,0 -1,-1 -1,-1v-0.5c0.07796,-2.24472 -0.96576,-4.62202 -1.47325,-6.77025c-0.29713,-1.25776 0.32825,-2.77217 0,-4c-0.58856,-2.20156 -1.08232,-4.1297 -1,-6.5c-2.57129,-4.83336 -2.08589,-13.25034 -1,-18.45951c0.36983,-1.77412 0.0738,-2.77915 1,-4.5c-0.069,-3.27605 1.29594,-5.02023 2,-8c0.21423,-0.90668 0.1654,-2.21107 0.51615,-3.06003c0.43949,-1.06375 1.5142,-1.74905 2.10644,-2.73595c1.57404,-2.62293 3.39233,-7.16165 3.36357,-10.13445c0.46107,-1.38322 0.16572,-2.26319 0.51384,-3.56957c0.43201,-1.62118 2.08586,-2.36959 2.5,-4c0.22035,-0.86747 -0.60704,-1.41472 0.162,-2.35496c0.37707,-0.46101 1.17061,-0.32569 1.65604,-0.67074c0.20236,-0.14384 1.61016,-2.38241 1.73132,-2.62723c1.07042,-2.16294 2.35516,-4.13085 4.26604,-5.55454c0.22517,-0.25494 0.47514,-0.48502 0.74955,-0.67521l-0.14641,-0.21962l1.48862,-0.99241c0.16096,-0.11073 0.35595,-0.17554 0.56608,-0.17554c0.08298,0 0.1636,0.01011 0.24069,0.02916c0.49918,-1.17004 1.17118,-2.21739 2.31209,-2.92359c0,0 0.89442,-0.44721 1.34164,0.44721c0.44721,0.89442 -0.44721,1.34164 -0.44721,1.34164c-1.68963,0.37189 -2.28338,5.05729 -3.02333,6.48826c-0.14165,0.27393 -1.88904,1.99951 -2.21678,2.32443c-0.70085,0.69483 -2.84422,2.78643 -4.1842,1.73106c-0.36651,0.91568 -0.80172,1.8724 -1.3677,2.31728c-0.36262,0.28503 -0.95627,0.07939 -1.34396,0.32926c-0.46314,0.2985 0.29436,1.11017 0.162,1.64504c-0.39563,1.59881 -2.18582,2.57138 -2.5,4c-0.2699,1.2273 -0.05174,2.12715 -0.48616,3.43043c-0.02876,3.26191 -1.91638,7.99837 -3.63643,10.86555c-0.50612,0.84367 -1.54266,1.34491 -1.89356,2.26405c-0.31996,0.83811 -0.25292,2.05528 -0.48385,2.93997c-0.42636,1.63335 -1.3709,3.06995 -2.01615,4.56003c-0.25252,0.58315 0.02351,2.96473 0.01615,3.43997c-0.91969,1.93443 -0.60378,2.44671 -1,4.5c-1.00622,5.21449 -1.33819,12.63348 1,17.54049c0.05185,2.38361 0.47269,4.26791 1,6.5c0.29713,1.25776 -0.32825,2.77217 0,4c0.62317,2.33104 1.47341,4.77745 1.52676,7.22975v0.5c0,0 0,1 -1,1zM180.35614,124.57477c-0.31098,0.18003 -0.59536,0.41386 -0.73588,0.7279c-0.05571,0.58895 -0.21248,1.05765 -0.44026,1.46438c0.28615,-0.26212 0.49242,-0.4698 0.54314,-0.57681c0.24339,-0.5136 0.44514,-1.05891 0.63301,-1.61547z" fill="#999796" stroke="none" stroke-width="0.5"/><path d="M293.397,175.07292c0,1.48696 0.22007,3.23564 -0.01614,4.70023c-0.10557,0.6546 -1.10424,2.66163 -0.34997,3.41589c0.6139,0.6139 1.82049,-0.16428 2.59447,0.22903c0.70456,0.35803 1.11767,1.11766 1.6765,1.67649c0.04804,0.99884 -0.27267,2.03789 0,3c0.11908,0.4202 1.4104,0.73084 1.54538,0.7445c2.40569,0.24334 4.39243,-0.30054 5.73646,-2.4233c1.17512,-1.85598 -0.92748,-5.0208 1.5043,-6.46087c0.7516,-0.44509 3.582,0.81871 4.69679,0.42166c3.17004,-1.12906 4.11223,-3.13348 4.11223,-6.30363c0.21897,-2.35113 -3.88507,-3.7012 -5.54249,-5.03332c-0.16125,-0.1296 -2.21152,-2.21068 -2.27083,-2.30952c-0.22518,-0.3753 -0.01109,-0.9638 -0.32057,-1.27328c-0.30948,-0.30948 -0.89798,-0.09539 -1.27328,-0.32057c-0.15098,-0.09059 -2.00202,-1.95472 -2.22672,-2.17943c-0.51408,-0.51408 -1.93496,-2.53148 -2.59447,-2.72904c-1.21488,-0.36391 -4.35304,0.09515 -5.52165,0.09515c0,0 -0.05035,0 -0.13084,-0.01011c-0.46552,1.05377 -1.30692,1.95983 -2.39081,2.41495c-1.22063,0.51254 -4.14863,-0.15132 -5.21368,0.89281c-0.43632,0.42775 1.89141,2.34798 2.02781,2.48567c2.98078,1.98719 3.68138,3.92694 3.45752,7.46668c-0.00524,0.08285 -0.00652,0.16756 -0.00528,0.2535zM301.62536,157.91807c1.42129,0.49992 3.3391,3.1761 4.40553,4.27097c0.67809,0.69617 1.81282,0.81282 2.5,1.5c0.43736,0.43736 0.3612,1.19634 0.67943,1.72672c0.74491,1.24152 2.9111,2.89192 4.09385,3.59385c2.39695,1.42252 3.94135,1.9136 4.09284,5.06331c0,4.15835 -1.68189,7.36071 -5.88777,8.69636c-1.65796,0.52651 -3.06085,-0.5045 -4.30321,-0.57833c-0.20227,-0.01202 0.15438,0.3806 0.17484,0.58219c0.02907,0.28651 0.01254,2.93321 0,3c-0.33975,1.80944 -2.0008,3.98675 -3.61798,4.88752c-2.34989,1.30889 -7.45709,1.32931 -8.77072,-1.6094c-0.27116,-0.6066 -0.07371,-2.2086 0,-3c-1.08614,-1.08614 -2.16195,0.47261 -3.72904,-1.09447c-1.53139,-1.5314 -0.83888,-5.35538 -0.50705,-8.10554c-2.29806,0.55645 -5.75834,0.07324 -7.78747,-0.43282c0.24097,0.8726 0.1677,1.98349 -0.16674,2.63282c-0.44072,0.85568 -1.22364,1.51289 -1.99769,2.08496c-0.59015,0.43615 -1.81859,0.20458 -2.00231,0.91504c-0.67872,2.62459 -0.52339,4.65904 -3.95462,5.25551c-1.94565,0.33822 -4.18116,-0.32384 -5.26354,-2.0767c-0.51853,-0.83973 -0.02179,-2.03744 -0.45074,-2.92628c-0.28773,-0.59622 -1.32395,0.0153 -1.98595,0.01911c-2.09069,0.01206 -3.65877,-0.00194 -5.65716,-0.68669c-1.33926,-1.30258 -3.37712,-2.85435 -4.0392,-4.70109c-0.15575,-0.43443 0.19301,-0.94795 0.04152,-1.38387c-0.30949,-0.89057 -1.63194,-1.132 -2,-2c-0.82748,-1.95145 -1.08437,-5.84169 -1.09515,-7.97835c-0.00573,-1.13617 -0.41766,-4.15882 0.1479,-5.08982c1.00395,-1.65267 5.06364,-2.84849 6.90187,-3.14404c1.07867,-0.17344 1.54538,0.4661 1.54538,-0.78778c-1.26221,-1.26221 -4.25625,0.52477 -5.64493,0.7555c-3.82202,0.63505 -10.03079,0.87888 -12.78252,-1.98865c-0.03185,-0.00295 -0.07169,-0.00773 -0.11727,-0.01546c-0.11981,-0.0186 -0.19572,-0.0439 -0.19572,-0.0439c-0.0088,-0.00327 -0.0176,-0.00656 -0.0264,-0.00988c-0.05851,-0.01869 -0.1197,-0.0421 -0.18117,-0.07142c-2.30265,-0.94782 -4.38974,-3.33906 -5.11371,-5.81737c-0.44812,-1.534 0.17326,-3.55779 -0.02407,-5.13447c-0.69214,-5.5302 -4.07696,-12.75528 2.69144,-16.27562c1.1231,-0.58414 3.28602,-0.89474 4.37452,-1.11102c2.06043,-0.01526 3.61476,-0.11399 5.56996,0.54806c0.58997,0.19977 1.22604,0.30495 1.76188,0.62254c0.45284,0.26841 0.89507,1.34721 1.25301,0.96122c0.70928,-0.76486 1.04471,-1.91384 1.93266,-2.46122c1.67573,-1.03301 6.90337,-2.17451 8.74698,-1.03878c2.68286,1.65274 1.8143,4.93626 2.14403,7.40186c0.18914,1.41429 1.8435,3.58131 2.65003,4.81635c3.46649,2.25719 3.86612,5.48757 3.86612,9.38388c0,0.64318 -0.46098,4.08788 0.22835,4.34515c0.87412,0.32624 1.21553,-1.00507 1.28779,-1.54538c0.23778,-1.77806 -0.70699,-4.65663 0.07901,-6.27813c1.74009,-3.58974 6.1787,-1.79937 7.27774,0.92917c1.47192,2.20789 2.14463,6.06256 4.53427,7.48588c3.06707,1.82681 7.37297,1.17391 8.06903,5.81072c1.62914,-0.03447 4.85307,-0.39438 6.25216,0.09774zM245.44803,153.11244l0.73904,0.26711c1.30292,2.1755 3.63346,1.44338 5.95994,1.44338c1.4622,0 3.34336,0.25984 4.79977,0.01614c3.5394,-0.59225 5.39702,-2.20255 8.35508,0.7555c0,0.81891 0.3078,1.69786 0,2.45671c-0.8505,2.0968 -4.35422,2.08019 -6.25957,2.7075c-0.06566,0.02162 -2.12809,0.61948 -2.29319,0.90397c-0.74674,1.28674 0.39953,5.31654 0.63176,6.70995c0.20565,1.23392 0.01434,3.08557 0.421,4.22187c0.31768,0.88768 1.62439,1.13524 2,2c0.21469,0.49427 -0.1144,1.10029 0.04152,1.61613c0.33756,1.11676 2.21715,2.52765 2.9608,3.29892c2.27164,0.7175 6.61636,-0.75158 8.35689,1.33243c1.26086,1.50968 -0.61347,3.56654 2.18618,3.99702c3.34296,0.51403 2.26373,-1.86492 3.14493,-3.7445c0.97028,-2.06961 3.16876,-1.2254 4,-3c0.19533,-0.417 0.30044,-1.46219 0.38711,-2.52164h-0.48226v-1.5c0,-0.69036 0.55964,-1.25 1.25,-1.25c0.34518,0 0.65768,0.13992 0.88388,0.36612l0.84177,0.84177c1.69707,0.51476 3.505,0.28191 5.27434,0.29211c0.57896,0.00334 1.40767,0.452 1.83083,0.18272c-0.05899,-0.16915 -0.13722,-0.48578 -0.04889,-0.81055c-0.01612,-0.04072 -0.0277,-0.0815 -0.03193,-0.12217c-0.31783,-3.05652 0.22561,-3.68792 -2.54249,-5.53332c-0.22368,-0.22191 -2.26018,-2.21478 -2.32219,-2.401c-1.37351,-4.1251 1.59838,-4.84665 4.96195,-5.30631c1.08517,-0.14829 2.77925,-0.41415 2.41887,-2.05914c-0.74264,-3.38989 -4.52853,-2.69299 -6.9233,-4.13691c-2.9694,-1.79039 -3.66361,-5.81094 -5.46573,-8.51413c-0.14173,-0.63285 -2.4347,-2.76474 -2.72226,-1.07083c-0.4323,2.54651 1.2968,11.5818 -4.6332,9.17649c-2.35469,-0.9551 -1.77165,-3.238 -1.77165,-5.15485c0,-3.84097 0.26039,-6.80664 -3.13388,-9.11612c-1.14282,-1.69225 -2.97201,-4.17067 -3.34998,-6.18366c-0.23356,-1.24392 0.61048,-4.78141 -0.85596,-5.59813c-1.12622,-0.62724 -5.15825,0.33304 -6.25302,0.96122c-1.17978,0.67696 -0.55993,1.82716 -2.06734,2.53878c-1.17207,0.5533 -2.63941,-0.36561 -3.74699,-1.03878c-1.69653,-1.03114 -3.8928,-0.81322 -5.76526,-0.80998c-0.85165,0.17163 -2.59753,0.43254 -3.52838,0.86956c-5.34437,2.5091 -1.80727,9.7304 -1.30855,13.72438c0.40483,3.2421 -0.52036,7.83718 3.65465,8.96687c0,0 0.19833,0.06611 0.40573,0.22537z" fill="#c7c7c7" stroke="none" stroke-width="0.5"/><path d="M292.84188,173.82241c-0.00124,-0.08594 0.00019,-0.17217 0.00543,-0.25502c0.22386,-3.53974 -0.46767,-5.50309 -3.44845,-7.49028c-0.1364,-0.13769 -2.46269,-2.05982 -2.02636,-2.48757c1.06505,-1.04413 4.00294,-0.38974 5.22357,-0.90228c1.08389,-0.45513 1.93478,-1.36658 2.4003,-2.42035c0.08049,0.01011 0.13119,0.00995 0.13119,0.00995c1.16861,0 4.32461,-0.46298 5.53949,-0.09906c0.65951,0.19755 2.09109,2.21576 2.60517,2.72984c0.2247,0.22471 2.08778,2.09269 2.23875,2.18328c0.3753,0.22518 0.96913,0.01398 1.27862,0.32346c0.30948,0.30948 0.09937,0.90074 0.32455,1.27604c0.0593,0.09884 2.12082,2.19196 2.28207,2.32156c1.65742,1.33212 5.76976,2.70829 5.55079,5.05943c0,3.17015 -0.94948,5.20212 -4.11952,6.33119c-1.1148,0.39705 -3.95428,-0.85575 -4.70588,-0.41066c-2.43178,1.44007 -0.34886,4.61588 -1.52398,6.47186c-1.34403,2.12276 -3.35254,2.66799 -5.75823,2.42466c-0.13497,-0.01365 -1.43198,-0.32555 -1.55106,-0.74574c-0.27267,-0.96211 0.04461,-2.00226 -0.00343,-3.0011c-0.55883,-0.55883 -0.9812,-1.32293 -1.68576,-1.68096c-0.77398,-0.39331 -1.9884,0.3789 -2.6023,-0.235c-0.75426,-0.75427 0.23717,-2.76972 0.34274,-3.42432c0.23621,-1.46458 0.0076,-3.23767 0.0076,-4.72463z" data-paper-data="{&quot;noHover&quot;:false,&quot;origItem&quot;:[&quot;Path&quot;,{&quot;applyMatrix&quot;:true,&quot;segments&quot;:[[[586.79401,350.14584],[0,0],[0,2.97392]],[[586.76172,359.5463],[0.47242,-2.92917],[-0.21115,1.3092]],[[586.06177,366.37808],[-1.50853,-1.50853],[1.2278,1.2278]],[[591.25071,366.83614],[-1.54797,-0.78662],[1.40911,0.71606]],[[594.60371,370.18913],[-1.11766,-1.11766],[0.09608,1.99769]],[[594.60371,376.18913],[-0.54533,-1.92422],[0.23817,0.8404]],[[597.69446,377.67812],[-0.26995,-0.02731],[4.81138,0.48667]],[[609.16738,372.83152],[-2.68806,4.24551],[2.35024,-3.71196]],[[612.17597,359.90978],[-4.86355,2.88014],[1.50319,-0.89017]],[[621.56955,360.75311],[-2.22959,0.7941],[6.34008,-2.25812]],[[629.79401,348.14584],[0,6.34031],[0.43794,-4.70227]],[[618.70903,338.0792],[3.31484,2.66425],[-0.3225,-0.2592]],[[614.16738,333.46017],[0.11861,0.19768],[-0.45036,-0.7506]],[[613.52624,330.91361],[0.61896,0.61896],[-0.61896,-0.61896]],[[610.97968,330.27247],[0.7506,0.45036],[-0.30195,-0.18117]],[[606.52624,325.91361],[0.44941,0.44941],[-1.02816,-1.02816]],[[601.3373,320.45554],[1.31902,0.39511],[-2.42975,-0.72783]],[[590.29401,320.64584],[2.33721,0],[0,0]],[[590.03233,320.62563],[0.16098,0.02021],[-0.93104,2.10754]],[[585.25071,325.45554],[2.16778,-0.91025],[-2.44126,1.02508]],[[574.82336,327.24116],[2.1301,-2.08826],[-0.87264,0.8555]],[[578.87898,332.21249],[-0.2728,-0.27538],[5.96156,3.97438]],[[585.79401,347.14584],[0.44772,-7.07948],[-0.01048,0.1657]],[[585.78344,347.65285],[-0.00247,-0.17188],[0,0]]],&quot;closed&quot;:true}]}" fill="#9e9b9b" stroke="none" stroke-width="0.5"/><path d="M244.99288,152.87942c-4.17502,-1.12969 -3.24528,-5.73917 -3.65011,-8.98127c-0.49872,-3.99398 -4.0246,-11.2302 1.31976,-13.7393c0.93085,-0.43702 2.6804,-0.70097 3.53205,-0.8726c1.87247,-0.00324 4.07458,-0.22493 5.7711,0.80621c1.10757,0.67317 2.57952,1.58984 3.75159,1.03654c1.50741,-0.71162 0.89228,-1.86355 2.07206,-2.54051c1.09476,-0.62817 5.13759,-1.59055 6.26381,-0.96331c1.46644,0.81672 0.62327,4.35415 0.85683,5.59807c0.37797,2.01298 2.21595,4.49161 3.35877,6.18387c3.39427,2.30947 3.1558,5.2831 3.1558,9.12407c0,1.91684 -0.56357,4.22445 1.79112,5.17955c5.93,2.4053 4.11886,-6.57728 4.55116,-9.12379c0.28756,-1.69391 2.65562,0.3724 2.79735,1.00525c1.80212,2.70319 2.506,6.74845 5.47539,8.53884c2.39477,1.44393 6.18078,0.75614 6.92343,4.14603c0.36038,1.64499 -1.33426,1.9154 -2.41943,2.06369c-3.36357,0.45965 -6.3399,1.19486 -4.96639,5.31996c0.062,0.18623 2.09745,2.18113 2.32113,2.40304c2.7681,1.8454 2.22139,2.48196 2.53922,5.53848c0.02774,0.26673 0.37133,0.53856 0.23547,0.76976c-0.33541,0.57075 -1.3252,-0.01368 -1.9872,-0.0175c-1.76934,-0.0102 -3.58155,0.22728 -5.27863,-0.28748l-0.84182,-0.84173c-0.2262,-0.2262 -0.53933,-0.36553 -0.88451,-0.36553c-0.69036,0 -1.25297,0.56216 -1.25297,1.25252l-0.00155,1.50116l0.48291,-0.00048c-0.08666,1.05946 -0.19465,2.10664 -0.38998,2.52364c-0.83124,1.7746 -3.03798,0.93469 -4.00826,3.0043c-0.88119,1.87957 0.19104,4.26078 -3.15192,3.74675c-2.79965,-0.43049 -0.92761,-2.48685 -2.18847,-3.99653c-1.74052,-2.084 -6.10235,-0.61458 -8.37399,-1.33208c-0.74365,-0.77127 -2.63118,-2.18404 -2.96873,-3.3008c-0.15591,-0.51584 0.17187,-1.1223 -0.04282,-1.61657c-0.37561,-0.86476 -1.68867,-1.1151 -2.00635,-2.00278c-0.40666,-1.1363 -0.22187,-2.99203 -0.42753,-4.22596c-0.23224,-1.39341 -1.39229,-5.43872 -0.64554,-6.72546c0.1651,-0.28449 2.31343,-0.93352 2.37909,-0.95514c1.90534,-0.62731 5.39154,-0.62761 6.24204,-2.7244c0.3078,-0.75886 -0.06858,-1.61879 -0.06858,-2.4377c-2.95806,-2.95806 -4.72251,-1.31632 -8.26191,-0.72406c-1.45641,0.24371 -3.3373,-0.01845 -4.79949,-0.01845c-2.32648,0 -4.75631,0.72045 -6.05923,-1.45506l-0.73898,-0.26749c-0.2074,-0.15926 -0.40569,-0.22575 -0.40569,-0.22575z" data-paper-data="{&quot;noHover&quot;:false,&quot;origItem&quot;:[&quot;Path&quot;,{&quot;applyMatrix&quot;:true,&quot;segments&quot;:[[[490.89605,306.22487],[-0.41481,-0.31852],[0,0]],[[492.37413,306.75909],[0,0],[2.60584,4.35101]],[[504.29401,309.64584],[-4.65297,0],[2.92439,0]],[[513.89355,309.67812],[-2.91283,0.48741],[7.0788,-1.18451]],[[530.60371,311.18913],[-5.91612,-5.91612],[0,1.63781]],[[530.60371,316.10255],[0.61561,-1.51771],[-1.70099,4.19359]],[[518.08458,321.51755],[3.81068,-1.25462],[-0.13132,0.04324]],[[513.49819,323.32549],[0.3302,-0.56898],[-1.49349,2.57348]],[[514.76172,336.74539],[-0.46447,-2.78682],[0.41131,2.46785]],[[515.60371,345.18913],[-0.81331,-2.2726],[0.63535,1.77535]],[[519.60371,349.18913],[-0.75123,-1.72951],[0.42938,0.98855]],[[519.68674,352.42138],[-0.31183,-1.03167],[0.67511,2.23353]],[[525.60833,359.01922],[-1.4873,-1.54254],[4.54327,1.435]],[[542.32211,361.68407],[-3.48105,-4.16801],[2.52172,3.01936]],[[546.69446,369.67812],[-5.5993,-0.86097],[6.68592,1.02805]],[[552.98431,362.18913],[-1.76238,3.75915],[1.94057,-4.13923]],[[560.98431,356.18913],[-1.66248,3.54919],[0.39066,-0.83401]],[[561.75853,351.14584],[-0.17333,2.11891],[0,0]],[560.79401,351.14584],[[560.79401,348.14584],[0,0],[0,-1.38071]],[[563.29401,345.64584],[-1.38071,0],[0.69036,0]],[[565.06177,346.37808],[-0.45241,-0.45241],[0,0]],[[566.74532,348.06162],[0,0],[3.39415,1.02952]],[[577.29401,348.64584],[-3.53869,-0.0204],[1.324,0.00763]],[[581.2659,348.68407],[-0.67082,1.14151],[0.27173,-0.4624]],[[580.79401,347.14584],[0.05547,0.53345],[-0.63565,-6.11305]],[[575.70903,336.0792],[5.53619,3.6908],[-0.44735,-0.44382]],[[571.06465,331.27719],[0.12401,0.37245],[-2.74703,-8.2502]],[[580.98855,320.66457],[-6.72714,0.91931],[2.17035,-0.29659]],[[585.82629,316.5463],[0.72076,3.28998],[-1.48529,-6.77979]],[[571.97968,308.27247],[4.78954,2.88785],[-5.93879,-3.58078]],[[561.04822,291.24422],[3.60425,5.40638],[-0.28347,-1.2657]],[[555.60371,289.10255],[0.57512,-3.38781],[-0.8646,5.09302]],[[546.3373,307.45554],[11.86,4.81061],[-4.70938,-1.9102]],[[542.79401,297.14584],[0,3.83369],[0,-7.68194]],[[536.52624,278.91361],[6.78854,4.61895],[-2.28564,-3.38451]],[[529.82629,266.5463],[0.75594,4.02597],[-0.46713,-2.48784]],[[528.11436,255.35003],[2.93288,1.63345],[-2.25243,-1.25448]],[[515.60833,257.27247],[2.18952,-1.25635],[-2.35957,1.35392]],[[511.47365,262.35003],[3.01483,-1.42324],[-2.34413,1.10661]],[[503.97968,260.27247],[2.21515,1.34635],[-3.39305,-2.06227]],[[492.44915,258.65251],[3.74493,-0.00649],[-1.7033,0.34326]],[[485.39238,260.39163],[1.8617,-0.87404],[-10.68873,5.0182]],[[482.77528,287.84039],[-0.99743,-7.98795],[0.80966,6.48419]],[[490.08458,305.77414],[-8.35003,-2.25938],[0,0]]],&quot;closed&quot;:true}]}" fill="#9e9b9b" stroke="none" stroke-width="0.5"/><path d="M297.52698,142.91353l0.21474,0.21474l0.06406,0.10676l0.05183,0.04712c0.04514,-0.15652 0.12004,-0.30042 0.21818,-0.42518c-0.13041,0.02035 -0.34647,0.03721 -0.57492,-0.01657zM296.83772,139.17882l0.87807,-0.14634l0.39691,-0.07938l0.12436,0.00592l0.12079,-0.03019h0.21382l0.05756,-0.01918l0.20035,-0.01542l0.19494,-0.04873h3.5l0.19494,0.04873l0.20034,0.01542l0.05757,0.01918h0.38226l0.01168,-0.00779l0.03505,0.00779h0.03483l0.27864,0.06966l0.28037,0.06231l0.03115,0.01558l0.03483,0.0087l0.00697,0.01219l0.24562,0.12281l0.01911,-0.00132l0.23927,0.21752l0.24552,0.21044l0.00106,0.01913l0.04212,0.06319l0.04463,0.04057l0.24551,0.21044l0.00107,0.01913l0.15216,0.22825l0.00417,0.00278l0.07309,0.01827l0.28037,0.06231l0.03116,0.01558l0.03483,0.0087l0.00696,0.01219l0.09372,0.04686l0.05997,0.05141l0.07439,0.02657l0.14171,0.09447l0.26172,0.10469l0.63778,0.21259l0.01355,-0.00369l0.03078,0.01847l0.03304,0.01102l0.24231,0.15419l0.24629,0.14777l0.02463,0.02463l0.03029,0.01927l0.00275,0.01377l0.35899,0.35899l0.10339,0.17231l0.13077,0.15256l0.03333,0.06667l0.04199,0.04899l0.18813,0.16126l0.00346,0.06226l0.06641,0.07749l0.2152,0.43039l0.05484,0.08227l0.32914,0.32914l0.06405,0.10676l0.09213,0.08374l0.09801,0.14702l0.07914,0.07914l0.10339,0.17231l0.00174,0.00203l0.26862,0.17094l0.08235,0.01647l0.03843,0.06039l0.06039,0.03843l0.01647,0.08235l0.01707,0.02682l0.16154,0.09692l0.41667,0.41667l0.06405,0.10676l0.09213,0.08374l0.05488,0.08234l0.28654,0.24561l0.00274,0.04928l0.04286,0.02449l0.02305,0.09221l0.09802,0.08402l0.00346,0.06226l0.06642,0.07749l0.13019,0.26038l0.01219,0.00697l0.00871,0.03483l0.01557,0.03115l0.06231,0.28038l0.06966,0.27864v0.03483l0.00779,0.03504l-0.00779,0.01168v0.16844l-0.15625,0.625l-0.19527,0.11158l-0.07112,0.21335l-0.58222,0.27579l-0.41666,0.08334l-0.12436,-0.00592l-0.12079,0.03019h-0.59743l-0.66179,0.07353l-0.56401,0.08057l-0.08949,-0.00926l-0.08729,0.02182h-0.25v0.29715l0.01919,0.05757l0.01541,0.20034l0.04874,0.19494v0.12623l0.05906,0.29529l-0.00088,0.01829l0.03391,0.05329l0.08498,0.04856l0.03499,0.13997l0.05711,0.08974l0.08333,0.25l0.01541,0.20034l0.04873,0.19494v0.12623l0.05906,0.29529l-0.00592,0.12437l0.0302,0.12078v1.66844l0.00778,0.01168l-0.00778,0.03504v0.03483l-0.06966,0.27864l-0.06231,0.28038l-0.01558,0.03115l-0.0087,0.03483l-0.01219,0.00697l-0.00713,0.01426l-0.05524,0.16573l-0.0483,0.07591l-0.00579,0.02604l0.00025,0.00089l-0.0007,0.00117l-0.01328,0.05972l-0.08333,0.16666l-0.13077,0.15257l-0.10339,0.1723l-0.00751,0.00752l0.00037,0.0053l-0.21752,0.23927l-0.21044,0.24551l-0.01913,0.00107l-0.23626,0.15751l-0.07439,0.02657l-0.05998,0.0514l-0.09372,0.04686l-0.00697,0.01219l-0.03483,0.0087l-0.03115,0.01558l-0.28037,0.06231l-0.27864,0.06966h-0.03483l-0.03505,0.00778l-0.01168,-0.00778h-1.60616l-0.002,0.00151l-0.00939,-0.00151h-0.13422l-0.24405,-0.06101l-0.24835,-0.04005l-0.12338,-0.05288l-0.00922,-0.00231l-0.00125,-0.00218l-0.21366,-0.09157h-0.07676l-0.04879,-0.0122l-0.03788,0.01894l-0.26516,-0.0947l-0.27317,-0.06829l-0.02101,-0.03678l-0.04737,-0.01692l-0.00906,-0.00604l-0.19285,-0.01484l-0.25,-0.08333l-0.03171,-0.02018l-0.03724,-0.00508l-0.38256,-0.15303l-0.21516,-0.07171l-0.14085,-0.08964l-0.03607,-0.01289h-0.34445l-0.12079,-0.03019l-0.12436,0.00592l-0.2103,-0.04206c-0.23676,-0.00119 -0.45794,-0.06821 -0.64621,-0.18367h-0.64835l-0.19494,-0.04873l-0.20034,-0.01541l-0.25,-0.08333l-0.54352,-0.34588l-0.02855,-0.14275l-0.1264,-0.07223l-0.15625,-0.625v-0.2445l-0.06871,-0.481l-0.08095,-0.48567l0.00334,-0.04172l-0.01415,-0.0394l-0.08333,-0.83333l0.00919,-0.0628l-0.01539,-0.06158v-1.81322l-0.06633,-0.39795l0.00833,-0.10414l-0.02534,-0.10136v-0.29289l-0.11989,-0.59942l-0.10474,-0.26183l-0.27527,-0.55056l-0.1235,-0.18524l-0.02656,-0.07439l-0.05141,-0.05998l-0.11667,-0.23333l-0.04199,-0.04899l-0.07103,-0.06089l-0.01771,-0.00098l-0.04587,-0.05352l-0.05352,-0.04587l-0.00098,-0.01771l-0.06089,-0.07103l-0.18813,-0.16126l-0.00346,-0.06226l-0.06642,-0.07749l-0.04853,-0.09706l-0.2215,-0.33226l-0.24581,-0.24581l-0.10338,-0.1723l-0.08648,-0.10089l-0.06014,-0.06015l-0.12688,-0.21146l-0.08299,-0.04743l-0.03895,-0.15581l-0.08263,-0.13773l0.02515,-0.09222l-0.05981,-0.23924v-0.01111l-0.03842,-0.10757l-0.10397,-0.2195l-0.08334,-0.41667l0.00592,-0.12436l-0.03019,-0.12079v-0.56321l-0.06633,-0.39795l0.00833,-0.10414l-0.02534,-0.10136v-0.91844l-0.00779,-0.01168l0.00779,-0.03504v-0.03483l0.06966,-0.27864l0.06231,-0.28037l0.01558,-0.03116l0.00871,-0.03483l0.01219,-0.00697l0.04686,-0.09372l0.41926,-0.48914l0.61352,-0.03409l0.00191,-0.00109l0.00158,0.0009l0.64078,-0.0356l0.1898,0.2847zM307.93566,145.76216l0.07506,-0.01073l-0.03677,-0.02206l-0.02463,-0.02463l-0.03028,-0.01927l-0.00276,-0.01377l-0.10899,-0.10899l-0.10339,-0.1723l-0.08647,-0.10089l-0.06015,-0.06015l-0.06405,-0.10676l-0.09213,-0.08375l-0.09699,-0.1455l0.0164,0.06562v0.15388l0.03733,0.14929v0.5zM305.35601,151.28853c-0.06789,0.16061 -0.14468,0.3141 -0.23064,0.45889l0.12423,0.01775c0.14591,-0.06078 0.21628,-0.16484 0.1592,-0.33599c-0.01589,-0.04763 -0.03356,-0.09448 -0.05279,-0.14065zM301.33456,142.6717c-0.07694,-0.02351 -0.15751,-0.04353 -0.24111,-0.06045l-0.43466,0.23485v0.06753c0.20346,-0.08048 0.43681,-0.16868 0.67576,-0.24193z" fill="#9e9b9b" stroke="none" stroke-width="0.5"/><path d="M301.647,156.82292c-0.00098,-0.00001 -0.00196,-0.00002 -0.00294,-0.00003c-0.06678,-0.00097 -1.24706,-0.03533 -1.24706,-1.24997c0,-1.20558 1.16273,-1.24842 1.24538,-1.24994c0.00154,-0.00002 0.00308,-0.00004 0.00462,-0.00006h1.5c0.51756,0 4.23981,0.39216 4.34515,-0.22836c0.26772,-1.57701 -0.94944,-5.11775 0.27096,-6.40552c0.78426,-0.82755 2.42464,0.20729 3.39862,-0.38539c0.85964,-0.5231 -1.06033,-1.71068 -1.57806,-2.57357c-1.92564,-3.20941 -4.1377,-4.23988 -7.83197,-5.47131c-2.52096,-0.87319 -6.80014,-0.51496 -6.85564,2.86211c-0.03814,2.32124 2.56043,3.49178 2.98478,5.7518c0.58005,3.08924 -0.52328,6.50105 3.76152,6.45029c0.00304,-0.00006 0.00462,-0.00006 0.00462,-0.00006c0,0 1.25,0 1.25,1.25c0,1.25 -1.25,1.25 -1.25,1.25c0,0 -0.001,0 -0.00294,-0.00003c-5.77938,-0.05623 -5.63195,-4.07091 -6.23092,-8.54975c-0.32313,-2.41625 -2.98661,-3.30085 -3.01522,-6.2482c-0.05136,-5.29171 6.22692,-6.40437 10.14436,-5.13788c4.21828,1.40609 6.92149,2.78448 9.16803,6.52869c0.76893,1.28154 3.06322,3.59352 1.42194,5.42642c-0.66586,0.7436 -1.8486,0.80345 -2.83253,0.97137c-0.2785,0.04753 -0.53132,-0.50973 -0.76884,-0.35675c-0.20085,0.12935 0.32539,0.38072 0.36612,0.61612c0.16606,0.95981 0.29669,4.16998 -0.09515,4.97835c-1.24957,2.57781 -4.37004,1.77165 -6.65485,1.77165z" fill="#c7c7c7" stroke="none" stroke-width="0.5"/><path d="M168.64977,136.45695c0.55499,-0.84456 1.77847,-2.57114 1.67374,-3.42049c0,0 0,-0.75 0.75,-0.75c0.25978,0 0.42959,0.08998 0.54057,0.20762c0.84287,-2.45801 1.93437,-4.72705 3.41802,-6.24775c0.74768,-0.76635 1.7551,-1.3078 2.85292,-1.71438l-0.00114,-0.00205l1.79829,-0.99906c-0.03435,0.00368 -0.07054,0.00562 -0.10866,0.00562c-0.75,0 -0.75,-0.75 -0.75,-0.75l0.12596,-0.66603c0.91509,-1.37264 1.57251,-2.12799 2.85892,-1.67611c0.04378,-0.10292 0.10495,-0.20951 0.18714,-0.3191c0.75,-1 1.75,-0.25 1.75,-0.25c1.00352,0.90523 4.69815,0.95848 5.77484,-0.29215c0.32397,-0.37632 0.25541,-1.02738 0.63493,-1.34761c1.42236,-1.20014 4.24356,-1.18184 6.04549,-1.17986l1.36792,-0.13679c0.04632,-0.00521 0.0934,-0.00787 0.14111,-0.00787c0.69036,0 1.25,0.55965 1.25,1.25c0,0.64884 -0.49435,1.18221 -1.12695,1.24402l-1.27072,0.14119l-0.00156,-0.01405l-0.0422,0.00422l-0.02516,0.01557c-0.06413,0 -0.13918,-0.00099 -0.22349,-0.00257c-0.31426,0.74966 -0.9147,1.44135 -1.36028,2.42208l-0.17207,0.09073l0.06435,0.05515l-0.85186,0.99383c-0.22929,0.27078 -0.57175,0.44268 -0.95436,0.44268c-0.05435,0 -0.10791,-0.00347 -0.16043,-0.0102c-0.74405,0.77589 -2.33926,1.28767 -3.253,1.78594l-0.18866,-0.02083l0.01611,0.07247l-1.2594,0.27986c-0.01814,0.00443 -0.03644,0.00846 -0.05488,0.01209c-0.48852,0.76838 -1.03864,1.51503 -1.02176,2.61333v0.47119c0.05437,0.06723 0.10324,0.13636 0.14714,0.2067c0.84671,0.16344 1.61861,0.56082 1.98426,1.88055c0.59349,2.1421 -3.4734,6.56748 0.19474,3.85241l0.78438,-0.9151c0.02551,-0.03013 0.05242,-0.05903 0.08063,-0.0866v-1.98033h0.16927c-0.02517,-0.35226 -0.00782,-0.70558 0.06675,-1.06038c0.22557,-1.07322 0.74288,-1.79426 1.43863,-2.26958c0.29221,-1.55908 0.68567,-2.9071 2.6342,-3.09886l0.75,1.25c0,0 0,0.03954 -0.00908,0.10047c1.82316,0.1309 3.87273,0.33845 5.71418,0.29635c0.86699,-0.31298 1.7177,-0.70034 2.55088,-1.05172c-0.00394,-0.03114 -0.00597,-0.06289 -0.00597,-0.0951c0,-0.1576 0.04861,-0.30384 0.13165,-0.42456l0.49431,-0.74147l0.00725,0.00484l0.00453,-0.02199c0.22936,-0.30437 0.47084,-0.59943 0.72061,-0.88764l-0.02918,-0.01459l0.49273,-0.98547c0.02577,-0.05437 0.05789,-0.10514 0.0954,-0.15137c-0.2502,-0.46855 -0.39683,-0.94715 -0.18887,-1.38258c0.37733,-0.79004 1.63327,-0.65285 2.48844,-0.84056c1.98663,-0.43607 3.88903,0.02884 5.78533,0.42493c1.26017,0.05166 2.54074,0.21248 3.73035,0.43066h0.54658c0,0 0.4679,0 0.83116,0.28627c0.79363,0.18474 1.51656,0.38858 2.12686,0.59201c0.42395,0.14132 0.82967,0.29619 1.23765,0.42608c0.1353,-0.13272 0.32068,-0.21457 0.52518,-0.21457c0.20711,0 0.39461,0.08395 0.53033,0.21967l0.27807,0.27807c0.10249,0.00779 0.20632,0.01194 0.31174,0.01194l0.0997,0.0808l0.01733,-0.052l0.73359,0.24453c0.30647,0.09425 0.52924,0.3796 0.52924,0.71698c0,0.34991 -0.23962,0.64385 -0.56371,0.72668c2.70285,2.02206 4.82991,5.20364 6.1675,8.53481c1.9409,2.29992 3.14149,5.20285 3.41974,8.13708c0.03616,0.3813 0.31052,2.59824 0.13915,2.98579c-0.02098,0.04746 -0.04271,0.09449 -0.06515,0.14114l0.03718,0.0093l-0.42222,1.68892c-0.04346,0.19152 -0.1309,0.36633 -0.25113,0.51326c0.01481,0.0829 0.02773,0.17052 0.03864,0.26302c0.09908,0.83993 -0.54966,1.57939 -1.26494,2.22258c-0.16851,0.73433 -0.46874,1.38629 -0.95631,1.74325c0.00672,0.15288 0.00883,0.30363 0.00641,0.45134c-0.01891,1.15438 -1.21309,1.88429 -2.14618,2.69259c-0.93031,1.29959 -2.14142,2.49984 -3.05898,3.86574c-1.02199,1.01221 -2.50103,2.57674 -3.8741,3.38448c-0.08446,1.13709 -0.49918,2.32788 -0.95786,3.59897c2.58676,0.12575 5.43487,0.86083 7.84028,0.09039c2.87396,-0.92051 1.41467,-3.36053 3.93795,-4.89922c2.40485,-1.46648 6.75585,-1.16977 9.43527,-1.15288c4.5304,1.30019 5.59727,6.33805 5.59727,10.57397v1.33334c0,0.36694 -0.15811,0.69694 -0.40991,0.92562c0.15289,0.20736 0.24325,0.46365 0.24325,0.74105c0,0.23358 -0.06407,0.45219 -0.17559,0.63923l-0.65577,1.1476l-0.02338,-0.01336c-0.01115,0.03551 -0.02286,0.0709 -0.03518,0.10613c-0.24274,0.69473 -0.75258,1.19097 -1.4171,1.54433c0.08967,0.17239 0.14035,0.3683 0.14035,0.57605c0,0.64351 -0.48628,1.17345 -1.11141,1.2424l-1.31688,0.16461c-1.56657,0.19582 -4.7527,1.04915 -6.10425,-0.1526c-0.08369,-0.07441 -0.16183,-0.15351 -0.23539,-0.23648l-0.03262,0.03262l-1,-1c-0.2262,-0.2262 -0.36611,-0.5387 -0.36611,-0.88388c0,-0.54698 0.35131,-1.01188 0.84061,-1.18141c-1.74364,-0.77662 -3.48569,-1.26046 -5.41338,-0.88306c-0.15003,0.16859 -0.34502,0.2963 -0.56615,0.3643l-0.77564,0.25854c-0.06628,0.282 -0.14823,0.53479 -0.39694,0.59155c-0.19662,0.04486 -0.39463,0.07197 -0.59374,0.08539l0.0274,0.16437l-1.97677,0.32946c-0.07415,0.01371 -0.1506,0.02087 -0.22873,0.02087c-0.04416,0 -0.08778,-0.00229 -0.13075,-0.00676c-0.17932,0.17635 -0.35678,0.35521 -0.53276,0.53595c-0.00271,1.08956 -0.32166,2.02031 -0.32166,3.35308l-0.07021,0.10323l0.0414,0.0138l-0.0657,0.19711c0.32635,0.62378 0.75612,1.14481 1.39764,1.4318c0.48028,0.21485 1.01494,0.24454 1.57555,0.21229c1.7525,-0.32361 3.88582,-0.5551 4.91802,-0.02128c1.57498,0.81453 3.75002,5.26801 2.63381,7.02832c-1.35428,2.13574 -2.37689,1.89618 -2.93469,0.82795c-0.80813,0.46002 -1.59367,0.24542 -2.64554,0.32621c-3.03528,0.23311 -6.04725,1.20675 -9.08839,1.187c-0.04835,0.0169 -0.10711,0.03399 -0.17427,0.05148c-0.19872,0.55134 -0.48386,1.07128 -0.89454,1.54831c-0.01409,0.01637 -0.02845,0.03331 -0.04307,0.05078c0.19307,0.29442 0.07119,0.66003 0.07119,0.66003c-0.15401,0.44071 -0.2212,0.91612 -0.2212,1.38297l-0.06754,0.10412l0.03874,0.01291l-0.24453,0.73359c-0.00884,0.02875 -0.01937,0.05677 -0.03146,0.08393c0.69126,0.62212 1.26811,1.87589 1.50739,2.40829c0.40532,0.90185 1.90907,1.4662 2.47142,2.43893c0.88744,1.53506 1.01265,3.631 1.53263,5.33935c0.35984,-0.0319 0.70818,-0.0165 0.92317,0.01841c1.51829,0.24654 1.93195,1.17688 2.54258,2.25802c0.33598,0.07432 0.58728,0.37396 0.58728,0.7323v0.75h-0.2049c0.0267,0.16896 0.04669,0.33772 0.06067,0.50633c0.38421,0.21326 0.64423,0.6231 0.64423,1.09367v1.25c-0.00248,0.33787 -0.03975,0.67435 -0.10598,1.00728c0.27106,1.53809 0.28623,3.12534 0.1079,4.70209c0.65526,-0.12188 1.38853,-0.07782 2.12958,0.0936c0.82653,-0.17088 1.59803,-0.05937 2.16099,0.48034c0.17023,0.1632 0.28096,0.36148 0.35637,0.58059c1.99042,1.24936 3.31211,3.23958 2.06781,4.92857c-0.18471,0.25072 -0.70541,0.45162 -1.39563,0.60236c-0.18851,0.31242 -0.50985,0.53567 -0.88581,0.59152l-1.47973,0.24662l-0.00745,-0.0447l-0.09495,0.05745c-0.63316,0 -1.31559,0.00504 -2.00484,0.03825c-0.82704,0.20001 -1.75362,0.24412 -2.64402,0.32658c-0.12997,0.03 -0.25789,0.06245 -0.38341,0.09756c-0.78179,0.21865 -1.78693,0.60938 -2.82842,0.90336c0.00501,0.04549 0.00759,0.0917 0.00759,0.13852c0,0.69036 -0.55964,1.25 -1.25,1.25h-1.17262c-0.49229,0.08214 -1.14428,0.22682 -1.85389,0.42096c-0.7284,0.8193 -1.90086,1.27991 -3.08905,1.6858c-0.06618,0.30889 -0.11606,0.63138 -0.24331,0.90346c-0.59653,1.27537 -2.78639,4.22237 -4.71485,5.55816c-0.39478,1.05493 -1.20172,1.74461 -3.24134,1.4412c-2.64353,-0.39325 -2.13931,-2.88415 -2.47191,-4.79268c-0.37349,-0.08774 -0.6824,-0.34297 -0.84317,-0.6821l-0.54732,-1.09464c-0.87777,0.19925 -1.80845,0.13182 -2.47711,0.54271c0.3119,0.98362 -0.05621,1.67353 -0.65926,2.21926l0.06383,0.04788l-0.74127,0.98836c-0.22746,0.31022 -0.59458,0.51164 -1.00873,0.51164c-0.0246,0 -0.04902,-0.00071 -0.07327,-0.00211c-0.69395,1.74629 -1.83758,2.93716 -4.01543,1.31962c-0.34239,-0.2543 -0.58699,-0.57333 -0.7943,-0.91725l-0.867,-0.65025l0.01041,-0.01388l-0.02594,0.00205c-0.96059,-0.76847 -1.96827,-1.51904 -2.90792,-2.31108c-0.89175,-0.54707 -1.79924,-1.09492 -2.64556,-1.73277l-0.04667,-0.07865l-0.01821,0.01821l-1.25,-1.25c-0.2262,-0.2262 -0.36612,-0.5387 -0.36612,-0.88388c0,-0.28942 0.09836,-0.55587 0.26348,-0.76775c-0.14727,-0.2205 -0.27601,-0.44621 -0.38276,-0.67761c-0.5485,-0.10539 -1.23907,-0.08922 -1.56782,-0.47739c-0.46364,-0.54744 -0.50513,-1.3622 -0.56291,-2.07726c-0.03778,-0.46758 0.07136,-1.026 0.2808,-1.58554c-1.29367,-2.08026 1.04344,-3.58749 3.42709,-3.65594l0.22707,-0.07569l0.22657,-0.01743l0.21045,-0.08573l0.78995,-0.11285l-0.10307,-0.41227v-0.06966l-0.01558,-0.0701l0.01558,-0.02337v-0.83688l0.09747,-0.38988l0.03082,-0.40069l0.33334,-1l0.03838,-0.0603v-0.15268l-0.01558,-0.02336l0.01558,-0.0701v-0.06966l0.13932,-0.55728l0.12461,-0.56075l0.03116,-0.06231l0.01741,-0.06966l0.02438,-0.01393l0.29154,-0.58308l0.01028,-0.04112l-0.06938,-0.11562l0.0503,-0.18444l-0.11962,-0.47848v-0.07649l-0.11553,-0.23106l-0.15224,-0.09134l-0.33333,-0.33333l-0.0625,-0.10417l-0.1081,-0.06485l-0.31164,-0.07791l-0.09485,-0.16598l-0.03586,-0.02152h-1.95262l-0.3935,-0.09838l-0.12854,-0.01028l-0.74708,0.87159l-0.09856,0.00547l-0.04898,0.08571l-0.40555,0.10139l-0.15695,0.62777l-0.08571,0.04898l-0.00547,0.09857l-0.24723,0.21191l-0.11302,0.50858l-0.03115,0.06231l-0.01741,0.06966l-0.02438,0.01394l-0.04154,0.08308l-0.09424,0.37694l-0.12461,0.56076l-0.03115,0.06231l-0.01741,0.06966l-0.02438,0.01393l-0.09372,0.18743l-0.13284,0.15498l-0.00692,0.12454l-0.37626,0.32251l-0.06053,0.07062l-0.09622,0.1512l-0.29554,0.49257l-0.04926,0.04926l-0.03855,0.06058l-0.02754,0.00551l-0.21799,0.21799l-0.3446,0.20676l-0.30513,0.26154l-0.66666,0.33333l-0.26877,0.05973l-0.24293,0.12956l-0.66666,0.16667h-0.30776l-0.29857,0.07464h-2.00355l-0.02336,0.01558l-0.07009,-0.01558h-0.06966l-0.55728,-0.13932l-0.56075,-0.12461l-0.06231,-0.03116l-0.06966,-0.01741l-0.01393,-0.02438l-0.52077,-0.26038l-0.30512,-0.26154l-0.34461,-0.20676l-0.66667,-0.66666l-0.1977,-0.3295l-0.63085,-0.54072l-0.00548,-0.09857l-0.08571,-0.04898l-0.04611,-0.18442l-0.19604,-0.16804l-0.00547,-0.09857l-0.08571,-0.04898l-0.04611,-0.18442l-0.19604,-0.16804l-0.00692,-0.12454l-0.04425,-0.05161l-0.28879,-0.28879l-0.31373,-0.07843l-0.19352,-0.33867l-0.3755,-0.1056l-0.60634,-1.13689l-0.16666,-0.66667v-0.03354l-0.73777,-1.47553l-0.02438,-0.01394l-0.01741,-0.06966l-0.03115,-0.06231l-0.12462,-0.56076l-0.13932,-0.55728v-0.06966l-0.01558,-0.0701l0.01558,-0.02336v-0.07498l-0.02083,-0.0119l-0.07791,-0.31163l-0.16527,-0.27545l0.0472,-0.17305l-0.18592,-0.37183l-0.03904,-0.17566l-0.0966,-0.15181l-0.11048,-0.33145l-0.51427,-1.02852l-0.02438,-0.01394l-0.01741,-0.06966l-0.03115,-0.06231l-0.01498,-0.0674l-0.1786,-0.15309l-0.00548,-0.09857l-0.08571,-0.04898l-0.14934,-0.59735l-0.22647,-0.37745l-0.3084,-0.48463l-0.02203,-0.06608l-0.03694,-0.06157l0.00022,-0.00081l-0.12296,-0.08197l-0.1675,-0.18425l-0.21352,-0.12811l-0.12029,-0.12029l-0.20177,-0.17294l-0.34461,-0.20676l-0.12029,-0.12029l-0.15914,-0.13641l-0.04981,-0.01107h-0.06966l-0.55728,-0.13932l-0.12306,-0.02734h-2.43895l-0.03587,0.02152l-0.09485,0.16598l-0.31164,0.07791l-0.27545,0.16527l-0.18443,-0.0503l-0.4496,0.1124l-0.07165,0.04559l-0.5,0.16666l-1.28467,0.09883l-0.38612,-0.34548l-0.51732,-0.02873l-0.83853,-0.97828l-0.09372,-0.18743l-0.02438,-0.01394l-0.01741,-0.06966l-0.03115,-0.06231l-0.12461,-0.56076l-0.13932,-0.55728v-0.06966l-0.01558,-0.0701l0.01558,-0.02336v-0.40831l-0.02083,-0.01191l-0.01741,-0.06966l-0.03116,-0.06231l-0.12461,-0.56075l-0.0109,-0.04361l-0.03115,-0.06231l-0.12461,-0.56076l-0.13932,-0.55728v-0.06966l-0.01558,-0.0701l0.01558,-0.02336v-0.07498l-0.02083,-0.0119l-0.01741,-0.06966l-0.03116,-0.06231l-0.12461,-0.56076l-0.09423,-0.37694l-0.20821,-0.4164l-0.02438,-0.01394l-0.01741,-0.06966l-0.03116,-0.06231l-0.10497,-0.4724l-0.05483,-0.09139l-0.18425,-0.1675l-0.33334,-0.5l-0.03383,-0.09473l-0.07354,-0.04202l-0.13658,-0.54632l-0.1894,-0.53033l0.03788,-0.07576l-0.02439,-0.09759v-2.16666l0.07465,-0.29857v-0.30777l0.13005,-0.52021l0.14794,-1.18354l0.01888,-0.04878l-0.00417,-0.05213l0.16666,-1l0.04063,-0.09345v-0.1019l0.20439,-0.81754c-2.31775,-2.38761 -0.98177,-11.3001 -0.9457,-13.42312c0.14996,-8.8251 3.86184,-21.51945 8.05823,-29.42871c0.90096,-1.69811 1.85563,-6.31655 3.97636,-7.77687zM170.39875,136.73593c0.02964,-0.12154 0.05967,-0.24339 0.09012,-0.36547c-0.07468,0.11772 -0.15005,0.23385 -0.2254,0.34812c0.04601,0.00517 0.0911,0.01096 0.13528,0.01736zM181.90748,122.1605c-1.10721,-0.81581 -1.05211,-0.19476 -1.70994,0.79199l0.12596,-0.16603c0,0 0,0.25906 -0.15225,0.47267l0.67292,-0.37385c0.36857,-0.21407 0.79688,-0.33666 1.2538,-0.33666c0.20597,0 0.40614,0.02491 0.59763,0.07188c0.07231,-0.11772 0.15679,-0.23515 0.25534,-0.34687c-0.07024,-0.033 -0.13913,-0.06703 -0.20658,-0.1021c-0.38965,0.28712 -0.83688,-0.01103 -0.83688,-0.01103zM201.0735,147.03646c0.02302,0 0.0458,0.00104 0.06829,0.00307c0.04041,-0.05412 0.08088,-0.10816 0.12141,-0.16213c-0.09331,0.05529 -0.18624,0.11005 -0.27885,0.1643c0.02924,-0.00346 0.05899,-0.00524 0.08915,-0.00524zM231.95163,186.56472c-0.26313,0.11449 -0.54253,0.21376 -0.82865,0.30033c0.35815,-0.06101 0.66358,-0.15511 0.82865,-0.30033zM224.32546,182.17917c0.00652,0 0.01302,0.00005 0.01951,0.00015c-0.01322,-0.01175 -0.02643,-0.02356 -0.03961,-0.03543c-0.00195,0.0119 -0.00384,0.02375 -0.00566,0.03554c0.00856,-0.00017 0.01715,-0.00026 0.02576,-0.00026zM238.64107,164.46744c-0.11988,-0.01223 -0.23588,-0.00514 -0.34821,0.01902c0.05079,0.06468 0.09847,0.13195 0.14279,0.20154c0.06749,-0.07509 0.136,-0.14869 0.20542,-0.22056zM177.71567,187.02431l0.05068,-0.20271l-0.00308,-0.0386h-0.2182l0.17061,0.42652zM167.48646,149.80339l0.12811,-0.21352l0.04647,-0.04647l0.03196,-0.06392c-0.09733,0.12704 -0.19114,0.25652 -0.28005,0.39073zM161.90317,193.77431l-0.13922,0.07955l0.0161,0.01878l0.01771,-0.00259l0.43864,0.04386l-0.00443,-0.00442l-0.06058,-0.03855l-0.00551,-0.02754l-0.21799,-0.21799l-0.0053,-0.00883zM193.26262,153.12612c-0.01399,0.00407 -0.02796,0.00817 -0.04191,0.01229l0.03508,0.00365c0.00226,-0.00526 0.00454,-0.01057 0.00683,-0.01594z" fill="#9e9b9b" stroke="none" stroke-width="0.5"/><path d="M162.69979,207.96735c-0.89443,-0.44721 -0.44721,-1.34164 -0.44721,-1.34164l0.42118,-0.78254c0,-2.96815 1.93905,-4.58632 4.55796,-2.58149c1.79629,1.37509 2.57116,3.62108 3.72653,5.22653c0.41442,0.57587 0.12576,1.48255 0.53941,2.05898c0.77116,1.07464 1.81956,2.13009 2.54377,3.57852c0.28735,0.5747 1.19949,3.3531 1.6313,3.59656c0.34555,0.19483 0.90088,-0.13696 1.18138,0.14354c0.2805,0.2805 -0.01118,0.8161 0.14355,1.18138c0.07545,0.17812 2.06946,0.02479 2.14935,0.02573c1.54215,0.01817 3.69408,-1.1083 4.79289,-2.20711c1.6199,-1.6199 0.56109,-3.96483 2.82442,-5.21677c0.23942,-0.13243 2.30036,-0.05616 2.61244,-0.04937c2.93535,1.71589 1.87358,4.50077 0.69413,6.85593c-0.17096,0.34138 0.15269,0.83527 -0.07323,1.14305c-0.74645,1.01694 -3.62266,1.00176 -3.92677,1.85695c-1.31458,3.69667 1.34533,6.99057 3.66083,9.30608c0.42198,0.26183 0.98123,0.37861 1.26594,0.78551c0.15883,0.22699 -0.33944,0.62273 -0.14355,0.81862c0.1959,0.1959 0.58811,-0.29722 0.81862,-0.14354c0.67321,0.4488 1.39082,2.10433 2,2.5c0.27955,0.18157 0.72438,-0.18746 1,0c1.2742,0.86662 1.73377,2.88816 3.74452,2.3774c1.58744,-0.40323 1.51578,-1.4823 2.75789,-2.40843c0.20962,-0.1563 0.55035,0.32424 0.76475,0.17457c0.51716,-0.36103 -0.21546,-3.49468 1.18138,-4.14354c0.6764,-0.3142 1.48856,0.09569 2.23284,0.14354c0.13918,1.1455 1.44179,1.86995 1.76614,2.97735c0.27598,0.94227 -0.20681,2.05962 0,3c0.52131,2.37051 2.92332,0.56074 4.297,0.25651c2.57948,-0.57129 2.6715,-6.3774 5.70402,-6.3774c0.67729,-1.82055 2.5808,-2.08839 3.81862,-3.35646c0.30994,-0.31752 0.29851,-0.91927 0.68138,-1.14354c0.6613,-0.38738 1.55315,0.06609 2.29598,-0.1226c1.85921,-0.47226 3.22676,-1.50712 5.22976,-1.52675c1.70351,-0.01669 6.21898,0.57553 7.02675,-1.22975c-0.03452,-0.99397 0.04896,-2.28032 -0.73386,-3.06314c-1.99666,-1.99666 -5.73919,0.02888 -6.76614,-3.47736c-0.37724,-1.28797 0.19545,-2.3203 0.5,-3.45951c0.52239,-1.95408 0.00639,-4.81098 -0.73386,-6.56314c-1.50876,-0.67509 -3.42322,0.52357 -4.64355,-1.18138c-0.79942,-1.11687 0.69572,-3.8989 -0.35645,-4.81862c-2.18327,-1.90845 -6.50552,-6.4087 -3,-9.91422c0.22109,-0.22109 2.1741,-1.12197 2.47735,-1.26614c3.5385,-0.07698 7.10841,0.22442 10.34707,-0.95063c4.10889,-1.49079 0.79175,-7.67715 -2.11731,-7.57612c-1.0384,0 -3.49167,0.41674 -4.38269,-0.07612c-2.24372,-1.24109 -1.95512,-4.00029 -0.32442,-5.63099c1.04573,-1.04573 3.31364,-1.0112 4.18138,-1.64354c0.30119,-0.21948 0.17586,-0.81609 0.5,-1c1.13513,-0.64405 4.35297,-0.23633 5.23284,0.64354c0.75885,0.75885 0.51595,3.16371 1.02265,3.23386c1.91809,-0.06662 3.85106,-0.05575 5.77025,-0.02675c0.38844,0.00587 1.95307,-0.15353 2.14934,-0.52573c0.74061,-1.40447 1.53709,-2.79949 2.42678,-4.35695c0.88025,-1.54093 -0.57297,-5.30074 -0.54937,-6.88756c-0.19951,-0.3707 -0.95327,-1.73995 -1,-2c-0.03457,-0.19242 0.42734,-0.41203 0.26614,-0.52264c-0.22843,-0.15675 -0.59163,0.30237 -0.81862,0.14354c-0.7011,-0.49055 -0.88543,-1.51166 -1.55898,-2.03941c-1.19925,-0.93966 -4.48901,-0.31124 -5.91529,-0.31124c-1.27168,0 -3.29421,-0.35002 -4.2929,0.70711c-1.2444,1.31723 -1.16688,2.04894 -2.5,3.5c-0.89024,0.87575 -1.21645,1.43014 -2.47735,1.76614c-1.6612,0.44267 -4.55718,0.1795 -6.22975,0.02675c-0.57496,-0.05251 -1.29886,0.11536 -1.70711,-0.29289c-0.22484,-0.22484 -0.40302,-2.46954 -0.26614,-2.93686c0.24841,-0.84813 1.14123,-1.35244 1.76614,-1.97735c1.25,-1.25 2.25,-2.75 3.5,-4c1.04009,-1.04009 2.29845,-1.5969 3,-3c0.56321,-0.20953 0.58205,-1.06823 1,-1.5c0.23183,-0.23951 0.72849,0.19337 1,0c0.15924,-0.11341 -0.29582,-0.32941 -0.26614,-0.52265c0.12037,-0.78377 0.19499,-1.62818 0.62259,-2.29598c0.23927,-0.37367 0.80947,-0.38935 1.14355,-0.68138c0.40462,-0.35369 0.23059,-1.61726 0.35645,-1.81862c0.19753,-0.31602 0.75489,-0.21927 1,-0.5c0.05521,-0.06322 -0.14934,-2.2474 -0.14934,-2.47427c0,-3.16875 -0.11183,-4.90671 -1.47325,-7.77025c0,-1.06511 -0.97029,-1.89642 -1.45063,-2.84707c-0.62072,-1.22847 -1.33619,-3.18825 -2.60186,-4.03203c-0.33006,-0.22004 -0.90779,0.14371 -1.18138,-0.14354c-0.30853,-0.32394 -0.01031,-0.92757 -0.21677,-1.32443c-0.83104,-1.59744 -1.63128,-3.02362 -2.78323,-4.17558c-0.37773,-0.37773 -0.49518,-1.14936 -1.02265,-1.23386c-1.16907,-0.18727 -2.5804,0.02675 -3.77024,0.02675c-1.47412,0 -3.84451,0.44669 -5.22976,-0.02675c-0.72628,-0.24822 -1.26761,-1.02783 -1.47735,-1.76614c-0.03773,-0.13281 -0.15823,0.26238 -0.29289,0.29289c-0.65019,0.14729 -1.33334,0 -2,0c-0.50714,0 -3.19915,-0.35252 -3.47427,-0.14934c-0.83957,0.62002 -0.70909,2.94733 -1.17508,3.67508c-0.51943,0.81121 -2.27229,2.00744 -3.1209,2.44752c-2.0761,0.04516 -4.15319,0.02675 -6.22975,0.02675c-0.2218,0 -2.41719,-0.20025 -2.47427,-0.14934c-1.16939,1.04287 -2.22839,2.73212 -2.94624,4.52714c-0.06876,0.76752 -0.3111,1.56702 -0.61986,2.32955c0.0666,0.63557 0.34193,1.45076 -0.10898,1.81839c-0.139,0.11333 -0.29194,0.19935 -0.45459,0.2664l0.05114,0.10229l-0.982,0.491c-0.13897,0.07316 -0.29725,0.11457 -0.4652,0.11457c-0.55229,0 -1,-0.44771 -1,-1c0,-0.16796 0.0414,-0.32624 0.11457,-0.4652l0.491,-0.98201c0.13754,-0.27508 0.32154,-0.64137 0.49777,-1.04462c0.04225,-0.75248 0.25367,-1.62537 0.53146,-2.42559c-0.07742,-0.36611 -0.29361,-0.64688 -0.71952,-0.77133c-0.94809,-1.01138 -2.17028,-1.63622 -1.26595,-3.33697c0.74071,-1.39302 3.46915,-1.21082 4.32492,-1.82492c0.24748,-0.17759 0.10085,-0.64348 0.31862,-0.85645c0.61058,-0.59715 2.40165,-0.78434 2.78323,-1.67557c0.63469,-1.4824 1.30434,-2.63313 2.97666,-3.51175c0.33454,-0.17576 0.80785,-0.49212 1.34532,-0.83491c-2.15489,-0.15466 -4.36122,-0.25645 -6.16835,0.20258c-2.92685,0.74345 -3.61381,3.52675 -6.22975,3.52675c-2.3672,0 -2,-1.1434 -2,-3c0,0 0,-1 1,-1c1,0 1,1 1,1c0,0.44188 -0.2929,1.2929 -0.2929,1.2929c0,0 0.80449,0.22774 1.08579,0c0.21532,-0.17432 -0.30645,-0.59454 -0.14355,-0.81862c0.76746,-1.0557 3.78426,-2.61675 5.1209,-2.94751c3.21258,-0.79497 7.40521,-0.02676 10.72976,-0.02676h1.5c0.55229,0 1,0.44772 1,1c0,0.3992 -0.23392,0.74377 -0.57217,0.90412l-0.98063,0.49031l-0.01755,-0.03511c-0.06424,0.04134 -0.13075,0.07949 -0.19991,0.11393c-0.70047,0.34885 -1.66816,-0.43852 -2.34707,-0.04937c-0.78772,0.45152 -3.05059,1.62166 -3.67558,2.28323c-1.23942,1.31195 -1.06699,2.34072 -2.62239,3.60413c-0.47544,0.38619 -1.19795,0.40194 -1.69394,0.74232c0.63134,-0.07259 1.72516,-0.05357 2.10923,-0.05357c2.25485,0 4.51674,-0.05151 6.77024,0.02676c2.45048,-1.09646 1.45738,-4.42046 3.70402,-5.87741c1.10308,-0.71535 5.19734,-0.29308 6.52573,-0.14935c0.574,0.06211 1.25552,-0.06684 1.7071,0.2929c0.31027,0.24717 -0.01118,0.81611 0.14355,1.18138c0.14947,0.35286 0.76618,0.03152 1.14935,0.02573c1.33259,-0.02013 2.66723,0 4,0c3.04915,0 5.13479,-0.02724 7.2071,2.2929c0.57581,0.64467 0.59218,1.63067 0.76614,2.47736c0.16815,0.81839 1.12508,1.16475 1.45064,1.84707c0.10184,0.21345 -0.39397,0.51894 -0.21678,0.67557c0.20756,0.18348 0.58811,-0.29722 0.81862,-0.14355c1.63626,1.09084 2.62463,3.40065 3.39815,4.96797c0.61956,1.25536 1.54936,1.48109 1.54936,3.15293c1.53728,2.85623 1.52676,5.05233 1.52676,8.22975c0,0.86653 0.26559,2.7944 -0.14935,3.52573c-0.18391,0.32414 -0.78052,0.19881 -1,0.5c-0.44648,0.61268 -0.13532,1.61884 -0.64355,2.18138c-0.2042,0.22602 -0.67886,0.07115 -0.85645,0.31862c-0.33068,0.4608 -0.1892,2.65124 -0.64355,3.18138c-0.21692,0.2531 -0.75904,-0.23032 -1,0c-0.20027,0.19142 0.29722,0.58811 0.14355,0.81862c-0.24613,0.36919 -0.76237,0.45425 -1.14355,0.68138c-0.97329,1.94658 -3.46806,3.96806 -5,5.5c-0.62636,0.62636 -2.5842,1.58838 -2.73386,2.52264c-0.05778,0.36071 -0.26614,1.06314 -0.26614,1.06314c0,0 1.18734,-0.29289 1.7929,-0.29289c2.29494,0 4.11755,0.5031 5.79289,-1.20711c1.15069,-0.99253 1.32228,-2.37085 2.5,-3.5c2.02903,-1.94536 8.8218,-1.96299 11.43686,-1.26614c1.59295,0.42448 1.85016,2.02795 2.79598,2.6226c0.33583,0.21114 0.91715,-0.15234 1.18138,0.14354c0.16083,0.1801 1.07202,3.06905 1.26614,3.47735c0.029,2.24105 1.47235,5.85021 0.45064,8.11244c-0.18602,0.41187 -1.41627,2.99181 -1.71678,3.32443c-0.2042,0.22602 -0.69054,0.06318 -0.85645,0.31862c-0.18157,0.27955 0.20018,0.73346 0,1c-0.17049,0.22702 -2.22561,1.34969 -2.6209,1.44751c-2.17663,0.53861 -5.21734,0.04878 -7.45951,0c-0.5403,-0.31584 -1.25664,-0.4386 -1.6209,-0.94751c-0.55898,-0.78096 0.55633,-2.82255 -0.8791,-3.05249c-0.23087,-0.03698 -2.21526,-0.14814 -2.24452,-0.12259c-0.28073,0.24511 -0.18398,0.80247 -0.5,1c-0.97805,0.61134 -2.84215,0.37999 -3.81862,1.35646c-0.40257,0.40257 -1.28181,2.02855 -0.32442,2.36901c0.83961,0.29857 2.68748,-0.07612 3.61732,-0.07612c3.65501,0.07951 7.82403,5.56005 5.31124,9.08471c-2.7841,3.90523 -8.68516,3.54122 -13.08149,3.38854c-5.54411,2.98395 1.32226,6.1517 2.24349,9.297c0.28415,0.97017 -0.47233,2.90219 -0.12259,3.70402c0.21982,0.504 1.0995,0.02573 1.64935,0.02573c0.94028,0 1.87239,0.36002 2.7071,0.79289c1.28026,2.34679 1.91202,5.70283 1.26614,8.43686c-0.18039,0.7636 -1.08247,2.24681 -0.26614,3.06314c0.62872,0.62872 2.6952,0.51787 3.52265,0.73386c3.12308,0.81521 3.8053,3.36189 3.74349,6.203c-2.14054,4.1276 -6.16212,1.78607 -9.74349,2.74349c-4.08207,1.09128 -7.9275,2.05675 -10.20402,5.87741c-1.03869,0 -2.08161,1.34807 -2.67508,2.17508c-0.70606,0.98391 -0.9014,3.3753 -2.32492,4.32492c-2.38422,1.59049 -7.11417,1.69955 -7.99898,-1.6209c-0.2536,-0.9517 0.15347,-2.04193 0,-3c-0.12725,-0.79437 -0.68465,-0.79004 -1.01718,-1.05087c-0.06468,1.10969 -0.5674,2.76959 -0.80247,3.02823c-0.27969,0.30773 -0.90325,-0.07583 -1.23525,0.17457c-1.58729,1.19714 -3.14113,3.79015 -5.85454,2.5422c-1.0656,-0.49008 -1.88864,-2.08323 -2.64305,-2.57323c-0.27955,-0.18157 -0.72438,0.18746 -1,0c-0.68209,-0.46391 -1.38282,-2.08855 -2,-2.5c-0.33006,-0.22004 -0.90088,0.13696 -1.18138,-0.14354c-0.38863,-0.38863 -0.35005,-1.24172 -0.8776,-1.39587c-2.9769,-2.9769 -4.41529,-5.0827 -4.41529,-9.31124c0,-0.34606 -0.01833,-2.21194 0.07612,-2.38268c1.03506,-1.87124 3.43512,-0.93806 4.07322,-2.14305c0.27047,-0.51075 1.86233,-4.82916 0.6209,-5.00102c-2.92489,0.10159 -1.60641,2.77714 -3.56314,4.73386c-1.98006,1.98006 -7.6752,4.66692 -10.05776,1.81862c-0.17775,-0.21249 0.33944,-0.62273 0.14355,-0.81862c-0.1959,-0.1959 -0.59664,0.30929 -0.81862,0.14354c-1.03583,-0.77344 -1.78896,-3.24397 -2.3687,-4.40344c-0.34728,-0.69457 -0.76522,-2.20571 -1.31268,-2.7401c-0.31752,-0.30994 -0.90427,-0.3077 -1.14355,-0.68138c-0.23399,-0.36542 -0.02241,-0.87378 -0.12259,-1.29598c-0.28352,-1.19484 -1.63576,-2.73497 -2.338,-3.64504c-0.2899,-0.3757 -1.81459,-2.82201 -2.37253,-2.63603c-0.07864,0.02622 -0.34298,2.08169 -0.34298,2.28107l-0.57882,1.21746c0,0 -0.44721,0.89443 -1.34164,0.44721zM191.14257,126.7374c-1.37941,0.25423 -3.2527,0.36394 -1.91085,1.52429c0.18684,0.11593 0.35357,0.24018 0.5017,0.3718c0.07137,-0.10475 0.14064,-0.19478 0.20648,-0.26766c0.32468,-0.35936 0.73765,-1.00161 1.20267,-1.62842z" fill="#c7c7c7" stroke="none" stroke-width="0.5"/><path d="M284.434,190.01975c1.35681,0.16006 2.44822,0.52849 3.80375,0.76912c0.8074,0.14333 2.36783,0.25855 2.92951,0.92248c1.30468,1.54221 0.67716,6.17977 0.67085,8.08443c0.14475,0.86851 0.55545,3.09042 0.09004,3.89727c-0.91405,1.58465 -1.93148,0.14199 -2.6912,0.90785c-0.80788,0.81442 -0.25409,2.41468 -2.08639,2.50434c-2.55861,0.1252 -0.95953,-2.37625 -2.09344,-2.52482c-1.9913,-0.2609 -4.26881,3.26106 -5.37948,-0.48222c-0.00887,-2.20586 -1.07192,-4.88723 -0.49012,-7.04907c0.35672,-1.32551 1.96628,-1.18741 1.84115,-2.34716c-0.03206,-0.29717 -1.03234,-0.56402 -1.07435,-0.48068c-0.26998,0.53556 -0.08273,1.33783 -0.55071,1.71293c-1.80048,1.44316 -3.7061,-0.60743 -4.05931,-2.16936c0,-1.12587 -1.28839,-4.69393 -0.33868,-5.5432c2.96653,-2.65279 6.47654,1.28883 9.06545,1.73386l0.01958,-0.01456c0,0 0.16696,0 0.34333,0.07878z" fill="#9c9c9c" stroke="none" stroke-width="0.5"/><path d="M299.16918,197.40152c-1.30108,-2.75316 4.28856,-1.79504 5.66979,-3.51317c0.41693,-0.51862 0.59022,-2.0421 0.90085,-2.67128c0.35097,-0.86229 1.12065,-2.70784 2.50165,-2.26077c2.9712,0.96185 -0.77614,3.21052 0.61116,4.94513c0.87996,1.10027 4.48009,0.21714 4.8591,1.20241c1.06991,2.78132 -3.82399,2.0038 -5.12105,2.0038c-0.4796,-0.00137 -0.93525,-0.38416 -1.4073,-0.29942c-0.66495,0.11937 -0.06751,1.35327 -0.18832,2.01796c-0.25916,1.4259 -0.65219,4.11812 -2.31434,4.73616c-2.62671,0.97669 -3.63058,-4.26189 -5.2067,-5.43804c0,0 -0.39152,-0.29364 -0.30482,-0.72279z" fill="#9c9c9c" stroke="none" stroke-width="0.5"/><path d="M239.24282,107.19561c0.22213,-0.23033 0.56352,-0.23033 0.56352,-0.23033c3.52373,0 7.10108,0.16856 10.54653,-0.32365c1.41581,-0.20226 3.98211,-0.91809 5.40715,-0.28593c1.28039,0.56799 2.09489,3.01623 2.11997,4.23944c0.34607,1.00341 2.55504,7.01624 -0.5793,6.51674c-0.84669,-0.13493 -0.79162,-1.7641 -1.13234,-2.33564c-0.86626,-1.4531 -2.73853,-1.49224 -4.24188,-1.32065c-2.31224,0.26392 -3.31979,4.2402 -4.83312,5.61926c-0.19996,0.00887 -1.95988,0.10599 -2.28701,0.05709c-0.17094,-0.02555 -0.40159,-0.37853 -0.46967,-0.21967c-0.68263,1.59281 1.81695,4.10693 -1.65047,3.87665c-2.97678,-0.19769 -6.24005,-3.52856 -5.26435,-6.62432c0.16556,-0.52528 1.15955,-1.68118 0.72323,-2.42877c-0.32385,-0.55488 -1.97349,-0.94785 -2.53574,-1.49023c-1.28954,-1.28954 -4.9386,-4.36655 -1.75668,-5.88991c1.64783,-0.78891 3.64125,0.46136 5.39016,0.8399z" fill="#a4a3a3" stroke="none" stroke-width="0.5"/><path d="M221.61068,237.39139c-1.07679,-0.10978 -1.07679,-1.24146 -1.07679,-1.24146c0.04112,-0.84716 -0.26691,-1.78845 0.12337,-2.54148c1.91761,-3.7 6.78639,-2.77873 9.83944,-3.67507c1.05259,-0.30903 1.71331,-1.4007 2.69737,-1.88554c2.35213,-1.15887 6.01698,-1.34615 8.58982,-1.14791c0.70431,0.05427 1.56065,-0.18834 2.1026,0.26475c1.18043,0.98688 0.82312,3.36868 0.78063,4.69806c0.74313,1.63905 2.55767,1.03719 4.11677,1.03719c2.82022,0 7.9436,-0.65536 9.42109,2.63413c1.7794,3.96169 -5.00919,5.26599 -7.8426,5.8416c-0.5455,0.11082 -1.09186,0.21742 -1.63758,0.32716c-0.4605,0.09259 -1.49819,-0.13891 -1.37371,0.31401c0.27257,0.99171 0.77774,1.92633 0.92099,2.94479c-0.82928,0.57543 -1.55937,1.33038 -2.48785,1.72629c-0.71977,0.30692 -1.63582,-0.47587 -2.34317,-0.14133c-0.48365,0.22874 -0.08135,1.06839 -0.07383,1.60335c0.02344,1.66796 0.34815,3.61934 -1.07028,4.91985c-1.54908,1.42031 -1.90602,0.5829 -3.36804,1.235c-1.69321,0.75521 -3.37242,1.62809 -5.19116,2.06171c-4.55687,1.08643 -9.26837,-3.44423 -11.12622,-7.11621c-0.28593,-1.14933 -0.6846,-2.16708 -0.37754,-3.38754c0.42363,-1.68374 2.46313,-2.54918 2,-4.42562c-0.38184,-1.54707 -1.83749,-2.56159 -2.62332,-4.04573z" fill="#d1d1d1" stroke="none" stroke-width="0.5"/><path d="M253.88967,229.31472c-0.06614,-0.28447 0.00014,-0.54453 0.09359,-0.7451c0.07995,-0.21947 0.2282,-0.46439 0.50308,-0.61808c1.33088,-1.17156 2.56558,-1.25343 4.11611,-2.0316c1.09308,-0.54859 1.94316,-1.52518 3.05886,-2.02617c0.61259,-0.27508 1.43171,-0.34631 1.79764,-0.90937c1.50016,-2.30842 0.67178,-4.52343 1.49135,-6.98704c1.21936,-3.66539 3.71394,-6.11064 7.11703,-7.79775c2.34598,-0.48344 8.49378,-3.03225 8.3062,1.71591c-0.03773,0.95514 -2.09771,2.2006 -2.74819,2.74409c-1.91388,1.59908 -3.63626,4.44022 -5.13828,6.45323c-1.35931,1.82173 -0.98506,4.82558 -1.8592,6.74747c-0.66366,1.45913 -2.59387,2.6227 -3.92917,3.30635c-2.64757,1.32378 -5.35701,2.41513 -8,3.66666c-1.426,0.67524 -2.51,1.54781 -4.10957,0.09919c-0.83593,-0.75704 -0.69316,-2.55226 -0.69945,-3.55055z" fill="#cdcdcd" stroke="none" stroke-width="0.5"/><path d="M156,180c0,-46.39192 37.60808,-84 84,-84c46.39192,0 84,37.60808 84,84c0,46.39192 -37.60808,84 -84,84c-46.39192,0 -84,-37.60808 -84,-84z" fill-opacity="0.4193" fill="#c7c7c7" stroke="#989898" stroke-width="2"/><g stroke="none"><path d="M265.80199,174.83344c0,-6.51542 5.28179,-11.79722 11.79722,-11.79722c6.51542,0 11.79723,5.2818 11.79723,11.79722c0,6.51542 -5.2818,11.79722 -11.79723,11.79722c-6.51542,0 -11.79722,-5.2818 -11.79722,-11.79722z" fill="#ffffff" stroke-width="0.5"/><path d="M198.80682,184.32423c0,0.24456 0.14956,1.42554 0.06319,1.65617c-0.14379,0.38396 -0.60717,0.90383 -0.88319,0.90383c-0.44183,0 -0.8,-0.76831 -0.8,-1.42c0,-0.65169 0.07817,-2.28 0.52,-2.28c0.44183,0 1.1,0.48831 1.1,1.14z" fill="#78c17c" stroke-width="0"/><path d="M268.34966,175.00011c0,-5.10863 4.14137,-9.25 9.25,-9.25c5.10863,0 9.25,4.14137 9.25,9.25c0,5.10863 -4.14137,9.25 -9.25,9.25c-5.10863,0 -9.25,-4.14137 -9.25,-9.25z" fill="#052f01" stroke-width="0.5"/><path d="M246.08882,198.0265c-0.09425,0.08078 -0.19773,0.16375 -0.30939,0.24805c-0.29903,0.33925 -0.61353,0.65216 -0.93986,0.93053c-0.13873,0.14246 -0.28014,0.27454 -0.42375,0.39473c-0.12152,0.14819 -0.25946,0.29088 -0.41791,0.4267c-1.22108,1.04664 -3.82803,0.94231 -5.193,0.45482c-4.06026,-1.4501 -9.8109,-9.4091 -10.81704,-13.43367c-0.77176,-3.08703 0.85017,-5.44106 3.88523,-5.61746c0.00417,-0.00024 0.00834,-0.00047 0.01252,-0.0007c0.36898,-0.12623 0.72393,-0.16098 1.06615,-0.11867c0.17933,-0.04086 0.36599,-0.06244 0.55769,-0.06244c0.04575,0 0.09122,0.00123 0.13636,0.00366c0.04514,-0.00242 0.09062,-0.00366 0.13637,-0.00366c0.37778,0 0.73598,0.08379 1.05704,0.2338c2.38515,0.16055 3.74418,4.39748 5.37487,7.07677c1.32279,-2.3676 2.9144,-4.89013 4.00336,-6.28282c0.42219,-0.82983 0.90201,-1.50594 1.43992,-1.80589c1.03987,-0.57984 1.8663,-0.50496 2.46629,-0.06624c0.18236,-0.04234 0.37237,-0.06472 0.56761,-0.06472c0.75698,0 1.43538,0.33643 1.89383,0.86793c0.81481,0.53854 1.47329,1.4886 1.78799,2.9048c0.44826,2.01719 -0.33351,4.07332 -1.54386,5.98382c-0.53035,2.79939 -2.96121,6.40563 -4.74042,7.93067z" fill="#ffffff" stroke-width="0.5"/><path d="M249.96709,182.899c1.76776,1.76776 0,3.53554 0,3.53554l0.06951,-0.19409c-1.51824,2.6371 -2.26096,5.64183 -4.07304,8.11987c-0.96487,1.31948 -1.71384,3.13523 -3.26113,3.66237c-6.00654,2.04631 -10.27039,-8.39432 -12.35517,-12.14181c0,0 -1.21411,-2.18539 0.97128,-3.3995c2.18539,-1.2141 3.3995,0.97128 3.3995,0.97128c1.53252,2.76253 3.19723,5.44337 4.8681,8.12154c0.39843,0.63863 0.91173,2.26948 1.4434,1.73664c2.18267,-2.18749 3.12439,-6.83605 4.66584,-9.55109l0.73617,-0.86076c0,0 1.76777,-1.76776 3.53554,0z" fill="#052f01" stroke-width="0.5"/><path d="M195.53426,183.18424c-1.38635,-2.93267 3.35692,-6.03137 4.84097,-7.2601c0.02189,-0.01812 0.81405,-0.76844 1.56083,-1.30549c-0.01736,-0.43534 -0.01176,-0.86159 0.04312,-1.24763c-0.0435,-0.02478 -0.08708,-0.04965 -0.13076,-0.07462c-3.01949,-1.26039 -10.90318,-4.69389 -9.35343,-8.90999c0.0066,-0.15286 0.02632,-0.30499 0.05993,-0.45623c0.5097,-2.29367 3.91482,-4.78097 6.34707,-4.01653c0.26194,-0.00336 0.5373,0.0667 0.82291,0.22436c1.85045,-0.007 4.31305,1.50079 5.74919,2.37001c3.01642,1.82567 7.08861,4.04857 8.92525,7.29911c2.01973,2.63529 3.07324,6.01975 1.66127,8.37304c-1.20475,2.00791 -4.63468,3.01879 -7.15211,3.86606c-0.39445,0.22656 -0.79193,0.44668 -1.18625,0.66302c-0.03693,0.03566 -0.07443,0.07108 -0.11246,0.10626c-0.55272,0.60585 -1.22563,1.15379 -1.95036,1.61526c-0.37453,0.35944 -0.76157,0.65155 -1.15321,0.84971c-0.39776,0.50099 -0.84329,0.83486 -1.33,0.86859c-3.17831,0.75553 -7.57855,0.375 -7.64194,-2.96483z" fill="#ffffff" stroke-width="0.5"/><path d="M198.76489,184.1012c-1.76776,-1.76776 0,-3.53554 0,-3.53554l1.83397,-1.81945c1.33037,-1.10719 3.26905,-2.81387 4.75832,-3.61919c0.53868,-0.29129 1.35769,-0.77306 2.09094,-1.05029c-1.13616,-0.68475 -2.14507,-1.58564 -3.26389,-2.30481c-2.58312,-1.66042 -4.6178,-3.36038 -7.52937,-4.431c0,0 -2.34082,-0.87781 -1.46301,-3.21864c0.87781,-2.34082 3.21863,-1.46301 3.21863,-1.46301c3.2321,1.23138 5.59441,3.05316 8.47063,4.90233c1.69594,1.09035 3.44925,1.66987 4.75266,3.33739c0.97064,1.2418 2.63472,2.53149 2.37848,4.08666c-0.2756,1.67264 -2.2633,2.56149 -3.63743,3.55418c-0.76953,0.55593 -1.82605,0.55885 -2.66666,1c-0.92738,0.48669 -3.12862,2.39679 -3.90835,3.04748l-1.49936,1.51388c0,0 -1.76777,1.76776 -3.53554,0z" fill="#000000" stroke-width="0.5"/></g></g></g></g></svg>