<svg version="1.1" xmlns="http://www.w3.org/2000/svg" xmlns:xlink="http://www.w3.org/1999/xlink" width="38.53468" height="40.01144" viewBox="0,0,38.53468,40.01144"><defs><linearGradient x1="219.36241" y1="176.42561" x2="261.88527" y2="176.42561" gradientUnits="userSpaceOnUse" id="color-1"><stop offset="0" stop-color="#ff0000"/><stop offset="1" stop-color="#ed7500"/></linearGradient></defs><g transform="translate(-220.73266,-159.99428)"><g data-paper-data="{&quot;isPaintingLayer&quot;:true}" fill-rule="nonzero" stroke="none" stroke-linecap="butt" stroke-linejoin="miter" stroke-miterlimit="10" stroke-dasharray="" stroke-dashoffset="0" style="mix-blend-mode: normal"><g fill="#000000" stroke-width="1" font-family="&quot;Helvetica Neue&quot;, Helvetica, Arial, sans-serif" font-weight="400" font-size="16" text-anchor="start"/><g fill="#000000" stroke-width="1" font-family="&quot;Helvetica Neue&quot;, Helvetica, Arial, sans-serif" font-weight="400" font-size="16" text-anchor="start"/><g fill="#000000" stroke-width="1" font-family="&quot;Helvetica Neue&quot;, Helvetica, Arial, sans-serif" font-weight="400" font-size="16" text-anchor="start"/><g stroke-width="0"><path d="M245.4214,200.00572l-3.16691,-14.33162l0.32134,-0.07101l3.16691,14.33162z" fill="#a73900"/><path d="M233.93301,195.40405c0,0 2.95568,-6.77997 3.45008,-7.53447c0.44411,-0.67774 -1.82346,1.88455 -6.06277,0.84291c-1.13971,-0.28003 -5.22522,-2.43628 -6.09941,-2.83411c-3.89505,-1.49298 -4.48826,-3.1011 -4.48826,-3.1011c0,0 4.95459,-0.68677 6.88498,-0.85376c1.93039,-0.16698 4.80166,0.19361 4.67062,-0.30403c-0.13459,-0.51116 -3.52742,-2.59394 -4.07447,-3.60689c-1.44999,-2.68481 -2.29171,-7.83459 -2.29171,-7.83459c0,0 8.41225,6.48323 9.03232,7.89715c0.3963,0.90367 -1.26991,-0.72607 -1.0903,-3.47142c0.1471,-2.24849 0.05455,-5.13291 0.16718,-6.49295c0.27887,-3.36722 1.40443,-8.11651 1.40443,-8.11651c0,0 3.77748,3.24846 4.63663,6.23354c0.35244,1.22453 1.4911,5.59473 1.7975,7.40015c0.34297,2.02091 0.14355,1.18537 0.76294,0.8852c0.05401,-0.02617 0.24666,-4.97118 0.8951,-6.04456c0.64844,-1.07338 4.91185,-6.41918 4.91185,-6.41918c0,0 0.31106,4.79152 0.89272,7.46254c0.10929,0.50184 0.01415,2.61553 -0.51029,4.38519c-0.26453,0.89261 -1.07993,0.76533 -1.13833,2.18917c-0.01807,0.44086 3.27985,-1.16628 3.8649,-1.7028c1.01928,-0.93472 7.71862,-3.8754 7.71862,-3.8754c0,0 -4.28596,5.39322 -5.31549,8.04735c-0.15258,0.39335 -1.92536,2.11403 -3.44411,3.23974c-1.46906,1.08888 -2.69979,1.58873 -2.03372,1.67621c0.302,0.03966 1.70737,0.14441 2.8191,0.2635c1.29675,0.13891 5.85328,1.60773 5.85328,1.60773c0,0 -4.02304,1.8275 -5.85823,2.12048c-3.29846,0.52659 -8.38937,0.29573 -8.38937,0.29573c0,0 -0.66457,2.80943 -2.26069,4.29705z" fill="url(#color-1)"/></g></g></g></svg>