<svg xmlns="http://www.w3.org/2000/svg" viewBox="0 0 41.801 70.001" height="70.001" width="41.801"><g style="stroke:#000;stroke-width:1mm;fill:#000" fill="#000" stroke-width="1mm" stroke="#000" font-size="9pt" fill-rule="evenodd" stroke-linecap="round" id="svgGroup"><path d="M 0 68 L 0 2 A 2.879 2.879 0 0 1 0.099 1.209 Q 0.446 0 2 0 L 39.8 0 Q 41.553 0 41.77 1.306 A 2.411 2.411 0 0 1 41.8 1.7 Q 41.8 3.298 40.033 3.394 A 4.3 4.3 0 0 1 39.8 3.4 L 3.4 3.4 L 3.4 32.4 L 36.4 32.4 Q 38.4 32.4 38.4 34.2 Q 38.4 35.967 36.473 36 A 4.323 4.323 0 0 1 36.4 36 L 3.4 36 L 3.4 68 Q 3.4 69.753 2.094 69.97 A 2.411 2.411 0 0 1 1.7 70 Q 0.102 70 0.006 68.233 A 4.3 4.3 0 0 1 0 68 Z"></path></g></svg>