<svg xmlns="http://www.w3.org/2000/svg" viewBox="0 0 51.501 77.204" height="77.204" width="51.501"><g style="stroke:#000;stroke-width:0.25mm;fill:#000" fill="#000" stroke-width="0.25mm" stroke="#000" font-size="9pt" fill-rule="evenodd" stroke-linecap="round" id="svgGroup"><path d="M 39 36.902 L 39 36.402 A 21.845 21.845 0 0 0 47.649 24.984 A 17.599 17.599 0 0 0 48.4 19.902 A 19.788 19.788 0 0 0 45.489 9.193 C 43.089 5.393 39.298 2.622 34.476 1.167 A 28.974 28.974 0 0 0 26.1 0.002 A 29.911 29.911 0 0 0 14.84 2.049 C 7.3 5.113 2.5 11.468 2.5 20.102 A 20.633 20.633 0 0 0 4.025 28.067 A 23.835 23.835 0 0 0 12.2 38.002 L 12.2 38.502 C 5.3 42.102 0 48.002 0 57.302 A 18.711 18.711 0 0 0 11.787 74.39 C 15.692 76.201 20.367 77.202 25.5 77.202 C 34.746 77.202 42.165 74.147 46.675 69.263 A 17.8 17.8 0 0 0 51.5 57.002 A 23.883 23.883 0 0 0 50.396 49.597 A 21.966 21.966 0 0 0 39 36.902 Z M 18.04 45.726 A 17.45 17.45 0 0 0 15.2 55.202 A 10.726 10.726 0 0 0 15.278 56.503 C 15.924 61.797 20.526 64.802 25.9 64.802 C 29.963 64.802 33.232 63.215 34.468 59.708 A 10.21 10.21 0 0 0 35 56.302 C 35 50.501 30.459 47.647 23.012 44.327 A 213.965 213.965 0 0 0 20.2 43.102 A 15.428 15.428 0 0 0 18.04 45.726 Z M 18.572 17.023 A 9.52 9.52 0 0 0 18.1 20.102 A 9.159 9.159 0 0 0 21.006 26.935 C 23.075 28.972 26.165 30.579 30 32.102 C 32.8 28.702 34 24.902 34 21.102 C 34 17.2 32.381 14.342 29.521 13.057 A 9.266 9.266 0 0 0 25.7 12.302 C 22.497 12.302 19.66 13.828 18.572 17.023 Z"></path></g></svg>