<svg xmlns="http://www.w3.org/2000/svg" viewBox="0 0 3.6 26.1" height="26.1" width="3.6"><g style="stroke:#000;stroke-width:1mm;fill:#000" fill="#000" stroke-width="1mm" stroke="#000" font-size="9pt" fill-rule="evenodd" stroke-linecap="round" id="svgGroup"><path d="M 0 24.2 L 0 1.8 A 1.891 1.891 0 0 1 0.102 1.168 A 1.62 1.62 0 0 1 0.55 0.5 A 1.945 1.945 0 0 1 1.147 0.121 A 1.768 1.768 0 0 1 1.8 0 A 2.085 2.085 0 0 1 2.401 0.083 A 1.64 1.64 0 0 1 3.1 0.5 A 1.684 1.684 0 0 1 3.583 1.511 A 2.314 2.314 0 0 1 3.6 1.8 L 3.6 24.2 A 1.923 1.923 0 0 1 3.257 25.291 A 2.521 2.521 0 0 1 3.1 25.5 A 1.596 1.596 0 0 1 1.947 26.095 A 2.027 2.027 0 0 1 1.8 26.1 A 1.56 1.56 0 0 1 0.807 25.741 A 2.241 2.241 0 0 1 0.55 25.5 Q 0 24.9 0 24.2 Z"></path></g></svg>