<svg version="1.1" xmlns="http://www.w3.org/2000/svg" xmlns:xlink="http://www.w3.org/1999/xlink" width="301.01754" height="136.98707" viewBox="0,0,301.01754,136.98707"><g transform="translate(-89.49123,-111.50646)"><g data-paper-data="{&quot;isPaintingLayer&quot;:true}" stroke-linejoin="miter" stroke-miterlimit="10" stroke-dasharray="" stroke-dashoffset="0" style="mix-blend-mode: normal"><path d="M390.50877,127.24775v105.50446c0,8.72117 -6.01986,15.74132 -13.49841,15.74132h-274.02072c-7.47849,0 -13.49841,-7.02018 -13.49841,-15.74132v-105.50446c0,-8.72114 6.01986,-15.74129 13.49841,-15.74129h274.02072c7.47849,0 13.49841,7.02015 13.49841,15.74129z" fill="#a3caff" fill-rule="nonzero" stroke="none" stroke-width="1" stroke-linecap="butt"/><path d="M131.99244,162.98758c-0.18881,-0.10493 -0.36954,-0.22378 -0.54067,-0.35557c-4.70851,-3.73434 -8.44283,-7.57691 -12.28541,-12.71838c-3.73434,4.60027 -10.28294,10.22882 -16.45271,13.74668c-1.78599,1.08241 -3.19312,0.16236 -3.19312,-1.94834v-4.32966c-0.00009,-0.12968 0.00497,-0.25931 0.01515,-0.38858c0.06495,-0.81993 0.34366,-1.47695 0.84699,-2.04035c0.28851,-0.31467 0.61735,-0.58981 0.97796,-0.81831c0.94975,-0.59274 1.88331,-1.21101 2.79967,-1.85418c7.72257,-5.26973 13.64075,-12.78369 16.95441,-21.526h-16.88568c-1.30539,0 -2.18052,-0.55366 -2.53231,-1.56842c-0.12082,-0.36689 -0.17954,-0.75138 -0.17373,-1.13762v-3.30137c0,-1.30593 0.55366,-2.18107 1.56842,-2.53231c0.36689,-0.12082 0.75138,-0.17954 1.13762,-0.17373h25.38263c0.05432,-0.00006 0.10862,0.00084 0.1629,0.0027c1.63337,0.05845 2.52961,1.00178 2.31041,2.52853c-0.02203,0.15013 -0.05275,0.29885 -0.092,0.44541c-0.76517,3.23761 -1.82682,6.39789 -3.17147,9.44082c-1.37068,3.09399 -2.98873,6.07235 -4.83839,8.90611c1.75955,2.49113 3.76526,4.79893 5.98684,6.88849c1.13112,1.08999 2.26171,2.10367 3.32193,3.01561c0.72955,0.61969 1.16413,1.26426 1.36979,2.04955c0.10209,0.40929 0.15102,0.83002 0.14558,1.25181v4.38378c0,2.04576 -1.22746,2.90791 -2.81482,2.03331zM140.2307,161.00947c-0.12082,-0.36689 -0.17954,-0.75138 -0.17373,-1.13762v-3.08488c0,-1.30593 0.55366,-2.18107 1.56842,-2.53231c0.36689,-0.12082 0.75138,-0.17954 1.13762,-0.17373h21.75655v-22.62248h-21.75655c-1.30539,0 -2.18052,-0.55366 -2.53231,-1.56842c-0.12082,-0.36689 -0.17954,-0.75138 -0.17373,-1.13762v-3.08488c0,-1.30593 0.55366,-2.18107 1.56842,-2.53231c0.36689,-0.12082 0.75138,-0.17954 1.13762,-0.17373h27.87219c1.30593,0 2.18107,0.55366 2.53231,1.56842c0.12082,0.36689 0.17954,0.75138 0.17373,1.13762v34.20431c0,1.30539 -0.55366,2.18052 -1.56842,2.53231c-0.36689,0.12082 -0.75138,0.17954 -1.13762,0.17373h-27.87219c-1.30539,0 -2.18052,-0.55366 -2.53231,-1.56842zM201.71459,142.12131c0.08172,-1.08404 0.52768,-1.8742 1.33786,-2.6687c0.08872,-0.08691 0.17931,-0.17189 0.27169,-0.25491c0.07132,-0.05918 0.14204,-0.11908 0.21215,-0.17968c1.53596,-1.3265 3.00262,-3.18555 4.03795,-5.79471c0.43745,-1.11467 0.77205,-2.26701 0.99961,-3.44262h-25.05791c-1.30539,0 -2.18052,-0.55366 -2.53231,-1.56842c-0.12082,-0.36689 -0.17954,-0.75138 -0.17373,-1.13762v-2.86841c0,-1.30593 0.55366,-2.18107 1.56842,-2.53231c0.36689,-0.12082 0.75138,-0.17954 1.13762,-0.17373h31.17356c1.30593,0 2.18107,0.55366 2.53231,1.56842c0.12082,0.36689 0.17954,0.75138 0.17373,1.13762v3.95082c0.00039,0.19449 -0.00141,0.38897 -0.00541,0.58343c-0.02056,0.91032 -0.10391,1.66692 -0.37343,2.60971c-1.78599,6.33213 -5.79092,12.06893 -12.01481,16.34447c-0.15576,0.11067 -0.31906,0.21032 -0.4887,0.2982c-1.32,0.67868 -2.37319,0.16182 -2.70388,-1.14141c-0.07509,-0.30856 -0.11163,-0.62524 -0.10878,-0.94278v-3.4096c-0.00006,-0.12606 0.00463,-0.25207 0.01407,-0.37776zM183.94891,164.74271c-1.5208,0.60832 -2.62323,0.06495 -2.99829,-1.18145c-0.09713,-0.33715 -0.14453,-0.68665 -0.14071,-1.0375v-3.78846c-0.00011,-0.10617 0.00349,-0.21231 0.01083,-0.31822c0.09416,-1.3357 0.79396,-2.22219 2.09988,-2.8749c6.65685,-3.4096 8.65933,-9.20052 8.65933,-15.09969v-2.70604c0,-1.30593 0.55366,-2.18107 1.56842,-2.53231c0.36689,-0.12082 0.75138,-0.17954 1.13762,-0.17373h2.76016c1.31243,0 2.15888,0.55907 2.49172,1.58412c0.11179,0.36328 0.16585,0.74187 0.16019,1.12192v2.5978c-0.10824,11.31123 -5.03323,20.13292 -15.74914,24.40846z" fill="#000000" fill-rule="evenodd" stroke="#000000" stroke-width="0.25" stroke-linecap="round"/></g></g></svg>