<svg xmlns="http://www.w3.org/2000/svg" viewBox="0 0 43.401 73.801" height="73.801" width="43.401"><g style="stroke:#000;stroke-width:1mm;fill:#000" fill="#000" stroke-width="1mm" stroke="#000" font-size="9pt" fill-rule="evenodd" stroke-linecap="round" id="svgGroup"><path d="M 3.5 62.3 L 3.5 70.7 Q 3.5 72.453 2.194 72.67 A 2.411 2.411 0 0 1 1.8 72.7 Q 0.033 72.7 0.001 70.773 A 4.323 4.323 0 0 1 0 70.7 L 0 2 Q 0 0 1.8 0 Q 3.398 0 3.494 1.768 A 4.3 4.3 0 0 1 3.5 2 L 3.5 35.3 Q 6.1 30 10.85 26.9 A 19.142 19.142 0 0 1 20.085 23.862 A 23.648 23.648 0 0 1 21.8 23.8 A 21.061 21.061 0 0 1 28.6 24.87 A 18.849 18.849 0 0 1 32.95 27 A 21.681 21.681 0 0 1 39.868 34.476 A 26.204 26.204 0 0 1 40.6 35.85 A 26.754 26.754 0 0 1 43.099 44.187 A 34.232 34.232 0 0 1 43.4 48.8 Q 43.4 56.1 40.6 61.75 A 23.301 23.301 0 0 1 36.363 67.791 A 20.927 20.927 0 0 1 32.95 70.6 A 19.45 19.45 0 0 1 23.167 73.762 A 23.91 23.91 0 0 1 21.8 73.8 Q 15.6 73.8 10.85 70.7 Q 6.1 67.6 3.5 62.3 Z M 21.8 70.4 A 17.682 17.682 0 0 0 27.653 69.455 A 15.979 15.979 0 0 0 31.2 67.7 Q 35.3 65 37.65 60.1 A 23.556 23.556 0 0 0 39.67 53.389 A 30.731 30.731 0 0 0 40 48.8 A 29.669 29.669 0 0 0 39.484 43.141 A 22.669 22.669 0 0 0 37.65 37.55 A 19.725 19.725 0 0 0 34.349 32.662 A 17.281 17.281 0 0 0 31.2 30 A 16.46 16.46 0 0 0 22.824 27.326 A 20.147 20.147 0 0 0 21.8 27.3 A 18.279 18.279 0 0 0 16.292 28.105 A 15.877 15.877 0 0 0 12.3 30 Q 8.2 32.7 5.85 37.55 Q 3.5 42.4 3.5 48.8 A 29.628 29.628 0 0 0 4.07 54.737 A 22.991 22.991 0 0 0 5.85 60.1 A 19.877 19.877 0 0 0 8.996 64.859 A 17.115 17.115 0 0 0 12.3 67.7 A 16.434 16.434 0 0 0 20.144 70.334 A 20.459 20.459 0 0 0 21.8 70.4 Z"></path></g></svg>