<svg xmlns="http://www.w3.org/2000/svg" viewBox="0 0 17.156 92.701" height="92.701" width="17.156"><g style="stroke:#000;stroke-width:1mm;fill:#000" fill="#000" stroke-width="1mm" stroke="#000" font-size="9pt" fill-rule="evenodd" stroke-linecap="round" id="svgGroup"><path d="M 16.048 92.482 A 3.463 3.463 0 0 0 16.5 92.217 A 1.408 1.408 0 0 0 17.014 91.628 A 1.587 1.587 0 0 0 17.15 91.067 A 2.477 2.477 0 0 0 17.156 90.902 A 2.09 2.09 0 0 0 16.8 89.717 A 66.609 66.609 0 0 1 13.357 84.216 A 75.605 75.605 0 0 1 7.1 69.467 Q 3.6 58.117 3.6 46.317 Q 3.6 34.617 7.1 23.217 Q 10.6 11.817 16.8 3.017 A 2.066 2.066 0 0 0 17.03 2.557 Q 17.156 2.202 17.156 1.792 A 2.81 2.81 0 0 0 17.15 1.617 A 2.058 2.058 0 0 0 17.128 1.42 A 1.42 1.42 0 0 0 16.5 0.417 A 4.016 4.016 0 0 0 16.205 0.258 Q 14.711 -0.459 13.8 0.817 A 70.743 70.743 0 0 0 10.369 6.302 A 79.572 79.572 0 0 0 3.65 22.117 Q 0 34.017 0 46.317 Q 0 58.617 3.65 70.567 A 86.736 86.736 0 0 0 5.185 75.137 A 74.526 74.526 0 0 0 13.8 91.917 Q 14.741 93.115 16.048 92.482 Z"></path></g></svg>