<svg xmlns="http://www.w3.org/2000/svg" viewBox="0 0 49.69 70.001" height="70.001" width="49.69"><g style="stroke:#000;stroke-width:1mm;fill:#000" fill="#000" stroke-width="1mm" stroke="#000" font-size="9pt" fill-rule="evenodd" stroke-linecap="round" id="svgGroup"><path d="M 0.48 67.601 L 22.68 32.901 L 3.08 2.401 A 6.188 6.188 0 0 1 2.817 1.972 Q 1.745 0.039 3.99 0.001 A 5.397 5.397 0 0 1 4.08 0.001 A 3.104 3.104 0 0 1 5.127 0.168 Q 5.935 0.456 6.439 1.236 A 3.364 3.364 0 0 1 6.48 1.301 L 24.68 29.701 L 43.08 1.301 A 3.22 3.22 0 0 1 43.857 0.496 A 2.731 2.731 0 0 1 45.48 0.001 Q 46.58 0.001 46.83 0.701 A 1.148 1.148 0 0 1 46.896 1.09 Q 46.896 1.661 46.385 2.394 A 4.948 4.948 0 0 1 46.38 2.401 L 26.78 32.901 L 49.08 67.601 A 4.156 4.156 0 0 1 49.368 68.004 Q 49.69 68.523 49.69 68.95 A 1.034 1.034 0 0 1 49.63 69.301 A 0.864 0.864 0 0 1 49.191 69.779 Q 48.844 69.961 48.252 69.993 A 4.932 4.932 0 0 1 47.98 70.001 A 2.72 2.72 0 0 1 45.876 69.075 A 3.657 3.657 0 0 1 45.58 68.701 L 24.68 36.201 L 3.88 68.701 A 2.702 2.702 0 0 1 2.991 69.612 Q 2.355 70.001 1.48 70.001 Q 0.916 70.001 0.569 69.85 A 0.851 0.851 0 0 1 0.03 69.201 Q -0.12 68.401 0.48 67.601 Z"></path></g></svg>