<svg xmlns="http://www.w3.org/2000/svg" viewBox="0 0 37.761 72.501" height="72.501" width="37.761"><g style="stroke:#000;stroke-width:1mm;fill:#000" fill="#000" stroke-width="1mm" stroke="#000" font-size="9pt" fill-rule="evenodd" stroke-linecap="round" id="svgGroup"><path d="M 13.253 71.484 A 17.857 17.857 0 0 0 19.36 72.5 A 20.889 20.889 0 0 0 21.017 72.436 A 16.919 16.919 0 0 0 28.91 69.85 A 17.787 17.787 0 0 0 30.988 68.301 A 18.613 18.613 0 0 0 35.41 62.55 A 21.038 21.038 0 0 0 37.191 57.454 A 26.89 26.89 0 0 0 37.76 51.8 A 31.992 31.992 0 0 0 37.759 51.451 Q 37.73 48.843 37.275 46.566 A 18.696 18.696 0 0 0 35.31 41.1 A 20.603 20.603 0 0 0 34.837 40.293 A 17.146 17.146 0 0 0 28.81 34.35 Q 24.76 32 19.96 32 A 21.837 21.837 0 0 0 17.147 32.177 A 16.922 16.922 0 0 0 9.91 34.8 A 15.589 15.589 0 0 0 6.186 38.241 A 18.678 18.678 0 0 0 3.56 42.9 A 151.825 151.825 0 0 1 3.546 40.821 A 143.053 143.053 0 0 1 4.06 28.6 A 64.676 64.676 0 0 1 4.825 22.734 A 50.211 50.211 0 0 1 6.51 15.95 Q 8.36 10.3 12.06 6.95 A 12.509 12.509 0 0 1 17.628 4.07 A 18.029 18.029 0 0 1 21.86 3.6 A 20.988 20.988 0 0 1 22.192 3.603 Q 25.779 3.66 28.36 4.95 A 15.061 15.061 0 0 1 28.779 5.168 A 15.733 15.733 0 0 1 33.16 8.7 A 4.058 4.058 0 0 0 33.518 9.02 Q 34.493 9.787 35.417 9.37 A 2.239 2.239 0 0 0 35.86 9.1 A 3.034 3.034 0 0 0 36.062 8.911 Q 37.151 7.791 35.86 6.5 A 20.246 20.246 0 0 0 29.963 1.778 A 19.704 19.704 0 0 0 29.91 1.75 A 13.098 13.098 0 0 0 29.276 1.441 Q 26.115 0 21.76 0 A 22.937 22.937 0 0 0 20.516 0.034 Q 15.091 0.328 11.075 3.231 A 19.465 19.465 0 0 0 6.06 8.7 A 24.529 24.529 0 0 0 4.878 10.8 Q 1.891 16.746 0.737 26.321 A 104.704 104.704 0 0 0 0.06 36 A 139.01 139.01 0 0 0 0.034 36.996 Q -0.255 49.602 1.91 57.3 Q 3.176 61.8 5.154 64.908 A 16.147 16.147 0 0 0 8.66 68.9 A 16.019 16.019 0 0 0 13.253 71.484 Z M 19.36 69.1 A 16.416 16.416 0 0 0 23.067 68.703 A 11.661 11.661 0 0 0 27.61 66.6 A 15.435 15.435 0 0 0 32.459 60.225 A 18.19 18.19 0 0 0 32.51 60.1 Q 34.16 56.1 34.16 51.8 A 21.446 21.446 0 0 0 33.549 46.547 A 15.692 15.692 0 0 0 30.31 40.15 Q 26.46 35.6 19.96 35.6 Q 15.56 35.6 11.71 38.1 Q 7.86 40.6 5.86 44.75 A 14.578 14.578 0 0 0 4.432 51.164 Q 4.432 52.543 4.66 54 Q 6.934 68.302 18.087 69.058 A 18.821 18.821 0 0 0 19.36 69.1 Z"></path></g></svg>