<svg xmlns="http://www.w3.org/2000/svg" viewBox="0 0 36.4 49.001" height="49.001" width="36.4"><g style="stroke:#000;stroke-width:1mm;fill:#000" fill="#000" stroke-width="1mm" stroke="#000" font-size="9pt" fill-rule="evenodd" stroke-linecap="round" id="svgGroup"><path d="M 0 47.001 L 0 3.201 Q 0 1.201 1.8 1.201 Q 3.398 1.201 3.494 2.968 A 4.3 4.3 0 0 1 3.5 3.201 L 3.5 8.601 A 17.877 17.877 0 0 1 8.4 3.456 A 21.78 21.78 0 0 1 9.95 2.451 A 17.784 17.784 0 0 1 18.255 0.026 A 21.423 21.423 0 0 1 19.3 0.001 Q 27 0.001 31.7 4.951 A 16.194 16.194 0 0 1 35.501 11.801 Q 36.4 14.963 36.4 18.901 L 36.4 47.001 Q 36.4 48.754 35.094 48.97 A 2.411 2.411 0 0 1 34.7 49.001 Q 33.102 49.001 33.006 47.233 A 4.3 4.3 0 0 1 33 47.001 L 33 18.901 A 24.926 24.926 0 0 0 32.665 14.673 Q 32.269 12.373 31.402 10.555 A 11.272 11.272 0 0 0 29.2 7.401 A 12.806 12.806 0 0 0 21.512 3.735 A 17.685 17.685 0 0 0 19.3 3.601 A 18.538 18.538 0 0 0 14.568 4.184 A 15.57 15.57 0 0 0 11.1 5.551 A 16.216 16.216 0 0 0 7.556 8.109 A 13.918 13.918 0 0 0 5.5 10.601 A 12.252 12.252 0 0 0 3.663 15.237 A 11.801 11.801 0 0 0 3.5 17.201 L 3.5 47.001 Q 3.5 48.754 2.194 48.97 A 2.411 2.411 0 0 1 1.8 49.001 Q 0.033 49.001 0.001 47.073 A 4.323 4.323 0 0 1 0 47.001 Z"></path></g></svg>