<svg version="1.1" xmlns="http://www.w3.org/2000/svg" xmlns:xlink="http://www.w3.org/1999/xlink" width="72.267" height="73.406" viewBox="0,0,72.267,73.406"><g transform="translate(-203.8835,-143.3345)"><g data-paper-data="{&quot;isPaintingLayer&quot;:true}" fill="#000000" fill-rule="evenodd" stroke="#000000" stroke-width="1" stroke-linecap="round" stroke-linejoin="miter" stroke-miterlimit="10" stroke-dasharray="" stroke-dashoffset="0" style="mix-blend-mode: normal"><path d="M252.3505,169.6495l0.9,-3.2c0.26666,-1.13333 1,-1.7 2.2,-1.7c0.13814,-0.00117 0.27587,0.01495 0.41,0.048c0.30203,0.06939 0.55601,0.27256 0.69,0.552c0.184,0.36866 0.19833,0.85034 0.043,1.445c-0.0134,0.05192 -0.02774,0.1036 -0.043,0.155l-5.6,21.1c-0.52466,1.92334 -0.51433,3.32433 0.031,4.203c0.07726,0.12478 0.16741,0.24108 0.269,0.347c0.27457,0.2722 0.60057,0.48704 0.959,0.632c0.952,0.412 2.36566,0.618 4.241,0.618c4.54,0 8.18067,-1.14733 10.922,-3.442c0.35933,-0.30098 0.70247,-0.62076 1.028,-0.958c1.75653,-1.84617 2.99637,-4.12203 3.595,-6.599c0.43667,-1.692 0.655,-3.559 0.655,-5.601c0,-4.2 -0.83333,-8.11667 -2.5,-11.75c-1.66667,-3.63333 -3.93333,-6.81666 -6.8,-9.55c-2.86667,-2.73334 -6.13333,-4.86667 -9.8,-6.4c-3.66666,-1.53333 -7.5,-2.3 -11.5,-2.3c-4.73334,0 -9.2,0.81667 -13.4,2.45c-4.2,1.63333 -7.9,3.96667 -11.1,7c-3.2,3.03333 -5.71667,6.65 -7.55,10.85c-1.39756,3.24386 -2.26722,6.69041 -2.576,10.209c-0.11739,1.26024 -0.17546,2.52531 -0.174,3.791c-0.01946,2.90752 0.32317,5.80615 1.02,8.629c0.6983,2.79513 1.82137,5.46654 3.33,7.921c2.9,4.7 6.95,8.33334 12.15,10.9c3.53787,1.72287 7.32833,2.86933 11.228,3.396c2.21053,0.30829 4.44009,0.46 6.672,0.454c4.46667,0 8.63333,-0.75 12.5,-2.25c3.86666,-1.5 7.26667,-3.58334 10.2,-6.25c0.97,-0.97 1.84633,-1.06134 2.629,-0.274c0.02411,0.02424 0.04779,0.0489 0.071,0.074c0.12174,0.11087 0.23227,0.23347 0.33,0.366c0.42867,0.59 0.39134,1.21466 -0.112,1.874c-0.09792,0.12691 -0.20415,0.24718 -0.318,0.36c-3.26666,3.06667 -7.06666,5.41666 -11.4,7.05c-4.1507,1.54757 -8.5357,2.37316 -12.965,2.441c-0.31162,0.00629 -0.62331,0.0093 -0.935,0.009c-3.74984,0.02149 -7.48908,-0.4001 -11.14,-1.256c-2.83712,-0.6747 -5.59063,-1.66207 -8.21,-2.944c-5.7,-2.8 -10.2,-6.78333 -13.5,-11.95c-2.26108,-3.58759 -3.76424,-7.59987 -4.417,-11.79c-0.36263,-2.23492 -0.54089,-4.49587 -0.533,-6.76c-0.01979,-3.6461 0.45418,-7.27809 1.409,-10.797c0.39413,-1.42909 0.87537,-2.83271 1.441,-4.203c1.9,-4.6 4.58333,-8.6 8.05,-12c3.46667,-3.4 7.51667,-6.05 12.15,-7.95c3.94215,-1.59685 8.12114,-2.53111 12.368,-2.765c0.92624,-0.05674 1.85402,-0.08509 2.782,-0.085c4.6,0 8.95,0.86666 13.05,2.6c4.1,1.73334 7.73333,4.15 10.9,7.25c3.16667,3.1 5.65,6.66666 7.45,10.7c1.8,4.03333 2.7,8.35 2.7,12.95c0.01873,2.23813 -0.26449,4.46857 -0.842,6.631c-0.78181,2.90607 -2.24099,5.58558 -4.258,7.819c-2.28375,2.50311 -5.28245,4.24284 -8.589,4.983c-1.83067,0.44466 -3.83434,0.667 -6.011,0.667c-1.02853,0.00745 -2.05594,-0.06914 -3.072,-0.229c-3.30466,-0.54734 -5.34734,-2.071 -6.128,-4.571c-1.73874,2.12078 -4.12858,3.60868 -6.799,4.233c-1.38734,0.35467 -2.91,0.543 -4.568,0.565c-0.111,0.00141 -0.22199,0.00208 -0.333,0.002c-1.34895,0.01022 -2.69373,-0.15107 -4.002,-0.48c-1.59395,-0.40288 -3.08995,-1.124 -4.398,-2.12c-1.80981,-1.39194 -3.13548,-3.31834 -3.789,-5.506c-0.19517,-0.62051 -0.34916,-1.25322 -0.461,-1.894c-0.13655,-0.78243 -0.20846,-1.57477 -0.215,-2.369c-0.02466,-2.23734 0.41566,-4.71034 1.321,-7.419c0.17003,-0.50799 0.35141,-1.01212 0.544,-1.512c0.67028,-1.72203 1.54129,-3.35899 2.595,-4.877c1.10896,-1.59156 2.46032,-2.99962 4.005,-4.173c2.86667,-2.16666 6.1,-3.25 9.7,-3.25c2.6,0 4.9,0.51666 6.9,1.55c2,1.03333 3.53334,2.48333 4.6,4.35zM247.9505,185.8495l3.1,-11.4c-0.29368,-1.919 -1.32667,-3.64687 -2.878,-4.814c-0.16979,-0.13426 -0.34389,-0.26299 -0.522,-0.386c-1.62933,-1.11398 -3.52153,-1.78275 -5.489,-1.94c-0.43585,-0.04009 -0.87331,-0.06011 -1.311,-0.06c-2.86667,0 -5.45,0.88333 -7.75,2.65c-1.65577,1.28731 -3.02948,2.90098 -4.036,4.741c-0.467,0.83928 -0.87272,1.71122 -1.214,2.609c-0.40176,1.03059 -0.73973,2.08491 -1.012,3.157c-0.82933,3.31867 -0.75867,6.21634 0.212,8.693c1.22,3.11533 3.89433,4.73 8.023,4.844c0.15896,0.0042 0.31798,0.00619 0.477,0.006c0.82316,-0.00277 1.64477,-0.07132 2.457,-0.205c0.6883,-0.11258 1.37023,-0.26111 2.043,-0.445c1.33102,-0.36682 2.58505,-0.97046 3.702,-1.782c0.27347,-0.19617 0.53966,-0.40231 0.798,-0.618c1.26866,-1.05667 2.31833,-2.538 3.149,-4.444c0.08728,-0.20048 0.17095,-0.40252 0.251,-0.606z"/></g></g></svg>