<svg xmlns="http://www.w3.org/2000/svg" viewBox="0 0 60.285 47.801" height="47.801" width="60.285"><g style="stroke:#000;stroke-width:1mm;fill:#000" fill="#000" stroke-width="1mm" stroke="#000" font-size="9pt" fill-rule="evenodd" stroke-linecap="round" id="svgGroup"><path d="M 14.496 46.2 L 0.196 2.3 Q -0.504 0 1.296 0 L 1.396 0 A 2.556 2.556 0 0 1 2.3 0.15 Q 3.009 0.416 3.383 1.155 A 3.196 3.196 0 0 1 3.596 1.7 L 16.096 41.1 L 28.296 1.7 A 3.806 3.806 0 0 1 28.575 0.997 Q 28.771 0.624 29.034 0.391 A 1.543 1.543 0 0 1 30.096 0 A 1.583 1.583 0 0 1 31.467 0.746 Q 31.658 1.025 31.8 1.409 A 4.524 4.524 0 0 1 31.896 1.7 L 44.196 41.1 L 56.696 1.7 A 2.904 2.904 0 0 1 57.059 0.898 Q 57.661 0 58.896 0 A 2.245 2.245 0 0 1 59.446 0.061 Q 60.682 0.375 60.096 2.3 L 45.796 46.2 A 3.715 3.715 0 0 1 45.523 46.863 Q 45.337 47.207 45.095 47.425 A 1.441 1.441 0 0 1 44.096 47.8 A 1.445 1.445 0 0 1 42.882 47.154 Q 42.698 46.903 42.554 46.554 A 4.574 4.574 0 0 1 42.396 46.1 L 30.196 6.7 L 17.896 46.1 A 4.128 4.128 0 0 1 17.634 46.783 Q 17.463 47.125 17.244 47.352 A 1.4 1.4 0 0 1 16.196 47.8 Q 14.896 47.8 14.496 46.2 Z"></path></g></svg>