<svg xmlns="http://www.w3.org/2000/svg" viewBox="0 0 29.721 72.9" height="72.9" width="29.721"><g style="stroke:#000;stroke-width:1mm;fill:#000" fill="#000" stroke-width="1mm" stroke="#000" font-size="9pt" fill-rule="evenodd" stroke-linecap="round" id="svgGroup"><path d="M 10.3 70.9 L 10.3 28.6 L 2 28.6 Q 0 28.6 0 26.8 Q 0 25.202 1.768 25.106 A 4.3 4.3 0 0 1 2 25.1 L 10.3 25.1 L 10.3 15.1 A 26.132 26.132 0 0 1 10.505 11.719 Q 10.738 9.94 11.235 8.475 A 11.414 11.414 0 0 1 12.4 6 A 13.263 13.263 0 0 1 14.64 3.298 A 10.7 10.7 0 0 1 17.65 1.35 A 16.749 16.749 0 0 1 21.568 0.19 A 14.533 14.533 0 0 1 23.9 0 A 21.056 21.056 0 0 1 25.67 0.07 Q 26.58 0.147 27.364 0.308 A 10.703 10.703 0 0 1 28.15 0.5 Q 29.867 0.99 29.707 2.347 A 2.166 2.166 0 0 1 29.7 2.4 Q 29.61 3.213 28.908 3.496 A 1.726 1.726 0 0 1 28.75 3.55 Q 28.042 3.758 27.16 3.654 A 5.842 5.842 0 0 1 26.8 3.6 A 10.757 10.757 0 0 0 26.217 3.486 Q 25.939 3.44 25.698 3.419 A 4.507 4.507 0 0 0 25.3 3.4 L 23.9 3.4 Q 19.7 3.4 16.7 6.1 A 7.949 7.949 0 0 0 14.65 9.152 Q 14.13 10.467 13.895 12.122 A 21.223 21.223 0 0 0 13.7 15.1 L 13.7 25.1 L 27.7 25.1 Q 29.453 25.1 29.67 26.406 A 2.411 2.411 0 0 1 29.7 26.8 Q 29.7 28.567 27.773 28.599 A 4.323 4.323 0 0 1 27.7 28.6 L 13.7 28.6 L 13.7 70.9 Q 13.7 72.653 12.394 72.87 A 2.411 2.411 0 0 1 12 72.9 Q 10.402 72.9 10.306 71.132 A 4.3 4.3 0 0 1 10.3 70.9 Z"></path></g></svg>