<svg xmlns="http://www.w3.org/2000/svg" viewBox="0 0 38.484 70.7" height="70.7" width="38.484"><g style="stroke:#000;stroke-width:1mm;fill:#000" fill="#000" stroke-width="1mm" stroke="#000" font-size="9pt" fill-rule="evenodd" stroke-linecap="round" id="svgGroup"><path d="M 4.183 37.5 L 4.183 2 A 2.879 2.879 0 0 1 4.282 1.209 Q 4.628 0 6.183 0 L 34.183 0 Q 35.936 0 36.152 1.306 A 2.411 2.411 0 0 1 36.183 1.7 Q 36.183 3.467 34.255 3.5 A 4.323 4.323 0 0 1 34.183 3.5 L 7.783 3.5 L 7.783 33.5 A 17.19 17.19 0 0 1 13.208 29.861 A 19.21 19.21 0 0 1 13.233 29.85 Q 16.383 28.5 19.783 28.5 A 19.76 19.76 0 0 1 25.26 29.234 A 16.786 16.786 0 0 1 29.483 31.1 A 17.993 17.993 0 0 1 35.931 38.062 A 21.372 21.372 0 0 1 36.083 38.35 Q 38.483 43 38.483 49.2 A 30.358 30.358 0 0 1 37.869 55.503 Q 36.612 61.421 32.783 65.15 A 19.334 19.334 0 0 1 21.342 70.505 A 26.441 26.441 0 0 1 18.083 70.7 Q 12.983 70.7 8.283 68.35 Q 3.583 66 0.583 61.8 Q -0.717 60.2 0.883 59.2 A 2.389 2.389 0 0 1 1.305 58.982 Q 2.466 58.529 3.483 59.8 A 21.116 21.116 0 0 0 8.519 64.452 A 17.27 17.27 0 0 0 18.083 67.2 A 21.657 21.657 0 0 0 23.275 66.613 A 14.658 14.658 0 0 0 30.583 62.45 Q 34.727 58.076 35.055 50.521 A 30.481 30.481 0 0 0 35.083 49.2 A 21.433 21.433 0 0 0 34.232 43.092 A 19.369 19.369 0 0 0 33.283 40.55 Q 31.483 36.6 28.083 34.25 Q 24.683 31.9 19.783 31.9 A 13.779 13.779 0 0 0 14.22 33.1 A 16.688 16.688 0 0 0 13.083 33.65 A 15.039 15.039 0 0 0 10.561 35.311 A 10.855 10.855 0 0 0 8.183 38 Q 7.283 39.5 5.883 39.5 Q 4.285 39.5 4.189 37.733 A 4.3 4.3 0 0 1 4.183 37.5 Z"></path></g></svg>