<svg xmlns="http://www.w3.org/2000/svg" viewBox="0 0 38.397 72.401" height="72.401" width="38.397"><g style="stroke:#000;stroke-width:1mm;fill:#000" fill="#000" stroke-width="1mm" stroke="#000" font-size="9pt" fill-rule="evenodd" stroke-linecap="round" id="svgGroup"><path d="M 12.248 71.533 A 19.667 19.667 0 0 0 18.196 72.401 A 34.777 34.777 0 0 0 20.605 72.32 Q 23.119 72.145 25.249 71.593 A 17.061 17.061 0 0 0 29.846 69.701 A 19.407 19.407 0 0 0 29.916 69.658 A 16.101 16.101 0 0 0 36.346 62.501 A 22.007 22.007 0 0 0 37.513 59.301 A 24.767 24.767 0 0 0 38.396 52.601 A 23.29 23.29 0 0 0 38.324 50.752 A 18.42 18.42 0 0 0 34.746 41.001 Q 31.096 36.101 25.296 34.201 A 20.308 20.308 0 0 0 25.666 34.057 A 16.572 16.572 0 0 0 33.546 27.751 A 17.239 17.239 0 0 0 35.537 23.677 A 19.353 19.353 0 0 0 36.496 17.501 A 22.353 22.353 0 0 0 36.089 13.125 A 15.021 15.021 0 0 0 31.346 4.601 A 17.423 17.423 0 0 0 24.226 0.76 A 22.823 22.823 0 0 0 18.196 0.001 A 16.282 16.282 0 0 0 13.751 0.613 A 18.281 18.281 0 0 0 8.346 3.201 A 18.755 18.755 0 0 0 3.512 8.129 A 26.419 26.419 0 0 0 0.996 12.801 Q 0.335 14.372 1.451 15.054 A 2.652 2.652 0 0 0 1.996 15.301 A 2.277 2.277 0 0 0 2.316 15.403 Q 3.584 15.704 4.296 14.101 Q 6.196 9.601 9.646 6.551 A 11.742 11.742 0 0 1 13.913 4.127 A 14.083 14.083 0 0 1 18.196 3.501 Q 22.096 3.501 25.496 5.001 Q 28.896 6.501 30.996 9.551 Q 32.341 11.505 32.825 14.218 A 18.728 18.728 0 0 1 33.096 17.501 A 19.153 19.153 0 0 1 32.919 20.152 A 13.648 13.648 0 0 1 28.796 28.401 A 13.768 13.768 0 0 1 28.534 28.644 Q 24.273 32.501 17.096 32.501 A 4.3 4.3 0 0 0 16.864 32.507 Q 15.096 32.603 15.096 34.201 A 2.411 2.411 0 0 0 15.127 34.595 Q 15.343 35.901 17.096 35.901 Q 22.196 35.901 26.196 37.951 Q 30.196 40.001 32.546 43.751 A 14.838 14.838 0 0 1 34.354 48.012 A 18.617 18.617 0 0 1 34.896 52.601 Q 34.896 60.501 30.596 64.751 Q 27.69 67.623 23.049 68.554 A 24.691 24.691 0 0 1 18.196 69.001 A 17.885 17.885 0 0 1 16.546 68.926 A 13.814 13.814 0 0 1 8.996 65.951 Q 5.196 62.901 3.496 58.101 Q 2.959 56.31 1.62 56.604 A 2.371 2.371 0 0 0 1.296 56.701 A 3.751 3.751 0 0 0 1.227 56.729 Q -0.49 57.436 0.196 59.201 Q 2.196 65.001 6.896 68.701 A 16.717 16.717 0 0 0 12.248 71.533 Z"></path></g></svg>