<svg xmlns="http://www.w3.org/2000/svg" viewBox="0 0 38.001 72.503" height="72.503" width="38.001"><g style="stroke:#000;stroke-width:1mm;fill:#000" fill="#000" stroke-width="1mm" stroke="#000" font-size="9pt" fill-rule="evenodd" stroke-linecap="round" id="svgGroup"><path d="M 4.5 63.952 A 20.128 20.128 0 0 0 5.079 64.977 Q 9.619 72.502 19 72.502 Q 29 72.502 33.5 63.952 Q 38 55.402 38 36.202 A 140.598 140.598 0 0 0 37.873 30.074 Q 37.468 20.807 35.776 14.558 A 29.449 29.449 0 0 0 33.5 8.552 A 20.128 20.128 0 0 0 32.922 7.526 Q 28.382 0.002 19 0.002 Q 9 0.002 4.5 8.552 Q 1.196 14.831 0.318 26.799 A 129.076 129.076 0 0 0 0 36.202 A 141.985 141.985 0 0 0 0.128 42.36 Q 0.533 51.672 2.225 57.936 A 29.407 29.407 0 0 0 4.5 63.952 Z M 19 69.002 A 14.587 14.587 0 0 0 23.064 68.462 A 11.371 11.371 0 0 0 27.7 65.852 A 12.945 12.945 0 0 0 30.011 62.92 Q 31.738 60.002 32.8 55.502 A 51.485 51.485 0 0 0 33.697 50.523 Q 34.447 44.919 34.497 37.296 A 167.501 167.501 0 0 0 34.5 36.202 A 139.284 139.284 0 0 0 34.334 29.175 Q 33.993 22.446 32.952 17.715 A 40.511 40.511 0 0 0 32.8 17.052 A 33.569 33.569 0 0 0 31.607 13.066 Q 30.884 11.133 29.98 9.625 A 12.956 12.956 0 0 0 27.7 6.752 A 11.675 11.675 0 0 0 21.228 3.752 A 15.941 15.941 0 0 0 19 3.602 A 14.139 14.139 0 0 0 14.785 4.205 A 11.614 11.614 0 0 0 10.35 6.752 A 13.08 13.08 0 0 0 7.928 9.814 Q 7.03 11.34 6.316 13.288 A 33.433 33.433 0 0 0 5.2 17.052 A 50.828 50.828 0 0 0 4.304 21.994 Q 3.554 27.556 3.504 35.116 A 164.753 164.753 0 0 0 3.5 36.202 A 141.556 141.556 0 0 0 3.666 43.286 Q 4.032 50.552 5.2 55.502 Q 6.9 62.702 10.35 65.852 A 11.948 11.948 0 0 0 17.418 68.925 A 15.913 15.913 0 0 0 19 69.002 Z"></path></g></svg>