<svg xmlns="http://www.w3.org/2000/svg" viewBox="0 0 36.398 50.102" height="50.102" width="36.398"><g style="stroke:#000;stroke-width:1mm;fill:#000" fill="#000" stroke-width="1mm" stroke="#000" font-size="9pt" fill-rule="evenodd" stroke-linecap="round" id="svgGroup"><path d="M 12.71 49.421 A 28.918 28.918 0 0 0 19.097 50.101 A 30.025 30.025 0 0 0 20.387 50.074 Q 23.133 49.956 25.455 49.326 A 15.662 15.662 0 0 0 31.747 46.051 Q 36.397 42.001 36.397 36.001 A 17.701 17.701 0 0 0 36.364 34.914 Q 36.176 31.855 34.897 29.851 Q 33.397 27.501 30.847 26.101 A 22.549 22.549 0 0 0 29.54 25.439 A 25.254 25.254 0 0 0 25.247 23.901 Q 22.197 23.101 19.097 22.401 Q 16.409 21.839 14.19 21.237 A 55.143 55.143 0 0 1 11.697 20.501 A 17.42 17.42 0 0 1 10.679 20.139 Q 9.607 19.718 8.74 19.198 A 8.745 8.745 0 0 1 6.947 17.801 A 5.19 5.19 0 0 1 6.272 16.941 Q 5.713 16.049 5.474 14.885 A 9.382 9.382 0 0 1 5.297 13.001 A 7.972 7.972 0 0 1 6.598 8.521 A 9.633 9.633 0 0 1 8.797 6.201 A 11.267 11.267 0 0 1 10.216 5.269 Q 11.995 4.282 14.244 3.846 A 20.251 20.251 0 0 1 18.097 3.501 A 21.406 21.406 0 0 1 22.75 3.977 A 13.502 13.502 0 0 1 30.997 9.201 A 3.907 3.907 0 0 0 31.341 9.661 Q 32.156 10.587 33.123 10.197 A 2.248 2.248 0 0 0 33.497 10.001 Q 34.801 9.219 34.139 7.907 A 3.506 3.506 0 0 0 33.897 7.501 Q 28.797 0.001 18.097 0.001 Q 13.997 0.001 10.197 1.501 A 17.636 17.636 0 0 0 8.809 2.118 A 14.396 14.396 0 0 0 4.047 5.851 A 9.908 9.908 0 0 0 2.115 9.631 A 12.948 12.948 0 0 0 1.697 13.001 A 16.372 16.372 0 0 0 1.713 13.748 Q 1.784 15.294 2.153 16.583 A 8.062 8.062 0 0 0 4.247 20.201 A 14.127 14.127 0 0 0 6.959 22.274 A 17.314 17.314 0 0 0 10.697 23.901 Q 14.597 25.101 18.497 25.901 Q 21.309 26.464 23.614 27.085 A 50.205 50.205 0 0 1 26.197 27.851 Q 27.847 28.393 29.111 29.147 A 9.419 9.419 0 0 1 31.147 30.751 A 5.618 5.618 0 0 1 31.917 31.782 Q 32.467 32.723 32.708 33.937 A 10.606 10.606 0 0 1 32.897 36.001 Q 32.897 39.601 30.897 42.001 A 11.343 11.343 0 0 1 29.386 43.504 A 12.328 12.328 0 0 1 25.747 45.551 Q 22.597 46.701 19.097 46.701 A 25.525 25.525 0 0 1 17.287 46.638 A 21.546 21.546 0 0 1 10.097 44.901 Q 5.997 43.101 3.597 39.901 A 5.312 5.312 0 0 0 3.568 39.867 Q 2.485 38.557 1.402 38.981 A 1.995 1.995 0 0 0 0.997 39.201 Q -0.703 40.201 0.497 41.801 A 17.928 17.928 0 0 0 2.721 44.333 A 19.496 19.496 0 0 0 8.247 47.951 A 24.077 24.077 0 0 0 12.71 49.421 Z"></path></g></svg>