<svg xmlns="http://www.w3.org/2000/svg" viewBox="0 0 51.584 77.203" height="77.203" width="51.584"><g style="stroke:#000;stroke-width:0.25mm;fill:#000" fill="#000" stroke-width="0.25mm" stroke="#000" font-size="9pt" fill-rule="evenodd" stroke-linecap="round" id="svgGroup"><path d="M 37.283 37.4 L 37.283 36.9 A 22.44 22.44 0 0 0 43.285 33.389 A 16.151 16.151 0 0 0 49.183 20.5 A 20.095 20.095 0 0 0 46.767 10.522 C 42.901 3.639 34.632 0 23.683 0 C 16.583 0 10.383 2.2 4.683 6.1 A 6.798 6.798 0 0 0 3.582 7.016 C 1.904 8.77 2.106 10.899 3.883 13.1 L 6.483 16.3 A 6.978 6.978 0 0 0 7.472 17.322 C 9.038 18.618 10.78 18.615 12.739 17.479 A 10.132 10.132 0 0 0 13.483 17 A 24.927 24.927 0 0 1 14.765 16.199 A 15.561 15.561 0 0 1 22.883 13.9 A 12.117 12.117 0 0 1 26.281 14.34 C 28.892 15.104 30.548 16.848 31.139 19.461 A 10.603 10.603 0 0 1 31.383 21.8 C 31.383 26.8 28.483 30.3 19.783 31.3 A 8.297 8.297 0 0 0 17.654 31.751 C 16.129 32.316 15.164 33.369 14.822 34.975 A 6.845 6.845 0 0 0 14.683 36.4 L 14.683 39.2 C 14.683 42.4 16.483 44 19.883 44.3 A 40.732 40.732 0 0 1 24.322 44.839 C 27.581 45.438 29.778 46.406 31.219 47.704 A 8.256 8.256 0 0 1 33.683 54.3 C 33.683 59.428 29.909 62.293 23.974 62.738 A 22.579 22.579 0 0 1 22.283 62.8 C 18.083 62.8 14.283 61.3 10.783 58.8 C 8.083 56.9 5.683 57.1 3.783 59.7 L 1.283 63.1 A 8.21 8.21 0 0 0 0.51 64.395 C -0.393 66.315 -0.132 68.142 1.579 69.732 A 7.481 7.481 0 0 0 1.883 70 C 6.396 73.832 12.36 76.359 19.959 77.024 A 47.256 47.256 0 0 0 24.083 77.2 C 38.883 77.2 51.583 69.4 51.583 55.5 C 51.583 46.11 45.747 40.164 37.818 37.569 A 27.528 27.528 0 0 0 37.283 37.4 Z"></path></g></svg>