<svg xmlns="http://www.w3.org/2000/svg" viewBox="0 0 17.156 92.601" height="92.601" width="17.156"><g style="stroke:#000;stroke-width:1mm;fill:#000" fill="#000" stroke-width="1mm" stroke="#000" font-size="9pt" fill-rule="evenodd" stroke-linecap="round" id="svgGroup"><path d="M 0.025 91.206 A 1.398 1.398 0 0 0 0.656 92.185 A 2.539 2.539 0 0 0 0.987 92.386 Q 1.531 92.661 2.106 92.585 A 2.034 2.034 0 0 0 2.209 92.568 A 1.547 1.547 0 0 0 3.256 91.885 A 71.213 71.213 0 0 0 6.779 86.237 A 80.772 80.772 0 0 0 13.456 70.535 Q 17.156 58.585 17.156 46.285 Q 17.156 33.985 13.456 22.085 A 87.871 87.871 0 0 0 11.97 17.71 A 75.816 75.816 0 0 0 3.256 0.785 A 1.694 1.694 0 0 0 2.741 0.28 A 1.885 1.885 0 0 0 2.106 0.035 Q 1.608 -0.065 1.132 0.122 A 2.213 2.213 0 0 0 0.656 0.385 Q 0.056 0.785 0.006 1.585 A 2.81 2.81 0 0 0 0 1.76 Q 0 2.451 0.356 2.985 A 63.883 63.883 0 0 1 4.293 9.342 A 73.838 73.838 0 0 1 10.006 23.185 Q 13.456 34.585 13.456 46.285 Q 13.456 58.085 10.006 69.435 Q 6.556 80.785 0.356 89.685 A 2.09 2.09 0 0 0 0 90.87 A 2.477 2.477 0 0 0 0.006 91.035 A 1.841 1.841 0 0 0 0.025 91.206 Z"></path></g></svg>