<svg version="1.1" xmlns="http://www.w3.org/2000/svg" xmlns:xlink="http://www.w3.org/1999/xlink" width="220" height="220" viewBox="0,0,220,220"><defs><radialGradient cx="240" cy="180" r="110" gradientUnits="userSpaceOnUse" id="color-1"><stop offset="0" stop-color="#ff7b00"/><stop offset="1" stop-color="#ff7b00" stop-opacity="0"/></radialGradient><radialGradient cx="265.05869" cy="209.57746" r="41.49061" gradientUnits="userSpaceOnUse" id="color-2"><stop offset="0" stop-color="#ff0000"/><stop offset="1" stop-color="#ff0000" stop-opacity="0"/></radialGradient><radialGradient cx="256.02113" cy="226.00939" r="41.49061" gradientUnits="userSpaceOnUse" id="color-3"><stop offset="0" stop-color="#ff7b00"/><stop offset="1" stop-color="#ff7b00" stop-opacity="0"/></radialGradient><radialGradient cx="241.23239" cy="213.68545" r="41.49061" gradientUnits="userSpaceOnUse" id="color-4"><stop offset="0" stop-color="#ff0000"/><stop offset="1" stop-color="#ff0000" stop-opacity="0"/></radialGradient><radialGradient cx="269.98826" cy="203.00469" r="41.49061" gradientUnits="userSpaceOnUse" id="color-5"><stop offset="0" stop-color="#ff7b00"/><stop offset="1" stop-color="#ff7b00" stop-opacity="0"/></radialGradient><radialGradient cx="288.06338" cy="202.1831" r="41.49061" gradientUnits="userSpaceOnUse" id="color-6"><stop offset="0" stop-color="#ff0000"/><stop offset="1" stop-color="#ff0000" stop-opacity="0"/></radialGradient><radialGradient cx="241.23239" cy="195.61033" r="41.49061" gradientUnits="userSpaceOnUse" id="color-7"><stop offset="0" stop-color="#ff7b00"/><stop offset="1" stop-color="#ff7b00" stop-opacity="0"/></radialGradient><radialGradient cx="217.4061" cy="170.96244" r="41.49061" gradientUnits="userSpaceOnUse" id="color-8"><stop offset="0" stop-color="#ff0000"/><stop offset="1" stop-color="#ff0000" stop-opacity="0"/></radialGradient><radialGradient cx="266.70188" cy="147.95775" r="41.49061" gradientUnits="userSpaceOnUse" id="color-9"><stop offset="0" stop-color="#ff7b00"/><stop offset="1" stop-color="#ff7b00" stop-opacity="0"/></radialGradient><radialGradient cx="188.65023" cy="190.68075" r="41.49061" gradientUnits="userSpaceOnUse" id="color-10"><stop offset="0" stop-color="#ff0000"/><stop offset="1" stop-color="#ff0000" stop-opacity="0"/></radialGradient><radialGradient cx="187.00704" cy="147.95775" r="41.49061" gradientUnits="userSpaceOnUse" id="color-11"><stop offset="0" stop-color="#ff7b00"/><stop offset="1" stop-color="#ff7b00" stop-opacity="0"/></radialGradient><radialGradient cx="248.62676" cy="133.99061" r="41.49061" gradientUnits="userSpaceOnUse" id="color-12"><stop offset="0" stop-color="#ff0000"/><stop offset="1" stop-color="#ff0000" stop-opacity="0"/></radialGradient><radialGradient cx="289.99296" cy="175.4554" r="41.49061" gradientUnits="userSpaceOnUse" id="color-13"><stop offset="0" stop-color="#ff7b00"/><stop offset="1" stop-color="#ff7b00" stop-opacity="0"/></radialGradient><radialGradient cx="265.05869" cy="150.42254" r="41.49061" gradientUnits="userSpaceOnUse" id="color-14"><stop offset="0" stop-color="#ff0000"/><stop offset="1" stop-color="#ff0000" stop-opacity="0"/></radialGradient><radialGradient cx="256.02113" cy="133.99061" r="41.49061" gradientUnits="userSpaceOnUse" id="color-15"><stop offset="0" stop-color="#ff7b00"/><stop offset="1" stop-color="#ff7b00" stop-opacity="0"/></radialGradient><radialGradient cx="241.2324" cy="146.31456" r="41.49061" gradientUnits="userSpaceOnUse" id="color-16"><stop offset="0" stop-color="#ff0000"/><stop offset="1" stop-color="#ff0000" stop-opacity="0"/></radialGradient><radialGradient cx="269.98827" cy="156.99531" r="41.49061" gradientUnits="userSpaceOnUse" id="color-17"><stop offset="0" stop-color="#ff7b00"/><stop offset="1" stop-color="#ff7b00" stop-opacity="0"/></radialGradient><radialGradient cx="204.06338" cy="199.8169" r="41.49061" gradientUnits="userSpaceOnUse" id="color-18"><stop offset="0" stop-color="#ff0000"/><stop offset="1" stop-color="#ff0000" stop-opacity="0"/></radialGradient><radialGradient cx="208.2324" cy="139.38967" r="41.49061" gradientUnits="userSpaceOnUse" id="color-19"><stop offset="0" stop-color="#ff7b00"/><stop offset="1" stop-color="#ff7b00" stop-opacity="0"/></radialGradient><radialGradient cx="217.40611" cy="189.03756" r="41.49061" gradientUnits="userSpaceOnUse" id="color-20"><stop offset="0" stop-color="#ff0000"/><stop offset="1" stop-color="#ff0000" stop-opacity="0"/></radialGradient><radialGradient cx="266.70188" cy="212.04226" r="41.49061" gradientUnits="userSpaceOnUse" id="color-21"><stop offset="0" stop-color="#ff7b00"/><stop offset="1" stop-color="#ff7b00" stop-opacity="0"/></radialGradient><radialGradient cx="188.65024" cy="169.31925" r="41.49061" gradientUnits="userSpaceOnUse" id="color-22"><stop offset="0" stop-color="#ff0000"/><stop offset="1" stop-color="#ff0000" stop-opacity="0"/></radialGradient><radialGradient cx="206.00704" cy="221.04226" r="41.49062" gradientUnits="userSpaceOnUse" id="color-23"><stop offset="0" stop-color="#ff7b00"/><stop offset="1" stop-color="#ff7b00" stop-opacity="0"/></radialGradient><radialGradient cx="248.62676" cy="226.00939" r="41.49061" gradientUnits="userSpaceOnUse" id="color-24"><stop offset="0" stop-color="#ff0000"/><stop offset="1" stop-color="#ff0000" stop-opacity="0"/></radialGradient><radialGradient cx="292.99296" cy="223.5446" r="41.49061" gradientUnits="userSpaceOnUse" id="color-25"><stop offset="0" stop-color="#ff7b00"/><stop offset="1" stop-color="#ff7b00" stop-opacity="0"/></radialGradient></defs><g transform="translate(-130,-70)"><g data-paper-data="{&quot;isPaintingLayer&quot;:true}" fill-rule="nonzero" stroke="none" stroke-width="0" stroke-linecap="butt" stroke-linejoin="miter" stroke-miterlimit="10" stroke-dasharray="" stroke-dashoffset="0" style="mix-blend-mode: normal"><path d="M130,180c0,-60.75132 49.24868,-110 110,-110c60.75132,0 110,49.24868 110,110c0,60.75132 -49.24868,110 -110,110c-60.75132,0 -110,-49.24868 -110,-110z" fill="url(#color-1)"/><path d="M223.56808,209.57746c0,-22.91463 18.57598,-41.49061 41.49061,-41.49061c22.91463,0 41.49061,18.57598 41.49061,41.49061c0,22.91463 -18.57598,41.49061 -41.49061,41.49061c-22.91463,0 -41.49061,-18.57598 -41.49061,-41.49061z" fill="url(#color-2)"/><path d="M214.53052,226.00939c0,-22.91463 18.57598,-41.49061 41.49061,-41.49061c22.91463,0 41.49061,18.57598 41.49061,41.49061c0,22.91463 -18.57598,41.49061 -41.49061,41.49061c-22.91463,0 -41.49061,-18.57598 -41.49061,-41.49061z" fill="url(#color-3)"/><path d="M199.74178,213.68545c0,-22.91463 18.57598,-41.49061 41.49061,-41.49061c22.91463,0 41.49061,18.57598 41.49061,41.49061c0,22.91463 -18.57598,41.49061 -41.49061,41.49061c-22.91463,0 -41.49061,-18.57598 -41.49061,-41.49061z" fill="url(#color-4)"/><path d="M228.49765,203.00469c0,-22.91463 18.57598,-41.49061 41.49061,-41.49061c22.91463,0 41.49061,18.57598 41.49061,41.49061c0,22.91463 -18.57598,41.49061 -41.49061,41.49061c-22.91463,0 -41.49061,-18.57598 -41.49061,-41.49061z" fill="url(#color-5)"/><path d="M246.57277,202.1831c0,-22.91463 18.57598,-41.49061 41.49061,-41.49061c22.91463,0 41.49061,18.57598 41.49061,41.49061c0,22.91463 -18.57598,41.49061 -41.49061,41.49061c-22.91463,0 -41.49061,-18.57598 -41.49061,-41.49061z" fill="url(#color-6)"/><path d="M199.74178,195.61033c0,-22.91463 18.57598,-41.49061 41.49061,-41.49061c22.91463,0 41.49061,18.57598 41.49061,41.49061c0,22.91463 -18.57598,41.49061 -41.49061,41.49061c-22.91463,0 -41.49061,-18.57598 -41.49061,-41.49061z" fill="url(#color-7)"/><path d="M175.91549,170.96244c0,-22.91463 18.57598,-41.49061 41.49061,-41.49061c22.91463,0 41.49061,18.57598 41.49061,41.49061c0,22.91463 -18.57598,41.49061 -41.49061,41.49061c-22.91463,0 -41.49061,-18.57598 -41.49061,-41.49061z" fill="url(#color-8)"/><path d="M225.21127,147.95775c0,-22.91463 18.57598,-41.49061 41.49061,-41.49061c22.91463,0 41.49061,18.57598 41.49061,41.49061c0,22.91463 -18.57598,41.49061 -41.49061,41.49061c-22.91463,0 -41.49061,-18.57598 -41.49061,-41.49061z" fill="url(#color-9)"/><path d="M147.15962,190.68075c0,-22.91463 18.57598,-41.49061 41.49061,-41.49061c22.91463,0 41.49061,18.57598 41.49061,41.49061c0,22.91463 -18.57598,41.49061 -41.49061,41.49061c-22.91463,0 -41.49061,-18.57598 -41.49061,-41.49061z" fill="url(#color-10)"/><path d="M145.51643,147.95775c0,-22.91463 18.57598,-41.49061 41.49061,-41.49061c22.91463,0 41.49061,18.57598 41.49061,41.49061c0,22.91463 -18.57598,41.49061 -41.49061,41.49061c-22.91463,0 -41.49061,-18.57598 -41.49061,-41.49061z" fill="url(#color-11)"/><path d="M207.13615,133.99061c0,-22.91463 18.57598,-41.49061 41.49061,-41.49061c22.91463,0 41.49061,18.57598 41.49061,41.49061c0,22.91463 -18.57598,41.49061 -41.49061,41.49061c-22.91463,0 -41.49061,-18.57598 -41.49061,-41.49061z" fill="url(#color-12)"/><path d="M248.50235,175.4554c0,-22.91463 18.57598,-41.49061 41.49061,-41.49061c22.91463,0 41.49061,18.57598 41.49061,41.49061c0,22.91463 -18.57598,41.49061 -41.49061,41.49061c-22.91463,0 -41.49061,-18.57598 -41.49061,-41.49061z" fill="url(#color-13)"/><path d="M265.05869,108.93192c22.91463,0 41.49061,18.57598 41.49061,41.49061c0,22.91463 -18.57598,41.49061 -41.49061,41.49061c-22.91463,0 -41.49061,-18.57598 -41.49061,-41.49061c0,-22.91463 18.57598,-41.49061 41.49061,-41.49061z" data-paper-data="{&quot;index&quot;:null}" fill="url(#color-14)"/><path d="M256.02113,92.5c22.91463,0 41.49061,18.57598 41.49061,41.49061c0,22.91463 -18.57598,41.49061 -41.49061,41.49061c-22.91463,0 -41.49061,-18.57598 -41.49061,-41.49061c0,-22.91463 18.57598,-41.49061 41.49061,-41.49061z" data-paper-data="{&quot;index&quot;:null}" fill="url(#color-15)"/><path d="M241.2324,104.82394c22.91463,0 41.49061,18.57598 41.49061,41.49061c0,22.91463 -18.57598,41.49061 -41.49061,41.49061c-22.91463,0 -41.49061,-18.57598 -41.49061,-41.49061c0,-22.91463 18.57598,-41.49061 41.49061,-41.49061z" data-paper-data="{&quot;index&quot;:null}" fill="url(#color-16)"/><path d="M269.98827,115.5047c22.91463,0 41.49061,18.57598 41.49061,41.49061c0,22.91463 -18.57598,41.49061 -41.49061,41.49061c-22.91463,0 -41.49061,-18.57598 -41.49061,-41.49061c0,-22.91463 18.57598,-41.49061 41.49061,-41.49061z" data-paper-data="{&quot;index&quot;:null}" fill="url(#color-17)"/><path d="M204.06338,158.32629c22.91463,0 41.49061,18.57598 41.49061,41.49061c0,22.91463 -18.57598,41.49061 -41.49061,41.49061c-22.91463,0 -41.49061,-18.57598 -41.49061,-41.49061c0,-22.91463 18.57598,-41.49061 41.49061,-41.49061z" data-paper-data="{&quot;index&quot;:null}" fill="url(#color-18)"/><path d="M208.2324,97.89906c22.91463,0 41.49061,18.57598 41.49061,41.49061c0,22.91463 -18.57598,41.49061 -41.49061,41.49061c-22.91463,0 -41.49061,-18.57598 -41.49061,-41.49061c0,-22.91463 18.57598,-41.49061 41.49061,-41.49061z" data-paper-data="{&quot;index&quot;:null}" fill="url(#color-19)"/><path d="M217.40611,147.54695c22.91463,0 41.49061,18.57598 41.49061,41.49061c0,22.91463 -18.57598,41.49061 -41.49061,41.49061c-22.91463,0 -41.49061,-18.57598 -41.49061,-41.49061c0,-22.91463 18.57598,-41.49061 41.49061,-41.49061z" data-paper-data="{&quot;index&quot;:null}" fill="url(#color-20)"/><path d="M266.70188,170.55165c22.91463,0 41.49061,18.57598 41.49061,41.49061c0,22.91463 -18.57598,41.49061 -41.49061,41.49061c-22.91463,0 -41.49061,-18.57598 -41.49061,-41.49061c0,-22.91463 18.57598,-41.49061 41.49061,-41.49061z" data-paper-data="{&quot;index&quot;:null}" fill="url(#color-21)"/><path d="M188.65024,127.82864c22.91463,0 41.49061,18.57598 41.49061,41.49061c0,22.91463 -18.57598,41.49061 -41.49061,41.49061c-22.91463,0 -41.49061,-18.57598 -41.49061,-41.49061c0,-22.91463 18.57598,-41.49061 41.49061,-41.49061z" data-paper-data="{&quot;index&quot;:null}" fill="url(#color-22)"/><path d="M206.00704,179.55165c22.91463,0 41.49062,18.57598 41.49062,41.49061c0,22.91463 -18.57599,41.49061 -41.49062,41.49061c-22.91463,0 -41.49061,-18.57598 -41.49061,-41.49061c0,-22.91463 18.57598,-41.49061 41.49061,-41.49061z" data-paper-data="{&quot;index&quot;:null}" fill="url(#color-23)"/><path d="M248.62676,184.51878c22.91463,0 41.49061,18.57598 41.49061,41.49061c0,22.91463 -18.57598,41.49061 -41.49061,41.49061c-22.91463,0 -41.49061,-18.57598 -41.49061,-41.49061c0,-22.91463 18.57598,-41.49061 41.49061,-41.49061z" data-paper-data="{&quot;index&quot;:null}" fill="url(#color-24)"/><path d="M292.99296,182.05399c22.91463,0 41.49061,18.57598 41.49061,41.49061c0,22.91463 -18.57598,41.49061 -41.49061,41.49061c-22.91463,0 -41.49061,-18.57598 -41.49061,-41.49061c0,-22.91463 18.57599,-41.49061 41.49061,-41.49061z" data-paper-data="{&quot;index&quot;:null}" fill="url(#color-25)"/></g></g></svg>