<svg xmlns="http://www.w3.org/2000/svg" viewBox="0 0 48.901 70.001" height="70.001" width="48.901"><g style="stroke:#000;stroke-width:1mm;fill:#000" fill="#000" stroke-width="1mm" stroke="#000" font-size="9pt" fill-rule="evenodd" stroke-linecap="round" id="svgGroup"><path d="M 8.9 67.9 L 11.7 46.8 L 2 46.8 Q 0 46.8 0 45 Q 0 43.402 1.768 43.306 A 4.3 4.3 0 0 1 2 43.3 L 12.2 43.3 L 14.4 26.8 L 4.9 26.8 Q 2.9 26.8 2.9 25 Q 2.9 23.233 4.828 23.201 A 4.323 4.323 0 0 1 4.9 23.2 L 14.9 23.2 L 17.8 1.9 A 3.269 3.269 0 0 1 18.018 1.114 Q 18.499 0 19.8 0 Q 21.492 0 21.203 2.08 A 5.323 5.323 0 0 1 21.2 2.1 L 18.4 23.2 L 33.9 23.2 L 36.8 1.9 A 3.269 3.269 0 0 1 37.018 1.114 Q 37.499 0 38.8 0 Q 40.492 0 40.203 2.08 A 5.323 5.323 0 0 1 40.2 2.1 L 37.3 23.2 L 46.9 23.2 Q 48.9 23.2 48.9 25 Q 48.9 26.767 46.973 26.8 A 4.323 4.323 0 0 1 46.9 26.8 L 36.8 26.8 L 34.6 43.3 L 43.9 43.3 Q 45.653 43.3 45.87 44.606 A 2.411 2.411 0 0 1 45.9 45 Q 45.9 46.767 43.973 46.8 A 4.323 4.323 0 0 1 43.9 46.8 L 34.2 46.8 L 31.3 68.1 A 3.269 3.269 0 0 1 31.083 68.887 Q 30.602 70 29.3 70 A 2.209 2.209 0 0 1 28.68 69.921 Q 27.559 69.593 27.8 67.903 A 9.896 9.896 0 0 1 27.8 67.9 L 30.6 46.8 L 15.2 46.8 L 12.3 68.1 Q 12.019 69.881 10.596 69.993 A 2.5 2.5 0 0 1 10.4 70 A 2.209 2.209 0 0 1 9.78 69.921 Q 8.659 69.593 8.9 67.903 A 9.896 9.896 0 0 1 8.9 67.9 Z M 18 26.8 L 15.7 43.3 L 31.1 43.3 L 33.4 26.8 L 18 26.8 Z"></path></g></svg>