<svg xmlns="http://www.w3.org/2000/svg" viewBox="0 0 35.501 47.8" height="47.8" width="35.501"><g style="stroke:#000;stroke-width:1mm;fill:#000" fill="#000" stroke-width="1mm" stroke="#000" font-size="9pt" fill-rule="evenodd" stroke-linecap="round" id="svgGroup"><path d="M 33.5 47.8 L 2 47.8 Q 0 47.8 0 46 L 0 45.7 Q 0 44.3 0.8 43.2 L 31 3.5 L 4.1 3.5 Q 2.1 3.5 2.1 1.7 Q 2.1 0.102 3.868 0.006 A 4.3 4.3 0 0 1 4.1 0 L 33.3 0 Q 35.053 0 35.27 1.306 A 2.411 2.411 0 0 1 35.3 1.7 L 35.3 2.1 Q 35.3 3.5 34.5 4.6 L 4.3 44.3 L 33.5 44.3 Q 35.253 44.3 35.47 45.606 A 2.411 2.411 0 0 1 35.5 46 Q 35.5 47.767 33.573 47.8 A 4.323 4.323 0 0 1 33.5 47.8 Z"></path></g></svg>