<svg xmlns="http://www.w3.org/2000/svg" viewBox="0 0 63.801 72.402" height="72.402" width="63.801"><g style="stroke:#000;stroke-width:1mm;fill:#000" fill="#000" stroke-width="1mm" stroke="#000" font-size="9pt" fill-rule="evenodd" stroke-linecap="round" id="svgGroup"><path d="M 57.401 3.201 L 8.801 71.201 Q 7.754 72.723 6.345 71.892 A 3.118 3.118 0 0 1 6.201 71.801 Q 4.826 70.917 5.958 69.262 A 5.063 5.063 0 0 1 6.001 69.201 L 54.501 1.101 Q 55.643 -0.518 56.968 0.403 A 2.83 2.83 0 0 1 57.101 0.501 Q 58.373 1.501 57.58 2.914 A 3.732 3.732 0 0 1 57.401 3.201 Z M 8.905 32.5 A 13.808 13.808 0 0 0 13.701 33.301 A 16.185 16.185 0 0 0 14.841 33.261 A 12.115 12.115 0 0 0 23.651 28.801 Q 26.082 25.883 26.937 21.662 A 25 25 0 0 0 27.401 16.701 A 29.866 29.866 0 0 0 27.369 15.311 Q 27.055 8.587 23.651 4.501 A 12.053 12.053 0 0 0 18.496 0.802 A 13.808 13.808 0 0 0 13.701 0.001 A 16.185 16.185 0 0 0 12.56 0.04 A 12.115 12.115 0 0 0 3.751 4.501 A 14.155 14.155 0 0 0 2.34 6.534 Q 1.019 8.841 0.444 11.785 A 25.657 25.657 0 0 0 0.001 16.701 Q 0.001 20.026 0.718 22.758 A 15.413 15.413 0 0 0 3.751 28.801 A 12.053 12.053 0 0 0 8.905 32.5 Z M 45.305 71.6 A 13.808 13.808 0 0 0 50.101 72.401 A 16.185 16.185 0 0 0 51.241 72.361 A 12.115 12.115 0 0 0 60.051 67.901 Q 62.482 64.983 63.337 60.762 A 25 25 0 0 0 63.801 55.801 Q 63.801 48.201 60.051 43.651 A 12.058 12.058 0 0 0 54.896 39.911 A 13.671 13.671 0 0 0 50.101 39.101 A 16.008 16.008 0 0 0 48.96 39.141 A 12.071 12.071 0 0 0 40.151 43.651 Q 37.748 46.566 36.885 50.732 A 24.984 24.984 0 0 0 36.401 55.801 Q 36.401 59.126 37.118 61.858 A 15.413 15.413 0 0 0 40.151 67.901 A 12.053 12.053 0 0 0 45.305 71.6 Z M 50.101 69.001 A 10.874 10.874 0 0 0 53.32 68.55 A 8.249 8.249 0 0 0 57.701 65.351 Q 60.029 62.081 60.272 57.007 A 25.233 25.233 0 0 0 60.301 55.801 Q 60.301 49.901 57.701 46.251 A 8.424 8.424 0 0 0 51.532 42.681 A 12.351 12.351 0 0 0 50.101 42.601 A 10.477 10.477 0 0 0 46.876 43.072 A 8.258 8.258 0 0 0 42.601 46.251 Q 40.272 49.52 40.029 54.595 A 25.233 25.233 0 0 0 40.001 55.801 Q 40.001 61.701 42.601 65.351 A 8.375 8.375 0 0 0 48.732 68.925 A 11.924 11.924 0 0 0 50.101 69.001 Z M 13.701 29.801 A 10.474 10.474 0 0 0 17.027 29.298 A 8.42 8.42 0 0 0 21.251 26.151 Q 23.901 22.501 23.901 16.701 A 22.076 22.076 0 0 0 23.587 12.865 Q 23.214 10.75 22.394 9.047 A 11.475 11.475 0 0 0 21.251 7.151 A 8.586 8.586 0 0 0 14.962 3.664 A 12.378 12.378 0 0 0 13.701 3.601 A 10.75 10.75 0 0 0 10.476 4.059 A 8.244 8.244 0 0 0 6.201 7.151 A 12.508 12.508 0 0 0 4.271 11.239 Q 3.789 12.975 3.654 15.037 A 25.38 25.38 0 0 0 3.601 16.701 A 21.151 21.151 0 0 0 3.962 20.729 Q 4.418 23.079 5.449 24.954 A 12.161 12.161 0 0 0 6.201 26.151 A 8.375 8.375 0 0 0 12.332 29.725 A 11.924 11.924 0 0 0 13.701 29.801 Z"></path></g></svg>