<svg xmlns="http://www.w3.org/2000/svg" viewBox="0 0 51.001 74.502" height="74.502" width="51.001"><g style="stroke:#000;stroke-width:0.25mm;fill:#000" fill="#000" stroke-width="0.25mm" stroke="#000" font-size="9pt" fill-rule="evenodd" stroke-linecap="round" id="svgGroup"><path d="M 18.001 74.501 L 25.801 74.501 A 6.65 6.65 0 0 0 27.904 74.193 C 29.373 73.704 30.33 72.634 30.714 71.002 A 7.549 7.549 0 0 0 30.901 69.501 A 272.322 272.322 0 0 1 31.908 55.8 C 33.366 41.824 36.299 31.42 44.094 19.94 A 98.229 98.229 0 0 1 48.801 13.601 C 50.13 11.828 50.831 10.291 50.973 8.224 A 11.99 11.99 0 0 0 51.001 7.401 L 51.001 5.001 A 6.412 6.412 0 0 0 50.68 2.899 C 50.03 1.024 48.413 0.001 46.001 0.001 L 5.001 0.001 A 6.412 6.412 0 0 0 2.899 0.322 C 1.024 0.971 0.001 2.588 0.001 5.001 L 0.001 9.901 A 6.412 6.412 0 0 0 0.322 12.003 C 0.971 13.878 2.588 14.901 5.001 14.901 L 32.001 14.901 C 19.001 32.901 14.801 47.701 13.101 69.301 A 8.063 8.063 0 0 0 13.086 69.784 C 13.084 72.229 14.266 73.82 16.399 74.326 A 6.941 6.941 0 0 0 18.001 74.501 Z"></path></g></svg>