<svg xmlns="http://www.w3.org/2000/svg" viewBox="0 0 40.929 70.3" height="70.3" width="40.929"><g style="stroke:#000;stroke-width:1mm;fill:#000" fill="#000" stroke-width="1mm" stroke="#000" font-size="9pt" fill-rule="evenodd" stroke-linecap="round" id="svgGroup"><path d="M 15.6 58.9 L 19.8 47.8 L 1.9 2.3 A 5.861 5.861 0 0 1 1.776 1.899 Q 1.265 0 2.9 0 L 3 0 A 2.751 2.751 0 0 1 3.95 0.155 Q 4.711 0.433 5.127 1.213 A 3.246 3.246 0 0 1 5.3 1.6 L 21.5 43.2 L 37.2 1.6 A 2.798 2.798 0 0 1 37.668 0.774 Q 38.318 0 39.5 0 A 2.496 2.496 0 0 1 40.056 0.056 Q 41.371 0.358 40.705 2.287 A 6.288 6.288 0 0 1 40.7 2.3 L 18.9 60 A 25.265 25.265 0 0 1 17.524 63.226 Q 15.983 66.204 13.9 67.85 A 11.295 11.295 0 0 1 8.268 70.175 A 14.947 14.947 0 0 1 6.3 70.3 Q 4 70.3 1.7 69.7 Q 0.312 69.455 0.058 68.211 A 3.046 3.046 0 0 1 0 67.6 A 1.429 1.429 0 0 1 0.102 67.039 Q 0.462 66.191 2.098 66.387 A 6.383 6.383 0 0 1 2.2 66.4 Q 4.2 66.7 6.3 66.7 A 11.368 11.368 0 0 0 8.635 66.474 Q 10.12 66.163 11.261 65.421 A 6.687 6.687 0 0 0 11.9 64.95 Q 14 63.2 15.6 58.9 Z"></path></g></svg>