<svg version="1.1" xmlns="http://www.w3.org/2000/svg" xmlns:xlink="http://www.w3.org/1999/xlink" width="12.83962" height="1.85935" viewBox="0,0,12.83962,1.85935"><g transform="translate(-233.27737,-186.89067)"><g data-paper-data="{&quot;isPaintingLayer&quot;:true}" fill="#000000" fill-rule="evenodd" stroke="#000000" stroke-width="1" stroke-linecap="round" stroke-linejoin="miter" stroke-miterlimit="10" stroke-dasharray="" stroke-dashoffset="0" style="mix-blend-mode: normal"><path d="M245.82514,188.25002h-11.65026c-0.1,0.00003 -0.19669,-0.03581 -0.27251,-0.101c-0.01391,-0.01152 -0.02726,-0.0237 -0.04,-0.0365c-0.03664,-0.03596 -0.0675,-0.07737 -0.0915,-0.12275c-0.03052,-0.05857 -0.04631,-0.1237 -0.046,-0.18975c-0.00054,-0.05373 0.00808,-0.10717 0.0255,-0.158c0.0227,-0.0642 0.06122,-0.12164 0.112,-0.167c0.04354,-0.04044 0.09413,-0.07255 0.14925,-0.09475c0.05202,-0.02031 0.10741,-0.03057 0.16325,-0.03025h11.65026c0.05083,-0.00045 0.10145,0.00654 0.15025,0.02075c0.06609,0.01951 0.12619,0.05537 0.17475,0.10425c0.06792,0.068 0.11053,0.15719 0.12075,0.25276c0.00292,0.02397 0.00434,0.0481 0.00425,0.07225c0.0003,0.11187 -0.04116,0.21983 -0.11625,0.30276c-0.00288,0.00328 -0.0058,0.00653 -0.00875,0.00975c-0.08334,0.09167 -0.19167,0.1375 -0.32501,0.1375z"/></g></g></svg>