<svg version="1.1" xmlns="http://www.w3.org/2000/svg" xmlns:xlink="http://www.w3.org/1999/xlink" width="289.55072" height="38.59402" viewBox="0,0,289.55072,38.59402"><g transform="translate(-95.22464,-160.70735)"><g data-paper-data="{&quot;isPaintingLayer&quot;:true}" fill="#000000" fill-rule="evenodd" stroke="#000000" stroke-width="0.25" stroke-linecap="round" stroke-linejoin="miter" stroke-miterlimit="10" stroke-dasharray="" stroke-dashoffset="0" style="mix-blend-mode: normal"><path d="M212.57111,173.9617c-0.30198,-0.47315 -0.72386,-1.03229 -1.17924,-1.59184c-0.17719,-0.21758 -0.35712,-0.43291 -0.53976,-0.64594c-0.72507,-0.82882 -0.8595,-1.56883 -0.32781,-2.37181c0.0983,-0.14628 0.20791,-0.28464 0.32781,-0.41381c1.34396,-1.45861 2.44488,-3.03834 3.31731,-4.6108c0.34887,-0.62867 0.66987,-1.27241 0.96205,-1.92934c0.34033,-0.76665 0.80097,-1.23334 1.43722,-1.44327c0.29251,-0.09168 0.59781,-0.13598 0.90432,-0.13121h1.37262c0.10529,-0.0002 0.21057,0.00263 0.3157,0.00848c0.55228,0.03189 1.01937,0.15422 1.457,0.41381c0.252,0.15255 0.4838,0.3362 0.68994,0.54663c0.35262,0.32402 0.70158,0.65199 1.04683,0.98385c0.79007,0.75979 1.58013,1.55954 2.29712,2.34274c0.33374,0.3639 0.65908,0.73542 0.97577,1.11425c0.01861,0.02263 0.03692,0.04551 0.0549,0.06863c0.70771,0.90553 0.61324,1.81227 -0.09528,2.75736l-1.45337,1.85708h0.36334v2.82599c0.00298,0.26441 -0.03126,0.52793 -0.10174,0.7828c-0.14978,0.51796 -0.46185,0.88413 -0.91037,1.07711c-0.26791,0.10989 -0.55545,0.16388 -0.84497,0.15866h-1.85708v2.18005h2.3819c0.97375,0 1.62656,0.413 1.88897,1.16996c0.09013,0.27368 0.13393,0.56049 0.12959,0.8486v0.88817c0,0.97375 -0.413,1.62656 -1.16996,1.88897c-0.27368,0.09013 -0.56049,0.13393 -0.8486,0.12959h-2.3819v6.742c0.08154,-0.31708 0.15826,-0.63537 0.23012,-0.95478c0.12717,-0.56076 0.25192,-1.1631 0.37101,-1.76503c0.07043,-0.35804 0.1392,-0.71641 0.2063,-1.07509c0.01435,-0.0798 0.03132,-0.1591 0.05087,-0.23779c0.29229,-1.16552 1.07307,-1.68025 2.20992,-1.37706c0.20761,0.05154 0.40863,0.12672 0.59911,0.22406c0.69923,0.36617 0.99071,0.99636 0.82842,1.86071c-0.02435,0.12771 -0.05616,0.25389 -0.09528,0.37787c-0.13484,0.5115 -0.28704,1.0226 -0.42188,1.51029c-0.06572,0.23553 -0.12696,0.47228 -0.18369,0.71013c-0.32741,1.12717 -0.98223,1.66491 -1.87605,1.55389c-0.10261,-0.01296 -0.20419,-0.03306 -0.304,-0.06015l-1.61485,-0.44408v1.65522l2.13968,-0.40371c0.1492,-0.02723 0.29858,-0.05347 0.44812,-0.07872c0.86677,-0.14574 1.44448,-0.20024 1.62858,-0.1191c0.03505,0.00976 0.06023,0.04043 0.06298,0.07671v0.2826c0.18203,-0.10415 0.36344,-0.20938 0.5442,-0.3157c0.55874,-0.32822 1.15744,-0.69237 1.78199,-1.08235c0.87314,-0.5461 1.73957,-1.10287 2.5991,-1.67016c0.14662,-0.0968 0.29957,-0.18366 0.45781,-0.25999c0.96164,-0.45942 1.73556,-0.25636 2.08558,0.58296l0.60557,1.61485v-11.42507h-5.49049c-0.97416,0 -1.62696,-0.413 -1.88897,-1.16996c-0.09013,-0.27368 -0.13393,-0.56049 -0.12959,-0.8486v-0.88817c0,-0.97416 0.413,-1.62656 1.16996,-1.88897c0.27368,-0.09013 0.56049,-0.13393 0.8486,-0.12959h10.69838v-1.25151h-8.07425c-0.97416,0 -1.62696,-0.413 -1.88897,-1.16996c-0.09013,-0.27368 -0.13393,-0.56049 -0.12959,-0.8486v-0.36334c0,-0.97416 0.413,-1.62656 1.16996,-1.88897c0.27368,-0.09013 0.56049,-0.13393 0.8486,-0.12959h8.07425v-1.41299h-8.96242c-0.97416,0 -1.62696,-0.413 -1.88897,-1.16996c-0.09013,-0.27368 -0.13393,-0.56049 -0.12959,-0.8486v-0.72668c0,-0.97416 0.413,-1.62656 1.16996,-1.88897c0.27368,-0.09013 0.56049,-0.13393 0.8486,-0.12959h12.07101c0.97375,0 1.62656,0.413 1.88897,1.16996c0.09013,0.27368 0.13393,0.56049 0.12959,0.8486v9.81022h0.68631c0.97375,0 1.62656,0.413 1.88897,1.16996c0.09013,0.27368 0.13393,0.56049 0.12959,0.8486v0.88817c0,0.97375 -0.413,1.62656 -1.16996,1.88897c-0.27368,0.09013 -0.56049,0.13393 -0.8486,0.12959h-5.8942v1.53411c0.1034,0.33692 0.21256,0.67205 0.32741,1.00524c0.26868,0.7836 0.57711,1.55299 0.9241,2.3052c0.64594,-0.80743 1.33225,-1.73596 1.93782,-2.6645c0.62697,-0.97577 1.43479,-1.28986 2.34476,-0.89019c0.15377,0.06845 0.30128,0.15017 0.44085,0.24425l0.76705,0.48446c1.1304,0.76705 1.29188,1.81671 0.32297,2.82599l-1.73596,1.89745c-0.02269,0.0236 -0.0457,0.04688 -0.06903,0.06984c-0.82923,0.82196 -1.73556,0.87929 -2.75695,0.17239l-0.2826,-0.20186c1.25151,2.18005 2.86636,4.27935 4.92529,5.77309c1.1304,0.80743 1.25151,1.65522 0.40371,2.70487c-0.36334,0.44408 -0.72668,0.92854 -1.04965,1.41299c-0.69802,1.02826 -1.62979,1.35486 -2.52159,0.67622c-0.09313,-0.07136 -0.18133,-0.14891 -0.26403,-0.23213c-1.45337,-1.41299 -2.70487,-3.2297 -3.71416,-5.08678v2.98747c0.00121,0.35514 -0.00674,0.71026 -0.02382,1.06499c-0.02503,0.48365 -0.07307,0.91643 -0.15583,1.30399c-0.13436,0.88489 -0.66199,1.66142 -1.4352,2.11222c-0.52146,0.30367 -1.08756,0.52316 -1.67743,0.65038c-0.47121,0.10286 -0.94971,0.16886 -1.43116,0.19742c-0.00417,0.00028 -0.00834,0.00055 -0.01252,0.00081c-0.91118,0.05531 -1.52159,-0.29834 -1.89341,-0.96608c-0.14378,-0.26786 -0.24962,-0.55442 -0.31449,-0.85143c-0.08074,-0.2826 -0.12111,-0.5652 -0.20186,-0.8478c-0.40371,-1.45337 -0.32297,-2.26079 0.40371,-2.26079h1.1304c0.30238,0 0.43682,-0.08397 0.47355,-0.34477c0.00778,-0.0597 0.01142,-0.11986 0.0109,-0.18006v-1.89745c-1.45337,1.17077 -3.02784,2.34153 -4.52158,3.43156c-0.12931,0.09641 -0.26499,0.18395 -0.40613,0.26201c-0.72628,0.39887 -1.36011,0.35365 -1.81953,-0.10779c-0.12626,-0.12966 -0.23325,-0.27676 -0.31772,-0.43682l-0.8478,-1.49374l0.04037,0.32297c0.09084,0.93782 -0.22689,1.60395 -0.90149,1.99757c-0.24809,0.14021 -0.51575,0.24254 -0.7941,0.30359c-3.35081,0.72668 -6.82274,1.45337 -9.81022,2.05893c-0.09224,0.02032 -0.18531,0.03662 -0.27897,0.04885c-0.87242,0.11223 -1.51352,-0.20024 -1.86556,-0.89422c-0.11322,-0.23058 -0.19314,-0.47606 -0.23738,-0.7291l-0.24223,-1.29188c-0.19096,-1.04965 0.1195,-1.74848 0.8914,-2.11626c0.23043,-0.10597 0.4736,-0.18169 0.72345,-0.22527c0.26482,-0.04071 0.52966,-0.08135 0.79451,-0.12192c0.82682,-0.12407 1.65207,-0.25838 2.47557,-0.40291v-9.52762h-2.82599c-0.97416,0 -1.62696,-0.413 -1.88897,-1.16996c-0.09013,-0.27368 -0.13393,-0.56049 -0.12959,-0.8486v-0.88817c0,-0.97416 0.413,-1.62656 1.16996,-1.88897c0.27368,-0.09013 0.56049,-0.13393 0.8486,-0.12959h2.82599v-2.18005h-1.09002c-0.00807,0.00001 -0.01615,0.00001 -0.02422,0c-0.76988,-0.00242 -1.33629,-0.12071 -1.66491,-0.3375c-0.19955,-0.1123 -0.32484,-0.32174 -0.32943,-0.55066v-0.88817l-0.20186,0.20186c-0.04467,-0.07578 -0.0907,-0.15075 -0.13807,-0.22487zM95.47952,174.83331c-0.09013,-0.27368 -0.13393,-0.56049 -0.12959,-0.8486v-1.61485c0,-0.97416 0.413,-1.62656 1.16996,-1.88897c0.27368,-0.09013 0.56049,-0.13393 0.8486,-0.12959h3.35081v-6.21717c0,-0.97416 0.413,-1.62656 1.16996,-1.88897c0.27368,-0.09013 0.56049,-0.13393 0.8486,-0.12959h1.73596c0.97375,0 1.62656,0.413 1.88897,1.16996c0.09013,0.27368 0.13393,0.56049 0.12959,0.8486v6.21717h4.15824v-7.06497c0,-0.97416 0.413,-1.62656 1.16996,-1.88897c0.27368,-0.09013 0.56049,-0.13393 0.8486,-0.12959h1.57448c0.97375,0 1.62656,0.413 1.88897,1.16996c0.09013,0.27368 0.13393,0.56049 0.12959,0.8486v7.06497h3.95638v-6.70163c0,-0.97416 0.413,-1.62656 1.16996,-1.88897c0.27368,-0.09013 0.56049,-0.13393 0.8486,-0.12959h1.61485c0.97375,0 1.62656,0.413 1.88897,1.16996c0.09013,0.27368 0.13393,0.56049 0.12959,0.8486v6.70163h3.55267c0.97375,0 1.62656,0.413 1.88897,1.16996c0.09013,0.27368 0.13393,0.56049 0.12959,0.8486v1.61485c0,0.97375 -0.413,1.62656 -1.16996,1.88897c-0.27368,0.09013 -0.56049,0.13393 -0.8486,0.12959h-3.55267v10.13319c0,0.97375 -0.413,1.62656 -1.16996,1.88897c-0.27368,0.09013 -0.56049,0.13393 -0.8486,0.12959h-1.61485c-0.8478,0 -1.45215,-0.12192 -1.76745,-0.34235c-0.15079,-0.08934 -0.2455,-0.24952 -0.25111,-0.42471v-0.72668h-3.95638c0,0.75736 -0.44408,1.24343 -1.25514,1.41945c-0.25112,0.05178 -0.50703,0.07668 -0.76342,0.07428h-1.57448c-0.97416,0 -1.62696,-0.413 -1.88897,-1.16996c-0.09013,-0.27368 -0.13393,-0.56049 -0.12959,-0.8486v-10.13319h-4.15824v15.17959h21.55825c0.97375,0 1.62656,0.413 1.88897,1.16996c0.09013,0.27368 0.13393,0.56049 0.12959,0.8486v1.61485c0,0.97375 -0.413,1.62656 -1.16996,1.88897c-0.27368,0.09013 -0.56049,0.13393 -0.8486,0.12959h-21.55825v0.32297c0,0.97375 -0.413,1.62656 -1.16996,1.88897c-0.27368,0.09013 -0.56049,0.13393 -0.8486,0.12959h-1.73596c-0.97416,0 -1.62696,-0.413 -1.88897,-1.16996c-0.09013,-0.27368 -0.13393,-0.56049 -0.12959,-0.8486v-21.15454h-3.35081c-0.97416,0 -1.62696,-0.413 -1.88897,-1.16996zM249.93995,166.51684c-0.09013,-0.27368 -0.13393,-0.56049 -0.12959,-0.8486v-1.17077c0,-0.97416 0.413,-1.62656 1.16996,-1.88897c0.27368,-0.09013 0.56049,-0.13393 0.8486,-0.12959h29.99584c0.97375,0 1.62656,0.413 1.88897,1.16996c0.09013,0.27368 0.13393,0.56049 0.12959,0.8486v1.17077c0,0.97375 -0.413,1.62656 -1.16996,1.88897c-0.27368,0.09013 -0.56049,0.13393 -0.8486,0.12959h-11.74804v1.77634h9.28539c0.97375,0 1.62656,0.413 1.88897,1.16996c0.09013,0.27368 0.13393,0.56049 0.12959,0.8486v13.24177c0,0.97375 -0.413,1.62656 -1.16996,1.88897c-0.27368,0.09013 -0.56049,0.13393 -0.8486,0.12959h-9.93133c-0.52483,1.77634 -1.29188,3.47193 -2.46265,4.96566c0.37023,0.10256 0.74283,0.19638 1.11748,0.28139c3.44528,0.78441 7.43154,0.95599 11.95797,0.92733c0.93023,-0.00655 1.8604,-0.0192 2.79046,-0.03795c1.57448,-0.04037 2.01856,0.80743 1.41299,2.26079c-0.24223,0.5652 -0.44408,1.1304 -0.64594,1.69559c-0.06149,0.20268 -0.13925,0.40007 -0.23254,0.59023c-0.39039,0.78199 -1.00807,1.17844 -2.02825,1.14574c-0.9601,-0.01519 -1.92004,-0.03941 -2.87968,-0.07267c-2.83124,-0.10012 -5.5135,-0.29148 -8.02419,-0.65603c-2.7845,-0.35995 -5.51077,-1.07846 -8.11099,-2.13766c-0.46062,0.2721 -0.932,0.52557 -1.41299,0.75979c-1.01372,0.49536 -2.12797,0.94348 -3.34678,1.35082c-1.15728,0.38288 -2.33047,0.71584 -3.51634,0.99798c-0.89624,0.21639 -1.57932,0.03028 -2.12232,-0.53936c-0.17828,-0.19145 -0.33318,-0.4034 -0.46144,-0.63141c-0.18853,-0.32297 -0.39483,-0.68187 -0.6193,-1.04077c-0.11236,-0.18061 -0.22893,-0.35856 -0.34962,-0.53371c-0.01252,-0.01821 -0.0249,-0.03651 -0.03714,-0.0549c-0.72103,-1.08276 -0.54784,-1.87484 0.47033,-2.27936c0.18691,-0.07246 0.37963,-0.12891 0.5761,-0.16875c0.35031,-0.06293 0.69981,-0.13022 1.04844,-0.20186c0.74687,-0.15381 1.44529,-0.32014 2.09729,-0.49859c0.66944,-0.18136 1.33056,-0.39217 1.98142,-0.63181c-0.68631,-0.64594 -1.33225,-1.33225 -1.97819,-2.05893c-0.0992,-0.11994 -0.1896,-0.24691 -0.27049,-0.37989c-0.59184,-0.98062 -0.28825,-1.85506 0.71457,-2.28461l1.85708,-0.76705h-1.89745c-0.97416,0 -1.62696,-0.413 -1.88897,-1.16996c-0.09013,-0.27368 -0.13393,-0.56049 -0.12959,-0.8486v-13.24177c0,-0.97416 0.413,-1.62656 1.16996,-1.88897c0.27368,-0.09013 0.56049,-0.13393 0.8486,-0.12959h9.1239v-1.77634h-12.3536c-0.97416,0 -1.62696,-0.413 -1.88897,-1.16996zM138.91052,189.08356c-0.0334,0.01548 -0.06705,0.03042 -0.10093,0.04481c-1.08033,0.45983 -1.89906,0.12677 -2.60395,-0.85224c-0.32297,-0.48446 -0.68631,-0.96891 -1.04965,-1.41299c-0.10098,-0.12598 -0.19324,-0.2587 -0.27614,-0.39725c-0.48567,-0.82196 -0.33508,-1.50423 0.4352,-1.99797c0.16738,-0.10528 0.34383,-0.1954 0.52725,-0.26928c1.23816,-0.4878 2.44067,-1.06167 3.59869,-1.71739c1.23758,-0.69487 2.41106,-1.49818 3.50665,-2.40047h-3.10859c-0.97416,0 -1.62696,-0.413 -1.88897,-1.16996c-0.09013,-0.27368 -0.13393,-0.56049 -0.12959,-0.8486v-13.80697c0,-0.97416 0.413,-1.62656 1.16996,-1.88897c0.27368,-0.09013 0.56049,-0.13393 0.8486,-0.12959h24.06127c0.97375,0 1.62656,0.413 1.88897,1.16996c0.09013,0.27368 0.13393,0.56049 0.12959,0.8486v13.80697c0,0.97375 -0.413,1.62656 -1.16996,1.88897c-0.27368,0.09013 -0.56049,0.13393 -0.8486,0.12959h-3.39119c0.63865,0.51836 1.30963,0.99557 2.00887,1.42874c1.65795,1.01606 3.42083,1.84999 5.25795,2.48727c1.26402,0.43318 1.59103,1.15744 0.98143,2.14331c-0.07786,0.12474 -0.16292,0.24485 -0.25474,0.35971c-0.20086,0.26378 -0.39445,0.53303 -0.58054,0.80743c-0.18266,0.26957 -0.36595,0.53871 -0.54986,0.80743c-0.01039,0.01582 -0.02088,0.03156 -0.03149,0.04723c-0.59063,0.87606 -1.32821,1.22325 -2.23818,0.99071c-0.14871,-0.03863 -0.29421,-0.0887 -0.4352,-0.14978c-1.41299,-0.60557 -2.78562,-1.33225 -4.03713,-2.18005v10.17356c0,0.97375 -0.413,1.62656 -1.16996,1.88897c-0.27368,0.09013 -0.56049,0.13393 -0.8486,0.12959h-1.77634c-0.97416,0 -1.62696,-0.413 -1.88897,-1.16996c-0.09013,-0.27368 -0.13393,-0.56049 -0.12959,-0.8486v-10.33504c-0.00042,-0.14522 0.00686,-0.29035 0.0218,-0.4348c0.07025,-0.65886 0.30803,-1.12797 0.69802,-1.37706c0.23258,-0.14224 0.50139,-0.21404 0.77392,-0.2067h1.49374c-1.53411,-1.37262 -2.90673,-2.90673 -4.0775,-4.56195h-3.71416c-1.17077,1.61485 -2.50302,3.10859 -4.03713,4.44084h1.17077c0.97375,0 1.62656,0.413 1.88897,1.16996c0.09013,0.27368 0.13393,0.56049 0.12959,0.8486v0.92854c0.00136,0.582 -0.02869,1.16366 -0.09003,1.74242c-0.29027,2.68065 -1.38514,5.71738 -4.69275,8.09444c-0.76991,0.54823 -1.58779,1.02574 -2.44367,1.42672c-0.92733,0.41542 -1.67702,0.29955 -2.30964,-0.28785c-0.17842,-0.16891 -0.33801,-0.35666 -0.47598,-0.55995c-0.36334,-0.48446 -0.72668,-0.96891 -1.1304,-1.45337c-0.83165,-0.97012 -0.74162,-1.7618 0.19378,-2.37504c0.1701,-0.10976 0.34824,-0.20652 0.5329,-0.28946c4.0775,-1.89745 4.68307,-4.52158 4.68307,-6.54014v-0.72668c-1.41299,1.00928 -2.9471,1.85708 -4.52158,2.58376zM287.48522,177.17485c-0.09013,-0.27368 -0.13393,-0.56049 -0.12959,-0.8486v-0.72668c0,-0.90068 0.27452,-1.52684 0.7832,-1.82317c0.24157,-0.13465 0.5148,-0.20213 0.79128,-0.1954h1.53411c-0.01285,-0.08302 -0.02644,-0.16591 -0.04077,-0.24869c-0.08474,-0.47067 -0.17882,-0.93961 -0.2822,-1.40653c-0.18692,-0.74727 -0.23859,-1.33225 -0.12434,-1.72385c0.05898,-0.26516 0.26391,-0.47354 0.52806,-0.53694l1.00928,-0.24223h-1.69559c-0.97416,0 -1.62696,-0.413 -1.88897,-1.16996c-0.09013,-0.27368 -0.13393,-0.56049 -0.12959,-0.8486v-0.68631c0,-0.97416 0.413,-1.62656 1.16996,-1.88897c0.27368,-0.09013 0.56049,-0.13393 0.8486,-0.12959h3.99675v-1.41299c0,-0.97416 0.413,-1.62656 1.16996,-1.88897c0.27368,-0.09013 0.56049,-0.13393 0.8486,-0.12959h1.37262c0.06745,-0.00001 0.1349,0.00174 0.20226,0.00525c1.16511,0.06096 1.8163,0.65846 1.8163,1.69034v1.73596h3.99675c0.97375,0 1.62656,0.413 1.88897,1.16996c0.09013,0.27368 0.13393,0.56049 0.12959,0.8486v0.68631c0,0.92854 -0.27129,1.56519 -0.79854,1.84981c-0.22723,0.11685 -0.48013,0.17487 -0.73556,0.16875h-1.57448c0.11622,0.02261 0.22984,0.05696 0.33912,0.10254c0.64433,0.27251 0.87565,0.90553 0.63948,1.77068c-0.0362,0.13157 -0.07988,0.26097 -0.1308,0.38756c-0.01629,0.04177 -0.0327,0.08349 -0.04925,0.12515c-0.26403,0.66613 -0.52563,1.23052 -0.75252,1.75898c-0.00189,0.00444 -0.00377,0.00888 -0.00565,0.01332h1.29188c0.97375,0 1.62656,0.413 1.88897,1.16996c0.09013,0.27368 0.13393,0.56049 0.12959,0.8486v0.72668c0,0.97375 -0.413,1.62656 -1.16996,1.88897c-0.27368,0.09013 -0.56049,0.13393 -0.8486,0.12959h-4.23898v2.46265h3.83527c0.97375,0 1.62656,0.413 1.88897,1.16996c0.09013,0.27368 0.13393,0.56049 0.12959,0.8486v0.8478c0,0.97375 -0.413,1.62656 -1.16996,1.88897c-0.27368,0.09013 -0.56049,0.13393 -0.8486,0.12959h-3.83527v0.04037c0.70286,0.47921 1.76019,1.28784 2.7513,2.06459c0.25424,0.19925 0.5079,0.39922 0.761,0.59992c0.06889,0.05281 0.13569,0.10829 0.20024,0.16633c0.71457,0.64513 0.8478,1.38433 0.457,2.18005c-0.08387,0.16809 -0.18221,0.32857 -0.2939,0.47961l-0.5652,0.76705c-0.72668,0.96891 -1.48324,1.28502 -2.0658,0.89826c-0.10364,-0.07031 -0.19652,-0.15531 -0.27574,-0.25232c-0.0809,-0.09097 -0.16164,-0.18207 -0.24223,-0.27331c-0.24919,-0.27972 -0.49149,-0.5655 -0.72668,-0.85708v5.6116c0,0.97375 -0.413,1.62656 -1.16996,1.88897c-0.27368,0.09013 -0.56049,0.13393 -0.8486,0.12959h-1.37262c-0.97416,0 -1.62696,-0.413 -1.88897,-1.16996c-0.09013,-0.27368 -0.13393,-0.56049 -0.12959,-0.8486v-4.68307c-0.76705,1.04965 -1.57448,2.05893 -2.42228,2.98747c-0.05848,0.06366 -0.11977,0.12468 -0.18369,0.18288c-0.72184,0.65644 -1.50262,0.63585 -2.1966,0.04683c-0.16437,-0.1416 -0.31372,-0.29975 -0.4457,-0.47194c-0.2826,-0.32297 -0.52483,-0.64594 -0.80743,-0.92854c-0.08383,-0.0947 -0.16279,-0.1936 -0.23658,-0.29633c-0.63423,-0.88898 -0.5115,-1.68913 0.39806,-2.48929c1.77634,-1.57448 3.55267,-3.67378 4.84455,-5.77309h-3.31044c-0.97416,0 -1.62696,-0.413 -1.88897,-1.16996c-0.09013,-0.27368 -0.13393,-0.56049 -0.12959,-0.8486v-0.8478c0,-0.97416 0.413,-1.62656 1.16996,-1.88897c0.27368,-0.09013 0.56049,-0.13393 0.8486,-0.12959h4.3601v-2.46265h-4.48121c-0.97416,0 -1.62696,-0.413 -1.88897,-1.16996zM189.21311,191.34435v-13.60511c0,-0.97416 0.413,-1.62656 1.16996,-1.88897c0.27368,-0.09013 0.56049,-0.13393 0.8486,-0.12959h9.56799v-7.42831h-9.48725c-0.97416,0 -1.62696,-0.413 -1.88897,-1.16996c-0.09013,-0.27368 -0.13393,-0.56049 -0.12959,-0.8486v-1.53411c0,-0.97416 0.413,-1.62656 1.16996,-1.88897c0.27368,-0.09013 0.56049,-0.13393 0.8486,-0.12959h13.08029c0.97375,0 1.62656,0.413 1.88897,1.16996c0.09013,0.27368 0.13393,0.56049 0.12959,0.8486v16.4311c0,0.97375 -0.413,1.62656 -1.16996,1.88897c-0.27368,0.09013 -0.56049,0.13393 -0.8486,0.12959h-1.57448c-0.19833,0.00062 -0.39656,-0.00922 -0.59386,-0.02947c-0.91845,-0.09729 -1.4247,-0.43399 -1.4247,-0.93944v-0.96891h-5.93457v10.05244c-0.00094,0.19965 0.00337,0.39928 0.01292,0.59871c0.05652,1.05813 0.32055,1.36576 1.26201,1.43964c0.22062,0.01533 0.44175,0.0222 0.6629,0.02059h4.40047c1.29188,0 1.69559,-0.5652 1.97819,-3.35081c0.10981,-1.31772 0.65078,-1.73919 1.68348,-1.35526c0.1139,0.04274 0.22572,0.09083 0.33508,0.14413c0.24519,0.12078 0.49428,0.23348 0.74687,0.33791c0.2488,0.10306 0.49776,0.20573 0.74687,0.30803c0.21596,0.0801 0.42363,0.18096 0.6201,0.30117c0.67985,0.42309 1.0218,1.03714 0.97739,1.90512c-0.00435,0.08572 -0.01203,0.17123 -0.02301,0.25636c-0.76705,5.32901 -2.42228,6.98423 -6.58051,6.98423h-5.65198c-5.20789,0 -6.82274,-1.65522 -6.82274,-7.54943zM307.37977,197.3193c-0.06608,0.1031 -0.13877,0.20181 -0.2176,0.29552c-0.69035,0.8155 -1.54501,0.73516 -2.37181,0.01413c-0.11119,-0.09751 -0.21712,-0.20087 -0.31732,-0.30965c-0.0059,-0.00675 -0.01182,-0.01347 -0.01776,-0.02019c-0.28018,-0.31611 -0.63504,-0.63181 -0.95115,-0.90835c-0.04805,-0.04188 -0.09516,-0.08482 -0.1413,-0.12878c-0.72184,-0.69075 -0.87848,-1.36536 -0.49132,-2.20064c0.06738,-0.14334 0.14383,-0.28223 0.22891,-0.41582c3.10859,-4.72344 3.39119,-10.73875 3.39119,-15.62368v-11.70766c0,-1.33588 0.5115,-2.09204 1.3153,-1.98586c0.07413,0.00999 0.14732,0.02605 0.21881,0.04804l1.49374,0.44408c1.60546,-0.43259 3.19092,-0.93625 4.7517,-1.50948c1.03251,-0.37812 2.04692,-0.80396 3.03996,-1.27614c1.04965,-0.52483 1.93782,-0.40371 2.78562,0.40371l1.33225,1.25151c0.00283,0.00269 0.00566,0.00538 0.00848,0.00807c0.92248,0.89463 0.93782,1.87524 0.04522,2.49373c-0.16816,0.11451 -0.34868,0.20971 -0.53815,0.28381c-1.8337,0.72543 -3.70711,1.34613 -5.6112,1.8591c-1.17753,0.32211 -2.36219,0.61757 -3.55307,0.88615v4.80418h9.48725c0.97375,0 1.62656,0.413 1.88897,1.16996c0.09013,0.27368 0.13393,0.56049 0.12959,0.8486v1.37262c0.00005,0.09752 -0.00345,0.19502 -0.0105,0.29229c-0.08074,1.10859 -0.63665,1.72627 -1.60435,1.72627h-1.61485v17.52113c0,0.97375 -0.413,1.62656 -1.16996,1.88897c-0.27368,0.09013 -0.56049,0.13393 -0.8486,0.12959h-1.37262c-0.97416,0 -1.62696,-0.413 -1.88897,-1.16996c-0.09013,-0.27368 -0.13393,-0.56049 -0.12959,-0.8486v-17.52113h-2.86636c-0.12111,5.32901 -0.88817,12.55546 -4.40047,17.88447zM173.71902,197.40085c-0.09013,-0.27368 -0.13393,-0.56049 -0.12959,-0.8486v-9.9717c0,-0.97416 0.413,-1.62656 1.16996,-1.88897c0.27368,-0.09013 0.56049,-0.13393 0.8486,-0.12959h8.63945c0.97375,0 1.62656,0.413 1.88897,1.16996c0.09013,0.27368 0.13393,0.56049 0.12959,0.8486v8.51834c0,0.97375 -0.413,1.62656 -1.16996,1.88897c-0.27368,0.09013 -0.56049,0.13393 -0.8486,0.12959h-5.85383c0,0.92854 -0.72668,1.45337 -2.01856,1.45337h-0.76705c-0.97416,0 -1.62696,-0.413 -1.88897,-1.16996zM329.95134,166.10101c0.26076,-0.07674 0.5316,-0.11376 0.80339,-0.10981h3.10859c0.19934,-0.00145 0.39832,0.01735 0.59386,0.05612c0.94065,0.19378 1.41824,0.88534 1.38433,2.00282l-0.16149,4.3601l-0.88817,11.70766c-0.08074,1.25151 -0.8478,1.93782 -2.09931,1.93782h-0.76705c-0.17278,0.0008 -0.3453,-0.01365 -0.51554,-0.0432c-0.94509,-0.16875 -1.51473,-0.82559 -1.58376,-1.89462l-0.88817,-11.70766l-0.16149,-4.3601c-0.03149,-1.03108 0.37263,-1.69963 1.1748,-1.94912zM345.97873,166.10101c0.26076,-0.07674 0.5316,-0.11376 0.80339,-0.10981h3.10859c0.19934,-0.00145 0.39832,0.01735 0.59386,0.05612c0.94065,0.19378 1.41824,0.88534 1.38433,2.00282l-0.16149,4.3601l-0.88817,11.70766c-0.08074,1.25151 -0.8478,1.93782 -2.09931,1.93782h-0.76705c-0.17278,0.0008 -0.3453,-0.01365 -0.51554,-0.0432c-0.94509,-0.16875 -1.51473,-0.82559 -1.58376,-1.89462l-0.88817,-11.70766l-0.16149,-4.3601c-0.03149,-1.03108 0.37263,-1.69963 1.1748,-1.94912zM362.00612,166.10101c0.26076,-0.07674 0.5316,-0.11376 0.80339,-0.10981h3.10859c0.19934,-0.00145 0.39832,0.01735 0.59386,0.05612c0.94065,0.19378 1.41824,0.88534 1.38433,2.00282l-0.16149,4.3601l-0.88817,11.70766c-0.08074,1.25151 -0.8478,1.93782 -2.09931,1.93782h-0.76705c-0.17278,0.0008 -0.3453,-0.01365 -0.51554,-0.0432c-0.94509,-0.16875 -1.51473,-0.82559 -1.58376,-1.89462l-0.88817,-11.70766l-0.16149,-4.3601c-0.03149,-1.03108 0.37263,-1.69963 1.1748,-1.94912zM378.03351,166.10101c0.26076,-0.07674 0.5316,-0.11376 0.80339,-0.10981h3.10859c0.19934,-0.00145 0.39832,0.01735 0.59386,0.05612c0.94065,0.19378 1.41824,0.88534 1.38433,2.00282l-0.16149,4.3601l-0.88817,11.70766c-0.08074,1.25151 -0.8478,1.93782 -2.09931,1.93782h-0.76705c-0.17278,0.0008 -0.3453,-0.01365 -0.51554,-0.0432c-0.94509,-0.16875 -1.51473,-0.82559 -1.58376,-1.89462l-0.88817,-11.70766l-0.16149,-4.3601c-0.03149,-1.03108 0.37263,-1.69963 1.1748,-1.94912zM171.98306,170.9173c-0.09013,-0.27368 -0.13393,-0.56049 -0.12959,-0.8486v-0.52483c0,-0.97416 0.413,-1.62656 1.16996,-1.88897c0.27368,-0.09013 0.56049,-0.13393 0.8486,-0.12959h12.03063c0.97375,0 1.62656,0.413 1.88897,1.16996c0.09013,0.27368 0.13393,0.56049 0.12959,0.8486v0.52483c0,0.97375 -0.413,1.62656 -1.16996,1.88897c-0.27368,0.09013 -0.56049,0.13393 -0.8486,0.12959h-12.03063c-0.97416,0 -1.62696,-0.413 -1.88897,-1.16996zM173.88051,176.48854c-0.09013,-0.27368 -0.13393,-0.56049 -0.12959,-0.8486v-0.32297c0,-0.97416 0.413,-1.62656 1.16996,-1.88897c0.27368,-0.09013 0.56049,-0.13393 0.8486,-0.12959h8.59908c0.97375,0 1.62656,0.413 1.88897,1.16996c0.09013,0.27368 0.13393,0.56049 0.12959,0.8486v0.32297c0,0.97375 -0.413,1.62656 -1.16996,1.88897c-0.27368,0.09013 -0.56049,0.13393 -0.8486,0.12959h-8.59908c-0.97416,0 -1.62696,-0.413 -1.88897,-1.16996zM173.88051,182.05977c-0.09013,-0.27368 -0.13393,-0.56049 -0.12959,-0.8486v-0.32297c0,-0.97416 0.413,-1.62656 1.16996,-1.88897c0.27368,-0.09013 0.56049,-0.13393 0.8486,-0.12959h8.59908c0.97375,0 1.62656,0.413 1.88897,1.16996c0.09013,0.27368 0.13393,0.56049 0.12959,0.8486v0.32297c0,0.97375 -0.413,1.62656 -1.16996,1.88897c-0.27368,0.09013 -0.56049,0.13393 -0.8486,0.12959h-8.59908c-0.97416,0 -1.62696,-0.413 -1.88897,-1.16996zM185.2979,166.22495c-0.27368,0.09013 -0.56049,0.13393 -0.8486,0.12959h-8.43759c-0.97416,0 -1.62696,-0.413 -1.88897,-1.16996c-0.09013,-0.27368 -0.13393,-0.56049 -0.12959,-0.8486v-0.32297c0,-0.97416 0.413,-1.62656 1.16996,-1.88897c0.27368,-0.09013 0.56049,-0.13393 0.8486,-0.12959h8.43759c0.97375,0 1.62656,0.413 1.88897,1.16996c0.09013,0.27368 0.13393,0.56049 0.12959,0.8486v0.32297c0,0.97375 -0.413,1.62656 -1.16996,1.88897zM332.28884,188.59911c2.50302,0 4.27935,1.93782 4.27935,4.44084c0,1.44691 -0.59386,2.7186 -1.57852,3.5341c-0.76075,0.62374 -1.71715,0.95913 -2.70084,0.94711c-0.02194,0.00002 -0.04387,-0.00011 -0.06581,-0.0004c-1.37545,-0.01978 -2.53168,-0.65886 -3.27572,-1.66047c-0.59481,-0.81906 -0.90955,-1.80815 -0.89745,-2.82034c0,-2.50302 1.77634,-4.44084 4.23898,-4.44084zM348.31623,188.59911c2.50302,0 4.27935,1.93782 4.27935,4.44084c0,1.44691 -0.59386,2.7186 -1.57852,3.5341c-0.76075,0.62374 -1.71715,0.95913 -2.70084,0.94711c-0.02194,0.00002 -0.04387,-0.00011 -0.06581,-0.0004c-1.37545,-0.01978 -2.53168,-0.65886 -3.27572,-1.66047c-0.59481,-0.81906 -0.90955,-1.80815 -0.89745,-2.82034c0,-2.50302 1.77634,-4.44084 4.23898,-4.44084zM364.34362,188.59911c2.50302,0 4.27935,1.93782 4.27935,4.44084c0,1.44691 -0.59386,2.7186 -1.57852,3.5341c-0.76075,0.62374 -1.71715,0.95913 -2.70084,0.94711c-0.02194,0.00002 -0.04387,-0.00011 -0.06581,-0.0004c-1.37545,-0.01978 -2.53168,-0.65886 -3.27572,-1.66047c-0.59481,-0.81906 -0.90955,-1.80815 -0.89745,-2.82034c0,-2.50302 1.77634,-4.44084 4.23898,-4.44084zM380.37101,188.59911c2.50302,0 4.27935,1.93782 4.27935,4.44084c0,1.44691 -0.59386,2.7186 -1.57852,3.5341c-0.76075,0.62374 -1.71715,0.95913 -2.70084,0.94711c-0.02194,0.00002 -0.04387,-0.00011 -0.06581,-0.0004c-1.37545,-0.01978 -2.53168,-0.65886 -3.27572,-1.66047c-0.59481,-0.81906 -0.90955,-1.80815 -0.89745,-2.82034c0,-2.50302 1.77634,-4.44084 4.23898,-4.44084zM294.62246,171.19909c0.36334,1.25151 0.08074,1.97819 -0.44408,2.13968l-0.8478,0.24223h6.58051l-0.20186,-0.04037c-1.33225,-0.2826 -1.85708,-1.09002 -1.49374,-2.26079c0.05,-0.15922 0.10006,-0.31841 0.15018,-0.47759c0.14908,-0.45291 0.27414,-0.91338 0.37465,-1.37949h-4.72344c0.24223,0.5652 0.44408,1.17077 0.60557,1.77634zM230.47091,186.39968c-0.81106,0.46104 -1.47315,0.30238 -2.07145,-0.35688c-0.14297,-0.16025 -0.27323,-0.3314 -0.38958,-0.51191c-0.08211,-0.14337 -0.16773,-0.28472 -0.25676,-0.4239c-0.28389,-0.43845 -0.58892,-0.86285 -0.91401,-1.27169c-0.8478,-1.09002 -0.72668,-2.05893 0.36334,-2.82599l0.32297,-0.20186c0.02588,-0.0177 0.05199,-0.03506 0.07832,-0.05208c0.98304,-0.63141 1.96124,-0.57004 2.74767,0.33468c0.5652,0.64594 1.09002,1.33225 1.53411,1.97819c0.04105,0.05606 0.0801,0.11356 0.11708,0.17239c0.49132,0.7832 0.39604,1.51554 -0.16431,2.12837c-0.15553,0.16703 -0.32926,0.31612 -0.51796,0.44449l-0.5652,0.40371c-0.09154,0.06567 -0.1864,0.12658 -0.28421,0.18248zM120.21863,176.00327h-3.95638v5.20789h3.95638zM219.41525,167.00452c-0.2136,-0.24639 -0.43042,-0.48999 -0.65038,-0.73072c-0.33487,0.59048 -0.68391,1.1728 -1.04683,1.74646c-0.62937,0.99567 -1.30386,1.96209 -2.02139,2.89623h6.70163c-0.80743,-1.24465 -1.89543,-2.65764 -2.98303,-3.91197zM213.29981,184.37991c0.77028,-0.12919 1.36697,0.18974 1.71618,0.89705c0.1068,0.22225 0.18624,0.45663 0.23658,0.69802c0.11829,0.54542 0.22325,1.11869 0.31368,1.67904c0.06168,0.38159 0.11861,0.76394 0.17077,1.14695c0.00821,0.04961 0.01521,0.09942 0.02099,0.14937c0.09689,0.82761 -0.17965,1.47355 -0.77472,1.8817c-0.23885,0.15944 -0.50258,0.278 -0.78038,0.35083c-1.1304,0.32297 -1.85708,-0.2826 -2.01856,-1.69559c-0.12111,-0.8478 -0.2826,-1.77634 -0.48446,-2.6645c-0.18611,-0.96043 0.0323,-1.65926 0.65442,-2.07831c0.2086,-0.13617 0.43735,-0.23862 0.67783,-0.30359c0.08801,-0.02531 0.17737,-0.04567 0.26766,-0.06096zM264.18253,182.05896v-1.81671h-5.8942v1.81671zM264.18253,175.92253v-1.77634h-5.8942v1.77634zM160.10543,175.3977v-2.09931h-5.57123v2.09931zM160.10543,168.97867v-2.05893h-5.57123v2.05893zM148.92259,175.3977v-2.09931h-5.53086v2.09931zM148.92259,168.97867v-2.05893h-5.53086v2.05893zM275.84982,182.05896v-1.81671h-5.77309v1.81671zM275.84982,175.92253v-1.77634h-5.77309v1.77634zM181.38108,192.55549v-3.43156h-2.98747v3.43156zM261.51803,189.32579c0.08294,-0.0874 0.16437,-0.17623 0.24425,-0.26645c0.61776,-0.69606 1.1336,-1.47628 1.53209,-2.31731h-4.76381c0.92854,1.00928 1.89745,1.85708 2.98747,2.58376z"/></g></g></svg>