<svg xmlns="http://www.w3.org/2000/svg" viewBox="0 0 49.6 70.001" height="70.001" width="49.6"><g style="stroke:#000;stroke-width:1mm;fill:#000" fill="#000" stroke-width="1mm" stroke="#000" font-size="9pt" fill-rule="evenodd" stroke-linecap="round" id="svgGroup"><path d="M 0 68.001 L 0 2.001 Q 0 0.248 1.306 0.031 A 2.411 2.411 0 0 1 1.7 0.001 L 1.9 0.001 A 2.72 2.72 0 0 1 4.004 0.926 A 3.657 3.657 0 0 1 4.3 1.301 L 46.1 63.701 L 46.1 2.001 Q 46.1 0.001 47.9 0.001 Q 49.498 0.001 49.594 1.768 A 4.3 4.3 0 0 1 49.6 2.001 L 49.6 68.001 Q 49.6 69.754 48.294 69.97 A 2.411 2.411 0 0 1 47.9 70.001 L 47.6 70.001 A 2.72 2.72 0 0 1 45.496 69.075 A 3.657 3.657 0 0 1 45.2 68.701 L 3.4 6.201 L 3.4 68.001 Q 3.4 69.754 2.094 69.97 A 2.411 2.411 0 0 1 1.7 70.001 Q 0.102 70.001 0.006 68.233 A 4.3 4.3 0 0 1 0 68.001 Z"></path></g></svg>