<svg xmlns="http://www.w3.org/2000/svg" viewBox="0 0 55.384 72.401" height="72.401" width="55.384"><g style="stroke:#000;stroke-width:1mm;fill:#000" fill="#000" stroke-width="1mm" stroke="#000" font-size="9pt" fill-rule="evenodd" stroke-linecap="round" id="svgGroup"><path d="M 23.2 34.201 L 41 55.801 Q 43.9 52.401 46.6 48.601 Q 49.3 44.801 52 40.801 A 3.931 3.931 0 0 1 52.395 40.32 Q 53.428 39.263 54.6 40.101 A 2.379 2.379 0 0 1 55.012 40.467 Q 55.702 41.256 55.114 42.352 A 3.717 3.717 0 0 1 54.9 42.701 Q 52.1 46.901 49.2 50.901 Q 46.3 54.901 43.3 58.401 L 51.8 68.901 A 5.472 5.472 0 0 1 52.147 69.382 Q 52.553 70.021 52.553 70.517 A 1.17 1.17 0 0 1 52.55 70.601 A 0.783 0.783 0 0 1 52.455 70.939 Q 52.277 71.25 51.775 71.293 A 2.001 2.001 0 0 1 51.6 71.301 L 50.8 71.301 A 3.013 3.013 0 0 1 49.545 71.046 Q 48.927 70.766 48.462 70.18 A 3.676 3.676 0 0 1 48.4 70.101 L 40.9 61.001 A 53.581 53.581 0 0 1 35.261 66.121 A 43.61 43.61 0 0 1 30.7 69.251 Q 25.4 72.401 19.5 72.401 A 29.479 29.479 0 0 1 13.831 71.89 Q 10.554 71.247 8.01 69.795 A 15.253 15.253 0 0 1 5.05 67.601 A 15.817 15.817 0 0 1 0.446 59.071 A 23.296 23.296 0 0 1 0 54.401 A 18.063 18.063 0 0 1 0.567 49.78 A 14.348 14.348 0 0 1 2.6 45.301 A 25.419 25.419 0 0 1 8.056 39.565 A 29.534 29.534 0 0 1 9.3 38.651 Q 13.4 35.801 17.9 33.301 A 87.172 87.172 0 0 1 14.486 29.627 Q 12.936 27.853 11.71 26.216 A 39.328 39.328 0 0 1 10 23.751 A 18.099 18.099 0 0 1 8.018 19.598 A 14.591 14.591 0 0 1 7.3 15.101 A 16.84 16.84 0 0 1 7.721 11.243 A 12.275 12.275 0 0 1 9.75 6.751 Q 12.2 3.401 16 1.701 Q 19.8 0.001 23.9 0.001 A 20.323 20.323 0 0 1 29.082 0.628 A 14.865 14.865 0 0 1 35.55 4.151 A 13.597 13.597 0 0 1 39.991 14.015 A 17.422 17.422 0 0 1 40 14.601 A 16.124 16.124 0 0 1 39.437 18.946 A 13.217 13.217 0 0 1 37.6 22.901 A 23.664 23.664 0 0 1 33.076 27.791 A 28.21 28.21 0 0 1 31.35 29.101 Q 27.5 31.801 23.2 34.201 Z M 38.7 58.301 L 20.2 35.901 A 113.288 113.288 0 0 0 12.533 40.576 A 103.909 103.909 0 0 0 12.05 40.901 A 28.507 28.507 0 0 0 8.273 43.924 A 22.752 22.752 0 0 0 5.8 46.701 A 11.961 11.961 0 0 0 3.499 52.626 A 15.515 15.515 0 0 0 3.4 54.401 A 19.964 19.964 0 0 0 3.816 58.607 Q 4.386 61.253 5.742 63.226 A 11.004 11.004 0 0 0 7.65 65.351 A 14.121 14.121 0 0 0 12.924 68.144 Q 15.819 69.001 19.5 69.001 A 18.084 18.084 0 0 0 27.59 67.053 A 22.355 22.355 0 0 0 29.4 66.051 A 41.59 41.59 0 0 0 35.139 61.768 A 52.769 52.769 0 0 0 38.7 58.301 Z M 20.9 31.501 Q 25.1 29.201 28.65 26.801 A 25.481 25.481 0 0 0 32.005 24.117 A 19.982 19.982 0 0 0 34.35 21.451 A 11.22 11.22 0 0 0 36.492 15.084 A 13.835 13.835 0 0 0 36.5 14.601 A 10.815 10.815 0 0 0 35.441 9.788 A 10.85 10.85 0 0 0 33.15 6.701 Q 29.965 3.658 24.473 3.508 A 21.077 21.077 0 0 0 23.9 3.501 A 17.164 17.164 0 0 0 19.684 3.993 A 12.57 12.57 0 0 0 14.55 6.601 Q 10.9 9.701 10.9 15.101 A 12.356 12.356 0 0 0 11.33 18.405 A 10.854 10.854 0 0 0 12 20.201 A 18.276 18.276 0 0 0 13.174 22.271 Q 13.84 23.295 14.701 24.373 A 33.866 33.866 0 0 0 15.3 25.101 Q 17.5 27.701 20.9 31.501 Z"></path></g></svg>