<svg xmlns="http://www.w3.org/2000/svg" viewBox="0 0 55.969 72.401" height="72.401" width="55.969"><g style="stroke:#000;stroke-width:1mm;fill:#000" fill="#000" stroke-width="1mm" stroke="#000" font-size="9pt" fill-rule="evenodd" stroke-linecap="round" id="svgGroup"><path d="M 55.101 13.801 L 54.901 13.901 Q 53.546 14.771 52.753 13.583 A 2.665 2.665 0 0 1 52.701 13.501 A 24.987 24.987 0 0 0 34.465 3.629 A 33.528 33.528 0 0 0 31.501 3.501 A 28.717 28.717 0 0 0 22.499 4.875 A 25.646 25.646 0 0 0 17.051 7.401 A 26.199 26.199 0 0 0 8.257 16.402 A 32.182 32.182 0 0 0 7.051 18.601 A 33.139 33.139 0 0 0 4.203 27.204 Q 3.476 30.982 3.408 35.301 A 57.028 57.028 0 0 0 3.401 36.201 Q 3.401 46.501 7.051 53.851 Q 10.701 61.201 17.051 65.101 A 26.538 26.538 0 0 0 29.503 68.94 A 32.353 32.353 0 0 0 31.501 69.001 A 28.314 28.314 0 0 0 40.212 67.686 A 25.94 25.94 0 0 0 43.451 66.401 Q 48.901 63.801 52.701 59.001 Q 53.701 57.701 54.901 58.601 L 55.201 58.801 A 2.613 2.613 0 0 1 55.555 59.091 Q 56.291 59.821 55.718 60.731 A 2.549 2.549 0 0 1 55.601 60.901 Q 51.401 66.401 45.251 69.401 A 29.826 29.826 0 0 1 34.756 72.257 A 36.266 36.266 0 0 1 31.501 72.401 A 33.212 33.212 0 0 1 22.29 71.168 A 27.977 27.977 0 0 1 15.001 67.901 A 29.734 29.734 0 0 1 4.719 56.747 A 36.005 36.005 0 0 1 3.951 55.251 A 38.601 38.601 0 0 1 0.653 44.603 A 51.895 51.895 0 0 1 0.001 36.201 A 50.759 50.759 0 0 1 0.84 26.747 A 37.672 37.672 0 0 1 3.951 17.201 A 31.743 31.743 0 0 1 10.492 8.098 A 29.469 29.469 0 0 1 15.001 4.551 A 28.816 28.816 0 0 1 27.777 0.188 A 36.172 36.172 0 0 1 31.501 0.001 A 33.112 33.112 0 0 1 39.787 1.003 A 28.134 28.134 0 0 1 45.201 3.001 Q 51.301 6.001 55.501 11.601 A 2.366 2.366 0 0 1 55.744 11.911 Q 56.405 12.931 55.101 13.801 Z"></path></g></svg>