<svg xmlns="http://www.w3.org/2000/svg" viewBox="0 0 49.301 70.101" height="70.101" width="49.301"><g style="stroke:#000;stroke-width:1mm;fill:#000" fill="#000" stroke-width="1mm" stroke="#000" font-size="9pt" fill-rule="evenodd" stroke-linecap="round" id="svgGroup"><path d="M 0 68.101 L 0 2.001 A 2.879 2.879 0 0 1 0.099 1.209 Q 0.446 0.001 2 0.001 L 29.7 0.001 Q 35.955 0.001 40.175 1.8 A 14.258 14.258 0 0 1 44.5 4.601 A 15.151 15.151 0 0 1 48.832 12.58 A 22.536 22.536 0 0 1 49.3 17.301 A 22.585 22.585 0 0 1 48.733 22.513 A 15.056 15.056 0 0 1 44.5 30.101 Q 40.824 33.624 34.096 34.449 A 36.192 36.192 0 0 1 29.7 34.701 L 3.4 34.701 L 3.4 68.101 Q 3.4 69.854 2.094 70.07 A 2.411 2.411 0 0 1 1.7 70.101 Q 0.102 70.101 0.006 68.333 A 4.3 4.3 0 0 1 0 68.101 Z M 3.4 3.501 L 3.4 31.201 L 29.7 31.201 A 32.296 32.296 0 0 0 34.021 30.932 Q 39.097 30.244 41.9 27.801 A 10.602 10.602 0 0 0 45 22.975 Q 45.574 21.214 45.736 19.062 A 23.392 23.392 0 0 0 45.8 17.301 Q 45.8 12.56 44.062 9.491 A 9.85 9.85 0 0 0 41.9 6.851 A 11.851 11.851 0 0 0 38.182 4.745 Q 34.865 3.539 30.015 3.502 A 40.51 40.51 0 0 0 29.7 3.501 L 3.4 3.501 Z"></path></g></svg>