<svg version="1.1" xmlns="http://www.w3.org/2000/svg" xmlns:xlink="http://www.w3.org/1999/xlink" width="42.06462" height="42.06462" viewBox="0,0,42.06462,42.06462"><defs><linearGradient x1="218.96769" y1="180" x2="261.03231" y2="180" gradientUnits="userSpaceOnUse" id="color-1"><stop offset="0" stop-color="#b3fffc"/><stop offset="1" stop-color="#00ffea"/></linearGradient><linearGradient x1="222.94017" y1="180.00051" x2="257.34599" y2="180.00051" gradientUnits="userSpaceOnUse" id="color-2"><stop offset="0" stop-color="#00fff8"/><stop offset="1" stop-color="#b2fff9"/></linearGradient></defs><g transform="translate(-218.96768,-158.96768)"><g data-paper-data="{&quot;isPaintingLayer&quot;:true}" fill-rule="nonzero" stroke="none" stroke-width="1" stroke-linecap="butt" stroke-linejoin="miter" stroke-miterlimit="10" stroke-dasharray="" stroke-dashoffset="0" style="mix-blend-mode: normal"><path d="M261.03231,180c0,11.59666 -9.43464,21.03231 -21.03231,21.03231c-11.59717,0 -21.03231,-9.43565 -21.03231,-21.03231c0,-11.59717 9.43464,-21.03231 21.03231,-21.03231c11.59767,0 21.03231,9.43565 21.03231,21.03231z" fill="url(#color-1)"/><path d="M222.94017,180.00051c0,-9.50091 7.70201,-17.20291 17.20291,-17.20291c9.50091,0 17.20291,7.70201 17.20291,17.20291c0,9.50091 -7.70201,17.20291 -17.20291,17.20291c-9.50091,0 -17.20291,-7.70201 -17.20291,-17.20291z" fill="url(#color-2)"/></g></g></svg>