<svg version="1.1" xmlns="http://www.w3.org/2000/svg" xmlns:xlink="http://www.w3.org/1999/xlink" width="167.48726" height="46.03427" viewBox="0,0,167.48726,46.03427"><g transform="translate(-50.25637,-155.68386)"><g data-paper-data="{&quot;isPaintingLayer&quot;:true}" stroke-linejoin="miter" stroke-miterlimit="10" stroke-dasharray="" stroke-dashoffset="0" style="mix-blend-mode: normal"><path d="M217.74363,160.9737v35.45459c0,2.93073 -3.34947,5.28985 -7.51058,5.28985h-152.4661c-4.16106,0 -7.51058,-2.35913 -7.51058,-5.28985v-35.45459c0,-2.93072 3.34947,-5.28983 7.51058,-5.28983h152.4661c4.16106,0 7.51058,2.3591 7.51058,5.28983z" fill="#ffffff" fill-rule="nonzero" stroke="none" stroke-width="1" stroke-linecap="butt"/><path d="M184.13834,166.43598c-0.0273,0.31491 -0.06195,0.62914 -0.10392,0.94244h5.26405c0.54339,0 0.86602,0.18679 0.84904,0.52641c0,0.12838 -0.00815,0.25675 -0.01868,0.36865c-0.00438,0.047 -0.00948,0.09393 -0.01528,0.14077c-0.0139,0.23087 -0.02845,0.46169 -0.04364,0.69248c-0.19494,2.96298 -0.42944,4.70725 -0.78978,5.71659c-0.09624,0.29902 -0.24531,0.57836 -0.44014,0.82476c-0.06457,0.0726 -0.13251,0.14213 -0.2036,0.20835c-0.29513,0.27424 -0.60163,0.44065 -0.94787,0.54933c-0.25624,0.07614 -0.51871,0.12944 -0.78434,0.15928c-0.50942,0.05094 -1.2396,0.06792 -2.05468,0.05094c-0.07128,0.0004 -0.14247,-0.00534 -0.21277,-0.01715c-0.38479,-0.0669 -0.58567,-0.32858 -0.68721,-0.76397c-0.05094,-0.22075 -0.13585,-0.4415 -0.22075,-0.66225c-0.01532,-0.04217 -0.02914,-0.08488 -0.04143,-0.12804c-0.14604,-0.51673 0.04602,-0.80659 0.63882,-0.80659c0.01596,0.00003 0.03193,0.00025 0.04789,0.00068c0.67923,0.03396 1.25658,0.03396 1.5962,0.03396c0.33962,0 0.57735,-0.03396 0.7981,-0.22075c0.0281,-0.02481 0.0538,-0.05221 0.07675,-0.08185c0.28528,-0.36322 0.50297,-1.32739 0.6682,-3.0124c0.04037,-0.41712 0.07507,-0.83478 0.10409,-1.25285h-3.93955c-0.34244,1.72485 -1.10341,3.33916 -2.216,4.70097c-0.65634,0.77004 -1.42655,1.43522 -2.28392,1.97249c-0.45848,0.30565 -0.84904,0.16981 -1.17168,-0.27169c-0.00136,-0.00187 -0.00272,-0.00374 -0.00408,-0.0056c-0.16862,-0.2362 -0.35422,-0.48871 -0.55629,-0.72457c-0.04215,-0.0472 -0.08123,-0.09706 -0.117,-0.14926c-0.21515,-0.31737 -0.18305,-0.59705 0.11038,-0.83902c0.06077,-0.04933 0.12545,-0.09362 0.19341,-0.13245c0.05613,-0.0349 0.11188,-0.07039 0.16726,-0.10647c3.34115,-2.17524 3.65563,-5.46477 3.78927,-8.65563h-3.59993c-0.40975,0 -0.68433,-0.17371 -0.79453,-0.4921c-0.03791,-0.11512 -0.05633,-0.23575 -0.05451,-0.35694v-0.66225c0,-0.40975 0.17371,-0.68433 0.4921,-0.79453c0.11512,-0.03791 0.23575,-0.05633 0.35694,-0.05451h5.19613v-1.85091c0,-0.40975 0.17371,-0.68433 0.4921,-0.79453c0.11512,-0.03791 0.23575,-0.05633 0.35694,-0.05451h0.74716c0.40958,0 0.68416,0.17371 0.79453,0.4921c0.03791,0.11512 0.05633,0.23575 0.05451,0.35694v1.85091h5.3999c0.40958,0 0.68416,0.17371 0.79453,0.4921c0.03791,0.11512 0.05633,0.23575 0.05451,0.35694v0.66225c0,0.40958 -0.17371,0.68416 -0.4921,0.79453c-0.11512,0.03791 -0.23575,0.05633 -0.35694,0.05451h-6.82629c-0.01668,0.31449 -0.03864,0.62868 -0.06589,0.94244zM120.52615,176.0726c-1.01036,0.01477 -2.03379,0.01664 -2.68331,0.0056c-0.0848,-0.00142 -0.16959,-0.00329 -0.25437,-0.0056c-0.27921,-0.00951 -0.55727,-0.04051 -0.83172,-0.09272c-1.69248,-0.33011 -2.64935,-1.51231 -2.64935,-3.77891v-1.57922h-2.25845c-0.40975,0 -0.68433,-0.17371 -0.79453,-0.4921c-0.03791,-0.11512 -0.05633,-0.23575 -0.05451,-0.35694v-0.95093c0,-0.40975 0.17371,-0.68433 0.4921,-0.79453c0.11512,-0.03791 0.23575,-0.05633 0.35694,-0.05451h2.25845v-2.17355h-1.74902c-0.40975,0 -0.68433,-0.17371 -0.79453,-0.4921c-0.03791,-0.11512 -0.05633,-0.23575 -0.05451,-0.35694v-1.01885c0,-0.40975 0.17371,-0.68433 0.4921,-0.79453c0.11512,-0.03791 0.23575,-0.05633 0.35694,-0.05451h8.60928c0.40958,0 0.68416,0.17371 0.79453,0.4921c0.03791,0.11512 0.05633,0.23575 0.05451,0.35694v1.01885c0,0.40958 -0.17371,0.68416 -0.4921,0.79453c-0.11512,0.03791 -0.23575,0.05633 -0.35694,0.05451h-4.27917v2.17355h4.92444c0.40958,0 0.68416,0.17371 0.79453,0.4921c0.03791,0.11512 0.05633,0.23575 0.05451,0.35694v0.95093c0,0.40958 -0.17371,0.68416 -0.4921,0.79453c-0.11512,0.03791 -0.23575,0.05633 -0.35694,0.05451h-4.92444v1.29054c-0.00057,0.13108 0.00862,0.26203 0.02751,0.39175c0.02904,0.19392 0.08083,0.36135 0.15164,0.50297c0.18534,0.38466 0.58306,0.62088 1.00951,0.59959c0.01443,-0.00004 0.02887,-0.0001 0.0433,-0.00017c0.62965,-0.00136 1.93293,-0.03464 2.92834,-0.06775c0.43369,-0.01325 0.71489,0.15673 0.81966,0.49414c0.03234,0.10967 0.04797,0.22359 0.04636,0.33792v1.05281c0,0.54339 -0.40754,0.84904 -1.18866,0.84904zM170.46674,173.52547c0.71498,-0.20828 1.31932,-0.68947 1.68246,-1.33962c0.43454,-0.73833 0.67074,-1.75446 0.62693,-3.04143c-0.04704,-1.26796 -0.36186,-2.26813 -1.06249,-2.84887c-0.33961,-0.27413 -0.74694,-0.45148 -1.17898,-0.51333c-0.06792,2.1226 -0.20377,4.46596 -0.84904,6.41875c-0.61555,1.84649 -1.50807,3.0411 -2.90117,3.0411c-0.02916,0 -0.05831,-0.00051 -0.08745,-0.00153c-0.35623,-0.01139 -0.70677,-0.09256 -1.03175,-0.23892c-1.53744,-0.69757 -2.26813,-2.80455 -2.21158,-4.92325c0.01929,-1.0945 0.23754,-2.17636 0.64408,-3.19273c0.75076,-2.09114 2.63133,-3.5687 4.84072,-3.80336c3.76974,-0.30565 6.18102,2.24147 6.33385,6.21498c0.18679,4.43199 -2.3943,6.41875 -4.70369,6.82629c-0.01715,0.00266 -0.03436,0.00492 -0.05162,0.00679c-0.38699,0.04245 -0.6541,-0.1389 -0.76159,-0.46392c-0.03653,-0.11575 -0.05435,-0.23659 -0.05281,-0.35796v-0.883c0,-0.50942 0.27169,-0.74716 0.76414,-0.89998zM203.44333,173.69206c-0.0034,0.49058 -0.05909,0.90915 -0.16709,1.25166c-0.05531,0.18298 -0.1362,0.35723 -0.24028,0.51758c-0.06624,0.10373 -0.14245,0.20076 -0.22754,0.28969c-0.5461,0.5714 -1.4033,0.76312 -2.18373,0.76312c-0.05197,-0.00004 -0.10394,-0.00089 -0.15588,-0.00255c-0.43607,-0.01358 -0.91612,-0.08558 -1.35541,-0.25217c-1.00187,-0.37358 -1.71506,-1.25658 -1.71506,-2.93768c0,-2.12277 1.17524,-3.42605 3.40754,-3.40788c0.1095,0.00093 0.21895,0.00484 0.32824,0.01172v-2.42826h-2.71693c-0.40975,0 -0.68433,-0.17371 -0.79453,-0.4921c-0.03791,-0.11512 -0.05633,-0.23575 -0.05451,-0.35694v-0.91696c0,-0.40975 0.17371,-0.68433 0.4921,-0.79453c0.11512,-0.03791 0.23575,-0.05633 0.35694,-0.05451h2.71693v-1.37545c0,-0.40975 0.17371,-0.68433 0.4921,-0.79453c0.11512,-0.03791 0.23575,-0.05633 0.35694,-0.05451h0.61131c0.40329,0 0.67567,0.17762 0.78927,0.49142c0.0415,0.12045 0.06172,0.24721 0.05977,0.3746v1.35847h1.01885c0.40958,0 0.68416,0.17371 0.79453,0.4921c0.03791,0.11512 0.05633,0.23575 0.05451,0.35694v0.91696c0,0.40958 -0.17371,0.68416 -0.4921,0.79453c-0.11512,0.03791 -0.23575,0.05633 -0.35694,0.05451h-1.01885v2.73391c0.13643,0.04592 0.27154,0.0957 0.40516,0.14926c0.14145,0.05638 0.29326,0.12039 0.4561,0.19222c0.1609,0.07112 0.32099,0.14409 0.48022,0.21888c0.04643,0.02218 0.09166,0.04678 0.13551,0.0737c0.33248,0.20496 0.49278,0.50637 0.49278,0.92817v0.71319c0,0.67923 -0.40754,0.91696 -0.96791,0.57735c-0.33962,-0.20377 -0.66225,-0.37358 -1.00187,-0.49244v1.05281c0,0.01591 -0.00006,0.03181 -0.00017,0.04772zM142.28215,176.20878c-0.03791,-0.11512 -0.05633,-0.23575 -0.05451,-0.35694v-6.01121c-0.86602,0.69621 -1.71506,1.25658 -2.51316,1.6811c-0.12081,0.06371 -0.24228,0.12615 -0.36441,0.1873c-0.26439,0.13262 -0.52148,0.25386 -0.76278,0.36101c-0.18293,0.08161 -0.36761,0.15923 -0.55391,0.23281c-0.01501,0.0057 -0.03013,0.01114 -0.04534,0.0163c-0.44931,0.15368 -0.77823,-0.00934 -0.88521,-0.40482c-0.02593,-0.10048 -0.03849,-0.20393 -0.03736,-0.30769v-0.98489c-0.00012,-0.04945 0.00231,-0.09887 0.0073,-0.14807c0.02938,-0.28273 0.14739,-0.48378 0.35847,-0.64171c0.09752,-0.07088 0.20266,-0.13063 0.31347,-0.17813c0.36084,-0.15928 0.84106,-0.39141 1.37018,-0.67991c0.3355,-0.18271 0.66569,-0.37501 0.99015,-0.57667c1.63016,-1.03583 3.37918,-2.51316 5.00934,-5.11123c0.03979,-0.06431 0.08387,-0.12586 0.13194,-0.18424c0.14298,-0.17202 0.30447,-0.28256 0.49873,-0.34131c0.12614,-0.03627 0.25694,-0.05372 0.38818,-0.05179h1.2396c0.59722,0 0.89064,0.35914 0.69333,0.85312c-0.02311,0.05724 -0.05053,0.11264 -0.08202,0.16573c-0.46549,0.76661 -0.97876,1.50317 -1.53676,2.2053c-0.5349,0.68144 -1.06979,1.30124 -1.53676,1.83614v8.08287c0,0.40958 -0.17371,0.68416 -0.4921,0.79453c-0.11512,0.03791 -0.23575,0.05633 -0.35694,0.05451h-0.98489c-0.40975,0 -0.68433,-0.17371 -0.79453,-0.4921zM161.18723,173.74707c-0.07047,0.1106 -0.15324,0.21285 -0.24673,0.30481c-0.07097,0.06627 -0.14338,0.13099 -0.21718,0.19409c-1.26015,1.07794 -2.85583,1.6378 -4.29971,1.89455c-0.02529,0.0046 -0.05071,0.00839 -0.07624,0.01138c-0.51486,0.06011 -0.82374,-0.25879 -0.82374,-0.80948v-11.66582c0,-0.40975 0.17371,-0.68433 0.4921,-0.79453c0.11512,-0.03791 0.23575,-0.05633 0.35694,-0.05451h0.883c0.40958,0 0.68416,0.17371 0.79453,0.4921c0.03791,0.11512 0.05633,0.23575 0.05451,0.35694v8.98285c0.19761,-0.08435 0.39286,-0.17416 0.5855,-0.26932c0.61099,-0.29713 1.17937,-0.67486 1.68993,-1.12311c0.0258,-0.0221 0.05219,-0.0435 0.07913,-0.06419c0.53812,-0.41128 0.93972,-0.22398 0.93972,0.48871v1.25658c0.00913,0.2813 -0.0645,0.55909 -0.21175,0.79895zM133.43174,175.9612c-0.38343,-0.045 -0.64952,-0.25115 -0.79827,-0.65274c-1.10375,-2.90372 -1.47733,-5.63763 -1.47733,-8.96587v-2.69995c0,-0.40975 0.17371,-0.68433 0.4921,-0.79453c0.11512,-0.03791 0.23575,-0.05633 0.35694,-0.05451h0.93395c0.06792,0 0.13585,0 0.20377,0.01698c-0.02271,-0.0457 -0.04118,-0.09339 -0.05519,-0.14247c-0.01681,-0.05824 -0.02904,-0.12175 -0.03685,-0.19137c-0.00684,-0.06396 -0.01012,-0.12824 -0.00985,-0.19256v-0.98489c-0.00012,-0.05073 0.00209,-0.10145 0.00662,-0.15198c0.02564,-0.27747 0.12328,-0.47852 0.2812,-0.59144c0.10495,-0.07219 0.23012,-0.10917 0.35745,-0.10562c0.00328,-0.00002 0.00657,-0.00002 0.00985,0c0.31296,0.00391 0.52403,0.19002 0.60197,0.52725c0.02325,0.10566 0.03448,0.21361 0.03345,0.32179v0.98489c0,0.39056 -0.11411,0.65818 -0.33588,0.77789c-0.09556,0.04921 -0.20193,0.07367 -0.30939,0.07115h-0.01698c0.06792,0.13585 0.11887,0.30565 0.11887,0.50942v2.69995c0,2.5641 0.50942,5.63763 1.6811,8.64324c0.00991,0.0247 0.01914,0.04967 0.02768,0.07489c0.15215,0.45135 -0.00357,0.7728 -0.39412,0.87519c-0.09672,0.02416 -0.19612,0.03586 -0.29581,0.03481h-1.20564c-0.05668,0.00013 -0.11332,-0.00305 -0.16964,-0.00951zM124.76015,175.96851c-0.57157,-0.03175 -0.81066,-0.41399 -0.58312,-0.98268c0.13689,-0.35122 0.2657,-0.70553 0.38631,-1.06266c0.50518,-1.49584 0.85176,-2.99151 1.05824,-4.41671c0.15427,-1.04762 0.23332,-2.10495 0.23654,-3.16387v-2.69995c0,-0.40975 0.17371,-0.68433 0.4921,-0.79453c0.11512,-0.03791 0.23575,-0.05633 0.35694,-0.05451h0.93395c0.40958,0 0.68416,0.17371 0.79453,0.4921c0.03791,0.11512 0.05633,0.23575 0.05451,0.35694v2.69995c0,3.32824 -0.37358,6.06215 -1.47733,8.96587c-0.0226,0.06163 -0.04973,0.12151 -0.08117,0.17915c-0.11802,0.21464 -0.2829,0.35337 -0.49482,0.42486c-0.12661,0.04059 -0.25898,0.06026 -0.39192,0.05824h-1.20564c-0.02639,0 -0.05278,-0.00074 -0.07913,-0.00221zM150.53992,175.95968c-0.51214,-0.06741 -0.69689,-0.43777 -0.46714,-0.97385c0.50149,-1.17521 0.87728,-2.40018 1.12107,-3.65444c0.21837,-1.15192 0.32629,-2.32205 0.3223,-3.49448v-3.97351c0,-0.40975 0.17371,-0.68433 0.4921,-0.79453c0.11512,-0.03791 0.23575,-0.05633 0.35694,-0.05451h0.86602c0.40958,0 0.68416,0.17371 0.79453,0.4921c0.03791,0.11512 0.05633,0.23575 0.05451,0.35694v3.97351c0,1.82646 -0.23722,4.08762 -0.74172,5.93938c-0.14298,0.54072 -0.32644,1.06993 -0.54882,1.58312c-0.02251,0.05358 -0.04878,0.1055 -0.07862,0.15537c-0.1209,0.20088 -0.2846,0.32705 -0.48582,0.39446c-0.13591,0.04304 -0.2779,0.0638 -0.42045,0.06147h-1.08677c-0.05955,0.0002 -0.11906,-0.00348 -0.17813,-0.01104zM194.99096,176.17686c-0.40431,-0.06283 -0.64137,-0.32773 -0.70012,-0.7835c-0.00284,-0.02055 -0.00567,-0.04109 -0.00849,-0.06164c-0.31635,-2.31228 -0.43301,-4.03108 -0.43301,-5.98353c-0.00001,-0.04404 0.00005,-0.08807 0.00017,-0.13211c0.00526,-1.87774 0.12481,-3.46663 0.39039,-5.59043c0.00928,-0.07497 0.02502,-0.149 0.04704,-0.22126c0.0827,-0.26626 0.24792,-0.44201 0.49244,-0.52386c0.11653,-0.03697 0.23827,-0.05486 0.3605,-0.05298h0.64527c0.54254,0 0.83019,0.28494 0.80642,0.79861c-0.00158,0.03388 -0.00435,0.06769 -0.00832,0.10138c-0.06792,0.45848 -0.13585,0.96791 -0.15283,1.2396c-0.13585,1.29054 -0.25471,2.78485 -0.25471,4.34709c0,0.53371 0.02089,1.18271 0.06283,1.83155c0.01138,0.17638 0.0244,0.35265 0.03906,0.52878c0.01624,0.21133 0.03356,0.42257 0.05196,0.63372c0.09051,1.03787 0.19681,1.93089 0.3386,2.96621c0.0849,0.57735 -0.20377,0.91696 -0.78112,0.91696h-0.69621c-0.0669,0.00028 -0.13372,-0.00461 -0.19986,-0.0146zM166.76832,172.55791c-0.00679,0.00001 -0.01359,-0.0001 -0.02038,-0.00034c-0.2756,-0.02766 -0.51508,-0.20126 -0.6271,-0.45458c-0.27543,-0.50127 -0.33486,-1.3155 -0.31177,-1.92172c0.00134,-0.03431 0.00299,-0.06862 0.00492,-0.1029c0.08864,-1.64188 0.70572,-3.28392 1.79487,-3.99406c0.1602,-0.10512 0.33309,-0.18951 0.51452,-0.25115c0.03379,1.75701 -0.01647,6.72474 -1.35507,6.72474zM136.01639,163.06205c-0.09556,0.04921 -0.20193,0.07367 -0.30939,0.07115c-0.00334,-0.00004 -0.00668,-0.00009 -0.01002,-0.00017c-0.31279,-0.00374 -0.52403,-0.19002 -0.6018,-0.52708c-0.02325,-0.10566 -0.03448,-0.21361 -0.03345,-0.32179v-0.98489c-0.00012,-0.05073 0.00209,-0.10145 0.00662,-0.15198c0.02564,-0.27747 0.12328,-0.47852 0.2812,-0.59144c0.10495,-0.07219 0.23012,-0.10917 0.35745,-0.10562c0.00328,-0.00002 0.00657,-0.00002 0.00985,0c0.31296,0.00391 0.52403,0.19002 0.60197,0.52725c0.02325,0.10566 0.03448,0.21361 0.03345,0.32179v0.98489c0,0.39056 -0.11411,0.65818 -0.33588,0.77789zM199.43603,173.20284c-0.00111,0.02228 -0.00168,0.04459 -0.0017,0.0669c0,0.65512 0.48548,1.03294 1.2413,0.91798c0.17983,-0.03006 0.39939,-0.11292 0.44846,-0.56427c0.00693,-0.06639 0.01027,-0.13311 0.01002,-0.19986v-1.30752c-1.03583,-0.18679 -1.64714,0.32264 -1.69808,1.08677z" fill="#000000" fill-rule="evenodd" stroke="#000000" stroke-width="0.25" stroke-linecap="round"/><path d="M152.90303,197.01828c-0.13225,-0.00491 -0.26441,-0.01195 -0.39644,-0.02114c-3.39915,-0.25778 -4.60361,-3.22577 -2.21283,-5.57744c0.23904,-0.23359 0.49582,-0.44831 0.76803,-0.64223c0.02776,-0.02022 0.05566,-0.04025 0.08369,-0.06008c0.38675,-0.27292 0.93736,-0.61263 1.39634,-0.89137c-0.01639,-0.39556 -0.15611,-0.5906 -0.59219,-0.52788c-0.03182,0.00467 -0.06349,0.01031 -0.09497,0.01691c-0.47643,0.09973 -1.07144,0.49211 -1.71913,1.02827c-0.40799,0.34261 -0.80425,0.69897 -1.18808,1.06845c-0.42287,0.38763 -1.05717,1.14526 -1.48004,1.55051c-0.29548,0.28068 -0.56628,0.02855 -0.64592,-0.51765c-0.01617,-0.11452 -0.02406,-0.23005 -0.02361,-0.3457v-1.12765c-0.00006,-0.04674 0.00153,-0.09346 0.00475,-0.14007c0.02714,-0.38481 0.17144,-0.66848 0.47097,-0.95233c0.08924,-0.08922 0.17705,-0.17986 0.26341,-0.27187c0.87051,-0.92847 1.59552,-1.98331 2.15045,-3.12868h-1.95576c-0.42498,0 -0.70989,-0.18025 -0.82441,-0.51062c-0.03933,-0.11945 -0.05845,-0.24462 -0.05656,-0.37036v-0.66954c0,-0.42515 0.18025,-0.71006 0.51061,-0.82441c0.11945,-0.03933 0.24462,-0.05845 0.37036,-0.05656h2.90721l0.21143,-0.68716c0.01767,-0.06259 0.03981,-0.12383 0.06624,-0.18324c0.1103,-0.24579 0.28386,-0.41036 0.51713,-0.49335c0.12982,-0.04405 0.26623,-0.0655 0.40331,-0.06343h0.86335c0.00781,-0.00005 0.01563,-0.00005 0.02344,0c0.5684,0.00635 0.88873,0.24315 0.8297,0.61845c-0.00566,0.03524 -0.01403,0.06999 -0.02502,0.10395c-0.00011,0.00041 -0.00024,0.00083 -0.00036,0.00124c-0.0703,0.21108 -0.14078,0.45722 -0.2287,0.70354h3.13627c0.42515,0 0.71006,0.18025 0.82441,0.51061c0.03933,0.11945 0.05845,0.24462 0.05656,0.37036v0.66954c0,0.42498 -0.18025,0.70989 -0.51062,0.82441c-0.11945,0.03933 -0.24462,0.05845 -0.37036,0.05656h-4.29915c-0.04335,0.08675 -0.08681,0.17343 -0.13038,0.26006c-0.25477,0.50638 -0.35962,0.7046 -0.45106,0.90282c0.00317,-0.00253 0.00634,-0.00505 0.00952,-0.00758c0.06801,-0.05427 0.17425,-0.13549 0.33265,-0.22359c0.05523,-0.03064 0.11154,-0.05932 0.16879,-0.08598c0.26867,-0.12326 0.55815,-0.19481 0.85331,-0.2109c0.63712,-0.03171 1.27424,0.21972 1.64284,0.88309c0.10785,0.19834 0.18693,0.41103 0.23487,0.63165c0.67289,-0.36437 1.5128,-0.74001 2.22727,-1.03796c0.17326,-0.07227 0.34706,-0.14328 0.52136,-0.21302c0.02563,-0.01029 0.05154,-0.01986 0.0777,-0.02872c0.46832,-0.15804 0.80204,0.0037 0.90829,0.40895c0.02501,0.10036 0.03709,0.20351 0.03594,0.30693v0.98669c0.0001,0.04596 -0.00219,0.09189 -0.00688,0.13761c-0.04458,0.42515 -0.30358,0.67165 -0.75077,0.83146c-0.0274,0.00913 -0.05477,0.01835 -0.08211,0.02766c-0.41934,0.14307 -0.96132,0.35081 -1.56249,0.59871c-0.40555,0.16755 -0.80884,0.34054 -1.20975,0.51889v1.58575c0,0.42498 -0.18024,0.70989 -0.51061,0.82441c-0.11944,0.03933 -0.24462,0.05845 -0.37036,0.05656h-0.65192c-0.08972,0.00045 -0.17934,-0.00627 -0.26799,-0.02008c-0.39521,-0.06378 -0.61298,-0.27857 -0.61298,-0.61422v-0.6343c-0.14096,0.0881 -0.29953,0.1762 -0.42287,0.2643c-1.07479,0.75763 -0.95145,1.74432 0.59906,1.83242c1.085,0.06378 2.14235,0.01656 3.03777,-0.06784c0.31545,-0.02972 0.63025,-0.06584 0.94422,-0.10836c0.02529,-0.00376 0.05067,-0.00687 0.07612,-0.00933c0.55131,-0.05233 0.85772,0.24667 0.85772,0.81983v0.86336c0.00038,0.074 -0.0054,0.1479 -0.01727,0.22095c-0.04898,0.2909 -0.20051,0.49563 -0.45088,0.60664c-0.11448,0.0486 -0.23601,0.07852 -0.35997,0.08863l-0.49334,0.05286c-0.83552,0.09285 -2.37775,0.13127 -3.40937,0.09162zM124.59738,188.87457c0.61668,-0.21143 1.25098,-0.38762 1.9029,-0.4581c1.89427,-0.20756 3.61657,0.53052 4.40716,2.02465c0.30051,0.5835 0.45682,1.23053 0.45582,1.88687c0.00029,0.26886 -0.0195,0.53737 -0.0592,0.80328c-0.10376,0.76005 -0.40536,1.4795 -0.87463,2.08632c-1.12236,1.38736 -3.32039,1.90589 -6.59408,1.6409c-0.44602,-0.03662 -0.89105,-0.08438 -1.33468,-0.14325c-0.07157,-0.00897 -0.14229,-0.02382 -0.21143,-0.0444c-0.28173,-0.08492 -0.46885,-0.2613 -0.5573,-0.51766c-0.04126,-0.12561 -0.06133,-0.25719 -0.05938,-0.38939v-0.95145c-0.00106,-0.10036 0.01078,-0.20044 0.03524,-0.29777c0.09409,-0.3582 0.37494,-0.53492 0.80609,-0.50832c0.04274,0.00269 0.08536,0.0071 0.12774,0.01322c1.86889,0.26499 3.2189,0.30922 4.17229,0.15011c0.22876,-0.03644 0.45395,-0.09256 0.67306,-0.16773c0.32331,-0.11981 0.57351,-0.27011 0.76274,-0.44331c0.33795,-0.31082 0.52282,-0.75408 0.50585,-1.21292c0.00005,-0.02555 -0.00036,-0.05111 -0.00123,-0.07665c-0.03647,-1.02316 -0.81507,-1.52338 -2.48311,-1.38577c-1.3567,0.12333 -2.57244,0.59906 -4.10533,1.51528c-0.05012,0.03023 -0.10195,0.05753 -0.15523,0.08176c-0.53669,0.24245 -0.91956,-0.01903 -0.91956,-0.6632v-0.84574c0.00003,-0.03454 0.00062,-0.06908 0.00176,-0.1036c0.01145,-0.35733 0.08563,-0.65245 0.26253,-1.00642c0.12112,-0.23909 0.24139,-0.4786 0.36084,-0.71852c0.49757,-1.00008 0.82319,-1.69446 0.99586,-2.08297h-1.85005c-0.42498,0 -0.70989,-0.18024 -0.82442,-0.51061c-0.03933,-0.11945 -0.05844,-0.24463 -0.05655,-0.37037v-0.93383c0,-0.42515 0.18024,-0.71007 0.51061,-0.82442c0.11944,-0.03933 0.24462,-0.05845 0.37036,-0.05656h2.74864c0.28191,-0.74001 0.35238,-0.86336 0.42287,-1.09241c0.02634,-0.07479 0.05844,-0.14742 0.09603,-0.21724c0.12475,-0.22941 0.29654,-0.37759 0.52435,-0.45088c0.12438,-0.03794 0.2539,-0.05624 0.38392,-0.05427h1.00431c0.59695,0 0.91321,0.29531 0.8001,0.7779c-0.01117,0.04697 -0.02536,0.09316 -0.04246,0.13831c-0.0821,0.19963 -0.16439,0.40718 -0.24139,0.60682c-0.03745,0.09709 -0.07445,0.19435 -0.111,0.29178h4.21105c0.42515,0 0.71006,0.18025 0.82441,0.51061c0.03933,0.11945 0.05845,0.24462 0.05656,0.37036v0.93383c0,0.42498 -0.18025,0.70989 -0.51061,0.82442c-0.11945,0.03933 -0.24463,0.05845 -0.37036,0.05656h-5.1625c-0.15857,0.35239 -0.45811,0.96907 -0.89859,1.81481zM170.73498,184.13899c0.40049,0.07823 0.62514,0.36737 0.62514,0.84767c0,0.01563 -0.00024,0.03125 -0.00071,0.04687c-0.00239,0.0981 -0.00527,0.19618 -0.00863,0.29424c-0.06959,2.01954 -0.33283,3.55596 -0.64558,4.60907c-0.0898,0.31097 -0.20089,0.61539 -0.33248,0.9111c-1.48638,3.23775 -4.32522,5.01274 -6.61646,5.86904c-0.41831,0.15681 -0.84458,0.29149 -1.27705,0.40348c-0.04492,0.01231 -0.09052,0.02202 -0.13656,0.02907c-0.50215,0.07629 -0.8149,-0.2375 -0.8149,-0.80433v-1.07479c-0.00015,-0.05778 0.00339,-0.11551 0.01057,-0.17284c0.03753,-0.29424 0.17637,-0.49864 0.4123,-0.64276c0.11069,-0.06548 0.22905,-0.11703 0.35239,-0.15346c0.01523,-0.0047 0.03044,-0.00946 0.04564,-0.01427c1.08765,-0.34199 2.54178,-1.1095 3.60159,-2.08245c0.56176,-0.49529 1.04243,-1.07555 1.42454,-1.71966c0.57316,-0.98122 0.92572,-2.17371 1.04219,-3.74237h-3.91152c-0.06997,0.10714 -0.14051,0.21392 -0.21161,0.32032c-0.73879,1.10545 -1.21469,1.67138 -1.77939,2.25212c-0.31715,0.33477 -0.77526,0.75763 -1.21574,1.12765c-0.56383,0.4581 -1.07478,0.15858 -1.07478,-0.56382v-1.40956c-0.00009,-0.05892 0.00307,-0.1178 0.00951,-0.17637c0.03436,-0.30799 0.16122,-0.54444 0.36684,-0.78618c0.03783,-0.04432 0.07684,-0.08762 0.11699,-0.12986c0.16104,-0.16104 0.3309,-0.35697 0.52154,-0.60611c0.0867,-0.11354 0.17128,-0.22867 0.25372,-0.34534c0.4012,-0.58919 0.81137,-1.28551 1.14791,-2.17142c0.14554,-0.3845 0.26821,-0.77728 0.36737,-1.17628c0.0241,-0.09296 0.0566,-0.18355 0.09708,-0.27063c0.11259,-0.23768 0.27785,-0.39415 0.50761,-0.46956c0.1179,-0.03678 0.24089,-0.05456 0.36437,-0.05268h1.02193c0.01327,0 0.02655,0.00017 0.03982,0.00053c0.52893,0.01409 0.83957,0.31169 0.7772,0.7897c-0.00562,0.04242 -0.01368,0.08449 -0.02414,0.12598l-0.21143,0.91621h4.91583c0.08015,-0.00048 0.16016,0.00678 0.23892,0.02167zM208.35251,184.13899c0.40049,0.07823 0.62514,0.36737 0.62514,0.84767c0,0.01563 -0.00024,0.03125 -0.00071,0.04687c-0.00239,0.0981 -0.00527,0.19618 -0.00863,0.29424c-0.06959,2.01954 -0.33283,3.55596 -0.64558,4.60907c-0.0898,0.31097 -0.20089,0.61539 -0.33248,0.9111c-1.48638,3.23775 -4.32522,5.01274 -6.61646,5.86904c-0.41831,0.15681 -0.84458,0.29149 -1.27705,0.40348c-0.04492,0.01231 -0.09051,0.02202 -0.13655,0.02907c-0.50215,0.07629 -0.8149,-0.2375 -0.8149,-0.80433v-1.07479c-0.00015,-0.05778 0.00339,-0.11551 0.01057,-0.17284c0.03753,-0.29424 0.17637,-0.49864 0.4123,-0.64276c0.11069,-0.06548 0.22905,-0.11703 0.35239,-0.15346c0.01523,-0.0047 0.03044,-0.00946 0.04564,-0.01427c1.08765,-0.34199 2.54178,-1.1095 3.60159,-2.08245c0.56176,-0.49529 1.04243,-1.07555 1.42453,-1.71966c0.57316,-0.98122 0.92572,-2.17371 1.04219,-3.74237h-3.91152c-0.06997,0.10714 -0.14051,0.21392 -0.21161,0.32032c-0.73879,1.10545 -1.21468,1.67138 -1.77938,2.25212c-0.31715,0.33477 -0.77526,0.75763 -1.21574,1.12765c-0.56383,0.4581 -1.07478,0.15858 -1.07478,-0.56382v-1.40956c-0.00009,-0.05892 0.00308,-0.1178 0.00951,-0.17637c0.03436,-0.30799 0.16121,-0.54444 0.36684,-0.78618c0.03783,-0.04432 0.07684,-0.08762 0.117,-0.12986c0.16104,-0.16104 0.33089,-0.35697 0.52154,-0.60611c0.0867,-0.11354 0.17128,-0.22867 0.25372,-0.34534c0.4012,-0.58919 0.81137,-1.28551 1.14791,-2.17142c0.14554,-0.3845 0.26822,-0.77728 0.36737,-1.17628c0.0241,-0.09296 0.0566,-0.18355 0.09708,-0.27063c0.11259,-0.23768 0.27785,-0.39415 0.50761,-0.46956c0.1179,-0.03678 0.24089,-0.05456 0.36437,-0.05268h1.02193c0.01327,0 0.02655,0.00017 0.03982,0.00053c0.52893,0.01409 0.83957,0.31169 0.7772,0.7897c-0.00562,0.04242 -0.01368,0.08449 -0.02414,0.12598l-0.21143,0.91621h4.91582c0.08015,-0.00048 0.16017,0.00678 0.23892,0.02167zM139.75011,188.04646c2.1619,-0.18571 3.92438,0.64699 4.67884,2.32506c0.26285,0.6063 0.39752,1.2604 0.39556,1.92122c0.00044,0.22167 -0.01215,0.44318 -0.0377,0.66337c-0.09761,0.82671 -0.38481,1.53483 -0.86371,2.11363c-0.39535,0.46656 -0.88737,0.84164 -1.44198,1.09928c-0.27585,0.13348 -0.56139,0.24592 -0.85419,0.33635c-1.14685,0.35855 -2.59887,0.487 -4.36135,0.36965c-0.43562,-0.02943 -0.87034,-0.07096 -1.30366,-0.12457c-0.54621,-0.05286 -0.82812,-0.38763 -0.82812,-0.93383v-0.8986c-0.00086,-0.09372 0.00931,-0.18722 0.0303,-0.27856c0.09021,-0.37564 0.37865,-0.56136 0.82583,-0.5411c0.03774,0.00177 0.07541,0.00482 0.11294,0.00916c0.27515,0.03853 0.55087,0.07289 0.82706,0.10307c1.41396,0.15382 2.52786,0.15065 3.3521,0.00106c0.22657,-0.03938 0.44943,-0.09779 0.66619,-0.17461c0.15157,-0.05465 0.29763,-0.12349 0.43625,-0.20562c0.56383,-0.33865 0.82918,-0.85437 0.81473,-1.55633c0,-1.18773 -0.95022,-1.95153 -2.29158,-1.85163c-0.13567,0.01028 -0.27063,0.02846 -0.40419,0.05445c-0.40863,0.08112 -0.80546,0.21318 -1.18121,0.39309c-0.51853,0.25458 -1.00358,0.57232 -1.44409,0.94599c-0.0349,0.02801 -0.07045,0.05521 -0.1066,0.08157c-0.21478,0.15611 -0.4167,0.25178 -0.6528,0.29548c-0.10991,0.01958 -0.22138,0.02901 -0.33301,0.02819h-0.95145c-0.42498,0 -0.70989,-0.18024 -0.82442,-0.51061c-0.03933,-0.11945 -0.05845,-0.24462 -0.05656,-0.37036v-3.94676c0,-0.42515 0.18025,-0.71007 0.51061,-0.82442c0.11945,-0.03933 0.24463,-0.05845 0.37037,-0.05656h0.82811c0.42516,0 0.71006,0.18025 0.82441,0.51062c0.03933,0.11945 0.05845,0.24462 0.05656,0.37036v1.95576l0.37001,-0.31715c0.45811,-0.40525 1.51527,-0.86336 2.83673,-0.98669zM179.88723,195.80977c-0.9367,0.4767 -1.93188,0.8285 -2.96007,1.04641c-0.0413,0.00977 -0.08304,0.01754 -0.12509,0.02326c-0.40983,0.05515 -0.69386,-0.12422 -0.79905,-0.47767c-0.03117,-0.11007 -0.0463,-0.22407 -0.04493,-0.33847v-1.11003c0,-0.39749 0.14942,-0.67535 0.45582,-0.83375c0.11202,-0.05594 0.23145,-0.09557 0.35468,-0.1177c0.32616,-0.06868 0.64808,-0.15616 0.96414,-0.262c1.61059,-0.54602 2.65156,-1.53484 3.04817,-3.25414c0.12697,-0.58118 0.18773,-1.17485 0.18112,-1.7697v-5.33869c0,-0.42515 0.18025,-0.71007 0.51062,-0.82442c0.11945,-0.03933 0.24462,-0.05845 0.37036,-0.05656h0.96907c0.42515,0 0.71007,0.18025 0.82442,0.51062c0.03933,0.11945 0.05845,0.24462 0.05656,0.37036v5.33869c0,3.50187 -1.2686,5.75487 -3.8058,7.09377zM117.24478,196.47085c-0.1235,0.04397 -0.25189,0.07279 -0.38234,0.08581c-0.32209,0.03617 -0.64455,0.06906 -0.96731,0.09867c-1.11285,0.10219 -2.22569,0.16562 -3.08516,0.16562c-3.91152,0 -5.40918,-1.30384 -5.37394,-3.70009c0.00225,-0.17529 0.01395,-0.35032 0.03507,-0.52435c0.09567,-0.77472 0.38586,-1.37678 0.88432,-1.98236c0.07303,-0.08846 0.14834,-0.17501 0.22588,-0.25954c0.18501,-0.2176 0.38322,-0.34781 0.61157,-0.41564c0.15068,-0.04235 0.30672,-0.06259 0.46322,-0.06008h1.03955c0.8105,0 1.3567,0.22905 1.0924,0.47572c-0.08746,0.07271 -0.17369,0.1469 -0.25865,0.22253c-0.09841,0.08751 -0.1943,0.17783 -0.28755,0.27081c-0.28961,0.28208 -0.54063,0.60124 -0.74654,0.94916c-0.19198,0.31454 -0.29901,0.67352 -0.31063,1.04183c0,0.67835 0.45864,0.99251 2.03699,1.08395c0.24876,0.01386 0.49778,0.02255 0.74689,0.02607c0.10419,-0.00001 0.20838,-0.00036 0.31257,-0.00106c1.39159,-0.00916 2.33352,-0.0814 3.58133,-0.24561c0.01776,-0.00213 0.03556,-0.00395 0.05338,-0.00547c0.44277,-0.03647 0.74213,0.13832 0.85173,0.49388c0.03228,0.1103 0.0479,0.2248 0.04634,0.33971v1.09241c0,0.42234 -0.18958,0.70777 -0.56911,0.84802zM196.03281,185.79011c-0.00091,0.02979 -0.00297,0.05953 -0.00617,0.08916c-0.08901,0.88274 -0.23629,1.75864 -0.44084,2.62195c-0.3399,1.50401 -0.92938,2.94044 -1.74397,4.24964c-1.25098,1.95576 -3.06579,3.43579 -5.60299,4.03485c-0.03154,0.00654 -0.06334,0.01178 -0.09532,0.01568c-0.45476,0.05515 -0.7328,-0.20809 -0.7328,-0.70284v-0.93383c-0.00016,-0.05119 0.00302,-0.10234 0.00951,-0.15311c0.03313,-0.25249 0.15259,-0.42868 0.35415,-0.54902c0.09596,-0.05529 0.19881,-0.09765 0.30588,-0.12598c0.14012,-0.03945 0.27892,-0.08346 0.41617,-0.13197c1.52045,-0.55817 2.79551,-1.6344 3.60107,-3.03953c0.69666,-1.19814 1.17869,-2.50876 1.42436,-3.87276c0.09477,-0.49087 0.16627,-0.98593 0.21425,-1.48355c0.00798,-0.0771 0.02374,-0.15319 0.04704,-0.22711c0.10431,-0.32173 0.35027,-0.47767 0.72821,-0.47767h0.8105c0.46286,0 0.72416,0.24808 0.71095,0.6861zM107.79212,185.24532c-0.03933,-0.11945 -0.05845,-0.24462 -0.05656,-0.37036v-0.93383c0,-0.42515 0.18025,-0.71007 0.51062,-0.82442c0.11944,-0.03933 0.24462,-0.05845 0.37036,-0.05656h7.7878c0.42516,0 0.71007,0.18025 0.82442,0.51061c0.03933,0.11945 0.05845,0.24462 0.05656,0.37036v0.49335c0.00008,0.04173 -0.00127,0.08346 -0.00405,0.1251c-0.01726,0.24861 -0.08774,0.45934 -0.22113,0.64505c-0.08542,0.11607 -0.18769,0.21875 -0.30341,0.30464l-1.74433,1.30384c-0.02433,0.01702 -0.04895,0.03365 -0.07382,0.04986c-0.20932,0.13655 -0.40965,0.22306 -0.63148,0.26711c-0.12756,0.0245 -0.25722,0.03636 -0.3871,0.03542h-1.12765c-0.79287,0 -1.19812,-0.35238 -0.82811,-0.70477l0.75764,-0.70478h-4.10533c-0.42498,0 -0.70989,-0.18025 -0.82442,-0.51061zM174.12937,190.24924c-0.03933,-0.11945 -0.05845,-0.24462 -0.05656,-0.37036v-6.50158c0,-0.42515 0.18025,-0.71007 0.51061,-0.82442c0.11945,-0.03933 0.24462,-0.05845 0.37036,-0.05656h0.96907c0.42515,0 0.71007,0.18025 0.82442,0.51062c0.03933,0.11945 0.05845,0.24462 0.05656,0.37036v6.50158c0,0.42498 -0.18025,0.70989 -0.51061,0.82441c-0.11945,0.03933 -0.24462,0.05845 -0.37036,0.05656h-0.96907c-0.42498,0 -0.70989,-0.18024 -0.82441,-0.51061zM142.67194,185.24408c-0.09549,0.35028 -0.36701,0.52277 -0.78582,0.50339c-0.03669,-0.00176 -0.0733,-0.00482 -0.10977,-0.00916c-1.29274,-0.17249 -2.97205,-0.25107 -4.5127,-0.24561c-0.33999,0.00109 -0.67996,0.00661 -1.01981,0.01656c-0.45,0.01356 -0.74178,-0.1628 -0.85049,-0.5129c-0.03354,-0.11374 -0.04976,-0.23188 -0.04811,-0.35045v-1.00431c0,-0.56383 0.29953,-0.88097 0.86336,-0.89859c0.35196,-0.00932 0.70403,-0.01391 1.05611,-0.01375c1.11161,0 2.24648,0.04282 3.25872,0.11048c0.45938,0.03025 0.91821,0.06849 1.37625,0.1147c0.52859,0.07048 0.8105,0.38763 0.8105,0.93384v1.03954c0.00132,0.10665 -0.01154,0.21301 -0.03823,0.31627zM187.86091,191.10326c-0.35521,-0.04423 -0.58391,-0.25654 -0.66161,-0.66056l-0.75764,-4.56344c-0.0881,-0.51096 0.17619,-0.8105 0.68716,-0.8105h0.29953c0.34534,0 0.59061,0.12017 0.72064,0.37565c0.04538,0.09257 0.0757,0.19178 0.08986,0.29389l0.8105,4.56344c0.0881,0.51096 -0.1762,0.8105 -0.68716,0.8105h-0.35238c-0.04977,0.00009 -0.09949,-0.00291 -0.14889,-0.00898zM189.78707,185.11106c0.09787,-0.02936 0.19965,-0.04362 0.30182,-0.04229h0.29953c0.33389,0 0.57668,0.1214 0.70531,0.37953c0.04402,0.09156 0.07356,0.18939 0.08757,0.29001l0.8105,4.56344c0.0881,0.51096 -0.1762,0.8105 -0.68716,0.8105h-0.33477c-0.34534,0 -0.59061,-0.12017 -0.72046,-0.37565c-0.04543,-0.09256 -0.07583,-0.19177 -0.09004,-0.29389l-0.77526,-4.56344c-0.06871,-0.39891 0.08792,-0.66883 0.40296,-0.76821z" fill="#000000" fill-rule="evenodd" stroke="#000000" stroke-width="0.25" stroke-linecap="round"/></g></g></svg>