<svg version="1.1" xmlns="http://www.w3.org/2000/svg" xmlns:xlink="http://www.w3.org/1999/xlink" width="1.65732" height="11.64113" viewBox="0,0,1.65732,11.64113"><g transform="translate(-239.23222,-174.21183)"><g data-paper-data="{&quot;isPaintingLayer&quot;:true}" fill="#000000" fill-rule="evenodd" stroke="#000000" stroke-width="1" stroke-linecap="round" stroke-linejoin="miter" stroke-miterlimit="10" stroke-dasharray="" stroke-dashoffset="0" style="mix-blend-mode: normal"><path d="M239.73222,185.03946v-7.10878c0,-0.18968 0.07071,-0.2962 0.21213,-0.31957c0.02109,-0.00342 0.04242,-0.0051 0.06378,-0.00503c0.17301,0 0.26466,0.09565 0.27494,0.28695c0.00066,0.01254 0.00099,0.0251 0.00097,0.03765v7.10878c0,0.18968 -0.07066,0.29625 -0.21196,0.31973c-0.02115,0.00337 -0.04253,0.005 -0.06395,0.00487c-0.1729,0 -0.2645,-0.0956 -0.27478,-0.28679c-0.00072,-0.01259 -0.0011,-0.0252 -0.00114,-0.03782zM239.6811,175.60783c0.09266,0.07465 0.20804,0.11542 0.32704,0.11556c0.0053,0.00001 0.0106,-0.00004 0.01591,-0.00016c0.139,-0.00124 0.2713,-0.05992 0.3655,-0.16214c0.10279,-0.1082 0.15419,-0.23804 0.15419,-0.38952c0.00001,-0.00233 0.00001,-0.00465 0,-0.00698c0.00166,-0.14058 -0.05401,-0.27578 -0.15419,-0.37443c-0.0483,-0.04904 -0.1059,-0.08795 -0.16944,-0.11442c-0.06735,-0.02708 -0.13938,-0.04059 -0.21196,-0.03976c-0.07311,-0.00031 -0.1455,0.01449 -0.21261,0.0435c-0.06196,0.02737 -0.11899,0.06477 -0.16879,0.11069c-0.00612,0.00556 -0.01213,0.01124 -0.01802,0.01704c-0.09953,0.09479 -0.15481,0.22694 -0.1524,0.36437c0,0.15148 0.05681,0.28132 0.17042,0.38952c0.01732,0.0165 0.03546,0.0321 0.05437,0.04674z"/></g></g></svg>