<svg xmlns="http://www.w3.org/2000/svg" viewBox="0 0 35.718 70.601" height="70.601" width="35.718"><g style="stroke:#000;stroke-width:1mm;fill:#000" fill="#000" stroke-width="1mm" stroke="#000" font-size="9pt" fill-rule="evenodd" stroke-linecap="round" id="svgGroup"><path d="M 33.3 70.601 L 2 70.601 Q 0.247 70.601 0.031 69.295 A 2.411 2.411 0 0 1 0 68.901 Q 0 63.601 2.55 58.951 A 46.315 46.315 0 0 1 6.939 52.396 A 54.888 54.888 0 0 1 9.05 49.901 Q 13 45.501 17.2 41.301 Q 21 37.401 24.4 33.701 A 49.922 49.922 0 0 0 27.845 29.538 A 39.561 39.561 0 0 0 30 26.301 A 16.639 16.639 0 0 0 31.842 21.956 A 14.451 14.451 0 0 0 32.3 18.701 Q 32.445 13.199 30.415 9.688 A 10.787 10.787 0 0 0 28.55 7.301 Q 24.795 3.688 18.283 3.51 A 24.974 24.974 0 0 0 17.6 3.501 Q 12.3 3.501 8.4 6.901 A 12.089 12.089 0 0 0 4.924 12.191 Q 4.288 14.034 4.058 16.258 A 23.349 23.349 0 0 0 4 16.901 Q 3.813 18.772 2.4 18.893 A 2.357 2.357 0 0 1 2.2 18.901 A 2.2 2.2 0 0 1 1.494 18.797 Q 0.44 18.441 0.498 16.856 A 4.812 4.812 0 0 1 0.5 16.801 A 21.6 21.6 0 0 1 1.791 10.833 A 17.153 17.153 0 0 1 5.8 4.651 A 15.915 15.915 0 0 1 16.722 0.019 A 21.017 21.017 0 0 1 17.6 0.001 A 24.082 24.082 0 0 1 23.19 0.613 A 16.133 16.133 0 0 1 31.1 4.951 Q 35.717 9.615 35.717 17.787 A 30.095 30.095 0 0 1 35.7 18.801 A 17.92 17.92 0 0 1 33.63 26.711 A 21.272 21.272 0 0 1 33.2 27.501 A 43.877 43.877 0 0 1 29.309 33.181 A 52.238 52.238 0 0 1 27.15 35.701 Q 23.5 39.701 19.6 43.701 Q 15.9 47.501 12.4 51.301 A 52.119 52.119 0 0 0 8.28 56.353 A 44.183 44.183 0 0 0 6.5 59.051 A 21.198 21.198 0 0 0 4.168 64.343 A 18.816 18.816 0 0 0 3.6 67.201 L 33.3 67.201 Q 35.053 67.201 35.27 68.507 A 2.411 2.411 0 0 1 35.3 68.901 Q 35.3 70.499 33.533 70.595 A 4.3 4.3 0 0 1 33.3 70.601 Z"></path></g></svg>