<svg xmlns="http://www.w3.org/2000/svg" viewBox="0 0 44.5 70.501" height="70.501" width="44.5"><g style="stroke:#000;stroke-width:1mm;fill:#000" fill="#000" stroke-width="1mm" stroke="#000" font-size="9pt" fill-rule="evenodd" stroke-linecap="round" id="svgGroup"><path d="M 30.2 68.501 L 30.2 51.701 L 2 51.701 Q 0 51.701 0 50.301 Q 0 49.356 0.516 48.263 A 7.774 7.774 0 0 1 0.7 47.901 L 30 1.301 A 3.068 3.068 0 0 1 30.617 0.564 A 2.362 2.362 0 0 1 32.2 0.001 A 1.359 1.359 0 0 1 32.889 0.165 Q 33.6 0.575 33.6 2.001 L 33.6 48.201 L 42.5 48.201 Q 44.253 48.201 44.47 49.507 A 2.411 2.411 0 0 1 44.5 49.901 Q 44.5 51.668 42.572 51.7 A 4.323 4.323 0 0 1 42.5 51.701 L 33.6 51.701 L 33.6 68.501 Q 33.6 70.254 32.294 70.47 A 2.411 2.411 0 0 1 31.9 70.501 Q 30.302 70.501 30.206 68.733 A 4.3 4.3 0 0 1 30.2 68.501 Z M 30.2 7.201 L 4.6 48.201 L 30.2 48.201 L 30.2 7.201 Z"></path></g></svg>