<svg xmlns="http://www.w3.org/2000/svg" viewBox="0 0 47.082 70.2" height="70.2" width="47.082"><g style="stroke:#000;stroke-width:1mm;fill:#000" fill="#000" stroke-width="1mm" stroke="#000" font-size="9pt" fill-rule="evenodd" stroke-linecap="round" id="svgGroup"><path d="M 0 68 L 0 2 Q 0 0.247 1.306 0.031 A 2.411 2.411 0 0 1 1.7 0 Q 3.298 0 3.394 1.768 A 4.3 4.3 0 0 1 3.4 2 L 3.4 30.8 L 39.5 0.9 Q 40.5 0 42 0 A 3.747 3.747 0 0 1 42.599 0.044 Q 42.902 0.094 43.133 0.198 A 1.167 1.167 0 0 1 43.75 0.8 A 0.97 0.97 0 0 1 43.835 1.192 Q 43.835 1.766 43.133 2.387 A 4.437 4.437 0 0 1 43 2.5 L 5.8 32.9 L 46.5 68 Q 47.3 68.7 47 69.45 A 1.078 1.078 0 0 1 46.346 70.069 Q 46.134 70.15 45.861 70.181 A 3.203 3.203 0 0 1 45.5 70.2 A 5.677 5.677 0 0 1 44.761 70.155 Q 44.383 70.105 44.068 70.001 A 2.759 2.759 0 0 1 43.7 69.85 Q 43 69.5 42.5 69.1 L 3.4 35 L 3.4 68 Q 3.4 69.753 2.094 69.97 A 2.411 2.411 0 0 1 1.7 70 Q 0.102 70 0.006 68.233 A 4.3 4.3 0 0 1 0 68 Z"></path></g></svg>