<svg xmlns="http://www.w3.org/2000/svg" viewBox="0 0 43.301 73.801" height="73.801" width="43.301"><g style="stroke:#000;stroke-width:1mm;fill:#000" fill="#000" stroke-width="1mm" stroke="#000" font-size="9pt" fill-rule="evenodd" stroke-linecap="round" id="svgGroup"><path d="M 39.9 35.3 L 39.9 2 Q 39.9 0.247 41.207 0.031 A 2.411 2.411 0 0 1 41.6 0 Q 43.199 0 43.294 1.768 A 4.3 4.3 0 0 1 43.3 2 L 43.3 70.7 Q 43.3 72.453 41.994 72.67 A 2.411 2.411 0 0 1 41.6 72.7 Q 40.002 72.7 39.907 70.933 A 4.3 4.3 0 0 1 39.9 70.7 L 39.9 62.3 Q 37.3 67.6 32.6 70.7 A 18.823 18.823 0 0 1 23.625 73.723 A 23.468 23.468 0 0 1 21.7 73.8 A 21.116 21.116 0 0 1 14.627 72.642 A 19.208 19.208 0 0 1 10.5 70.6 Q 5.6 67.4 2.8 61.75 A 26.754 26.754 0 0 1 0.302 53.413 A 34.232 34.232 0 0 1 0 48.8 Q 0 41.5 2.8 35.85 Q 5.6 30.2 10.5 27 A 19.754 19.754 0 0 1 20.532 23.828 A 24.063 24.063 0 0 1 21.7 23.8 A 20.98 20.98 0 0 1 27.991 24.714 A 18.18 18.18 0 0 1 32.6 26.9 Q 37.3 30 39.9 35.3 Z M 21.7 70.4 A 17.682 17.682 0 0 0 27.553 69.455 A 15.979 15.979 0 0 0 31.1 67.7 Q 35.2 65 37.55 60.1 A 23.556 23.556 0 0 0 39.57 53.389 A 30.731 30.731 0 0 0 39.9 48.8 A 29.669 29.669 0 0 0 39.384 43.141 A 22.669 22.669 0 0 0 37.55 37.55 A 19.725 19.725 0 0 0 34.249 32.662 A 17.281 17.281 0 0 0 31.1 30 A 16.46 16.46 0 0 0 22.724 27.326 A 20.147 20.147 0 0 0 21.7 27.3 A 17.73 17.73 0 0 0 15.525 28.355 A 16.352 16.352 0 0 0 12.25 30 A 17.905 17.905 0 0 0 6.406 36.3 A 21.801 21.801 0 0 0 5.75 37.55 Q 3.4 42.4 3.4 48.8 A 29.628 29.628 0 0 0 3.97 54.737 A 22.991 22.991 0 0 0 5.75 60.1 A 19.552 19.552 0 0 0 9.016 64.974 A 17.114 17.114 0 0 0 12.25 67.7 A 16.779 16.779 0 0 0 20.961 70.387 A 20.346 20.346 0 0 0 21.7 70.4 Z"></path></g></svg>