<svg xmlns="http://www.w3.org/2000/svg" viewBox="0 0 37.661 72.501" height="72.501" width="37.661"><g style="stroke:#000;stroke-width:1mm;fill:#000" fill="#000" stroke-width="1mm" stroke="#000" font-size="9pt" fill-rule="evenodd" stroke-linecap="round" id="svgGroup"><path d="M 12.181 72.226 A 22.518 22.518 0 0 0 15.8 72.501 Q 21.854 72.501 26.23 69.57 A 18.814 18.814 0 0 0 31.65 63.851 Q 35.589 57.6 36.942 46.1 A 106.872 106.872 0 0 0 37.6 36.501 A 139.01 139.01 0 0 0 37.627 35.504 Q 37.915 22.899 35.75 15.201 A 36.219 36.219 0 0 0 34.679 11.959 Q 33.734 9.511 32.523 7.593 A 16.172 16.172 0 0 0 29.05 3.601 A 15.661 15.661 0 0 0 23.969 0.845 A 18.363 18.363 0 0 0 18.3 0.001 A 20.629 20.629 0 0 0 16.321 0.094 A 16.563 16.563 0 0 0 8.8 2.651 Q 4.7 5.301 2.35 9.951 A 21.038 21.038 0 0 0 0.57 15.047 A 26.89 26.89 0 0 0 0 20.701 A 32.202 32.202 0 0 0 0.001 20.873 Q 0.015 23.532 0.469 25.859 A 19.102 19.102 0 0 0 2.45 31.451 A 20.392 20.392 0 0 0 3.338 32.917 A 16.56 16.56 0 0 0 8.9 38.201 Q 12.9 40.501 17.7 40.501 A 21.837 21.837 0 0 0 20.514 40.324 A 16.922 16.922 0 0 0 27.75 37.701 A 15.817 15.817 0 0 0 31.275 34.533 A 18.328 18.328 0 0 0 34.1 29.701 A 130.714 130.714 0 0 1 34.154 33.434 A 131.02 131.02 0 0 1 33.75 43.701 A 60.355 60.355 0 0 1 33.141 48.775 A 48.294 48.294 0 0 1 31.25 56.451 Q 29.3 62.201 25.55 65.651 A 12.59 12.59 0 0 1 20.026 68.595 A 17.544 17.544 0 0 1 15.7 69.101 A 16.645 16.645 0 0 1 12.808 68.861 A 12.159 12.159 0 0 1 9.3 67.701 Q 6.6 66.301 4.5 64.001 A 5.262 5.262 0 0 0 4.402 63.891 Q 3.269 62.667 2.268 63.23 A 1.993 1.993 0 0 0 1.9 63.501 Q 0.5 64.801 1.8 66.101 A 22.423 22.423 0 0 0 2.294 66.652 A 19.545 19.545 0 0 0 7.7 70.801 A 12.91 12.91 0 0 0 8.524 71.188 Q 10.182 71.9 12.181 72.226 Z M 17.7 37.101 Q 22.2 37.101 26 34.601 Q 29.8 32.101 31.85 27.851 A 14.353 14.353 0 0 0 33.275 21.533 Q 33.275 20.057 33 18.501 Q 30.6 3.601 18.3 3.601 A 15.9 15.9 0 0 0 14.343 4.071 A 12.137 12.137 0 0 0 10.05 6.101 Q 6.7 8.601 5.05 12.501 Q 3.4 16.401 3.4 20.701 A 21.482 21.482 0 0 0 4.027 26.025 A 15.778 15.778 0 0 0 7.35 32.501 A 12.82 12.82 0 0 0 16.715 37.073 A 17.045 17.045 0 0 0 17.7 37.101 Z"></path></g></svg>