<svg xmlns="http://www.w3.org/2000/svg" viewBox="0 0 36.4 48.901" height="48.901" width="36.4"><g style="stroke:#000;stroke-width:1mm;fill:#000" fill="#000" stroke-width="1mm" stroke="#000" font-size="9pt" fill-rule="evenodd" stroke-linecap="round" id="svgGroup"><path d="M 0 30.1 L 0 2 Q 0 0.247 1.306 0.031 A 2.411 2.411 0 0 1 1.7 0 Q 3.298 0 3.394 1.768 A 4.3 4.3 0 0 1 3.4 2 L 3.4 30.1 Q 3.4 37.7 7.2 41.55 Q 11 45.4 17.1 45.4 A 19.189 19.189 0 0 0 21.448 44.928 A 15.201 15.201 0 0 0 25.35 43.45 Q 28.9 41.5 30.9 38.35 A 12.683 12.683 0 0 0 32.658 34.092 A 11.831 11.831 0 0 0 32.9 31.7 L 32.9 2 Q 32.9 0 34.7 0 Q 36.298 0 36.394 1.768 A 4.3 4.3 0 0 1 36.4 2 L 36.4 45.7 Q 36.4 47.453 35.094 47.67 A 2.411 2.411 0 0 1 34.7 47.7 Q 32.933 47.7 32.901 45.773 A 4.323 4.323 0 0 1 32.9 45.7 L 32.9 40.4 A 16.626 16.626 0 0 1 28.93 44.807 A 21.27 21.27 0 0 1 26.5 46.45 A 18.141 18.141 0 0 1 17.827 48.888 A 21.639 21.639 0 0 1 17.1 48.9 A 18.999 18.999 0 0 1 11.295 48.052 A 15.466 15.466 0 0 1 4.75 43.95 A 16.231 16.231 0 0 1 0.846 36.907 Q 0 33.855 0 30.1 Z"></path></g></svg>