<svg xmlns="http://www.w3.org/2000/svg" viewBox="0 0 20.012 70.302" height="70.302" width="20.012"><g style="stroke:#000;stroke-width:1mm;fill:#000" fill="#000" stroke-width="1mm" stroke="#000" font-size="9pt" fill-rule="evenodd" stroke-linecap="round" id="svgGroup"><path d="M 16.612 68.302 L 16.612 4.702 L 2.912 13.102 A 4.324 4.324 0 0 1 2.46 13.321 Q 1.19 13.844 0.499 12.979 A 2.158 2.158 0 0 1 0.312 12.702 A 2.248 2.248 0 0 1 0.116 12.329 Q -0.274 11.361 0.651 10.546 A 3.907 3.907 0 0 1 1.112 10.202 L 16.312 0.702 Q 17.412 0.002 18.712 0.002 A 1.09 1.09 0 0 1 19.751 0.613 Q 19.991 1.067 20.01 1.86 A 5.828 5.828 0 0 1 20.012 2.002 L 20.012 68.302 Q 20.012 70.055 18.705 70.271 A 2.411 2.411 0 0 1 18.312 70.302 Q 16.713 70.302 16.618 68.534 A 4.3 4.3 0 0 1 16.612 68.302 Z"></path></g></svg>