<svg xmlns="http://www.w3.org/2000/svg" viewBox="0 0 32.993 72.9" height="72.9" width="32.993"><g style="stroke:#000;stroke-width:1mm;fill:#000" fill="#000" stroke-width="1mm" stroke="#000" font-size="9pt" fill-rule="evenodd" stroke-linecap="round" id="svgGroup"><path d="M 1.9 72.7 L 1.6 72.7 A 2.303 2.303 0 0 1 0.967 72.621 Q 0.257 72.418 0.068 71.693 A 2.357 2.357 0 0 1 0 71.1 L 0 1.6 A 2.303 2.303 0 0 1 0.08 0.967 Q 0.283 0.257 1.008 0.068 A 2.357 2.357 0 0 1 1.6 0 L 1.9 0 A 2.303 2.303 0 0 1 2.533 0.08 Q 3.243 0.283 3.432 1.008 A 2.357 2.357 0 0 1 3.5 1.6 L 3.5 44.4 L 27.1 25.6 Q 28.231 24.752 29.361 24.703 A 3.203 3.203 0 0 1 29.5 24.7 A 2.453 2.453 0 0 1 30.097 24.768 A 1.418 1.418 0 0 1 31.1 25.6 Q 31.436 26.355 30.364 27.391 A 7.188 7.188 0 0 1 29.9 27.8 L 6 46.6 L 32.5 70.7 A 2.008 2.008 0 0 1 32.738 70.944 Q 33.126 71.423 32.922 71.924 A 1.283 1.283 0 0 1 32.8 72.15 A 1.62 1.62 0 0 1 31.742 72.847 A 2.616 2.616 0 0 1 31.2 72.9 A 3.324 3.324 0 0 1 29.291 72.29 A 4.526 4.526 0 0 1 28.8 71.9 L 3.5 48.8 L 3.5 71.1 A 2.303 2.303 0 0 1 3.421 71.733 Q 3.218 72.443 2.493 72.632 A 2.357 2.357 0 0 1 1.9 72.7 Z"></path></g></svg>