<svg xmlns="http://www.w3.org/2000/svg" viewBox="0 0 46.927 72.4" height="72.4" width="46.927"><g style="stroke:#000;stroke-width:1mm;fill:#000" fill="#000" stroke-width="1mm" stroke="#000" font-size="9pt" fill-rule="evenodd" stroke-linecap="round" id="svgGroup"><path d="M 15.919 71.677 A 41.738 41.738 0 0 0 23.826 72.4 Q 30.126 72.4 35.376 70.25 A 23.78 23.78 0 0 0 37.271 69.377 A 19.345 19.345 0 0 0 43.776 64.05 A 14.515 14.515 0 0 0 46.101 59.726 A 16.651 16.651 0 0 0 46.926 54.4 A 22.566 22.566 0 0 0 46.544 50.142 A 14.881 14.881 0 0 0 41.176 41 A 18.38 18.38 0 0 0 39.569 39.856 Q 35.582 37.315 28.914 35.616 A 81.377 81.377 0 0 0 22.026 34.2 A 41.581 41.581 0 0 1 17.129 33.137 Q 14.751 32.457 12.862 31.532 A 15.746 15.746 0 0 1 9.126 29.05 A 12.123 12.123 0 0 1 5.533 22.946 A 17.596 17.596 0 0 1 5.026 18.6 Q 5.026 11.3 10.126 7.4 Q 15.226 3.5 22.826 3.5 A 28.724 28.724 0 0 1 31.049 4.691 A 32.519 32.519 0 0 1 40.426 9.3 A 4.187 4.187 0 0 0 40.753 9.474 Q 42.224 10.173 43.126 9 A 2.502 2.502 0 0 0 43.128 8.997 Q 44.124 7.699 42.426 6.4 A 41.503 41.503 0 0 0 39.791 4.727 A 33.223 33.223 0 0 0 22.826 0 A 29.721 29.721 0 0 0 18.312 0.331 A 22.731 22.731 0 0 0 11.726 2.35 A 21.897 21.897 0 0 0 11.134 2.651 A 18.417 18.417 0 0 0 4.176 8.9 A 16.332 16.332 0 0 0 2.272 12.899 A 18.649 18.649 0 0 0 1.426 18.6 Q 1.426 30.851 13.451 35.587 A 39.226 39.226 0 0 0 21.426 37.7 A 100.683 100.683 0 0 1 23.163 37.98 Q 31.085 39.327 35.376 41.45 Q 40.126 43.8 41.826 47 Q 43.526 50.2 43.526 54.4 A 15.248 15.248 0 0 1 43.395 56.432 A 11.242 11.242 0 0 1 40.576 62.65 A 16.472 16.472 0 0 1 37.915 65.01 A 18.7 18.7 0 0 1 33.076 67.45 Q 28.526 69 23.826 69 Q 11.226 69 3.226 61.8 A 3.749 3.749 0 0 0 2.843 61.463 Q 1.66 60.566 0.626 61.6 A 2.898 2.898 0 0 0 0.488 61.736 Q -0.595 62.879 0.726 64.2 Q 5.126 68.3 10.976 70.35 A 34.879 34.879 0 0 0 15.919 71.677 Z"></path></g></svg>