<svg version="1.1" xmlns="http://www.w3.org/2000/svg" xmlns:xlink="http://www.w3.org/1999/xlink" width="367" height="367" viewBox="0,0,367,367"><defs><radialGradient cx="129.63965" cy="84.37312" r="25.52553" gradientUnits="userSpaceOnUse" id="color-1"><stop offset="0" stop-color="#ff9400"/><stop offset="1" stop-color="#ff0000" stop-opacity="0"/></radialGradient><radialGradient cx="190.63966" cy="52.37314" r="25.52553" gradientUnits="userSpaceOnUse" id="color-2"><stop offset="0" stop-color="#ff9400"/><stop offset="1" stop-color="#ff0000" stop-opacity="0"/></radialGradient><radialGradient cx="259.63966" cy="46.37314" r="25.52553" gradientUnits="userSpaceOnUse" id="color-3"><stop offset="0" stop-color="#ff9400"/><stop offset="1" stop-color="#ff0000" stop-opacity="0"/></radialGradient><radialGradient cx="99.63965" cy="160.37313" r="25.52553" gradientUnits="userSpaceOnUse" id="color-4"><stop offset="0" stop-color="#ff9400"/><stop offset="1" stop-color="#ff0000" stop-opacity="0"/></radialGradient><radialGradient cx="113.63965" cy="249.37313" r="25.52553" gradientUnits="userSpaceOnUse" id="color-5"><stop offset="0" stop-color="#ff9400"/><stop offset="1" stop-color="#ff0000" stop-opacity="0"/></radialGradient><radialGradient cx="339.63965" cy="74.37314" r="25.52553" gradientUnits="userSpaceOnUse" id="color-6"><stop offset="0" stop-color="#ff9400"/><stop offset="1" stop-color="#ff0000" stop-opacity="0"/></radialGradient><radialGradient cx="377.63967" cy="157.37313" r="25.52553" gradientUnits="userSpaceOnUse" id="color-7"><stop offset="0" stop-color="#ff9400"/><stop offset="1" stop-color="#ff0000" stop-opacity="0"/></radialGradient><radialGradient cx="370.63967" cy="243.37313" r="25.52553" gradientUnits="userSpaceOnUse" id="color-8"><stop offset="0" stop-color="#ff9400"/><stop offset="1" stop-color="#ff0000" stop-opacity="0"/></radialGradient><radialGradient cx="316.63964" cy="297.37313" r="25.52553" gradientUnits="userSpaceOnUse" id="color-9"><stop offset="0" stop-color="#ff9400"/><stop offset="1" stop-color="#ff0000" stop-opacity="0"/></radialGradient><radialGradient cx="165.63966" cy="297.37313" r="25.52553" gradientUnits="userSpaceOnUse" id="color-10"><stop offset="0" stop-color="#ff9400"/><stop offset="1" stop-color="#ff0000" stop-opacity="0"/></radialGradient><radialGradient cx="231.63966" cy="320.37313" r="25.52553" gradientUnits="userSpaceOnUse" id="color-11"><stop offset="0" stop-color="#ff9400"/><stop offset="1" stop-color="#ff0000" stop-opacity="0"/></radialGradient><radialGradient cx="175.93449" cy="121.81205" r="15.00281" gradientUnits="userSpaceOnUse" id="color-12"><stop offset="0" stop-color="#ff0000"/><stop offset="1" stop-color="#ff0000" stop-opacity="0"/></radialGradient><radialGradient cx="211.78767" cy="103.00382" r="15.00281" gradientUnits="userSpaceOnUse" id="color-13"><stop offset="0" stop-color="#ff0000"/><stop offset="1" stop-color="#ff0000" stop-opacity="0"/></radialGradient><radialGradient cx="252.3429" cy="99.47728" r="15.00281" gradientUnits="userSpaceOnUse" id="color-14"><stop offset="0" stop-color="#ff0000"/><stop offset="1" stop-color="#ff0000" stop-opacity="0"/></radialGradient><radialGradient cx="158.30178" cy="166.48159" r="15.00281" gradientUnits="userSpaceOnUse" id="color-15"><stop offset="0" stop-color="#ff0000"/><stop offset="1" stop-color="#ff0000" stop-opacity="0"/></radialGradient><radialGradient cx="166.53038" cy="218.79197" r="15.00281" gradientUnits="userSpaceOnUse" id="color-16"><stop offset="0" stop-color="#ff0000"/><stop offset="1" stop-color="#ff0000" stop-opacity="0"/></radialGradient><radialGradient cx="299.36348" cy="115.93448" r="15.00281" gradientUnits="userSpaceOnUse" id="color-17"><stop offset="0" stop-color="#ff0000"/><stop offset="1" stop-color="#ff0000" stop-opacity="0"/></radialGradient><radialGradient cx="321.69825" cy="164.71832" r="15.00281" gradientUnits="userSpaceOnUse" id="color-18"><stop offset="0" stop-color="#ff0000"/><stop offset="1" stop-color="#ff0000" stop-opacity="0"/></radialGradient><radialGradient cx="317.58394" cy="215.26542" r="15.00281" gradientUnits="userSpaceOnUse" id="color-19"><stop offset="0" stop-color="#ff0000"/><stop offset="1" stop-color="#ff0000" stop-opacity="0"/></radialGradient><radialGradient cx="285.84506" cy="247.00431" r="15.00281" gradientUnits="userSpaceOnUse" id="color-20"><stop offset="0" stop-color="#ff0000"/><stop offset="1" stop-color="#ff0000" stop-opacity="0"/></radialGradient><radialGradient cx="197.09375" cy="247.00431" r="15.00281" gradientUnits="userSpaceOnUse" id="color-21"><stop offset="0" stop-color="#ff0000"/><stop offset="1" stop-color="#ff0000" stop-opacity="0"/></radialGradient><radialGradient cx="235.88571" cy="260.52272" r="15.00281" gradientUnits="userSpaceOnUse" id="color-22"><stop offset="0" stop-color="#ff0000"/><stop offset="1" stop-color="#ff0000" stop-opacity="0"/></radialGradient><radialGradient cx="200.77866" cy="144.37694" r="9.18482" gradientUnits="userSpaceOnUse" id="color-23"><stop offset="0" stop-color="#00ff6b"/><stop offset="1" stop-color="#ff0000" stop-opacity="0"/></radialGradient><radialGradient cx="222.72822" cy="132.86241" r="9.18482" gradientUnits="userSpaceOnUse" id="color-24"><stop offset="0" stop-color="#00ff6b"/><stop offset="1" stop-color="#ff0000" stop-opacity="0"/></radialGradient><radialGradient cx="247.55642" cy="130.70344" r="9.18482" gradientUnits="userSpaceOnUse" id="color-25"><stop offset="0" stop-color="#00ff6b"/><stop offset="1" stop-color="#ff0000" stop-opacity="0"/></radialGradient><radialGradient cx="189.98379" cy="171.72394" r="9.18482" gradientUnits="userSpaceOnUse" id="color-26"><stop offset="0" stop-color="#00ff6b"/><stop offset="1" stop-color="#ff0000" stop-opacity="0"/></radialGradient><radialGradient cx="195.02141" cy="203.74871" r="9.18482" gradientUnits="userSpaceOnUse" id="color-27"><stop offset="0" stop-color="#00ff6b"/><stop offset="1" stop-color="#ff0000" stop-opacity="0"/></radialGradient><radialGradient cx="276.34272" cy="140.77865" r="9.18482" gradientUnits="userSpaceOnUse" id="color-28"><stop offset="0" stop-color="#00ff6b"/><stop offset="1" stop-color="#ff0000" stop-opacity="0"/></radialGradient><radialGradient cx="290.01623" cy="170.64445" r="9.18482" gradientUnits="userSpaceOnUse" id="color-29"><stop offset="0" stop-color="#00ff6b"/><stop offset="1" stop-color="#ff0000" stop-opacity="0"/></radialGradient><radialGradient cx="287.49743" cy="201.58974" r="9.18482" gradientUnits="userSpaceOnUse" id="color-30"><stop offset="0" stop-color="#00ff6b"/><stop offset="1" stop-color="#ff0000" stop-opacity="0"/></radialGradient><radialGradient cx="268.06666" cy="221.0205" r="9.18482" gradientUnits="userSpaceOnUse" id="color-31"><stop offset="0" stop-color="#00ff6b"/><stop offset="1" stop-color="#ff0000" stop-opacity="0"/></radialGradient><radialGradient cx="213.7325" cy="221.0205" r="9.18482" gradientUnits="userSpaceOnUse" id="color-32"><stop offset="0" stop-color="#00ff6b"/><stop offset="1" stop-color="#ff0000" stop-opacity="0"/></radialGradient><radialGradient cx="237.48122" cy="229.29656" r="9.18482" gradientUnits="userSpaceOnUse" id="color-33"><stop offset="0" stop-color="#00ff6b"/><stop offset="1" stop-color="#ff0000" stop-opacity="0"/></radialGradient><radialGradient cx="218.66646" cy="160.62366" r="4.99587" gradientUnits="userSpaceOnUse" id="color-34"><stop offset="0" stop-color="#1000ff"/><stop offset="1" stop-color="#ff0000" stop-opacity="0"/></radialGradient><radialGradient cx="230.60542" cy="154.3606" r="4.99587" gradientUnits="userSpaceOnUse" id="color-35"><stop offset="0" stop-color="#1000ff"/><stop offset="1" stop-color="#ff0000" stop-opacity="0"/></radialGradient><radialGradient cx="244.11015" cy="153.18627" r="4.99587" gradientUnits="userSpaceOnUse" id="color-36"><stop offset="0" stop-color="#1000ff"/><stop offset="1" stop-color="#ff0000" stop-opacity="0"/></radialGradient><radialGradient cx="212.79484" cy="175.49843" r="4.99587" gradientUnits="userSpaceOnUse" id="color-37"><stop offset="0" stop-color="#1000ff"/><stop offset="1" stop-color="#ff0000" stop-opacity="0"/></radialGradient><radialGradient cx="215.53493" cy="192.91756" r="4.99587" gradientUnits="userSpaceOnUse" id="color-38"><stop offset="0" stop-color="#1000ff"/><stop offset="1" stop-color="#ff0000" stop-opacity="0"/></radialGradient><radialGradient cx="259.76779" cy="158.66645" r="4.99587" gradientUnits="userSpaceOnUse" id="color-39"><stop offset="0" stop-color="#1000ff"/><stop offset="1" stop-color="#ff0000" stop-opacity="0"/></radialGradient><radialGradient cx="267.20518" cy="174.91126" r="4.99587" gradientUnits="userSpaceOnUse" id="color-40"><stop offset="0" stop-color="#1000ff"/><stop offset="1" stop-color="#ff0000" stop-opacity="0"/></radialGradient><radialGradient cx="265.83512" cy="191.74324" r="4.99587" gradientUnits="userSpaceOnUse" id="color-41"><stop offset="0" stop-color="#1000ff"/><stop offset="1" stop-color="#ff0000" stop-opacity="0"/></radialGradient><radialGradient cx="255.26622" cy="202.31215" r="4.99587" gradientUnits="userSpaceOnUse" id="color-42"><stop offset="0" stop-color="#1000ff"/><stop offset="1" stop-color="#ff0000" stop-opacity="0"/></radialGradient><radialGradient cx="225.71241" cy="202.31215" r="4.99587" gradientUnits="userSpaceOnUse" id="color-43"><stop offset="0" stop-color="#1000ff"/><stop offset="1" stop-color="#ff0000" stop-opacity="0"/></radialGradient><radialGradient cx="238.62996" cy="206.81373" r="4.99587" gradientUnits="userSpaceOnUse" id="color-44"><stop offset="0" stop-color="#1000ff"/><stop offset="1" stop-color="#ff0000" stop-opacity="0"/></radialGradient><radialGradient cx="231.93493" cy="172.67483" r="1.88867" gradientUnits="userSpaceOnUse" id="color-45"><stop offset="0" stop-color="#ff00d2"/><stop offset="1" stop-color="#ff0000" stop-opacity="0"/></radialGradient><radialGradient cx="236.44842" cy="170.3071" r="1.88867" gradientUnits="userSpaceOnUse" id="color-46"><stop offset="0" stop-color="#ff00d2"/><stop offset="1" stop-color="#ff0000" stop-opacity="0"/></radialGradient><radialGradient cx="241.55383" cy="169.86315" r="1.88867" gradientUnits="userSpaceOnUse" id="color-47"><stop offset="0" stop-color="#ff00d2"/><stop offset="1" stop-color="#ff0000" stop-opacity="0"/></radialGradient><radialGradient cx="229.71517" cy="178.29819" r="1.88867" gradientUnits="userSpaceOnUse" id="color-48"><stop offset="0" stop-color="#ff00d2"/><stop offset="1" stop-color="#ff0000" stop-opacity="0"/></radialGradient><radialGradient cx="230.75106" cy="184.88345" r="1.88867" gradientUnits="userSpaceOnUse" id="color-49"><stop offset="0" stop-color="#ff00d2"/><stop offset="1" stop-color="#ff0000" stop-opacity="0"/></radialGradient><radialGradient cx="247.47316" cy="171.93491" r="1.88867" gradientUnits="userSpaceOnUse" id="color-50"><stop offset="0" stop-color="#ff00d2"/><stop offset="1" stop-color="#ff0000" stop-opacity="0"/></radialGradient><radialGradient cx="250.28485" cy="178.07622" r="1.88867" gradientUnits="userSpaceOnUse" id="color-51"><stop offset="0" stop-color="#ff00d2"/><stop offset="1" stop-color="#ff0000" stop-opacity="0"/></radialGradient><radialGradient cx="249.76691" cy="184.4395" r="1.88867" gradientUnits="userSpaceOnUse" id="color-52"><stop offset="0" stop-color="#ff0000"/><stop offset="1" stop-color="#ff0000" stop-opacity="0"/></radialGradient><radialGradient cx="245.77135" cy="188.43504" r="1.88867" gradientUnits="userSpaceOnUse" id="color-53"><stop offset="0" stop-color="#ff00d2"/><stop offset="1" stop-color="#ff0000" stop-opacity="0"/></radialGradient><radialGradient cx="234.59862" cy="188.43504" r="1.88867" gradientUnits="userSpaceOnUse" id="color-54"><stop offset="0" stop-color="#ff00d2"/><stop offset="1" stop-color="#ff0000" stop-opacity="0"/></radialGradient><radialGradient cx="239.48206" cy="190.13685" r="1.88867" gradientUnits="userSpaceOnUse" id="color-55"><stop offset="0" stop-color="#ff00d2"/><stop offset="1" stop-color="#ff0000" stop-opacity="0"/></radialGradient><radialGradient cx="240" cy="180" r="183.5" gradientUnits="userSpaceOnUse" id="color-56"><stop offset="0" stop-color="#ff0000"/><stop offset="1" stop-color="#ff0000" stop-opacity="0"/></radialGradient></defs><g transform="translate(-56.5,3.5)"><g data-paper-data="{&quot;isPaintingLayer&quot;:true}" fill-rule="nonzero" stroke="none" stroke-width="0" stroke-linecap="butt" stroke-linejoin="miter" stroke-miterlimit="10" stroke-dasharray="" stroke-dashoffset="0" style="mix-blend-mode: normal"><path d="M104.11412,84.37312c0,-14.09736 11.42817,-25.52553 25.52553,-25.52553c14.09736,0 25.52553,11.42817 25.52553,25.52553c0,14.09736 -11.42817,25.52553 -25.52553,25.52553c-14.09736,0 -25.52553,-11.42817 -25.52553,-25.52553z" fill="url(#color-1)"/><path d="M165.11414,52.37313c0,-14.09736 11.42817,-25.52552 25.52553,-25.52552c14.09736,0 25.52552,11.42817 25.52552,25.52553c0,14.09736 -11.42816,25.52553 -25.52552,25.52553c-14.09736,0 -25.52553,-11.42817 -25.52553,-25.52552z" fill="url(#color-2)"/><path d="M234.11414,46.37313c0,-14.09736 11.42817,-25.52552 25.52552,-25.52552c14.09736,0 25.52553,11.42817 25.52553,25.52553c0,14.09736 -11.42816,25.52553 -25.52553,25.52553c-14.09736,0 -25.52552,-11.42817 -25.52552,-25.52552z" fill="url(#color-3)"/><path d="M74.11412,160.37313c0,-14.09736 11.42817,-25.52553 25.52553,-25.52553c14.09736,0 25.52553,11.42817 25.52553,25.52553c0,14.09736 -11.42816,25.52553 -25.52552,25.52553c-14.09736,0 -25.52553,-11.42817 -25.52553,-25.52553z" fill="url(#color-4)"/><path d="M88.11412,249.37313c0,-14.09736 11.42817,-25.52553 25.52553,-25.52553c14.09736,0 25.52553,11.42817 25.52553,25.52553c0,14.09736 -11.42816,25.52553 -25.52552,25.52553c-14.09736,0 -25.52553,-11.42817 -25.52553,-25.52553z" fill="url(#color-5)"/><path d="M314.11412,74.37313c0,-14.09736 11.42817,-25.52552 25.52553,-25.52552c14.09736,0 25.52553,11.42817 25.52553,25.52553c0,14.09736 -11.42816,25.52553 -25.52553,25.52553c-14.09736,0 -25.52553,-11.42817 -25.52553,-25.52552z" fill="url(#color-6)"/><path d="M352.11414,157.37313c0,-14.09736 11.42817,-25.52553 25.52553,-25.52553c14.09736,0 25.52553,11.42817 25.52553,25.52553c0,14.09736 -11.42816,25.52553 -25.52553,25.52553c-14.09736,0 -25.52553,-11.42817 -25.52553,-25.52553z" fill="url(#color-7)"/><path d="M345.11414,243.37313c0,-14.09736 11.42817,-25.52553 25.52553,-25.52553c14.09736,0 25.52553,11.42817 25.52553,25.52553c0,14.09736 -11.42816,25.52553 -25.52553,25.52553c-14.09736,0 -25.52553,-11.42817 -25.52553,-25.52553z" fill="url(#color-8)"/><path d="M291.11412,297.37313c0,-14.09736 11.42817,-25.52553 25.52553,-25.52553c14.09736,0 25.52553,11.42817 25.52553,25.52553c0,14.09736 -11.42816,25.52553 -25.52553,25.52553c-14.09736,0 -25.52553,-11.42817 -25.52553,-25.52553z" fill="url(#color-9)"/><path d="M140.11414,297.37313c0,-14.09736 11.42817,-25.52553 25.52553,-25.52553c14.09736,0 25.52552,11.42817 25.52552,25.52553c0,14.09736 -11.42816,25.52553 -25.52552,25.52553c-14.09736,0 -25.52553,-11.42817 -25.52553,-25.52553z" fill="url(#color-10)"/><path d="M206.11414,320.37313c0,-14.09736 11.42817,-25.52553 25.52553,-25.52553c14.09736,0 25.52552,11.42817 25.52552,25.52553c0,14.09736 -11.42816,25.52553 -25.52552,25.52553c-14.09736,0 -25.52553,-11.42817 -25.52553,-25.52553z" fill="url(#color-11)"/><path d="M160.93168,121.81205c0,-8.28582 6.71698,-15.00281 15.00281,-15.00281c8.28582,0 15.00281,6.71698 15.00281,15.00281c0,8.28582 -6.71698,15.00281 -15.00281,15.00281c-8.28582,0 -15.00281,-6.71698 -15.00281,-15.00281z" fill="url(#color-12)"/><path d="M196.78487,103.00382c0,-8.28582 6.71698,-15.00281 15.00281,-15.00281c8.28582,0 15.00281,6.71698 15.00281,15.00281c0,8.28582 -6.71698,15.00281 -15.00281,15.00281c-8.28582,0 -15.00281,-6.71698 -15.00281,-15.00281z" fill="url(#color-13)"/><path d="M237.3401,99.47728c0,-8.28582 6.71698,-15.00281 15.00281,-15.00281c8.28582,0 15.00281,6.71698 15.00281,15.00281c0,8.28582 -6.71698,15.00281 -15.00281,15.00281c-8.28582,0 -15.00281,-6.71698 -15.00281,-15.00281z" fill="url(#color-14)"/><path d="M143.29897,166.48159c0,-8.28582 6.71698,-15.00281 15.00281,-15.00281c8.28582,0 15.00281,6.71698 15.00281,15.00281c0,8.28582 -6.71698,15.00281 -15.00281,15.00281c-8.28582,0 -15.00281,-6.71698 -15.00281,-15.00281z" fill="url(#color-15)"/><path d="M151.52757,218.79197c0,-8.28582 6.71698,-15.00281 15.00281,-15.00281c8.28582,0 15.00281,6.71698 15.00281,15.00281c0,8.28582 -6.71698,15.00281 -15.00281,15.00281c-8.28582,0 -15.00281,-6.71698 -15.00281,-15.00281z" fill="url(#color-16)"/><path d="M284.36068,115.93448c0,-8.28582 6.71698,-15.00281 15.00281,-15.00281c8.28582,0 15.00281,6.71698 15.00281,15.00281c0,8.28582 -6.71698,15.00281 -15.00281,15.00281c-8.28582,0 -15.00281,-6.71698 -15.00281,-15.00281z" fill="url(#color-17)"/><path d="M306.69543,164.71832c0,-8.28582 6.71698,-15.00281 15.00281,-15.00281c8.28582,0 15.00281,6.71698 15.00281,15.00281c0,8.28582 -6.71698,15.00281 -15.00281,15.00281c-8.28582,0 -15.00281,-6.71698 -15.00281,-15.00281z" fill="url(#color-18)"/><path d="M302.58114,215.26542c0,-8.28582 6.71698,-15.00281 15.00281,-15.00281c8.28582,0 15.00281,6.71698 15.00281,15.00281c0,8.28582 -6.71698,15.00281 -15.00281,15.00281c-8.28582,0 -15.00281,-6.71698 -15.00281,-15.00281z" fill="url(#color-19)"/><path d="M270.84226,247.00431c0,-8.28582 6.71698,-15.00281 15.00281,-15.00281c8.28582,0 15.00281,6.71698 15.00281,15.00281c0,8.28582 -6.71698,15.00281 -15.00281,15.00281c-8.28582,0 -15.00281,-6.71698 -15.00281,-15.00281z" fill="url(#color-20)"/><path d="M182.09094,247.00431c0,-8.28582 6.71698,-15.00281 15.00281,-15.00281c8.28582,0 15.00281,6.71698 15.00281,15.00281c0,8.28582 -6.71698,15.00281 -15.00281,15.00281c-8.28582,0 -15.00281,-6.71698 -15.00281,-15.00281z" fill="url(#color-21)"/><path d="M220.8829,260.52272c0,-8.28582 6.71698,-15.00281 15.00281,-15.00281c8.28582,0 15.00281,6.71698 15.00281,15.00281c0,8.28582 -6.71698,15.00281 -15.00281,15.00281c-8.28582,0 -15.00281,-6.71698 -15.00281,-15.00281z" fill="url(#color-22)"/><path d="M191.59384,144.37694c0,-5.07264 4.11218,-9.18482 9.18482,-9.18482c5.07264,0 9.18482,4.11218 9.18482,9.18482c0,5.07264 -4.11218,9.18482 -9.18482,9.18482c-5.07264,0 -9.18482,-4.11218 -9.18482,-9.18482z" fill="url(#color-23)"/><path d="M213.5434,132.86241c0,-5.07264 4.11218,-9.18482 9.18482,-9.18482c5.07264,0 9.18482,4.11218 9.18482,9.18482c0,5.07264 -4.11218,9.18482 -9.18482,9.18482c-5.07264,0 -9.18482,-4.11218 -9.18482,-9.18482z" fill="url(#color-24)"/><path d="M238.3716,130.70344c0,-5.07264 4.11218,-9.18482 9.18482,-9.18482c5.07264,0 9.18482,4.11218 9.18482,9.18482c0,5.07264 -4.11218,9.18482 -9.18482,9.18482c-5.07264,0 -9.18482,-4.11218 -9.18482,-9.18482z" fill="url(#color-25)"/><path d="M180.79897,171.72394c0,-5.07264 4.11218,-9.18482 9.18482,-9.18482c5.07264,0 9.18482,4.11218 9.18482,9.18482c0,5.07264 -4.11218,9.18482 -9.18482,9.18482c-5.07264,0 -9.18482,-4.11218 -9.18482,-9.18482z" fill="url(#color-26)"/><path d="M185.83659,203.74871c0,-5.07264 4.11218,-9.18482 9.18482,-9.18482c5.07264,0 9.18482,4.11218 9.18482,9.18482c0,5.07264 -4.11218,9.18482 -9.18482,9.18482c-5.07264,0 -9.18482,-4.11218 -9.18482,-9.18482z" fill="url(#color-27)"/><path d="M267.15791,140.77865c0,-5.07264 4.11218,-9.18482 9.18482,-9.18482c5.07264,0 9.18482,4.11218 9.18482,9.18482c0,5.07264 -4.11218,9.18482 -9.18482,9.18482c-5.07264,0 -9.18482,-4.11218 -9.18482,-9.18482z" fill="url(#color-28)"/><path d="M280.83141,170.64445c0,-5.07264 4.11218,-9.18482 9.18482,-9.18482c5.07264,0 9.18482,4.11218 9.18482,9.18482c0,5.07264 -4.11218,9.18482 -9.18482,9.18482c-5.07264,0 -9.18482,-4.11218 -9.18482,-9.18482z" fill="url(#color-29)"/><path d="M278.31261,201.58974c0,-5.07264 4.11218,-9.18482 9.18482,-9.18482c5.07264,0 9.18482,4.11218 9.18482,9.18482c0,5.07264 -4.11218,9.18482 -9.18482,9.18482c-5.07264,0 -9.18482,-4.11218 -9.18482,-9.18482z" fill="url(#color-30)"/><path d="M258.88184,221.0205c0,-5.07264 4.11218,-9.18482 9.18482,-9.18482c5.07264,0 9.18482,4.11218 9.18482,9.18482c0,5.07264 -4.11218,9.18482 -9.18482,9.18482c-5.07264,0 -9.18482,-4.11218 -9.18482,-9.18482z" fill="url(#color-31)"/><path d="M204.54768,221.0205c0,-5.07264 4.11218,-9.18482 9.18482,-9.18482c5.07264,0 9.18482,4.11218 9.18482,9.18482c0,5.07264 -4.11218,9.18482 -9.18482,9.18482c-5.07264,0 -9.18482,-4.11218 -9.18482,-9.18482z" fill="url(#color-32)"/><path d="M228.2964,229.29656c0,-5.07264 4.11218,-9.18482 9.18482,-9.18482c5.07264,0 9.18482,4.11218 9.18482,9.18482c0,5.07264 -4.11218,9.18482 -9.18482,9.18482c-5.07264,0 -9.18482,-4.11218 -9.18482,-9.18482z" fill="url(#color-33)"/><path d="M213.67059,160.62366c0,-2.75914 2.23673,-4.99587 4.99587,-4.99587c2.75914,0 4.99587,2.23673 4.99587,4.99587c0,2.75914 -2.23673,4.99587 -4.99587,4.99587c-2.75914,0 -4.99587,-2.23673 -4.99587,-4.99587z" fill="url(#color-34)"/><path d="M225.60955,154.3606c0,-2.75914 2.23673,-4.99587 4.99587,-4.99587c2.75914,0 4.99587,2.23673 4.99587,4.99587c0,2.75914 -2.23673,4.99587 -4.99587,4.99587c-2.75914,0 -4.99587,-2.23673 -4.99587,-4.99587z" fill="url(#color-35)"/><path d="M239.11428,153.18627c0,-2.75914 2.23673,-4.99587 4.99587,-4.99587c2.75914,0 4.99587,2.23673 4.99587,4.99587c0,2.75914 -2.23673,4.99587 -4.99587,4.99587c-2.75914,0 -4.99587,-2.23673 -4.99587,-4.99587z" fill="url(#color-36)"/><path d="M207.79897,175.49843c0,-2.75914 2.23673,-4.99587 4.99587,-4.99587c2.75914,0 4.99587,2.23673 4.99587,4.99587c0,2.75914 -2.23673,4.99587 -4.99587,4.99587c-2.75914,0 -4.99587,-2.23673 -4.99587,-4.99587z" fill="url(#color-37)"/><path d="M210.53906,192.91756c0,-2.75914 2.23673,-4.99587 4.99587,-4.99587c2.75914,0 4.99587,2.23673 4.99587,4.99587c0,2.75914 -2.23673,4.99587 -4.99587,4.99587c-2.75914,0 -4.99587,-2.23673 -4.99587,-4.99587z" fill="url(#color-38)"/><path d="M254.77192,158.66645c0,-2.75914 2.23673,-4.99587 4.99587,-4.99587c2.75914,0 4.99587,2.23673 4.99587,4.99587c0,2.75914 -2.23673,4.99587 -4.99587,4.99587c-2.75914,0 -4.99587,-2.23673 -4.99587,-4.99587z" fill="url(#color-39)"/><path d="M262.2093,174.91126c0,-2.75914 2.23673,-4.99587 4.99587,-4.99587c2.75914,0 4.99587,2.23673 4.99587,4.99587c0,2.75914 -2.23673,4.99587 -4.99587,4.99587c-2.75914,0 -4.99587,-2.23673 -4.99587,-4.99587z" fill="url(#color-40)"/><path d="M260.83925,191.74324c0,-2.75914 2.23673,-4.99587 4.99587,-4.99587c2.75914,0 4.99587,2.23673 4.99587,4.99587c0,2.75914 -2.23673,4.99587 -4.99587,4.99587c-2.75914,0 -4.99587,-2.23673 -4.99587,-4.99587z" fill="url(#color-41)"/><path d="M250.27035,202.31215c0,-2.75914 2.23673,-4.99587 4.99587,-4.99587c2.75914,0 4.99587,2.23673 4.99587,4.99587c0,2.75914 -2.23673,4.99587 -4.99587,4.99587c-2.75914,0 -4.99587,-2.23673 -4.99587,-4.99587z" fill="url(#color-42)"/><path d="M220.71654,202.31215c0,-2.75914 2.23673,-4.99587 4.99587,-4.99587c2.75914,0 4.99587,2.23673 4.99587,4.99587c0,2.75914 -2.23673,4.99587 -4.99587,4.99587c-2.75914,0 -4.99587,-2.23673 -4.99587,-4.99587z" fill="url(#color-43)"/><path d="M233.63409,206.81373c0,-2.75914 2.23673,-4.99587 4.99587,-4.99587c2.75914,0 4.99587,2.23673 4.99587,4.99587c0,2.75914 -2.23673,4.99587 -4.99587,4.99587c-2.75914,0 -4.99587,-2.23673 -4.99587,-4.99587z" fill="url(#color-44)"/><path d="M230.04626,172.67483c0,-1.04309 0.84559,-1.88867 1.88867,-1.88867c1.04309,0 1.88867,0.84559 1.88867,1.88867c0,1.04309 -0.84559,1.88867 -1.88867,1.88867c-1.04309,0 -1.88867,-0.84559 -1.88867,-1.88867z" fill="url(#color-45)"/><path d="M234.55975,170.3071c0,-1.04309 0.84559,-1.88867 1.88867,-1.88867c1.04309,0 1.88867,0.84559 1.88867,1.88867c0,1.04309 -0.84559,1.88867 -1.88867,1.88867c-1.04309,0 -1.88867,-0.84559 -1.88867,-1.88867z" fill="url(#color-46)"/><path d="M239.66516,169.86315c0,-1.04309 0.84559,-1.88867 1.88867,-1.88867c1.04309,0 1.88867,0.84559 1.88867,1.88867c0,1.04309 -0.84559,1.88867 -1.88867,1.88867c-1.04309,0 -1.88867,-0.84559 -1.88867,-1.88867z" fill="url(#color-47)"/><path d="M227.8265,178.29819c0,-1.04309 0.84559,-1.88867 1.88867,-1.88867c1.04309,0 1.88867,0.84559 1.88867,1.88867c0,1.04309 -0.84559,1.88867 -1.88867,1.88867c-1.04309,0 -1.88867,-0.84559 -1.88867,-1.88867z" fill="url(#color-48)"/><path d="M228.86239,184.88345c0,-1.04309 0.84559,-1.88867 1.88867,-1.88867c1.04309,0 1.88867,0.84559 1.88867,1.88867c0,1.04309 -0.84559,1.88867 -1.88867,1.88867c-1.04309,0 -1.88867,-0.84559 -1.88867,-1.88867z" fill="url(#color-49)"/><path d="M245.58449,171.93491c0,-1.04309 0.84559,-1.88867 1.88867,-1.88867c1.04309,0 1.88867,0.84559 1.88867,1.88867c0,1.04309 -0.84559,1.88867 -1.88867,1.88867c-1.04309,0 -1.88867,-0.84559 -1.88867,-1.88867z" fill="url(#color-50)"/><path d="M248.39618,178.07622c0,-1.04309 0.84559,-1.88867 1.88867,-1.88867c1.04309,0 1.88867,0.84559 1.88867,1.88867c0,1.04309 -0.84559,1.88867 -1.88867,1.88867c-1.04309,0 -1.88867,-0.84559 -1.88867,-1.88867z" fill="url(#color-51)"/><path d="M247.87824,184.4395c0,-1.04309 0.84559,-1.88867 1.88867,-1.88867c1.04309,0 1.88867,0.84559 1.88867,1.88867c0,1.04309 -0.84559,1.88867 -1.88867,1.88867c-1.04309,0 -1.88867,-0.84559 -1.88867,-1.88867z" fill="url(#color-52)"/><path d="M243.88268,188.43504c0,-1.04309 0.84559,-1.88867 1.88867,-1.88867c1.04309,0 1.88867,0.84559 1.88867,1.88867c0,1.04309 -0.84559,1.88867 -1.88867,1.88867c-1.04309,0 -1.88867,-0.84559 -1.88867,-1.88867z" fill="url(#color-53)"/><path d="M232.70995,188.43504c0,-1.04309 0.84559,-1.88867 1.88867,-1.88867c1.04309,0 1.88867,0.84559 1.88867,1.88867c0,1.04309 -0.84559,1.88867 -1.88867,1.88867c-1.04309,0 -1.88867,-0.84559 -1.88867,-1.88867z" fill="url(#color-54)"/><path d="M237.59339,190.13685c0,-1.04309 0.84559,-1.88867 1.88867,-1.88867c1.04309,0 1.88867,0.84559 1.88867,1.88867c0,1.04309 -0.84559,1.88867 -1.88867,1.88867c-1.04309,0 -1.88867,-0.84559 -1.88867,-1.88867z" fill="url(#color-55)"/><path d="M56.5,180c0,-101.34425 82.15575,-183.5 183.5,-183.5c101.34425,0 183.5,82.15575 183.5,183.5c0,101.34425 -82.15575,183.5 -183.5,183.5c-101.34425,0 -183.5,-82.15575 -183.5,-183.5z" fill="url(#color-56)"/></g></g></svg>