<svg xmlns="http://www.w3.org/2000/svg" viewBox="0 0 38.601 72.401" height="72.401" width="38.601"><g style="stroke:#000;stroke-width:1mm;fill:#000" fill="#000" stroke-width="1mm" stroke="#000" font-size="9pt" fill-rule="evenodd" stroke-linecap="round" id="svgGroup"><path d="M 13.881 71.722 A 21.65 21.65 0 0 0 19.401 72.4 Q 25.101 72.4 29.401 69.85 Q 33.701 67.3 36.151 62.8 A 19.387 19.387 0 0 0 37.909 58.296 A 23.41 23.41 0 0 0 38.601 52.5 A 24.063 24.063 0 0 0 38.273 48.454 A 17.805 17.805 0 0 0 35.251 41 Q 31.901 36.3 26.501 34.1 Q 31.201 31.9 33.951 27.7 A 16.332 16.332 0 0 0 35.854 23.702 A 18.649 18.649 0 0 0 36.701 18 A 22.993 22.993 0 0 0 36.486 14.81 A 18.024 18.024 0 0 0 34.501 8.65 Q 32.301 4.6 28.401 2.3 A 15.999 15.999 0 0 0 24.446 0.64 A 19.188 19.188 0 0 0 19.401 0 A 21.077 21.077 0 0 0 17.224 0.111 A 16.971 16.971 0 0 0 10.351 2.3 Q 6.401 4.6 4.201 8.65 Q 2.001 12.7 2.001 18 A 20.86 20.86 0 0 0 2.068 19.687 A 16.869 16.869 0 0 0 4.751 27.7 Q 7.501 31.9 12.101 34.1 Q 6.701 36.3 3.351 41 A 17.399 17.399 0 0 0 0.639 46.964 A 22.905 22.905 0 0 0 0.001 52.5 A 24.843 24.843 0 0 0 0.157 55.319 A 19.882 19.882 0 0 0 2.501 62.8 Q 5.001 67.3 9.351 69.85 A 17.915 17.915 0 0 0 13.881 71.722 Z M 19.401 69 A 17.027 17.027 0 0 0 25.387 67.98 A 15.277 15.277 0 0 0 30.651 64.65 A 14.235 14.235 0 0 0 34.663 57.455 A 21.516 21.516 0 0 0 35.201 52.5 A 21.986 21.986 0 0 0 34.666 47.502 Q 33.801 43.796 31.537 41.181 A 13.649 13.649 0 0 0 30.651 40.25 A 15.531 15.531 0 0 0 20.024 35.91 A 20.185 20.185 0 0 0 19.401 35.9 Q 12.701 35.9 8.101 40.25 A 14.194 14.194 0 0 0 4.057 47.437 Q 3.509 49.718 3.501 52.415 A 27.063 27.063 0 0 0 3.501 52.5 A 21.292 21.292 0 0 0 4.044 57.455 A 14.195 14.195 0 0 0 8.101 64.65 Q 12.701 69 19.401 69 Z M 19.401 32.5 A 15.592 15.592 0 0 0 24.001 31.853 A 12.331 12.331 0 0 0 29.401 28.5 A 13.573 13.573 0 0 0 32.925 21.323 A 19.177 19.177 0 0 0 33.201 18 A 18.561 18.561 0 0 0 32.669 13.434 A 13.103 13.103 0 0 0 29.401 7.45 Q 25.601 3.5 19.401 3.5 A 16.733 16.733 0 0 0 14.994 4.05 A 12.166 12.166 0 0 0 9.251 7.45 A 13.308 13.308 0 0 0 5.885 14.044 A 19.337 19.337 0 0 0 5.501 18 A 18.317 18.317 0 0 0 6.061 22.654 A 13.343 13.343 0 0 0 9.251 28.5 A 12.416 12.416 0 0 0 16.541 32.28 A 17.813 17.813 0 0 0 19.401 32.5 Z"></path></g></svg>