<svg xmlns="http://www.w3.org/2000/svg" viewBox="0 0 25.901 49" height="49" width="25.901"><g style="stroke:#000;stroke-width:1mm;fill:#000" fill="#000" stroke-width="1mm" stroke="#000" font-size="9pt" fill-rule="evenodd" stroke-linecap="round" id="svgGroup"><path d="M 0 47 L 0 3.2 Q 0 1.2 1.8 1.2 Q 3.567 1.2 3.6 3.128 A 4.323 4.323 0 0 1 3.6 3.2 L 3.6 10.2 A 16.888 16.888 0 0 1 8.535 4.14 A 21.183 21.183 0 0 1 10.3 2.9 A 18.933 18.933 0 0 1 19.98 0.011 A 22.763 22.763 0 0 1 20.7 0 Q 22.761 0 24.04 0.17 A 10.132 10.132 0 0 1 24.55 0.25 A 2.025 2.025 0 0 1 25.164 0.46 Q 25.9 0.866 25.9 1.9 A 2.189 2.189 0 0 1 25.778 2.665 Q 25.393 3.7 23.8 3.7 Q 23.1 3.7 22.3 3.6 Q 21.5 3.5 20.7 3.5 Q 15.9 3.5 12.05 5.7 Q 8.2 7.9 5.9 11.45 Q 3.6 15 3.6 19.1 L 3.6 47 Q 3.6 49 1.8 49 Q 0.033 49 0.001 47.072 A 4.323 4.323 0 0 1 0 47 Z"></path></g></svg>