<svg xmlns="http://www.w3.org/2000/svg" viewBox="0 0 64.301 49.001" height="49.001" width="64.301"><g style="stroke:#000;stroke-width:1mm;fill:#000" fill="#000" stroke-width="1mm" stroke="#000" font-size="9pt" fill-rule="evenodd" stroke-linecap="round" id="svgGroup"><path d="M 0 47.001 L 0 3.201 Q 0 1.201 1.8 1.201 Q 3.398 1.201 3.494 2.968 A 4.3 4.3 0 0 1 3.5 3.201 L 3.5 9.601 Q 5.2 5.501 9.15 2.751 Q 13.1 0.001 18 0.001 A 22.313 22.313 0 0 1 22.212 0.375 Q 25.684 1.043 28.15 2.901 Q 32 5.801 33 11.001 Q 34.7 6.301 38.4 3.151 Q 41.797 0.259 47.384 0.022 A 23.958 23.958 0 0 1 48.4 0.001 Q 56.1 0.001 60.2 4.501 Q 64.3 9.001 64.3 18.501 L 64.3 47.001 Q 64.3 48.754 62.994 48.97 A 2.411 2.411 0 0 1 62.6 49.001 Q 60.833 49.001 60.801 47.073 A 4.323 4.323 0 0 1 60.8 47.001 L 60.8 18.501 Q 60.8 9.801 57.4 6.651 A 11.539 11.539 0 0 0 51.762 3.824 A 16.641 16.641 0 0 0 48.4 3.501 A 14.256 14.256 0 0 0 43.777 4.231 A 12.756 12.756 0 0 0 40.8 5.701 Q 37.5 7.901 35.7 11.301 Q 33.9 14.701 33.9 18.401 L 33.9 47.001 Q 33.9 48.754 32.594 48.97 A 2.411 2.411 0 0 1 32.2 49.001 Q 30.433 49.001 30.401 47.073 A 4.323 4.323 0 0 1 30.4 47.001 L 30.4 18.501 Q 30.4 9.801 27 6.651 A 11.539 11.539 0 0 0 21.362 3.824 A 16.641 16.641 0 0 0 18 3.501 A 13.623 13.623 0 0 0 13.189 4.333 A 12.553 12.553 0 0 0 10.4 5.801 A 16.402 16.402 0 0 0 6.028 10.231 A 15.712 15.712 0 0 0 5.3 11.451 A 15.374 15.374 0 0 0 3.851 15.209 A 13.026 13.026 0 0 0 3.5 18.201 L 3.5 47.001 Q 3.5 48.754 2.194 48.97 A 2.411 2.411 0 0 1 1.8 49.001 Q 0.033 49.001 0.001 47.073 A 4.323 4.323 0 0 1 0 47.001 Z"></path></g></svg>