<svg xmlns="http://www.w3.org/2000/svg" viewBox="0 0 41.701 50.001" height="50.001" width="41.701"><g style="stroke:#000;stroke-width:1mm;fill:#000" fill="#000" stroke-width="1mm" stroke="#000" font-size="9pt" fill-rule="evenodd" stroke-linecap="round" id="svgGroup"><path d="M 39.7 23.201 L 3.5 23.201 Q 3.307 27.452 4.11 31.163 A 25.022 25.022 0 0 0 5.3 35.101 A 19.717 19.717 0 0 0 8.552 40.619 A 17.702 17.702 0 0 0 11.65 43.501 A 16.135 16.135 0 0 0 19.926 46.525 A 20.435 20.435 0 0 0 21.7 46.601 A 18.015 18.015 0 0 0 29.285 45.063 Q 34.743 42.563 37.9 36.001 Q 38.793 34.215 40.374 34.889 A 2.998 2.998 0 0 1 40.4 34.901 Q 42 35.701 41.1 37.601 A 24.385 24.385 0 0 1 36.366 44.403 Q 31.345 49.366 23.697 49.929 A 27.233 27.233 0 0 1 21.7 50.001 A 21.116 21.116 0 0 1 14.627 48.843 A 19.208 19.208 0 0 1 10.5 46.801 Q 5.6 43.601 2.8 37.951 A 26.754 26.754 0 0 1 0.302 29.614 A 34.232 34.232 0 0 1 0 25.001 Q 0 17.701 2.8 12.051 Q 5.6 6.401 10.5 3.201 A 19.754 19.754 0 0 1 20.532 0.029 A 24.063 24.063 0 0 1 21.7 0.001 A 20.421 20.421 0 0 1 27.211 0.715 A 16.566 16.566 0 0 1 32.5 3.251 Q 37 6.501 39.35 11.401 A 23.385 23.385 0 0 1 41.58 19.1 A 21.948 21.948 0 0 1 41.7 21.401 Q 41.7 23.168 39.773 23.2 A 4.323 4.323 0 0 1 39.7 23.201 Z M 3.9 19.701 L 38.2 19.701 Q 37.8 15.401 35.6 11.751 Q 33.4 8.101 29.85 5.801 A 14.372 14.372 0 0 0 22.834 3.537 A 17.654 17.654 0 0 0 21.7 3.501 Q 14.9 3.501 10.1 7.901 A 19.416 19.416 0 0 0 4.893 15.955 A 25.882 25.882 0 0 0 3.9 19.701 Z"></path></g></svg>