<svg xmlns="http://www.w3.org/2000/svg" viewBox="0 0 52.304 77.211" height="77.211" width="52.304"><g style="stroke:#000;stroke-width:0.25mm;fill:#000" fill="#000" stroke-width="0.25mm" stroke="#000" font-size="9pt" fill-rule="evenodd" stroke-linecap="round" id="svgGroup"><path d="M 45.102 15.801 L 47.902 12.601 A 8.194 8.194 0 0 0 48.775 11.424 C 50.038 9.327 49.693 7.286 47.502 5.601 A 29.953 29.953 0 0 0 40.093 1.744 C 37.015 0.658 33.528 0.001 29.602 0.001 C 14.626 0.001 0.784 11.633 0.034 37.013 A 74.02 74.02 0 0 0 0.002 39.201 A 63.44 63.44 0 0 0 1.26 52.271 C 3.592 63.337 8.946 70.344 15.456 74.021 A 24.972 24.972 0 0 0 27.802 77.201 A 23.579 23.579 0 0 0 51.181 60.103 A 29.265 29.265 0 0 0 52.302 51.901 A 31.998 31.998 0 0 0 51.192 43.177 C 48.359 33.173 40.383 28.601 30.502 28.601 C 26.747 28.601 21.312 30.679 17.559 34.479 A 16.905 16.905 0 0 0 16.302 35.901 A 52.349 52.349 0 0 1 17.011 29.071 C 17.938 23.828 19.648 20.197 21.892 17.837 A 11.79 11.79 0 0 1 30.802 14.201 C 33.302 14.201 35.902 15.101 38.102 16.401 A 11.342 11.342 0 0 0 39.33 17.055 C 41.418 17.993 43.124 17.78 44.809 16.106 A 8.687 8.687 0 0 0 45.102 15.801 Z M 34.607 45.029 A 8.059 8.059 0 0 0 27.102 41.101 A 10.918 10.918 0 0 0 24.596 41.393 C 22.564 41.872 20.532 42.962 18.778 44.816 A 15.069 15.069 0 0 0 16.602 47.801 A 53.276 53.276 0 0 0 16.801 49.275 C 17.76 55.698 19.618 59.56 21.876 61.688 A 7.822 7.822 0 0 0 27.402 63.901 A 8.029 8.029 0 0 0 31.25 62.972 C 34.093 61.437 36.102 57.924 36.102 51.901 C 36.102 48.927 35.549 46.68 34.607 45.029 Z"></path></g></svg>