<svg xmlns="http://www.w3.org/2000/svg" viewBox="0 0 40.601 71.101" height="71.101" width="40.601"><g style="stroke:#000;stroke-width:1mm;fill:#000" fill="#000" stroke-width="1mm" stroke="#000" font-size="9pt" fill-rule="evenodd" stroke-linecap="round" id="svgGroup"><path d="M 37.1 49.1 L 37.1 2 Q 37.1 0 38.9 0 Q 40.498 0 40.594 1.768 A 4.3 4.3 0 0 1 40.6 2 L 40.6 49.1 A 35.26 35.26 0 0 1 40.067 55.43 Q 38.976 61.403 35.65 65.3 Q 31.315 70.38 22.798 71.011 A 33.842 33.842 0 0 1 20.3 71.1 A 29.676 29.676 0 0 1 14.629 70.594 Q 8.863 69.47 5.45 65.85 A 18.609 18.609 0 0 1 1.368 58.841 Q 0.227 55.407 0 51.1 Q 0 49.347 1.306 49.131 A 2.411 2.411 0 0 1 1.7 49.1 A 1.838 1.838 0 0 1 2.506 49.266 Q 3.259 49.629 3.458 50.783 A 4.525 4.525 0 0 1 3.5 51.1 Q 4.2 67.7 20.3 67.7 A 21.641 21.641 0 0 0 27.252 66.679 Q 37.1 63.341 37.1 49.1 Z"></path></g></svg>