<svg xmlns="http://www.w3.org/2000/svg" viewBox="0 0 63.001 72.402" height="72.402" width="63.001"><g style="stroke:#000;stroke-width:1mm;fill:#000" fill="#000" stroke-width="1mm" stroke="#000" font-size="9pt" fill-rule="evenodd" stroke-linecap="round" id="svgGroup"><path d="M 22.29 71.168 A 33.212 33.212 0 0 0 31.501 72.401 A 36.381 36.381 0 0 0 35.503 72.186 A 28.957 28.957 0 0 0 48.001 67.901 A 28.831 28.831 0 0 0 52.929 63.967 A 31.659 31.659 0 0 0 59.051 55.251 A 38.026 38.026 0 0 0 62.134 45.811 A 50.8 50.8 0 0 0 63.001 36.201 A 51.671 51.671 0 0 0 62.336 27.731 A 38.152 38.152 0 0 0 59.051 17.201 A 36.323 36.323 0 0 0 58.528 16.172 A 30.281 30.281 0 0 0 48.001 4.551 Q 40.901 0.001 31.501 0.001 A 36.172 36.172 0 0 0 27.777 0.189 A 28.816 28.816 0 0 0 15.001 4.551 A 29.469 29.469 0 0 0 10.492 8.099 A 31.743 31.743 0 0 0 3.951 17.201 A 37.672 37.672 0 0 0 0.84 26.747 A 50.759 50.759 0 0 0 0.001 36.201 A 51.895 51.895 0 0 0 0.653 44.603 A 38.601 38.601 0 0 0 3.951 55.251 A 36.005 36.005 0 0 0 4.719 56.747 A 29.734 29.734 0 0 0 15.001 67.901 A 27.977 27.977 0 0 0 22.29 71.168 Z M 31.501 69.001 A 28.717 28.717 0 0 0 40.502 67.626 A 25.646 25.646 0 0 0 45.951 65.101 A 25.803 25.803 0 0 0 54.709 56.064 A 31.896 31.896 0 0 0 55.901 53.851 A 33.871 33.871 0 0 0 58.71 45.209 Q 59.426 41.421 59.494 37.1 A 57.838 57.838 0 0 0 59.501 36.201 Q 59.501 25.901 55.901 18.601 A 28.391 28.391 0 0 0 50.86 11.338 A 25.076 25.076 0 0 0 45.951 7.401 A 26.538 26.538 0 0 0 33.498 3.562 A 32.353 32.353 0 0 0 31.501 3.501 A 28.717 28.717 0 0 0 22.499 4.876 A 25.646 25.646 0 0 0 17.051 7.401 A 26.199 26.199 0 0 0 8.257 16.403 A 32.182 32.182 0 0 0 7.051 18.601 A 33.139 33.139 0 0 0 4.203 27.204 Q 3.476 30.982 3.408 35.301 A 57.028 57.028 0 0 0 3.401 36.201 Q 3.401 46.501 7.051 53.851 Q 10.701 61.201 17.051 65.101 A 26.538 26.538 0 0 0 29.503 68.94 A 32.353 32.353 0 0 0 31.501 69.001 Z"></path></g></svg>