<svg xmlns="http://www.w3.org/2000/svg" viewBox="0 0 40.35 47.8" height="47.8" width="40.35"><g style="stroke:#000;stroke-width:1mm;fill:#000" fill="#000" stroke-width="1mm" stroke="#000" font-size="9pt" fill-rule="evenodd" stroke-linecap="round" id="svgGroup"><path d="M 1.576 47.8 L 0.976 47.8 A 1.362 1.362 0 0 1 0.62 47.757 Q 0.207 47.645 0.065 47.24 A 1.165 1.165 0 0 1 0.026 47.1 Q -0.119 46.423 0.531 45.466 A 5.513 5.513 0 0 1 0.576 45.4 L 17.876 21.9 L 3.476 2.4 A 5.76 5.76 0 0 1 3.211 1.94 Q 2.809 1.158 2.926 0.65 Q 3.076 0 3.876 0 L 4.476 0 A 3.371 3.371 0 0 1 5.482 0.142 A 2.549 2.549 0 0 1 6.876 1.2 L 20.076 18.9 L 33.276 1.2 A 2.585 2.585 0 0 1 35.15 0.036 A 3.769 3.769 0 0 1 35.676 0 Q 36.274 0 36.65 0.192 A 1.085 1.085 0 0 1 37.126 0.65 Q 37.452 1.256 36.781 2.251 A 5.136 5.136 0 0 1 36.676 2.4 L 22.276 21.9 L 39.676 45.4 A 4.74 4.74 0 0 1 39.987 45.833 Q 40.443 46.557 40.326 47.1 Q 40.211 47.637 39.714 47.762 A 1.386 1.386 0 0 1 39.376 47.8 L 38.676 47.8 A 3.371 3.371 0 0 1 37.671 47.658 A 2.549 2.549 0 0 1 36.276 46.6 L 20.076 24.9 L 3.976 46.6 A 2.585 2.585 0 0 1 2.103 47.765 A 3.769 3.769 0 0 1 1.576 47.8 Z"></path></g></svg>