<svg xmlns="http://www.w3.org/2000/svg" viewBox="0 0 52.304 77.213" height="77.213" width="52.304"><g style="stroke:#000;stroke-width:0.25mm;fill:#000" fill="#000" stroke-width="0.25mm" stroke="#000" font-size="9pt" fill-rule="evenodd" stroke-linecap="round" id="svgGroup"><path d="M 7.202 61.212 L 4.302 64.512 C 2.202 66.912 2.202 69.612 4.802 71.512 A 28.815 28.815 0 0 0 12.129 75.405 C 15.279 76.535 18.865 77.212 22.902 77.212 A 26.273 26.273 0 0 0 43.808 66.968 C 48.971 60.467 52.302 50.791 52.302 37.712 C 52.302 10.712 38.602 0.012 24.502 0.012 A 23.53 23.53 0 0 0 1.169 16.864 A 29.096 29.096 0 0 0 0.002 25.212 A 31.864 31.864 0 0 0 1.181 34.183 C 3.894 43.439 11.049 48.068 20.131 48.567 A 30.479 30.479 0 0 0 21.802 48.612 C 25.797 48.612 31.431 46.282 35.178 42.264 A 17.261 17.261 0 0 0 36.002 41.312 A 52.448 52.448 0 0 1 35.3 48.096 C 33.388 58.968 28.115 62.812 21.702 62.812 C 19.102 62.812 16.402 61.912 14.102 60.612 C 11.402 59.012 9.302 58.912 7.202 61.212 Z M 16.555 21.158 A 21.565 21.565 0 0 0 16.202 25.212 A 18.794 18.794 0 0 0 16.499 28.682 C 16.749 30.008 17.148 31.131 17.672 32.071 A 8.046 8.046 0 0 0 25.202 36.112 A 10.403 10.403 0 0 0 27.575 35.837 C 29.675 35.345 31.776 34.172 33.551 32.147 A 15.259 15.259 0 0 0 35.602 29.112 A 49.668 49.668 0 0 0 35.364 27.308 C 33.776 16.802 29.542 13.515 25.308 13.322 A 8.89 8.89 0 0 0 24.902 13.312 A 8.175 8.175 0 0 0 20.83 14.324 C 18.8 15.475 17.226 17.662 16.555 21.158 Z"></path></g></svg>