<svg xmlns="http://www.w3.org/2000/svg" viewBox="0 0 59.2 70" height="70" width="59.2"><g style="stroke:#000;stroke-width:1mm;fill:#000" fill="#000" stroke-width="1mm" stroke="#000" font-size="9pt" fill-rule="evenodd" stroke-linecap="round" id="svgGroup"><path d="M 1.796 70 L 1.296 70 Q -0.499 70 0.192 68.111 A 4.889 4.889 0 0 1 0.196 68.1 L 27.596 1.2 A 2.16 2.16 0 0 1 27.998 0.555 Q 28.424 0.095 29.103 0.017 A 2.537 2.537 0 0 1 29.396 0 L 29.796 0 A 2.471 2.471 0 0 1 30.485 0.089 Q 31.305 0.327 31.596 1.2 L 58.996 68.1 Q 59.696 70 57.996 70 L 57.396 70 A 2.471 2.471 0 0 1 56.707 69.911 Q 55.887 69.673 55.596 68.8 L 46.396 46 L 12.896 46 L 3.596 68.8 A 1.822 1.822 0 0 1 3.214 69.471 Q 2.726 70 1.796 70 Z M 29.696 4.7 L 14.196 42.6 L 44.996 42.6 L 29.696 4.7 Z"></path></g></svg>