<svg version="1.1" xmlns="http://www.w3.org/2000/svg" xmlns:xlink="http://www.w3.org/1999/xlink" width="502" height="371" viewBox="0,0,502,371"><g transform="translate(11,5.5)"><g data-paper-data="{&quot;isPaintingLayer&quot;:true}" stroke-linejoin="miter" stroke-miterlimit="10" stroke-dasharray="" stroke-dashoffset="0" style="mix-blend-mode: normal"><path d="M-11,365.5v-371h502v371z" fill="#f2ffba" fill-rule="nonzero" stroke="none" stroke-width="0" stroke-linecap="butt"/><path d="M467,21.40474v113.2591c0,9.36218 -9.15925,16.89832 -20.53791,16.89832h-416.92418c-11.37858,0 -20.53791,-7.53617 -20.53791,-16.89832v-113.2591c0,-9.36216 9.15925,-16.89828 20.53791,-16.89828h416.92418c11.37858,0 20.53791,7.53614 20.53791,16.89828z" fill="#e2ff62" fill-rule="nonzero" stroke="none" stroke-width="1" stroke-linecap="butt"/><path d="M140.50877,48.34078v79.3184c0,6.55659 -2.34016,11.83435 -5.24737,11.83435h-106.5228c-2.90719,0 -5.24737,-5.27778 -5.24737,-11.83435v-79.3184c0,-6.55657 2.34016,-11.83432 5.24737,-11.83432h106.5228c2.90719,0 5.24737,5.27776 5.24737,11.83432z" fill="#a3caff" fill-rule="nonzero" stroke="none" stroke-width="1" stroke-linecap="butt"/><path d="M64.55487,73.16524c-0.12445,-0.06916 -0.24358,-0.14751 -0.35638,-0.23438c-3.10365,-2.46151 -5.56516,-4.99438 -8.09802,-8.38342c-2.46151,3.0323 -6.77808,6.74241 -10.84493,9.06122c-1.17725,0.71348 -2.10477,0.10702 -2.10477,-1.28427v-2.85393c-0.00006,-0.08548 0.00327,-0.17093 0.00999,-0.25614c0.04281,-0.54046 0.22653,-0.97355 0.5583,-1.34491c0.19017,-0.20741 0.40693,-0.38878 0.64463,-0.53939c0.62603,-0.39071 1.2414,-0.79825 1.84542,-1.2222c5.09039,-3.47358 8.99141,-8.42647 11.17563,-14.18902h-11.13032c-0.86046,0 -1.43731,-0.36495 -1.66919,-1.03384c-0.07964,-0.24184 -0.11834,-0.49528 -0.11451,-0.74987v-2.17612c0,-0.86082 0.36495,-1.43767 1.03384,-1.66919c0.24184,-0.07964 0.49528,-0.11834 0.74987,-0.11451h16.73116c0.0358,-0.00004 0.0716,0.00055 0.10738,0.00178c1.07664,0.03853 1.66741,0.66033 1.52293,1.66669c-0.01452,0.09896 -0.03477,0.19699 -0.06065,0.2936c-0.50437,2.13409 -1.20416,4.21722 -2.0905,6.22299c-0.90349,2.03942 -1.97004,4.00263 -3.18927,5.87053c1.15982,1.64205 2.4819,3.16324 3.94627,4.5406c0.74559,0.71848 1.49082,1.38665 2.18968,1.98776c0.48089,0.40847 0.76735,0.83335 0.90291,1.35098c0.0673,0.26978 0.09955,0.54711 0.09596,0.82514v2.8896c0,1.34848 -0.80909,1.91677 -1.85541,1.34028zM69.98519,71.86135c-0.07964,-0.24184 -0.11834,-0.49528 -0.11451,-0.74987v-2.03342c0,-0.86082 0.36495,-1.43767 1.03384,-1.66919c0.24184,-0.07964 0.49528,-0.11834 0.74987,-0.11451h14.34099v-14.91178h-14.34099c-0.86046,0 -1.43731,-0.36495 -1.66919,-1.03384c-0.07964,-0.24184 -0.11834,-0.49528 -0.11451,-0.74987v-2.03342c0,-0.86082 0.36495,-1.43767 1.03384,-1.66919c0.24184,-0.07964 0.49528,-0.11834 0.74987,-0.11451h18.37217c0.86082,0 1.43767,0.36495 1.66919,1.03384c0.07964,0.24184 0.11834,0.49528 0.11451,0.74987v22.54604c0,0.86046 -0.36495,1.43731 -1.03384,1.66919c-0.24184,0.07964 -0.49528,0.11834 -0.74987,0.11451h-18.37217c-0.86046,0 -1.43731,-0.36495 -1.66919,-1.03384zM110.51276,59.41108c0.05387,-0.71455 0.34782,-1.23539 0.88186,-1.75909c0.05849,-0.05728 0.11819,-0.1133 0.17908,-0.16803c0.04701,-0.03901 0.09363,-0.07849 0.13984,-0.11844c1.01243,-0.87437 1.9792,-2.09978 2.66165,-3.81963c0.28835,-0.73474 0.50891,-1.49432 0.6589,-2.26923h-16.51711c-0.86046,0 -1.43731,-0.36495 -1.66919,-1.03384c-0.07964,-0.24184 -0.11834,-0.49528 -0.11451,-0.74987v-1.89073c0,-0.86082 0.36495,-1.43767 1.03384,-1.66919c0.24184,-0.07964 0.49528,-0.11834 0.74987,-0.11451h20.54829c0.86082,0 1.43767,0.36495 1.66919,1.03384c0.07964,0.24184 0.11834,0.49528 0.11451,0.74987v2.60421c0.00025,0.1282 -0.00094,0.2564 -0.00357,0.38457c-0.01356,0.60004 -0.06849,1.09876 -0.24615,1.72021c-1.17725,4.17387 -3.81713,7.95533 -7.91965,10.77358c-0.10267,0.07295 -0.21031,0.13863 -0.32214,0.19656c-0.87009,0.44735 -1.56431,0.10667 -1.78228,-0.75237c-0.04949,-0.20339 -0.07358,-0.41213 -0.0717,-0.62144v-2.24747c-0.00004,-0.08309 0.00305,-0.16615 0.00928,-0.24901zM98.80238,74.32215c-1.00244,0.40098 -1.72912,0.04281 -1.97635,-0.77877c-0.06402,-0.22223 -0.09527,-0.45262 -0.09275,-0.68387v-2.49719c-0.00007,-0.06998 0.00231,-0.13995 0.00713,-0.20976c0.06207,-0.88044 0.52334,-1.46478 1.38416,-1.89501c4.38792,-2.24747 5.70786,-6.0646 5.70786,-9.95308v-1.78371c0,-0.86082 0.36495,-1.43767 1.03384,-1.66919c0.24184,-0.07964 0.49528,-0.11834 0.74987,-0.11451h1.81938c0.8651,0 1.42304,0.36851 1.64244,1.04418c0.07369,0.23946 0.10932,0.48901 0.1056,0.73952v1.71236c-0.07135,7.45589 -3.31769,13.27077 -10.38117,16.08902z" fill="#000000" fill-rule="evenodd" stroke="#000000" stroke-width="0.25" stroke-linecap="round"/><path d="M467,220.40474v113.25911c0,9.36218 -9.15926,16.89832 -20.53791,16.89832h-416.92418c-11.37857,0 -20.53791,-7.53617 -20.53791,-16.89832v-113.25911c0,-9.36216 9.15926,-16.89827 20.53791,-16.89827h416.92418c11.37858,0 20.53791,7.53614 20.53791,16.89829z" fill="#61ff90" fill-rule="nonzero" stroke="none" stroke-width="1" stroke-linecap="butt"/><path d="M140.50877,250.34078v79.3184c0,6.55659 -2.34016,11.83435 -5.24737,11.83435h-106.5228c-2.90719,0 -5.24737,-5.27778 -5.24737,-11.83435v-79.3184c0,-6.55657 2.34016,-11.83432 5.24737,-11.83432h106.5228c2.90719,0 5.24737,5.27776 5.24737,11.83432z" fill="#a3caff" fill-rule="nonzero" stroke="none" stroke-width="1" stroke-linecap="butt"/><path d="M64.55487,276.16524c-0.12445,-0.06916 -0.24358,-0.14751 -0.35638,-0.23438c-3.10365,-2.46151 -5.56516,-4.99438 -8.09802,-8.38342c-2.46151,3.0323 -6.77808,6.74241 -10.84493,9.06122c-1.17725,0.71348 -2.10477,0.10702 -2.10477,-1.28427v-2.85393c-0.00006,-0.08548 0.00327,-0.17093 0.00999,-0.25614c0.04281,-0.54046 0.22653,-0.97355 0.5583,-1.34491c0.19017,-0.20741 0.40693,-0.38878 0.64463,-0.53939c0.62603,-0.39071 1.2414,-0.79825 1.84542,-1.2222c5.09039,-3.47358 8.99141,-8.42647 11.17563,-14.18902h-11.13032c-0.86046,0 -1.43731,-0.36495 -1.66919,-1.03384c-0.07964,-0.24184 -0.11834,-0.49528 -0.11451,-0.74987v-2.17612c0,-0.86082 0.36495,-1.43767 1.03384,-1.66919c0.24184,-0.07964 0.49528,-0.11834 0.74987,-0.11451h16.73116c0.0358,-0.00004 0.0716,0.00055 0.10738,0.00178c1.07664,0.03853 1.66741,0.66033 1.52293,1.66669c-0.01452,0.09896 -0.03477,0.19699 -0.06065,0.2936c-0.50437,2.13409 -1.20416,4.21722 -2.0905,6.22299c-0.90349,2.03942 -1.97004,4.00263 -3.18927,5.87053c1.15982,1.64205 2.4819,3.16324 3.94627,4.5406c0.74559,0.71848 1.49082,1.38665 2.18968,1.98776c0.48089,0.40847 0.76735,0.83335 0.90291,1.35098c0.0673,0.26978 0.09955,0.54711 0.09596,0.82514v2.8896c0,1.34848 -0.80909,1.91677 -1.85541,1.34028zM69.98519,274.86135c-0.07964,-0.24184 -0.11834,-0.49528 -0.11451,-0.74987v-2.03342c0,-0.86082 0.36495,-1.43767 1.03384,-1.66919c0.24184,-0.07964 0.49528,-0.11834 0.74987,-0.11451h14.34099v-14.91178h-14.34099c-0.86046,0 -1.43731,-0.36495 -1.66919,-1.03384c-0.07964,-0.24184 -0.11834,-0.49528 -0.11451,-0.74987v-2.03342c0,-0.86082 0.36495,-1.43767 1.03384,-1.66919c0.24184,-0.07964 0.49528,-0.11834 0.74987,-0.11451h18.37217c0.86082,0 1.43767,0.36495 1.66919,1.03384c0.07964,0.24184 0.11834,0.49528 0.11451,0.74987v22.54604c0,0.86046 -0.36495,1.43731 -1.03384,1.66919c-0.24184,0.07964 -0.49528,0.11834 -0.74987,0.11451h-18.37217c-0.86046,0 -1.43731,-0.36495 -1.66919,-1.03384zM110.51276,262.41108c0.05387,-0.71455 0.34782,-1.23539 0.88186,-1.75909c0.05849,-0.05728 0.11819,-0.1133 0.17908,-0.16803c0.04701,-0.03901 0.09363,-0.07849 0.13984,-0.11844c1.01243,-0.87437 1.9792,-2.09978 2.66165,-3.81963c0.28835,-0.73474 0.50891,-1.49432 0.6589,-2.26923h-16.51711c-0.86046,0 -1.43731,-0.36495 -1.66919,-1.03384c-0.07964,-0.24184 -0.11834,-0.49528 -0.11451,-0.74987v-1.89073c0,-0.86082 0.36495,-1.43767 1.03384,-1.66919c0.24184,-0.07964 0.49528,-0.11834 0.74987,-0.11451h20.54829c0.86082,0 1.43767,0.36495 1.66919,1.03384c0.07964,0.24184 0.11834,0.49528 0.11451,0.74987v2.60421c0.00025,0.1282 -0.00094,0.2564 -0.00357,0.38457c-0.01356,0.60004 -0.06849,1.09876 -0.24615,1.72021c-1.17725,4.17387 -3.81713,7.95533 -7.91965,10.77358c-0.10267,0.07295 -0.21031,0.13863 -0.32214,0.19656c-0.87009,0.44735 -1.56431,0.10667 -1.78228,-0.75237c-0.04949,-0.20339 -0.07358,-0.41213 -0.0717,-0.62144v-2.24747c-0.00004,-0.08309 0.00305,-0.16615 0.00928,-0.24901zM98.80238,277.32215c-1.00244,0.40098 -1.72912,0.04281 -1.97635,-0.77877c-0.06402,-0.22223 -0.09527,-0.45262 -0.09275,-0.68387v-2.49719c-0.00007,-0.06998 0.00231,-0.13995 0.00713,-0.20976c0.06207,-0.88044 0.52334,-1.46478 1.38416,-1.89501c4.38792,-2.24747 5.70786,-6.0646 5.70786,-9.95308v-1.78371c0,-0.86082 0.36495,-1.43767 1.03384,-1.66919c0.24184,-0.07964 0.49528,-0.11834 0.74987,-0.11451h1.81938c0.8651,0 1.42304,0.36851 1.64244,1.04418c0.07369,0.23946 0.10932,0.48901 0.1056,0.73952v1.71236c-0.07135,7.45589 -3.31769,13.27077 -10.38117,16.08902z" fill="#000000" fill-rule="evenodd" stroke="#000000" stroke-width="0.25" stroke-linecap="round"/><path d="M261.35221,217.8544c-0.16906,-0.26488 -0.40524,-0.57791 -0.66018,-0.89116c-0.0992,-0.12181 -0.19993,-0.24236 -0.30218,-0.36162c-0.40592,-0.464 -0.48118,-0.87828 -0.18352,-1.32781c0.05503,-0.08189 0.11639,-0.15935 0.18352,-0.23166c0.75239,-0.81658 1.36872,-1.70096 1.85713,-2.58127c0.19531,-0.35195 0.37501,-0.71233 0.53858,-1.08011c0.19053,-0.42919 0.44841,-0.69046 0.8046,-0.80799c0.16376,-0.05133 0.33467,-0.07612 0.50626,-0.07345h0.76844c0.05895,-0.00011 0.11788,0.00147 0.17674,0.00475c0.30918,0.01785 0.57068,0.08634 0.81567,0.23166c0.14108,0.0854 0.27085,0.18822 0.38625,0.30602c0.19741,0.1814 0.39277,0.365 0.58605,0.55079c0.4423,0.42535 0.88461,0.87308 1.286,1.31154c0.18684,0.20372 0.36897,0.41171 0.54627,0.62379c0.01042,0.01267 0.02067,0.02548 0.03074,0.03842c0.3962,0.50694 0.34331,1.01456 -0.05334,1.54365l-0.81364,1.03965h0.20341v1.58208c0.00167,0.14803 -0.0175,0.29555 -0.05695,0.43823c-0.08385,0.28997 -0.25856,0.49496 -0.50965,0.603c-0.14998,0.06152 -0.31096,0.09175 -0.47304,0.08882h-1.03965v1.22046h1.33346c0.54514,0 0.9106,0.23121 1.0575,0.65498c0.05046,0.15322 0.07498,0.31378 0.07255,0.47507v0.49722c0,0.54514 -0.23121,0.9106 -0.65498,1.0575c-0.15322,0.05046 -0.31378,0.07498 -0.47507,0.07255h-1.33346v3.77438c0.04565,-0.17751 0.0886,-0.3557 0.12883,-0.53452c0.07119,-0.31393 0.14103,-0.65114 0.2077,-0.98812c0.03943,-0.20044 0.07793,-0.40107 0.11549,-0.60187c0.00803,-0.04467 0.01753,-0.08907 0.02848,-0.13312c0.16363,-0.65249 0.60074,-0.94066 1.23718,-0.77092c0.11623,0.02886 0.22876,0.07094 0.3354,0.12544c0.39145,0.20499 0.55463,0.55779 0.46377,1.04168c-0.01363,0.0715 -0.03144,0.14213 -0.05334,0.21155c-0.07549,0.28636 -0.16069,0.57249 -0.23618,0.84551c-0.03679,0.13186 -0.07107,0.2644 -0.10283,0.39755c-0.18329,0.63102 -0.54988,0.93207 -1.05027,0.86992c-0.05744,-0.00725 -0.11431,-0.01851 -0.17019,-0.03368l-0.90404,-0.24861v0.92664l1.19786,-0.22601c0.08353,-0.01524 0.16715,-0.02994 0.25087,-0.04407c0.48525,-0.08159 0.80867,-0.1121 0.91173,-0.06667c0.01962,0.00546 0.03372,0.02263 0.03526,0.04294v0.15821c0.10191,-0.0583 0.20346,-0.11722 0.30466,-0.17674c0.3128,-0.18375 0.64797,-0.38761 0.99761,-0.60594c0.48881,-0.30573 0.97387,-0.61742 1.45506,-0.93501c0.08208,-0.05419 0.16771,-0.10282 0.2563,-0.14555c0.53836,-0.2572 0.97162,-0.14352 1.16757,0.32636l0.33902,0.90404v-6.39611h-3.07375c-0.54536,0 -0.91082,-0.23121 -1.0575,-0.65498c-0.05046,-0.15322 -0.07498,-0.31378 -0.07255,-0.47507v-0.49722c0,-0.54536 0.23121,-0.9106 0.65498,-1.0575c0.15322,-0.05046 0.31378,-0.07498 0.47507,-0.07255h5.98929v-0.70063h-4.52022c-0.54536,0 -0.91082,-0.23121 -1.0575,-0.65498c-0.05046,-0.15322 -0.07498,-0.31378 -0.07255,-0.47507v-0.20341c0,-0.54536 0.23121,-0.9106 0.65498,-1.0575c0.15322,-0.05046 0.31378,-0.07498 0.47507,-0.07255h4.52022v-0.79104h-5.01744c-0.54536,0 -0.91082,-0.23121 -1.0575,-0.65498c-0.05046,-0.15322 -0.07498,-0.31378 -0.07255,-0.47507v-0.40682c0,-0.54536 0.23121,-0.9106 0.65498,-1.0575c0.15322,-0.05046 0.31378,-0.07498 0.47507,-0.07255h6.75772c0.54514,0 0.9106,0.23121 1.0575,0.65498c0.05046,0.15322 0.07498,0.31378 0.07255,0.47507v5.49206h0.38422c0.54514,0 0.9106,0.23121 1.0575,0.65498c0.05046,0.15322 0.07498,0.31378 0.07255,0.47507v0.49722c0,0.54514 -0.23121,0.9106 -0.65498,1.0575c-0.15322,0.05046 -0.31378,0.07498 -0.47507,0.07255h-3.29976v0.85884c0.05789,0.18862 0.119,0.37624 0.18329,0.56277c0.15041,0.43868 0.32308,0.86942 0.51734,1.29052c0.36162,-0.45202 0.74584,-0.97185 1.08485,-1.49167c0.35099,-0.54627 0.80324,-0.7221 1.31267,-0.49835c0.08609,0.03832 0.16867,0.08407 0.2468,0.13674l0.42942,0.27121c0.63283,0.42942 0.72323,1.01705 0.18081,1.58208l-0.97185,1.06225c-0.0127,0.01321 -0.02559,0.02625 -0.03865,0.0391c-0.46423,0.46016 -0.97162,0.49225 -1.54343,0.09651l-0.15821,-0.11301c0.70063,1.22046 1.60468,2.39571 2.75733,3.23195c0.63283,0.45202 0.70063,0.92664 0.22601,1.51427c-0.20341,0.24861 -0.40682,0.51982 -0.58763,0.79104c-0.39077,0.57565 -0.91241,0.75849 -1.41166,0.37857c-0.05213,-0.03995 -0.10152,-0.08337 -0.14781,-0.12996c-0.81364,-0.79104 -1.51427,-1.80809 -2.0793,-2.84774v1.67248c0.00068,0.19882 -0.00377,0.39763 -0.01333,0.59622c-0.01401,0.27076 -0.04091,0.51304 -0.08724,0.73001c-0.07522,0.49539 -0.3706,0.93011 -0.80347,1.18249c-0.29193,0.17 -0.60885,0.29288 -0.93907,0.3641c-0.2638,0.05758 -0.53167,0.09453 -0.80121,0.11052c-0.00233,0.00015 -0.00467,0.00031 -0.00701,0.00045c-0.51011,0.03096 -0.85183,-0.16702 -1.05999,-0.54084c-0.08049,-0.14996 -0.13975,-0.31038 -0.17606,-0.47666c-0.0452,-0.15821 -0.0678,-0.31642 -0.11301,-0.47462c-0.22601,-0.81364 -0.18081,-1.26566 0.22601,-1.26566h0.63283c0.16928,0 0.24454,-0.04701 0.26511,-0.19301c0.00436,-0.03342 0.00639,-0.0671 0.0061,-0.1008v-1.06225c-0.81364,0.65543 -1.69508,1.31086 -2.53132,1.92109c-0.07239,0.05397 -0.14835,0.10298 -0.22737,0.14668c-0.40659,0.2233 -0.76143,0.19799 -1.01863,-0.06034c-0.07068,-0.07259 -0.13058,-0.15494 -0.17787,-0.24454l-0.47462,-0.83624l0.0226,0.18081c0.05085,0.52502 -0.12702,0.89794 -0.50468,1.1183c-0.13889,0.07849 -0.28873,0.13578 -0.44456,0.16996c-1.87589,0.40682 -3.81958,0.81364 -5.49206,1.15266c-0.05164,0.01138 -0.10374,0.0205 -0.15617,0.02735c-0.48841,0.06283 -0.84731,-0.1121 -1.0444,-0.50061c-0.06338,-0.12909 -0.10813,-0.26652 -0.13289,-0.40818l-0.13561,-0.72323c-0.1069,-0.58763 0.0669,-0.97885 0.49903,-1.18475c0.129,-0.05932 0.26514,-0.10171 0.40501,-0.12611c0.14826,-0.02279 0.29652,-0.04554 0.44479,-0.06826c0.46288,-0.06946 0.92488,-0.14465 1.3859,-0.22556v-5.33386h-1.58208c-0.54536,0 -0.91082,-0.23121 -1.0575,-0.65498c-0.05046,-0.15322 -0.07498,-0.31378 -0.07255,-0.47507v-0.49722c0,-0.54536 0.23121,-0.9106 0.65498,-1.0575c0.15322,-0.05046 0.31378,-0.07498 0.47507,-0.07255h1.58208v-1.22046h-0.61023c-0.00452,0.00001 -0.00904,0.00001 -0.01356,0c-0.431,-0.00136 -0.7481,-0.06758 -0.93207,-0.18895c-0.11171,-0.06287 -0.18186,-0.18012 -0.18442,-0.30828v-0.49722l-0.11301,0.11301c-0.025,-0.04242 -0.05077,-0.08439 -0.0773,-0.12589zM195.80071,218.34236c-0.05046,-0.15322 -0.07498,-0.31378 -0.07255,-0.47507v-0.90404c0,-0.54536 0.23121,-0.9106 0.65498,-1.0575c0.15322,-0.05046 0.31378,-0.07498 0.47507,-0.07255h1.87589v-3.48057c0,-0.54536 0.23121,-0.9106 0.65498,-1.0575c0.15322,-0.05046 0.31378,-0.07498 0.47507,-0.07255h0.97185c0.54514,0 0.9106,0.23121 1.0575,0.65498c0.05046,0.15322 0.07498,0.31378 0.07255,0.47507v3.48057h2.32791v-3.95519c0,-0.54536 0.23121,-0.9106 0.65498,-1.0575c0.15322,-0.05046 0.31378,-0.07498 0.47507,-0.07255h0.88144c0.54514,0 0.9106,0.23121 1.0575,0.65498c0.05046,0.15322 0.07498,0.31378 0.07255,0.47507v3.95519h2.21491v-3.75178c0,-0.54536 0.23121,-0.9106 0.65498,-1.0575c0.15322,-0.05046 0.31378,-0.07498 0.47507,-0.07255h0.90404c0.54514,0 0.9106,0.23121 1.0575,0.65498c0.05046,0.15322 0.07498,0.31378 0.07255,0.47507v3.75178h1.9889c0.54514,0 0.9106,0.23121 1.0575,0.65498c0.05046,0.15322 0.07498,0.31378 0.07255,0.47507v0.90404c0,0.54514 -0.23121,0.9106 -0.65498,1.0575c-0.15322,0.05046 -0.31378,0.07498 -0.47507,0.07255h-1.9889v5.67287c0,0.54514 -0.23121,0.9106 -0.65498,1.0575c-0.15322,0.05046 -0.31378,0.07498 -0.47507,0.07255h-0.90404c-0.47462,0 -0.81296,-0.06826 -0.98948,-0.19166c-0.08442,-0.05002 -0.13744,-0.13969 -0.14058,-0.23776v-0.40682h-2.21491c0,0.424 -0.24861,0.69611 -0.70267,0.79465c-0.14058,0.02899 -0.28385,0.04293 -0.42739,0.04159h-0.88144c-0.54536,0 -0.91082,-0.23121 -1.0575,-0.65498c-0.05046,-0.15322 -0.07498,-0.31378 -0.07255,-0.47507v-5.67287h-2.32791v8.49801h12.06898c0.54514,0 0.9106,0.23121 1.0575,0.65498c0.05046,0.15322 0.07498,0.31378 0.07255,0.47507v0.90404c0,0.54514 -0.23121,0.9106 -0.65498,1.0575c-0.15322,0.05046 -0.31378,0.07498 -0.47507,0.07255h-12.06898v0.18081c0,0.54514 -0.23121,0.9106 -0.65498,1.0575c-0.15322,0.05046 -0.31378,0.07498 -0.47507,0.07255h-0.97185c-0.54536,0 -0.91082,-0.23121 -1.0575,-0.65498c-0.05046,-0.15322 -0.07498,-0.31378 -0.07255,-0.47507v-11.84297h-1.87589c-0.54536,0 -0.91082,-0.23121 -1.0575,-0.65498zM220.11473,226.32009c-0.0187,0.00866 -0.03754,0.01703 -0.0565,0.02509c-0.6048,0.25743 -1.06315,0.07097 -1.45777,-0.47711c-0.18081,-0.27121 -0.38422,-0.54243 -0.58763,-0.79104c-0.05653,-0.07053 -0.10818,-0.14483 -0.15459,-0.22239c-0.27189,-0.46016 -0.18759,-0.84212 0.24364,-1.11853c0.0937,-0.05894 0.19249,-0.10939 0.29517,-0.15075c0.69316,-0.27309 1.36636,-0.59436 2.01466,-0.96145c0.69284,-0.38901 1.34979,-0.83873 1.96313,-1.34386h-1.74028c-0.54536,0 -0.91082,-0.23121 -1.0575,-0.65498c-0.05046,-0.15322 -0.07498,-0.31378 -0.07255,-0.47507v-7.72957c0,-0.54536 0.23121,-0.9106 0.65498,-1.0575c0.15322,-0.05046 0.31378,-0.07498 0.47507,-0.07255h13.47024c0.54514,0 0.9106,0.23121 1.0575,0.65498c0.05046,0.15322 0.07498,0.31378 0.07255,0.47507v7.72957c0,0.54514 -0.23121,0.9106 -0.65498,1.0575c-0.15322,0.05046 -0.31378,0.07498 -0.47507,0.07255h-1.89849c0.35754,0.2902 0.73317,0.55735 1.12463,0.79985c0.92817,0.56882 1.91509,1.03568 2.94356,1.39245c0.70764,0.24251 0.89071,0.64797 0.54943,1.19989c-0.04359,0.06984 -0.09121,0.13707 -0.14261,0.20138c-0.11245,0.14767 -0.22082,0.2984 -0.325,0.45202c-0.10226,0.15091 -0.20487,0.30159 -0.30783,0.45202c-0.00582,0.00886 -0.01169,0.01767 -0.01763,0.02644c-0.33065,0.49044 -0.74358,0.68481 -1.253,0.55463c-0.08325,-0.02162 -0.16471,-0.04966 -0.24364,-0.08385c-0.79104,-0.33902 -1.55947,-0.74584 -2.26011,-1.22046v5.69547c0,0.54514 -0.23121,0.9106 -0.65498,1.0575c-0.15322,0.05046 -0.31378,0.07498 -0.47507,0.07255h-0.99445c-0.54536,0 -0.91082,-0.23121 -1.0575,-0.65498c-0.05046,-0.15322 -0.07498,-0.31378 -0.07255,-0.47507v-5.78588c-0.00023,-0.0813 0.00384,-0.16255 0.0122,-0.24341c0.03933,-0.36885 0.17245,-0.63147 0.39077,-0.77092c0.1302,-0.07963 0.28069,-0.11982 0.43326,-0.11572h0.83624c-0.85884,-0.76844 -1.62728,-1.62728 -2.28271,-2.55392h-2.0793c-0.65543,0.90404 -1.40127,1.74028 -2.26011,2.48612h0.65543c0.54514,0 0.9106,0.23121 1.0575,0.65498c0.05046,0.15322 0.07498,0.31378 0.07255,0.47507v0.51982c0.00076,0.32582 -0.01606,0.65145 -0.0504,0.97546c-0.1625,1.50071 -0.77544,3.20077 -2.62715,4.53152c-0.43102,0.30691 -0.8889,0.57424 -1.36804,0.79872c-0.51915,0.23257 -0.93885,0.1677 -1.29301,-0.16115c-0.09988,-0.09456 -0.18923,-0.19967 -0.26647,-0.31348c-0.20341,-0.27121 -0.40682,-0.54243 -0.63283,-0.81364c-0.46558,-0.5431 -0.41518,-0.98631 0.10849,-1.32962c0.09523,-0.06145 0.19495,-0.11562 0.29833,-0.16205c2.28271,-1.06225 2.62173,-2.53132 2.62173,-3.66138v-0.40682c-0.79104,0.56503 -1.64988,1.03965 -2.53132,1.44647zM248.27568,227.58575v-7.61656c0,-0.54536 0.23121,-0.9106 0.65498,-1.0575c0.15322,-0.05046 0.31378,-0.07498 0.47507,-0.07255h5.35646v-4.1586h-5.31125c-0.54536,0 -0.91082,-0.23121 -1.0575,-0.65498c-0.05046,-0.15322 -0.07498,-0.31378 -0.07255,-0.47507v-0.85884c0,-0.54536 0.23121,-0.9106 0.65498,-1.0575c0.15322,-0.05046 0.31378,-0.07498 0.47507,-0.07255h7.32275c0.54514,0 0.9106,0.23121 1.0575,0.65498c0.05046,0.15322 0.07498,0.31378 0.07255,0.47507v9.19864c0,0.54514 -0.23121,0.9106 -0.65498,1.0575c-0.15322,0.05046 -0.31378,0.07498 -0.47507,0.07255h-0.88144c-0.11103,0.00035 -0.22201,-0.00516 -0.33246,-0.0165c-0.51417,-0.05447 -0.79759,-0.24296 -0.79759,-0.52593v-0.54243h-3.32236v5.62767c-0.00052,0.11177 0.00189,0.22353 0.00723,0.33517c0.03164,0.59237 0.17945,0.76459 0.70651,0.80595c0.12351,0.00858 0.2473,0.01243 0.37111,0.01153h2.46352c0.72323,0 0.94925,-0.31642 1.10745,-1.87589c0.06147,-0.7377 0.36433,-0.97365 0.94247,-0.75872c0.06377,0.02393 0.12636,0.05085 0.18759,0.08069c0.13726,0.06762 0.27671,0.13071 0.41812,0.18917c0.13929,0.05769 0.27866,0.11518 0.41812,0.17245c0.1209,0.04484 0.23716,0.10131 0.34715,0.1686c0.3806,0.23686 0.57203,0.58062 0.54717,1.06655c-0.00244,0.04799 -0.00673,0.09586 -0.01288,0.14352c-0.42942,2.98334 -1.35606,3.90999 -3.68398,3.90999h-3.16415c-2.91554,0 -3.81958,-0.92664 -3.81958,-4.2264zM239.60161,230.97636c-0.05046,-0.15322 -0.07498,-0.31378 -0.07255,-0.47507v-5.58247c0,-0.54536 0.23121,-0.9106 0.65498,-1.0575c0.15322,-0.05046 0.31378,-0.07498 0.47507,-0.07255h4.83663c0.54514,0 0.9106,0.23121 1.0575,0.65498c0.05046,0.15322 0.07498,0.31378 0.07255,0.47507v4.76883c0,0.54514 -0.23121,0.9106 -0.65498,1.0575c-0.15322,0.05046 -0.31378,0.07498 -0.47507,0.07255h-3.27716c0,0.51982 -0.40682,0.81364 -1.13005,0.81364h-0.42942c-0.54536,0 -0.91082,-0.23121 -1.0575,-0.65498zM238.62976,216.15005c-0.05046,-0.15322 -0.07498,-0.31378 -0.07255,-0.47507v-0.29381c0,-0.54536 0.23121,-0.9106 0.65498,-1.0575c0.15322,-0.05046 0.31378,-0.07498 0.47507,-0.07255h6.73512c0.54514,0 0.9106,0.23121 1.0575,0.65498c0.05046,0.15322 0.07498,0.31378 0.07255,0.47507v0.29381c0,0.54514 -0.23121,0.9106 -0.65498,1.0575c-0.15322,0.05046 -0.31378,0.07498 -0.47507,0.07255h-6.73512c-0.54536,0 -0.91082,-0.23121 -1.0575,-0.65498zM239.69201,219.269c-0.05046,-0.15322 -0.07498,-0.31378 -0.07255,-0.47507v-0.18081c0,-0.54536 0.23121,-0.9106 0.65498,-1.0575c0.15322,-0.05046 0.31378,-0.07498 0.47507,-0.07255h4.81403c0.54514,0 0.9106,0.23121 1.0575,0.65498c0.05046,0.15322 0.07498,0.31378 0.07255,0.47507v0.18081c0,0.54514 -0.23121,0.9106 -0.65498,1.0575c-0.15322,0.05046 -0.31378,0.07498 -0.47507,0.07255h-4.81403c-0.54536,0 -0.91082,-0.23121 -1.0575,-0.65498zM239.69201,222.38795c-0.05046,-0.15322 -0.07498,-0.31378 -0.07255,-0.47507v-0.18081c0,-0.54536 0.23121,-0.9106 0.65498,-1.0575c0.15322,-0.05046 0.31378,-0.07498 0.47507,-0.07255h4.81403c0.54514,0 0.9106,0.23121 1.0575,0.65498c0.05046,0.15322 0.07498,0.31378 0.07255,0.47507v0.18081c0,0.54514 -0.23121,0.9106 -0.65498,1.0575c-0.15322,0.05046 -0.31378,0.07498 -0.47507,0.07255h-4.81403c-0.54536,0 -0.91082,-0.23121 -1.0575,-0.65498zM246.08383,213.52313c-0.15322,0.05046 -0.31378,0.07498 -0.47507,0.07255h-4.72363c-0.54536,0 -0.91082,-0.23121 -1.0575,-0.65498c-0.05046,-0.15322 -0.07498,-0.31378 -0.07255,-0.47507v-0.18081c0,-0.54536 0.23121,-0.9106 0.65498,-1.0575c0.15322,-0.05046 0.31378,-0.07498 0.47507,-0.07255h4.72363c0.54514,0 0.9106,0.23121 1.0575,0.65498c0.05046,0.15322 0.07498,0.31378 0.07255,0.47507v0.18081c0,0.54514 -0.23121,0.9106 -0.65498,1.0575zM271.37308,224.81757c-0.45406,0.2581 -0.82471,0.16928 -1.15966,-0.19979c-0.08004,-0.08971 -0.15296,-0.18553 -0.2181,-0.28658c-0.04597,-0.08027 -0.0939,-0.15939 -0.14374,-0.23731c-0.15893,-0.24546 -0.3297,-0.48305 -0.51169,-0.71193c-0.47462,-0.61023 -0.40682,-1.15266 0.20341,-1.58208l0.18081,-0.11301c0.01449,-0.00991 0.02911,-0.01963 0.04385,-0.02916c0.55034,-0.35348 1.09796,-0.31913 1.53823,0.18736c0.31642,0.36162 0.61023,0.74584 0.85884,1.10745c0.02298,0.03138 0.04484,0.06357 0.06554,0.09651c0.27506,0.43846 0.22172,0.84844 -0.09199,1.19153c-0.08707,0.09351 -0.18433,0.17697 -0.28997,0.24884l-0.31642,0.22601c-0.05124,0.03677 -0.10435,0.07086 -0.15911,0.10216zM209.65043,218.99734h-2.21491v2.91554h2.21491zM265.18377,213.95956c-0.11958,-0.13794 -0.24096,-0.27431 -0.3641,-0.40908c-0.18747,0.33057 -0.38287,0.65657 -0.58605,0.97772c-0.35234,0.55741 -0.72994,1.09844 -1.13164,1.6214h3.75178c-0.45202,-0.69679 -1.06112,-1.48783 -1.66999,-2.19004zM261.76016,223.68684c0.43123,-0.07232 0.76527,0.10623 0.96077,0.5022c0.05979,0.12442 0.10426,0.25564 0.13244,0.39077c0.06622,0.30534 0.12498,0.62628 0.17561,0.93998c0.03453,0.21363 0.0664,0.42768 0.0956,0.6421c0.00459,0.02778 0.00851,0.05566 0.01175,0.08362c0.05424,0.46332 -0.10057,0.82494 -0.43371,1.05344c-0.13372,0.08926 -0.28136,0.15563 -0.43688,0.1964c-0.63283,0.18081 -1.03965,-0.15821 -1.13005,-0.94925c-0.0678,-0.47462 -0.15821,-0.99445 -0.27121,-1.49167c-0.10419,-0.53768 0.01808,-0.9289 0.36636,-1.1635c0.11678,-0.07623 0.24484,-0.13359 0.37947,-0.16996c0.04927,-0.01417 0.0993,-0.02557 0.14985,-0.03413zM231.9803,218.65832v-1.17526h-3.11895v1.17526zM231.9803,215.06475v-1.15266h-3.11895v1.15266zM225.7198,218.65832v-1.17526h-3.09635v1.17526zM225.7198,215.06475v-1.15266h-3.09635v1.15266zM243.89107,228.26378v-1.92109h-1.67248v1.92109z" fill="#000000" fill-rule="evenodd" stroke="#000000" stroke-width="0.25" stroke-linecap="round"/><path d="M262.84854,20.09271c-0.17356,-0.27194 -0.41603,-0.59329 -0.67775,-0.91488c-0.10184,-0.12505 -0.20525,-0.24881 -0.31022,-0.37124c-0.41672,-0.47635 -0.49399,-0.90166 -0.18841,-1.36316c0.0565,-0.08407 0.11949,-0.16359 0.18841,-0.23783c0.77242,-0.83832 1.40516,-1.74624 1.90657,-2.64999c0.20051,-0.36132 0.385,-0.7313 0.55292,-1.10886c0.1956,-0.44062 0.46034,-0.70884 0.82602,-0.8295c0.16812,-0.05269 0.34358,-0.07815 0.51974,-0.07541h0.78889c0.06052,-0.00011 0.12102,0.00151 0.18145,0.00487c0.31741,0.01833 0.58587,0.08863 0.83739,0.23783c0.14483,0.08768 0.27806,0.19323 0.39653,0.31417c0.20266,0.18622 0.40322,0.37472 0.60165,0.56545c0.45408,0.43668 0.90816,0.89632 1.32024,1.34646c0.19181,0.20915 0.3788,0.42267 0.56081,0.6404c0.0107,0.013 0.02122,0.02615 0.03156,0.03944c0.40674,0.52044 0.35245,1.04157 -0.05476,1.58475l-0.8353,1.06733h0.20882v1.62419c0.00172,0.15197 -0.01797,0.30342 -0.05847,0.4499c-0.08608,0.29769 -0.26544,0.50814 -0.52322,0.61905c-0.15398,0.06316 -0.31923,0.09419 -0.48563,0.09119h-1.06733v1.25295h1.36896c0.55965,0 0.93484,0.23736 1.08566,0.67242c0.0518,0.1573 0.07697,0.32214 0.07448,0.48772v0.51046c0,0.55965 -0.23736,0.93484 -0.67242,1.08566c-0.1573,0.0518 -0.32214,0.07697 -0.48772,0.07448h-1.36896v3.87486c0.04686,-0.18223 0.09095,-0.36517 0.13226,-0.54874c0.07309,-0.32229 0.14479,-0.66847 0.21323,-1.01442c0.04048,-0.20578 0.08,-0.41174 0.11857,-0.61789c0.00825,-0.04586 0.018,-0.09144 0.02924,-0.13666c0.16799,-0.66986 0.61673,-0.9657 1.27012,-0.79145c0.11932,0.02962 0.23485,0.07283 0.34433,0.12878c0.40187,0.21045 0.5694,0.57264 0.47612,1.06941c-0.01399,0.0734 -0.03228,0.14592 -0.05476,0.21718c-0.0775,0.29398 -0.16497,0.58773 -0.24247,0.86801c-0.03777,0.13537 -0.07297,0.27143 -0.10557,0.40814c-0.18817,0.64782 -0.56452,0.95688 -1.07823,0.89307c-0.05897,-0.00745 -0.11735,-0.019 -0.17472,-0.03457l-0.92811,-0.25523v0.95131l1.22975,-0.23203c0.08575,-0.01565 0.1716,-0.03073 0.25755,-0.04525c0.49816,-0.08376 0.83019,-0.11509 0.936,-0.06845c0.02014,0.00561 0.03462,0.02323 0.0362,0.04409v0.16242c0.10462,-0.05986 0.20888,-0.12034 0.31277,-0.18145c0.32113,-0.18864 0.66522,-0.39793 1.02417,-0.62207c0.50182,-0.31386 0.99979,-0.63385 1.49379,-0.9599c0.08427,-0.05564 0.17217,-0.10556 0.26312,-0.14943c0.55269,-0.26405 0.99749,-0.14734 1.19865,0.33505l0.34804,0.92811v-6.56638h-3.15557c-0.55988,0 -0.93507,-0.23736 -1.08566,-0.67242c-0.0518,-0.1573 -0.07697,-0.32214 -0.07448,-0.48772v-0.51046c0,-0.55988 0.23736,-0.93484 0.67242,-1.08566c0.1573,-0.0518 0.32214,-0.07697 0.48772,-0.07448h6.14873v-0.71929h-4.64055c-0.55988,0 -0.93507,-0.23736 -1.08566,-0.67242c-0.0518,-0.1573 -0.07697,-0.32214 -0.07448,-0.48772v-0.20882c0,-0.55988 0.23736,-0.93484 0.67242,-1.08566c0.1573,-0.0518 0.32214,-0.07697 0.48772,-0.07448h4.64055v-0.8121h-5.15101c-0.55988,0 -0.93507,-0.23736 -1.08566,-0.67242c-0.0518,-0.1573 -0.07697,-0.32214 -0.07448,-0.48772v-0.41765c0,-0.55988 0.23736,-0.93484 0.67242,-1.08566c0.1573,-0.0518 0.32214,-0.07697 0.48772,-0.07448h6.93762c0.55965,0 0.93484,0.23736 1.08566,0.67242c0.0518,0.1573 0.07697,0.32214 0.07448,0.48772v5.63827h0.39445c0.55965,0 0.93484,0.23736 1.08566,0.67242c0.0518,0.1573 0.07697,0.32214 0.07448,0.48772v0.51046c0,0.55965 -0.23736,0.93484 -0.67242,1.08566c-0.1573,0.0518 -0.32214,0.07697 -0.48772,0.07448h-3.3876v0.8817c0.05943,0.19364 0.12216,0.38625 0.18817,0.57775c0.15442,0.45036 0.33168,0.89256 0.53111,1.32488c0.37124,-0.46405 0.76569,-0.99772 1.11373,-1.53138c0.36034,-0.56081 0.82463,-0.74133 1.34762,-0.51162c0.08838,0.03934 0.17316,0.08631 0.25337,0.14038l0.44085,0.27843c0.64968,0.44085 0.74249,1.04412 0.18562,1.62419l-0.99772,1.09053c-0.01304,0.01356 -0.02627,0.02694 -0.03968,0.04014c-0.47658,0.47241 -0.99749,0.50536 -1.58452,0.09908l-0.16242,-0.11601c0.71929,1.25295 1.64739,2.45949 2.83073,3.31799c0.64968,0.46405 0.71929,0.95131 0.23203,1.55458c-0.20882,0.25523 -0.41765,0.53366 -0.60327,0.8121c-0.40118,0.59097 -0.93669,0.77868 -1.44924,0.38865c-0.05352,-0.04101 -0.10422,-0.08558 -0.15175,-0.13342c-0.8353,-0.8121 -1.55458,-1.85622 -2.13465,-2.92355v1.717c0.00069,0.20411 -0.00387,0.40821 -0.01369,0.61209c-0.01439,0.27797 -0.042,0.5267 -0.08956,0.74945c-0.07722,0.50858 -0.38047,0.95488 -0.82486,1.21397c-0.2997,0.17453 -0.62506,0.30068 -0.96407,0.3738c-0.27082,0.05912 -0.54583,0.09705 -0.82254,0.11346c-0.0024,0.00016 -0.00479,0.00031 -0.00719,0.00046c-0.52369,0.03179 -0.87451,-0.17147 -1.08821,-0.55524c-0.08264,-0.15395 -0.14347,-0.31864 -0.18075,-0.48935c-0.04641,-0.16242 -0.06961,-0.32484 -0.11601,-0.48726c-0.23203,-0.8353 -0.18562,-1.29935 0.23203,-1.29935h0.64968c0.17379,0 0.25105,-0.04826 0.27217,-0.19815c0.00447,-0.03431 0.00656,-0.06889 0.00626,-0.10348v-1.09053c-0.8353,0.67288 -1.74021,1.34576 -2.59871,1.97223c-0.07432,0.05541 -0.1523,0.10572 -0.23342,0.15059c-0.41742,0.22924 -0.7817,0.20326 -1.04575,-0.06195c-0.07256,-0.07452 -0.13406,-0.15907 -0.18261,-0.25105l-0.48726,-0.8585l0.0232,0.18562c0.05221,0.539 -0.1304,0.92185 -0.51812,1.14807c-0.14259,0.08058 -0.29642,0.1394 -0.4564,0.17448c-1.92583,0.41765 -3.92126,0.8353 -5.63827,1.18334c-0.05301,0.01168 -0.10651,0.02105 -0.16033,0.02808c-0.50141,0.0645 -0.86987,-0.11509 -1.0722,-0.51394c-0.06507,-0.13252 -0.111,-0.27361 -0.13643,-0.41904l-0.13922,-0.74249c-0.10975,-0.60327 0.06868,-1.00491 0.51232,-1.21629c0.13244,-0.0609 0.27219,-0.10442 0.41579,-0.12947c0.1522,-0.0234 0.30441,-0.04675 0.45663,-0.07007c0.4752,-0.07131 0.9495,-0.1485 1.42279,-0.23156v-5.47585h-1.62419c-0.55988,0 -0.93507,-0.23736 -1.08566,-0.67242c-0.0518,-0.1573 -0.07697,-0.32214 -0.07448,-0.48772v-0.51046c0,-0.55988 0.23736,-0.93484 0.67242,-1.08566c0.1573,-0.0518 0.32214,-0.07697 0.48772,-0.07448h1.62419v-1.25295h-0.62647c-0.00464,0.00001 -0.00928,0.00001 -0.01392,0c-0.44248,-0.00139 -0.76801,-0.06938 -0.95688,-0.19397c-0.11469,-0.06454 -0.1867,-0.18491 -0.18933,-0.31649v-0.51046l-0.11601,0.11601c-0.02567,-0.04355 -0.05213,-0.08664 -0.07935,-0.12924zM234.70547,29.24155c0.06251,-0.27378 0.1116,-0.55046 0.14711,-0.82903c0.01441,-0.09153 0.03432,-0.18211 0.05963,-0.27124c0.16474,-0.56916 0.51928,-0.7636 1.07522,-0.59492c0.07162,0.022 0.14203,0.04779 0.21091,0.07727c0.32484,0.16242 0.67288,0.27843 0.99772,0.39445c0.11921,0.04023 0.23435,0.09166 0.34386,0.1536c0.4434,0.25477 0.65525,0.65873 0.56104,1.26177c-0.58007,3.71244 -1.83302,4.75656 -5.70788,4.75656h-6.49677c-0.55138,0.00266 -1.10265,-0.01661 -1.6525,-0.05777c-3.18806,-0.25639 -4.2642,-1.42465 -4.2642,-4.67559v-7.05363c0,-0.55988 0.23736,-0.93484 0.67242,-1.08566c0.1573,-0.0518 0.32214,-0.07697 0.48772,-0.07448h11.11411v-3.92126h-11.36934c-0.55988,0 -0.93507,-0.23736 -1.08566,-0.67242c-0.0518,-0.1573 -0.07697,-0.32214 -0.07448,-0.48772v-1.16014c0,-0.55988 0.23736,-0.93484 0.67242,-1.08566c0.1573,-0.0518 0.32214,-0.07697 0.48772,-0.07448h13.62001c0.55965,0 0.93484,0.23736 1.08566,0.67242c0.0518,0.1573 0.07697,0.32214 0.07448,0.48772v9.65234c0,0.55965 -0.23736,0.93484 -0.67242,1.08566c-0.1573,0.0518 -0.32214,0.07697 -0.48772,0.07448h-1.09053c-0.38865,0 -0.68843,-0.06358 -0.88565,-0.18075c-0.16768,-0.08552 -0.27359,-0.2575 -0.27449,-0.44572v-0.62647h-8.95626v4.84937c-0.00112,0.13474 0.00507,0.26943 0.01856,0.4035c0.09768,0.88588 0.62949,1.01187 2.67296,1.01187h6.28794c1.51444,0 2.11191,-0.25013 2.4284,-1.58405zM249.42389,30.08311v-7.81932c0,-0.55988 0.23736,-0.93484 0.67242,-1.08566c0.1573,-0.0518 0.32214,-0.07697 0.48772,-0.07448h5.49905v-4.26931h-5.45265c-0.55988,0 -0.93507,-0.23736 -1.08566,-0.67242c-0.0518,-0.1573 -0.07697,-0.32214 -0.07448,-0.48772v-0.8817c0,-0.55988 0.23736,-0.93484 0.67242,-1.08566c0.1573,-0.0518 0.32214,-0.07697 0.48772,-0.07448h7.51769c0.55965,0 0.93484,0.23736 1.08566,0.67242c0.0518,0.1573 0.07697,0.32214 0.07448,0.48772v9.44352c0,0.55965 -0.23736,0.93484 -0.67242,1.08566c-0.1573,0.0518 -0.32214,0.07697 -0.48772,0.07448h-0.90491c-0.11399,0.00036 -0.22792,-0.0053 -0.34131,-0.01694c-0.52786,-0.05592 -0.81882,-0.24943 -0.81882,-0.53993v-0.55687h-3.4108v5.77748c-0.00054,0.11474 0.00194,0.22948 0.00742,0.3441c0.03248,0.60814 0.18423,0.78495 0.72532,0.82741c0.1268,0.00881 0.25389,0.01276 0.38099,0.01183h2.5291c0.74249,0 0.97452,-0.32484 1.13693,-1.92583c0.06311,-0.75734 0.37403,-0.99957 0.96755,-0.77892c0.06546,0.02456 0.12973,0.05221 0.19258,0.08283c0.14092,0.06942 0.28408,0.13419 0.42925,0.19421c0.14299,0.05923 0.28608,0.11824 0.42925,0.17704c0.12412,0.04603 0.24347,0.104 0.35639,0.17309c0.39073,0.24316 0.58726,0.59608 0.56174,1.09494c-0.0025,0.04927 -0.00691,0.09841 -0.01323,0.14734c-0.44085,3.06276 -1.39216,4.01407 -3.78205,4.01407h-3.24838c-2.99315,0 -3.92126,-0.95131 -3.92126,-4.33891zM197.80266,33.86562c-0.0518,-0.1573 -0.07697,-0.32214 -0.07448,-0.48772v-16.75238c0,-0.55988 0.23736,-0.93484 0.67242,-1.08566c0.1573,-0.0518 0.32214,-0.07697 0.48772,-0.07448h4.52454c0.11601,-0.58007 0.23203,-1.20654 0.32484,-1.80981c0.02066,-0.1428 0.05876,-0.28251 0.11346,-0.41603c0.19258,-0.45431 0.57636,-0.65989 1.16269,-0.6049l1.48498,0.16242c0.8121,0.09281 1.13693,0.60327 0.8585,1.39216c-0.18423,0.43737 -0.34549,0.87474 -0.50675,1.26687c-0.00124,0.00309 -0.00247,0.00619 -0.00371,0.00928h6.19513c0.55965,0 0.93484,0.23736 1.08566,0.67242c0.0518,0.1573 0.07697,0.32214 0.07448,0.48772v16.75238c0,0.55965 -0.23736,0.93484 -0.67242,1.08566c-0.1573,0.0518 -0.32214,0.07697 -0.48772,0.07448h-1.09053c-0.11348,0.00035 -0.22692,-0.00468 -0.33992,-0.01508c-0.25941,-0.02483 -0.4615,-0.08005 -0.60026,-0.16428c-0.13336,-0.06816 -0.21804,-0.20455 -0.21996,-0.35431v-0.55687h-9.81476c0,0.53018 -0.24247,0.88542 -0.68611,1.02463c-0.15376,0.04584 -0.3136,0.06806 -0.47403,0.0659h-0.92811c-0.55988,0 -0.93507,-0.23736 -1.08566,-0.67242zM240.51891,33.56399c-0.0518,-0.1573 -0.07697,-0.32214 -0.07448,-0.48772v-5.73108c0,-0.55988 0.23736,-0.93484 0.67242,-1.08566c0.1573,-0.0518 0.32214,-0.07697 0.48772,-0.07448h4.96539c0.55965,0 0.93484,0.23736 1.08566,0.67242c0.0518,0.1573 0.07697,0.32214 0.07448,0.48772v4.89578c0,0.55965 -0.23736,0.93484 -0.67242,1.08566c-0.1573,0.0518 -0.32214,0.07697 -0.48772,0.07448h-3.3644c0,0.53366 -0.41765,0.8353 -1.16014,0.8353h-0.44085c-0.55988,0 -0.93507,-0.23736 -1.08566,-0.67242zM210.79132,28.50533h-9.81476v1.83302h9.81476zM210.79132,25.39616v-1.80981h-9.81476v1.80981zM210.79132,20.47718v-1.78661h-9.81476v1.78661zM239.5212,18.34299c-0.0518,-0.1573 -0.07697,-0.32214 -0.07448,-0.48772v-0.30164c0,-0.55988 0.23736,-0.93484 0.67242,-1.08566c0.1573,-0.0518 0.32214,-0.07697 0.48772,-0.07448h6.91442c0.55965,0 0.93484,0.23736 1.08566,0.67242c0.0518,0.1573 0.07697,0.32214 0.07448,0.48772v0.30164c0,0.55965 -0.23736,0.93484 -0.67242,1.08566c-0.1573,0.0518 -0.32214,0.07697 -0.48772,0.07448h-6.91442c-0.55988,0 -0.93507,-0.23736 -1.08566,-0.67242zM240.61172,21.54497c-0.0518,-0.1573 -0.07697,-0.32214 -0.07448,-0.48772v-0.18562c0,-0.55988 0.23736,-0.93484 0.67242,-1.08566c0.1573,-0.0518 0.32214,-0.07697 0.48772,-0.07448h4.94218c0.55965,0 0.93484,0.23736 1.08566,0.67242c0.0518,0.1573 0.07697,0.32214 0.07448,0.48772v0.18562c0,0.55965 -0.23736,0.93484 -0.67242,1.08566c-0.1573,0.0518 -0.32214,0.07697 -0.48772,0.07448h-4.94218c-0.55988,0 -0.93507,-0.23736 -1.08566,-0.67242zM240.61172,24.74695c-0.0518,-0.1573 -0.07697,-0.32214 -0.07448,-0.48772v-0.18562c0,-0.55988 0.23736,-0.93484 0.67242,-1.08566c0.1573,-0.0518 0.32214,-0.07697 0.48772,-0.07448h4.94218c0.55965,0 0.93484,0.23736 1.08566,0.67242c0.0518,0.1573 0.07697,0.32214 0.07448,0.48772v0.18562c0,0.55965 -0.23736,0.93484 -0.67242,1.08566c-0.1573,0.0518 -0.32214,0.07697 -0.48772,0.07448h-4.94218c-0.55988,0 -0.93507,-0.23736 -1.08566,-0.67242zM247.17369,15.64613c-0.1573,0.0518 -0.32214,0.07697 -0.48772,0.07448h-4.84937c-0.55988,0 -0.93507,-0.23736 -1.08566,-0.67242c-0.0518,-0.1573 -0.07697,-0.32214 -0.07448,-0.48772v-0.18562c0,-0.55988 0.23736,-0.93484 0.67242,-1.08566c0.1573,-0.0518 0.32214,-0.07697 0.48772,-0.07448h4.84937c0.55965,0 0.93484,0.23736 1.08566,0.67242c0.0518,0.1573 0.07697,0.32214 0.07448,0.48772v0.18562c0,0.55965 -0.23736,0.93484 -0.67242,1.08566zM273.13617,27.24124c-0.46614,0.26498 -0.84667,0.17379 -1.19053,-0.20511c-0.08217,-0.0921 -0.15703,-0.19047 -0.22391,-0.29421c-0.04719,-0.0824 -0.0964,-0.16364 -0.14757,-0.24363c-0.16316,-0.25199 -0.33847,-0.49591 -0.52531,-0.73089c-0.48726,-0.62647 -0.41765,-1.18334 0.20882,-1.62419l0.18562,-0.11601c0.01487,-0.01017 0.02988,-0.02015 0.04501,-0.02993c0.56499,-0.36289 1.12719,-0.32762 1.57918,0.19235c0.32484,0.37124 0.62647,0.76569 0.8817,1.13693c0.02359,0.03222 0.04604,0.06527 0.06729,0.09908c0.28238,0.45013 0.22762,0.87103 -0.09444,1.22325c-0.08939,0.096 -0.18924,0.18168 -0.29769,0.25546l-0.32484,0.23203c-0.05261,0.03775 -0.10713,0.07275 -0.16335,0.10488zM266.7821,16.09418c-0.12277,-0.14161 -0.24737,-0.28161 -0.3738,-0.41997c-0.19246,0.33937 -0.39307,0.67405 -0.60165,1.00375c-0.36172,0.57225 -0.74938,1.12768 -1.16176,1.66456h3.85166c-0.46405,-0.71534 -1.08937,-1.52744 -1.71445,-2.24835zM263.26735,26.08041c0.44271,-0.07425 0.78564,0.10905 0.98635,0.51556c0.06138,0.12773 0.10704,0.26244 0.13597,0.40118c0.06798,0.31347 0.12831,0.64295 0.18029,0.965c0.03545,0.21931 0.06817,0.43906 0.09815,0.65919c0.00472,0.02852 0.00874,0.05714 0.01207,0.08585c0.05569,0.47566 -0.10325,0.8469 -0.44526,1.08148c-0.13728,0.09164 -0.28885,0.15978 -0.44851,0.20163c-0.64968,0.18562 -1.06733,-0.16242 -1.16014,-0.97452c-0.06961,-0.48726 -0.16242,-1.02092 -0.27843,-1.53138c-0.10696,-0.55199 0.01856,-0.95363 0.37612,-1.19448c0.11989,-0.07826 0.25136,-0.13714 0.38957,-0.17448c0.05058,-0.01455 0.10194,-0.02625 0.15383,-0.03504zM244.92256,30.77919v-1.97223h-1.717v1.97223z" fill="#000000" fill-rule="evenodd" stroke="#000000" stroke-width="0.25" stroke-linecap="round"/><path d="M268.50877,251.34078v79.3184c0,6.55659 -2.34016,11.83435 -5.24737,11.83435h-106.5228c-2.90719,0 -5.24737,-5.27778 -5.24737,-11.83435v-79.3184c0,-6.55657 2.34016,-11.83432 5.24737,-11.83432h106.5228c2.90719,0 5.24737,5.27776 5.24737,11.83432z" fill="#a3caff" fill-rule="nonzero" stroke="none" stroke-width="1" stroke-linecap="butt"/><path d="M455.50877,251.34078v79.3184c0,6.55659 -3.52006,11.83435 -7.89308,11.83435h-160.23137c-4.37299,0 -7.89308,-5.27778 -7.89308,-11.83435v-79.3184c0,-6.55657 3.52006,-11.83432 7.89308,-11.83432h160.23137c4.37299,0 7.89308,5.27776 7.89308,11.83432z" fill="#a3caff" fill-rule="nonzero" stroke="none" stroke-width="1" stroke-linecap="butt"/><path d="M219.30233,257.49288c-0.0732,-0.22228 -0.10877,-0.45521 -0.10525,-0.68921v-1.54104c0,-0.79118 0.33542,-1.32136 0.9502,-1.53416c0.22228,-0.0732 0.45521,-0.10877 0.68921,-0.10525h9.86923v-4.9838c0,-0.79118 0.33542,-1.32136 0.9502,-1.53416c0.22228,-0.0732 0.45521,-0.10877 0.68921,-0.10525h1.40989c0.79085,0 1.32103,0.33542 1.53416,0.9502c0.0732,0.22228 0.10877,0.45521 0.10525,0.68921v4.9838h1.54104c0.79085,0 1.32103,0.33542 1.53416,0.9502c0.0732,0.22228 0.10877,0.45521 0.10525,0.68921v1.54104c0.00134,0.17353 -0.01625,0.34669 -0.05246,0.51641c-0.11279,0.50723 -0.40428,0.85511 -0.85577,1.01774c-0.21413,0.07325 -0.43932,0.10886 -0.6656,0.10525h-1.60662v13.80381c-0.00001,0.07443 -0.00045,0.14886 -0.00131,0.22329c-0.03082,2.69322 -0.63314,3.86146 -2.26107,4.56378c-0.16015,0.07037 -0.32338,0.13349 -0.4892,0.18919c-1.38333,0.46789 -3.2857,0.59773 -5.70776,0.59773c-0.14811,0.00073 -0.29603,-0.01056 -0.44231,-0.03377c-0.74068,-0.12132 -1.1725,-0.57346 -1.39382,-1.37612c-0.13115,-0.45903 -0.29509,-0.95086 -0.49182,-1.40989c-0.0253,-0.06304 -0.04848,-0.1269 -0.06951,-0.19148c-0.3269,-1.00725 0.11771,-1.61318 1.2312,-1.61318c0.02809,0.00007 0.05618,0.0005 0.08427,0.00131c0.30699,0.00595 0.614,0.01087 0.92102,0.01475c1.09512,0.0141 2.05287,0.01279 2.59617,-0.00393c0.08453,-0.00247 0.16902,-0.00608 0.25345,-0.01082c0.027,-0.00007 0.054,-0.00051 0.08099,-0.00131c0.55674,-0.01475 0.86298,-0.18952 0.96332,-0.61412c0.02671,-0.12088 0.03936,-0.24443 0.03771,-0.36821v-13.77102h-9.86923c-0.79118,0 -1.32136,-0.33542 -1.53416,-0.9502zM181.53038,276.44443c-0.0732,-0.22228 -0.10877,-0.45521 -0.10525,-0.68921v-25.64033c0,-0.79118 0.33542,-1.32136 0.9502,-1.53416c0.22228,-0.0732 0.45521,-0.10877 0.68921,-0.10525h19.21386c0.79085,0 1.32103,0.33542 1.53416,0.9502c0.0732,0.22228 0.10877,0.45521 0.10525,0.68921v25.64033c0,0.79085 -0.33542,1.32103 -0.9502,1.53416c-0.22228,0.0732 -0.45521,0.10877 -0.68921,0.10525h-1.60662c-0.18203,0.00112 -0.36385,-0.01269 -0.54363,-0.04131c-0.19837,-0.03312 -0.37149,-0.08525 -0.51805,-0.15607c-0.35661,-0.14748 -0.58606,-0.49881 -0.57773,-0.88462v-1.08201h-12.95132v0.52461c0,0.79085 -0.33542,1.32103 -0.9502,1.53416c-0.22228,0.0732 -0.45521,0.10877 -0.68921,0.10525h-1.3771c-0.79118,0 -1.32136,-0.33542 -1.53416,-0.9502zM219.85284,249.88537c-0.21063,0.54233 -0.4321,1.08038 -0.66429,1.61383c-0.47338,1.08618 -0.98453,2.15551 -1.53252,3.20603v21.37787c0,0.79085 -0.33542,1.32103 -0.9502,1.53416c-0.22228,0.0732 -0.45521,0.10877 -0.68921,0.10525h-1.34431c-0.79118,0 -1.32136,-0.33542 -1.53416,-0.9502c-0.0732,-0.22228 -0.10877,-0.45521 -0.10525,-0.68921v-14.00054c-0.09836,0.09836 -0.16394,0.22952 -0.26231,0.32788c-0.05629,0.07364 -0.11683,0.14392 -0.18132,0.2105c-0.7197,0.74134 -1.5676,0.51904 -2.08106,-0.53838c-0.00371,-0.00787 -0.00743,-0.01574 -0.01115,-0.02361c-0.20657,-0.43444 -0.44428,-0.89971 -0.6797,-1.34071c-0.09615,-0.17992 -0.19375,-0.35906 -0.2928,-0.5374c-0.01203,-0.02009 -0.02384,-0.04031 -0.03541,-0.06066c-0.3669,-0.64396 -0.38526,-1.22792 -0.03902,-1.8004c0.08811,-0.14328 0.1899,-0.27769 0.30395,-0.40133c0.58897,-0.68066 1.14272,-1.39102 1.65908,-2.12828c1.61815,-2.33194 2.96464,-4.84109 4.01327,-7.47865c0.35116,-0.87807 0.93741,-1.25972 1.78236,-1.07512c0.10717,0.02384 0.21274,0.0544 0.31608,0.09148l1.34431,0.45903c1.01643,0.36067 1.3771,1.08201 0.98364,2.09844zM199.03236,264.01706h-12.95132v6.39369h12.95132zM199.03236,259.29557v-6.00023h-12.95132v6.00023zM223.6802,268.78938c-0.11315,-0.14769 -0.20918,-0.30773 -0.28624,-0.47707c-0.65576,-1.44268 -1.50825,-3.14766 -2.32796,-4.68871c-0.49182,-0.95086 -0.26231,-1.70498 0.72134,-2.19681l1.08201,-0.52461c0.74855,-0.37444 1.41022,-0.3128 1.91319,0.22066c0.12229,0.13202 0.2285,0.27807 0.31641,0.4351c0.29283,0.51625 0.58672,1.0319 0.88167,1.54694c0.32165,0.56363 0.6433,1.13021 0.94692,1.67974c0.25006,0.45072 0.49306,0.90533 0.72888,1.36366c0.49182,0.95086 0.19673,1.70498 -0.72134,2.19681l-1.3771,0.72134c-0.7738,0.4269 -1.41743,0.31083 -1.87778,-0.27706z" fill="#000000" fill-rule="evenodd" stroke="#000000" stroke-width="0.25" stroke-linecap="round"/><path d="M326.10906,257.56682c-0.23254,-0.36435 -0.5574,-0.79492 -0.90808,-1.22579c-0.13644,-0.16755 -0.275,-0.33336 -0.41564,-0.49741c-0.55834,-0.63823 -0.66186,-1.20807 -0.25243,-1.82641c0.07569,-0.11265 0.1601,-0.21919 0.25243,-0.31865c1.03491,-1.1232 1.88268,-2.33967 2.55449,-3.55054c0.26865,-0.4841 0.51583,-0.97982 0.74082,-1.48569c0.26207,-0.59036 0.61678,-0.94973 1.10673,-1.11139c0.22525,-0.0706 0.46034,-0.10471 0.69637,-0.10104h1.05699c0.08108,-0.00015 0.16215,0.00202 0.24311,0.00653c0.42528,0.02456 0.78497,0.11876 1.12196,0.31865c0.19405,0.11747 0.37255,0.25889 0.53129,0.42093c0.27153,0.24951 0.54025,0.50206 0.80611,0.75761c0.60839,0.58507 1.21678,1.20092 1.7689,1.80403c0.257,0.28022 0.50752,0.56631 0.75139,0.85802c0.01433,0.01742 0.02843,0.03504 0.04228,0.05285c0.54497,0.6973 0.47222,1.39553 -0.07337,2.1233l-1.11916,1.43004h0.27979v2.17615c0.0023,0.20361 -0.02407,0.40653 -0.07834,0.60279c-0.11534,0.39886 -0.35564,0.68082 -0.70103,0.82942c-0.2063,0.08462 -0.42772,0.1262 -0.65067,0.12218h-1.43004v1.67874h1.83418c0.74984,0 1.25253,0.31803 1.4546,0.90093c0.0694,0.21075 0.10313,0.43161 0.09979,0.65347v0.68393c0,0.74984 -0.31803,1.25253 -0.90093,1.4546c-0.21075,0.0694 -0.43161,0.10313 -0.65347,0.09979h-1.83418v5.19167c0.06279,-0.24416 0.12186,-0.48927 0.1772,-0.73523c0.09793,-0.43181 0.19399,-0.89564 0.2857,-1.35916c0.05424,-0.27571 0.10719,-0.55167 0.15886,-0.82787c0.01105,-0.06145 0.02411,-0.12252 0.03917,-0.18311c0.22508,-0.89751 0.82631,-1.29388 1.70175,-1.06041c0.15987,0.03969 0.31466,0.09758 0.46134,0.17254c0.53844,0.28197 0.7629,0.76725 0.63792,1.43284c-0.01875,0.09834 -0.04325,0.19551 -0.07337,0.29098c-0.10383,0.39388 -0.22103,0.78745 -0.32487,1.163c-0.0506,0.18137 -0.09776,0.36368 -0.14145,0.54683c-0.25212,0.86797 -0.75637,1.28206 -1.44465,1.19657c-0.07901,-0.00998 -0.15723,-0.02545 -0.23409,-0.04632l-1.24351,-0.34197v1.2746l1.64765,-0.31088c0.11489,-0.02097 0.22992,-0.04118 0.34507,-0.06062c0.66746,-0.11223 1.11232,-0.1542 1.25408,-0.09171c0.02699,0.00751 0.04638,0.03113 0.0485,0.05907v0.21761c0.14017,-0.0802 0.27986,-0.16124 0.41906,-0.24311c0.43026,-0.25274 0.89129,-0.53316 1.37222,-0.83346c0.67236,-0.42053 1.33956,-0.84926 2.00143,-1.2861c0.1129,-0.07454 0.23068,-0.14143 0.35254,-0.20021c0.74051,-0.35378 1.33647,-0.19741 1.606,0.44891l0.46632,1.24351v-8.79785h-4.22794c-0.75015,0 -1.25284,-0.31803 -1.4546,-0.90093c-0.0694,-0.21075 -0.10313,-0.43161 -0.09979,-0.65347v-0.68393c0,-0.75015 0.31803,-1.25253 0.90093,-1.4546c0.21075,-0.0694 0.43161,-0.10313 0.65347,-0.09979h8.23827v-0.96372h-6.21756c-0.75015,0 -1.25284,-0.31803 -1.4546,-0.90093c-0.0694,-0.21075 -0.10313,-0.43161 -0.09979,-0.65347v-0.27979c0,-0.75015 0.31803,-1.25253 0.90093,-1.4546c0.21075,-0.0694 0.43161,-0.10313 0.65347,-0.09979h6.21756v-1.08807h-6.9015c-0.75015,0 -1.25284,-0.31803 -1.4546,-0.90093c-0.0694,-0.21075 -0.10313,-0.43161 -0.09979,-0.65347v-0.55958c0,-0.75015 0.31803,-1.25253 0.90093,-1.4546c0.21075,-0.0694 0.43161,-0.10313 0.65347,-0.09979h9.29526c0.74984,0 1.25253,0.31803 1.4546,0.90093c0.0694,0.21075 0.10313,0.43161 0.09979,0.65347v7.55434h0.52849c0.74984,0 1.25253,0.31803 1.4546,0.90093c0.0694,0.21075 0.10313,0.43161 0.09979,0.65347v0.68393c0,0.74984 -0.31803,1.25253 -0.90093,1.4546c-0.21075,0.0694 -0.43161,0.10313 -0.65347,0.09979h-4.53882v1.18134c0.07963,0.25945 0.16368,0.51751 0.25212,0.77409c0.20689,0.60341 0.4444,1.19588 0.7116,1.77511c0.49741,-0.62176 1.0259,-1.33678 1.49222,-2.0518c0.48279,-0.75139 1.10486,-0.99326 1.80558,-0.68549c0.11841,0.05271 0.232,0.11564 0.33948,0.18808l0.59067,0.37305c0.87046,0.59067 0.99481,1.39895 0.2487,2.17615l-1.33678,1.46113c-0.01747,0.01817 -0.03519,0.0361 -0.05316,0.05378c-0.63854,0.63295 -1.33647,0.67709 -2.12299,0.13275l-0.21761,-0.15544c0.96372,1.67874 2.20724,3.29531 3.79271,4.44556c0.87046,0.62176 0.96372,1.2746 0.31088,2.08288c-0.27979,0.34197 -0.55958,0.71502 -0.80828,1.08807c-0.53751,0.79181 -1.25502,1.04331 -1.94175,0.52072c-0.07171,-0.05495 -0.13964,-0.11467 -0.20331,-0.17875c-1.11916,-1.08807 -2.08288,-2.48703 -2.86008,-3.91707v2.3005c0.00093,0.27348 -0.00519,0.54693 -0.01834,0.8201c-0.01927,0.37243 -0.05627,0.70569 -0.12,1.00414c-0.10346,0.68141 -0.50976,1.27937 -1.10517,1.62651c-0.40155,0.23384 -0.83747,0.40286 -1.2917,0.50082c-0.36285,0.07921 -0.73132,0.13003 -1.10206,0.15202c-0.00321,0.00021 -0.00642,0.00042 -0.00964,0.00062c-0.70165,0.04259 -1.1717,-0.22974 -1.45802,-0.74393c-0.11072,-0.20627 -0.19222,-0.42693 -0.24217,-0.65564c-0.06218,-0.21761 -0.09326,-0.43523 -0.15544,-0.65284c-0.31088,-1.11916 -0.2487,-1.74092 0.31088,-1.74092h0.87046c0.23285,0 0.33637,-0.06466 0.36466,-0.26549c0.00599,-0.04597 0.00879,-0.0923 0.00839,-0.13865v-1.46113c-1.11916,0.90155 -2.33159,1.80309 -3.48184,2.64246c-0.09957,0.07424 -0.20406,0.14165 -0.31274,0.20176c-0.55927,0.30715 -1.04735,0.27233 -1.40113,-0.083c-0.09722,-0.09984 -0.17962,-0.21312 -0.24466,-0.33637l-0.65284,-1.15025l0.03109,0.2487c0.06995,0.72217 -0.17471,1.23512 -0.69419,1.53823c-0.19104,0.10797 -0.39715,0.18677 -0.6115,0.23378c-2.58029,0.55958 -5.25384,1.11916 -7.55434,1.58548c-0.07103,0.01565 -0.1427,0.0282 -0.21482,0.03762c-0.67181,0.08642 -1.16548,-0.1542 -1.43657,-0.6886c-0.08718,-0.17756 -0.14873,-0.36659 -0.1828,-0.56145l-0.18653,-0.99481c-0.14705,-0.80828 0.09202,-1.34641 0.68642,-1.62962c0.17744,-0.0816 0.36469,-0.13991 0.55709,-0.17347c0.20393,-0.03135 0.40786,-0.06264 0.61181,-0.09389c0.63669,-0.09554 1.27218,-0.19897 1.90631,-0.31026v-7.33673h-2.17615c-0.75015,0 -1.25284,-0.31803 -1.4546,-0.90093c-0.0694,-0.21075 -0.10313,-0.43161 -0.09979,-0.65347v-0.68393c0,-0.75015 0.31803,-1.25253 0.90093,-1.4546c0.21075,-0.0694 0.43161,-0.10313 0.65347,-0.09979h2.17615v-1.67874h-0.83937c-0.00622,0.00001 -0.01244,0.00001 -0.01865,0c-0.59284,-0.00187 -1.02901,-0.09295 -1.28206,-0.25989c-0.15366,-0.08647 -0.25014,-0.24775 -0.25368,-0.42404v-0.68393l-0.15544,0.15544c-0.03439,-0.05835 -0.06984,-0.11609 -0.10632,-0.17316zM354.16613,259.92047c-0.32331,-0.67803 -0.31119,-1.24849 0.07399,-1.8432c0.0623,-0.09555 0.13008,-0.18741 0.203,-0.27513c2.02071,-2.36267 3.91707,-5.56472 5.25384,-8.86003c0.33295,-0.83253 0.8888,-1.19439 1.68993,-1.01937c0.10161,0.02261 0.20171,0.05157 0.29969,0.08674l1.0259,0.34197c0.01247,0.00447 0.0249,0.00903 0.03731,0.01368c0.93512,0.34694 1.2631,1.05543 0.86424,1.97594c-0.19918,0.50286 -0.40615,1.00261 -0.62082,1.49905c-0.43479,1.00719 -0.90165,2.00023 -1.39988,2.97759v17.40918c0.09522,-0.0525 0.18983,-0.10608 0.28383,-0.16072c2.44983,-1.48826 4.55683,-3.4783 6.18244,-5.83923h-3.76163c-0.75015,0 -1.25284,-0.31803 -1.4546,-0.90093c-0.0694,-0.21075 -0.10313,-0.43161 -0.09979,-0.65347v-0.96372c0,-0.75015 0.31803,-1.25253 0.90093,-1.4546c0.21075,-0.0694 0.43161,-0.10313 0.65347,-0.09979h5.72016v-2.20724h-3.88598c-0.75015,0 -1.25284,-0.31803 -1.4546,-0.90093c-0.0694,-0.21075 -0.10313,-0.43161 -0.09979,-0.65347v-8.08283c0,-0.75015 0.31803,-1.25253 0.90093,-1.4546c0.21075,-0.0694 0.43161,-0.10313 0.65347,-0.09979h12.62166c0.74984,0 1.25253,0.31803 1.4546,0.90093c0.0694,0.21075 0.10313,0.43161 0.09979,0.65347v8.08283c0,0.74984 -0.31803,1.25253 -0.90093,1.4546c-0.21075,0.0694 -0.43161,0.10313 -0.65347,0.09979h-4.41447v2.20724h5.75125c0.74984,0 1.25253,0.31803 1.4546,0.90093c0.0694,0.21075 0.10313,0.43161 0.09979,0.65347v0.96372c0,0.74984 -0.31803,1.25253 -0.90093,1.4546c-0.21075,0.0694 -0.43161,0.10313 -0.65347,0.09979h-3.76163c1.30569,1.92744 3.04661,3.79271 4.8497,5.19167c0.07846,0.0578 0.1536,0.11997 0.22508,0.18622c0.61896,0.57668 0.6059,1.22704 -0.03855,1.92776c-0.31088,0.34197 -0.62176,0.71502 -0.93263,1.08807c-0.05813,0.07887 -0.1205,0.15453 -0.18684,0.22663c-0.58694,0.6345 -1.28517,0.69512 -1.95822,0.02207c-1.43004,-1.36786 -2.7979,-3.07769 -3.94815,-4.94296v5.50254c0,0.74984 -0.31803,1.25253 -0.90093,1.4546c-0.21075,0.0694 -0.43161,0.10313 -0.65347,0.09979h-1.21243c-0.75015,0 -1.25284,-0.31803 -1.4546,-0.90093c-0.0694,-0.21075 -0.10313,-0.43161 -0.09979,-0.65347v-5.31602c-0.42428,0.6258 -0.8758,1.2327 -1.35325,1.81895c-0.86853,1.07261 -1.83053,2.06604 -2.87469,2.96858c-0.05286,0.04273 -0.10752,0.08318 -0.16383,0.12124c-0.59782,0.40383 -1.15895,0.34632 -1.65667,-0.08145c-0.13125,-0.11479 -0.25042,-0.24271 -0.35564,-0.38176c-0.05981,-0.07687 -0.12012,-0.15335 -0.18093,-0.22943c-0.61181,-0.76569 -1.30289,-1.53139 -1.83978,-2.03998v3.04661c0,0.74984 -0.31803,1.25253 -0.90093,1.4546c-0.21075,0.0694 -0.43161,0.10313 -0.65347,0.09979h-0.96372c-0.75015,0 -1.25284,-0.31803 -1.4546,-0.90093c-0.0694,-0.21075 -0.10313,-0.43161 -0.09979,-0.65347v-13.92734c-0.12435,0.18653 -0.27979,0.34197 -0.40414,0.52849c-0.66683,0.8002 -1.40237,0.77657 -1.91221,0.04663c-0.09079,-0.13217 -0.16875,-0.2727 -0.23285,-0.41969l-0.7772,-1.58548c-0.00961,-0.01918 -0.01904,-0.03846 -0.02829,-0.05782zM413.64086,259.60587c-0.0694,-0.21075 -0.10313,-0.43161 -0.09979,-0.65347v-0.83937c0,-0.75015 0.31803,-1.25253 0.90093,-1.4546c0.21075,-0.0694 0.43161,-0.10313 0.65347,-0.09979h7.58543v-2.17615h-5.06732c-0.75015,0 -1.25284,-0.31803 -1.4546,-0.90093c-0.0694,-0.21075 -0.10313,-0.43161 -0.09979,-0.65347v-0.7772c0,-0.75015 0.31803,-1.25253 0.90093,-1.4546c0.21075,-0.0694 0.43161,-0.10313 0.65347,-0.09979h5.06732v-1.49222c0,-0.75015 0.31803,-1.25253 0.90093,-1.4546c0.21075,-0.0694 0.43161,-0.10313 0.65347,-0.09979h1.15025c0.73834,0 1.23698,0.30808 1.44496,0.86113c0.07598,0.21235 0.11305,0.43666 0.10943,0.66217v1.5233h4.3523c0.12245,-0.00029 0.24485,0.0049 0.36684,0.01554c0.37336,0.03357 0.66528,0.12031 0.86611,0.25057c0.19614,0.11049 0.31862,0.31706 0.32145,0.54217v0.80828c0.71502,-0.83937 1.39895,-1.70983 2.0518,-2.61138c0.48062,-0.6945 1.07626,-0.93015 1.76703,-0.68673c0.11988,0.04292 0.23594,0.09585 0.34694,0.15824l0.93263,0.49741c0.93263,0.49741 1.11916,1.2746 0.49741,2.14506c-1.2746,1.74092 -2.64246,3.41966 -4.16577,4.94296h4.41447c0.74984,0 1.25253,0.31803 1.4546,0.90093c0.0694,0.21075 0.10313,0.43161 0.09979,0.65347v0.83937c0,0.74984 -0.31803,1.25253 -0.90093,1.4546c-0.21075,0.0694 -0.43161,0.10313 -0.65347,0.09979h-8.82894c-0.66975,0.54236 -1.35803,1.06142 -2.06361,1.55626c-0.23381,0.16602 -0.46821,0.3312 -0.70321,0.49554h8.36262c0.74984,0 1.25253,0.31803 1.4546,0.90093c0.0694,0.21075 0.10313,0.43161 0.09979,0.65347v11.2227c0,0.74984 -0.31803,1.25253 -0.90093,1.4546c-0.21075,0.0694 -0.43161,0.10313 -0.65347,0.09979h-1.36786c-0.04052,-0.00004 -0.08104,-0.00035 -0.12155,-0.00093c-0.683,-0.00902 -1.14217,-0.09513 -1.33305,-0.22414c-0.0562,-0.02922 -0.09376,-0.08493 -0.09979,-0.14798v-0.37305h-9.17091c0.0034,0.17348 -0.06017,0.3416 -0.17751,0.46943c-0.16601,0.18217 -0.44549,0.30528 -0.82569,0.36311c-0.18252,0.02642 -0.36677,0.0391 -0.55119,0.03793h-1.18134c-0.75015,0 -1.25284,-0.31803 -1.4546,-0.90093c-0.0694,-0.21075 -0.10313,-0.43161 -0.09979,-0.65347v-8.33154c-0.87046,0.43523 -1.80309,0.80828 -2.73573,1.18134c-0.90155,0.37305 -1.55439,0.09326 -2.08288,-0.71502l-0.68393,-1.0259c-0.55305,-0.78994 -0.48155,-1.44589 0.19523,-1.8547c0.13511,-0.08002 0.27802,-0.14606 0.42652,-0.1971c2.98443,-1.05699 5.84451,-2.42485 8.48698,-4.01033h-7.58543c-0.75015,0 -1.25284,-0.31803 -1.4546,-0.90093zM393.34051,260.01001c-0.0694,-0.21075 -0.10313,-0.43161 -0.09979,-0.65347v-0.99481c0,-0.75015 0.31803,-1.25253 0.90093,-1.4546c0.21075,-0.0694 0.43161,-0.10313 0.65347,-0.09979h5.50254v-2.02071h-4.38338c-0.75015,0 -1.25284,-0.31803 -1.4546,-0.90093c-0.0694,-0.21075 -0.10313,-0.43161 -0.09979,-0.65347v-0.96372c0,-0.75015 0.31803,-1.25253 0.90093,-1.4546c0.21075,-0.0694 0.43161,-0.10313 0.65347,-0.09979h4.38338v-1.58548c0,-0.75015 0.31803,-1.25253 0.90093,-1.4546c0.21075,-0.0694 0.43161,-0.10313 0.65347,-0.09979h0.96372c0.74984,0 1.25253,0.31803 1.4546,0.90093c0.0694,0.21075 0.10313,0.43161 0.09979,0.65347v1.58548h4.25903c0.74984,0 1.25253,0.31803 1.4546,0.90093c0.0694,0.21075 0.10313,0.43161 0.09979,0.65347v0.96372c0,0.74984 -0.31803,1.25253 -0.90093,1.4546c-0.21075,0.0694 -0.43161,0.10313 -0.65347,0.09979h-4.25903v2.02071h5.50254c0.74984,0 1.25253,0.31803 1.4546,0.90093c0.0694,0.21075 0.10313,0.43161 0.09979,0.65347v0.99481c0,0.74984 -0.31803,1.25253 -0.90093,1.4546c-0.21075,0.0694 -0.43161,0.10313 -0.65347,0.09979h-1.70983v1.89636h1.49222c0.74984,0 1.25253,0.31803 1.4546,0.90093c0.0694,0.21075 0.10313,0.43161 0.09979,0.65347v0.96372c0,0.73834 -0.30839,1.23698 -0.86113,1.44496c-0.21235,0.07598 -0.43666,0.11305 -0.66217,0.10943h-1.5233v5.56472c0,2.11397 -0.37305,3.20205 -1.61657,3.85489c-0.5829,0.31088 -1.27522,0.48808 -2.06143,0.58507c-0.50259,0.05818 -1.00778,0.09117 -1.51367,0.09886c-0.72683,0.02332 -1.18818,-0.23596 -1.47792,-0.76476c-0.10113,-0.19104 -0.17899,-0.39352 -0.23192,-0.6031c-0.06218,-0.34197 -0.15544,-0.71502 -0.27979,-1.05699c-0.01701,-0.05909 -0.03256,-0.11859 -0.04663,-0.17844c-0.22756,-0.9774 0.10041,-1.53139 1.01035,-1.53139c0.59844,0.02705 1.14932,0.03047 1.44403,0.01026c0.03687,-0.00242 0.07367,-0.00584 0.11036,-0.01026c0.05788,0.00029 0.11575,-0.00168 0.17347,-0.00591c0.26052,-0.02052 0.3715,-0.10041 0.40539,-0.3115c0.00861,-0.0596 0.01255,-0.11978 0.01181,-0.18v-5.47146h-5.72016c0.16273,0.20366 0.32233,0.40979 0.47875,0.61834c0.50114,0.66746 1.00196,1.39771 1.4403,2.10527c0.18645,0.30009 0.36547,0.60474 0.53689,0.91367c0.36839,0.68766 0.27109,1.27833 -0.19989,1.74123c-0.13668,0.13171 -0.28876,0.24642 -0.45295,0.34166l-0.99481,0.59067c-0.90155,0.55958 -1.61657,0.27979 -2.0518,-0.65284c-0.43523,-0.83937 -0.96372,-1.77201 -1.49222,-2.61138c-0.03106,-0.04823 -0.0605,-0.09748 -0.08829,-0.14767c-0.36062,-0.65253 -0.29316,-1.24507 0.17534,-1.69615c0.12385,-0.11694 0.26168,-0.21812 0.41036,-0.30124l1.55439,-0.90155h-2.64246c-0.75015,0 -1.25284,-0.31803 -1.4546,-0.90093c-0.0694,-0.21075 -0.10313,-0.43161 -0.09979,-0.65347v-0.96372c0,-0.75015 0.31803,-1.25253 0.90093,-1.4546c0.21075,-0.0694 0.43161,-0.10313 0.65347,-0.09979h9.04656v-1.89636h-9.29526c-0.75015,0 -1.25284,-0.31803 -1.4546,-0.90093zM308.12226,270.9523v-10.4766c0,-0.75015 0.31803,-1.25253 0.90093,-1.4546c0.21075,-0.0694 0.43161,-0.10313 0.65347,-0.09979h7.36781v-5.72016h-7.30564c-0.75015,0 -1.25284,-0.31803 -1.4546,-0.90093c-0.0694,-0.21075 -0.10313,-0.43161 -0.09979,-0.65347v-1.18134c0,-0.75015 0.31803,-1.25253 0.90093,-1.4546c0.21075,-0.0694 0.43161,-0.10313 0.65347,-0.09979h10.07245c0.74984,0 1.25253,0.31803 1.4546,0.90093c0.0694,0.21075 0.10313,0.43161 0.09979,0.65347v12.65274c0,0.74984 -0.31803,1.25253 -0.90093,1.4546c-0.21075,0.0694 -0.43161,0.10313 -0.65347,0.09979h-1.21243c-0.15273,0.00048 -0.30537,-0.0071 -0.4573,-0.02269c-0.70725,-0.07492 -1.09709,-0.33419 -1.09709,-0.72341v-0.74611h-4.56991v7.74087c-0.00072,0.15374 0.0026,0.30747 0.00995,0.46103c0.04352,0.81481 0.24684,1.0517 0.97181,1.10859c0.16989,0.0118 0.34017,0.01709 0.51046,0.01585h3.38857c0.99481,0 1.30569,-0.43523 1.5233,-2.58029c0.08456,-1.01471 0.50114,-1.33926 1.29636,-1.04362c0.08771,0.03291 0.17382,0.06995 0.25803,0.11098c0.18881,0.09301 0.38062,0.17979 0.57512,0.26021c0.19159,0.07936 0.3833,0.15843 0.57512,0.2372c0.1663,0.06168 0.32622,0.13935 0.47751,0.23192c0.52352,0.3258 0.78683,0.79865 0.75264,1.46703c-0.00335,0.06601 -0.00926,0.13186 -0.01772,0.19741c-0.59067,4.10359 -1.86527,5.37819 -5.06732,5.37819h-4.3523c-4.01033,0 -5.25384,-1.2746 -5.25384,-5.81342zM391.87286,264.89017l-1.2746,0.37305v6.83932c0,0.86455 -0.05471,1.56558 -0.20114,2.1404c-0.14011,0.66501 -0.52279,1.25404 -1.07346,1.65232c-0.16978,0.11277 -0.34839,0.21164 -0.53409,0.29565c-0.35906,0.16321 -0.75512,0.28103 -1.19346,0.3659c-0.37447,0.07003 -0.75257,0.11902 -1.13253,0.14673c-0.00321,0.00021 -0.00642,0.00042 -0.00964,0.00062c-0.70352,0.04259 -1.17388,-0.23098 -1.44776,-0.74797c-0.1048,-0.2054 -0.17935,-0.42487 -0.22135,-0.6516c-0.01604,-0.07975 -0.03334,-0.15924 -0.05192,-0.23844c-0.06104,-0.25328 -0.12665,-0.50545 -0.19679,-0.75637c-0.00219,-0.00756 -0.00437,-0.01512 -0.00653,-0.02269c-0.29533,-1.04984 -0.15109,-1.68838 0.51792,-1.68838c0.01607,0.00007 0.03214,0.00048 0.04819,0.00124h1.11916c0.28445,0 0.41844,-0.08611 0.45513,-0.34787c0.00791,-0.05988 0.01165,-0.12023 0.01119,-0.18062v-5.68907l-1.11916,0.31088c-0.0892,0.02532 -0.17983,0.04536 -0.2714,0.06c-0.646,0.10166 -1.13657,-0.13088 -1.42071,-0.64632c-0.09484,-0.17718 -0.16364,-0.36711 -0.20425,-0.56393l-0.2487,-1.21243c-0.14518,-0.77409 0.06715,-1.34113 0.62269,-1.65729c0.17496,-0.09645 0.36321,-0.16654 0.55865,-0.20798c0.65284,-0.12435 1.33678,-0.31088 2.08288,-0.46632v-4.72535h-1.5233c-0.75015,0 -1.25284,-0.31803 -1.4546,-0.90093c-0.0694,-0.21075 -0.10313,-0.43161 -0.09979,-0.65347v-1.0259c0,-0.75015 0.31803,-1.25253 0.90093,-1.4546c0.21075,-0.0694 0.43161,-0.10313 0.65347,-0.09979h1.5233v-4.10359c0,-0.75015 0.31803,-1.25253 0.90093,-1.4546c0.21075,-0.0694 0.43161,-0.10313 0.65347,-0.09979h0.80828c0.74984,0 1.25253,0.31803 1.4546,0.90093c0.0694,0.21075 0.10313,0.43161 0.09979,0.65347v4.10359h0.65284c0.74984,0 1.25253,0.31803 1.4546,0.90093c0.0694,0.21075 0.10313,0.43161 0.09979,0.65347v1.0259c0,0.99481 -0.37305,1.55439 -1.08807,1.55439h-1.11916v3.73054l0.40414,-0.09326c0.81201,-0.22166 1.41014,0.02456 1.68558,0.646c0.07727,0.18042 0.12735,0.3713 0.1486,0.56642l0.12435,0.96372c0.12435,0.93263 -0.2487,1.55439 -1.08807,1.80309zM296.19107,275.61609c-0.0694,-0.21075 -0.10313,-0.43161 -0.09979,-0.65347v-7.67869c0,-0.75015 0.31803,-1.25253 0.90093,-1.4546c0.21075,-0.0694 0.43161,-0.10313 0.65347,-0.09979h6.65279c0.74984,0 1.25253,0.31803 1.4546,0.90093c0.0694,0.21075 0.10313,0.43161 0.09979,0.65347v6.55953c0,0.74984 -0.31803,1.25253 -0.90093,1.4546c-0.21075,0.0694 -0.43161,0.10313 -0.65347,0.09979h-4.50773c0,0.71502 -0.55958,1.11916 -1.55439,1.11916h-0.59067c-0.75015,0 -1.25284,-0.31803 -1.4546,-0.90093zM294.85429,255.22248c-0.0694,-0.21075 -0.10313,-0.43161 -0.09979,-0.65347v-0.40414c0,-0.75015 0.31803,-1.25253 0.90093,-1.4546c0.21075,-0.0694 0.43161,-0.10313 0.65347,-0.09979h9.26417c0.74984,0 1.25253,0.31803 1.4546,0.90093c0.0694,0.21075 0.10313,0.43161 0.09979,0.65347v0.40414c0,0.74984 -0.31803,1.25253 -0.90093,1.4546c-0.21075,0.0694 -0.43161,0.10313 -0.65347,0.09979h-9.26417c-0.75015,0 -1.25284,-0.31803 -1.4546,-0.90093zM296.31542,259.5126c-0.0694,-0.21075 -0.10313,-0.43161 -0.09979,-0.65347v-0.2487c0,-0.75015 0.31803,-1.25253 0.90093,-1.4546c0.21075,-0.0694 0.43161,-0.10313 0.65347,-0.09979h6.62171c0.74984,0 1.25253,0.31803 1.4546,0.90093c0.0694,0.21075 0.10313,0.43161 0.09979,0.65347v0.2487c0,0.74984 -0.31803,1.25253 -0.90093,1.4546c-0.21075,0.0694 -0.43161,0.10313 -0.65347,0.09979h-6.62171c-0.75015,0 -1.25284,-0.31803 -1.4546,-0.90093zM296.31542,263.80272c-0.0694,-0.21075 -0.10313,-0.43161 -0.09979,-0.65347v-0.2487c0,-0.75015 0.31803,-1.25253 0.90093,-1.4546c0.21075,-0.0694 0.43161,-0.10313 0.65347,-0.09979h6.62171c0.74984,0 1.25253,0.31803 1.4546,0.90093c0.0694,0.21075 0.10313,0.43161 0.09979,0.65347v0.2487c0,0.74984 -0.31803,1.25253 -0.90093,1.4546c-0.21075,0.0694 -0.43161,0.10313 -0.65347,0.09979h-6.62171c-0.75015,0 -1.25284,-0.31803 -1.4546,-0.90093zM305.10737,251.60915c-0.21075,0.0694 -0.43161,0.10313 -0.65347,0.09979h-6.49735c-0.75015,0 -1.25284,-0.31803 -1.4546,-0.90093c-0.0694,-0.21075 -0.10313,-0.43161 -0.09979,-0.65347v-0.2487c0,-0.75015 0.31803,-1.25253 0.90093,-1.4546c0.21075,-0.0694 0.43161,-0.10313 0.65347,-0.09979h6.49735c0.74984,0 1.25253,0.31803 1.4546,0.90093c0.0694,0.21075 0.10313,0.43161 0.09979,0.65347v0.2487c0,0.74984 -0.31803,1.25253 -0.90093,1.4546zM375.98698,255.99906v-3.29531h-7.36781v3.29531zM432.53573,272.38234v-1.39895h-9.17091v1.39895zM432.53573,267.6259v-1.39895h-9.17091v1.39895zM339.89278,267.14466c-0.62455,0.35502 -1.13439,0.23285 -1.59512,-0.27482c-0.11009,-0.1234 -0.2104,-0.2552 -0.3,-0.39419c-0.06323,-0.11041 -0.12916,-0.21925 -0.19772,-0.32642c-0.21861,-0.33763 -0.4535,-0.66444 -0.70383,-0.97927c-0.65284,-0.83937 -0.55958,-1.58548 0.27979,-2.17615l0.2487,-0.15544c0.01993,-0.01363 0.04003,-0.027 0.06031,-0.0401c0.75699,-0.48621 1.51025,-0.43896 2.11584,0.25772c0.43523,0.49741 0.83937,1.0259 1.18134,1.5233c0.03161,0.04317 0.06168,0.08745 0.09015,0.13275c0.37834,0.6031 0.30497,1.16704 -0.12653,1.63895c-0.11976,0.12862 -0.25355,0.24343 -0.39886,0.34228l-0.43523,0.31088c-0.07049,0.05057 -0.14354,0.09747 -0.21886,0.14052zM331.37937,252.20945c-0.16449,-0.18974 -0.33144,-0.37731 -0.50082,-0.56269c-0.25786,0.4547 -0.52664,0.90311 -0.80611,1.34486c-0.48464,0.76672 -1.00404,1.51091 -1.55657,2.23024h5.16058c-0.62176,-0.95844 -1.45957,-2.04651 -2.29708,-3.01241zM326.67019,265.58934c0.59316,-0.09948 1.05263,0.14611 1.32154,0.69077c0.08224,0.17114 0.14341,0.35163 0.18217,0.53751c0.09109,0.42 0.17192,0.86144 0.24155,1.29294c0.0475,0.29385 0.09133,0.58827 0.1315,0.88321c0.00632,0.03821 0.01171,0.07656 0.01617,0.11502c0.07461,0.6373 -0.13834,1.13471 -0.59658,1.449c-0.18393,0.12278 -0.38701,0.21408 -0.60093,0.27015c-0.87046,0.2487 -1.43004,-0.21761 -1.55439,-1.30569c-0.09326,-0.65284 -0.21761,-1.36786 -0.37305,-2.0518c-0.14331,-0.73958 0.02487,-1.27771 0.50393,-1.6004c0.16063,-0.10485 0.33678,-0.18375 0.52196,-0.23378c0.06777,-0.01949 0.13658,-0.03516 0.20611,-0.04694zM430.73264,254.38249h-3.79271v2.17615h1.36786c0.83937,-0.68393 1.64765,-1.43004 2.42485,-2.17615zM302.09123,271.88493v-2.64246h-2.3005v2.64246z" fill="#000000" fill-rule="evenodd" stroke="#000000" stroke-width="0.25" stroke-linecap="round"/><path d="M211.41354,298.26047c0.16927,-0.47964 0.48242,-0.79991 0.92648,-0.95402c0.22328,-0.0739 0.45737,-0.10988 0.69254,-0.10645h0.43322c1.08306,0 1.60911,0.61889 1.36156,1.70195l-6.127,27.75718c-0.02084,0.10201 -0.04855,0.2025 -0.08293,0.30078c-0.16927,0.47964 -0.48273,0.80022 -0.92648,0.95433c-0.22328,0.0739 -0.45737,0.10988 -0.69254,0.10645h-0.46417c-1.08306,0 -1.60911,-0.61889 -1.36156,-1.70195l6.15795,-27.75718c0.02083,-0.10212 0.04853,-0.20271 0.08293,-0.30109z" fill="#000000" fill-rule="evenodd" stroke="#000000" stroke-width="0.25" stroke-linecap="round"/></g></g></svg>