<svg xmlns="http://www.w3.org/2000/svg" viewBox="0 0 43.301 70.301" height="70.301" width="43.301"><g style="stroke:#000;stroke-width:1mm;fill:#000" fill="#000" stroke-width="1mm" stroke="#000" font-size="9pt" fill-rule="evenodd" stroke-linecap="round" id="svgGroup"><path d="M 39.9 68.301 L 39.9 38.501 Q 37.3 43.801 32.6 46.951 A 18.666 18.666 0 0 1 23.438 50.037 A 23.219 23.219 0 0 1 21.7 50.101 A 21.116 21.116 0 0 1 14.627 48.943 A 19.208 19.208 0 0 1 10.5 46.901 Q 5.6 43.701 2.8 38.001 A 27.227 27.227 0 0 1 0.274 29.407 A 34.511 34.511 0 0 1 0 25.001 Q 0 17.701 2.8 12.101 Q 5.6 6.501 10.5 3.251 A 19.602 19.602 0 0 1 20.821 0.017 A 23.87 23.87 0 0 1 21.7 0.001 A 20.98 20.98 0 0 1 27.991 0.915 A 18.18 18.18 0 0 1 32.6 3.101 Q 37.3 6.201 39.9 11.601 L 39.9 3.201 Q 39.9 1.448 41.207 1.231 A 2.411 2.411 0 0 1 41.6 1.201 Q 43.199 1.201 43.294 2.968 A 4.3 4.3 0 0 1 43.3 3.201 L 43.3 68.301 Q 43.3 70.054 41.994 70.27 A 2.411 2.411 0 0 1 41.6 70.301 Q 40.002 70.301 39.907 68.533 A 4.3 4.3 0 0 1 39.9 68.301 Z M 21.7 46.601 A 17.682 17.682 0 0 0 27.553 45.655 A 15.979 15.979 0 0 0 31.1 43.901 Q 35.2 41.201 37.55 36.301 A 23.556 23.556 0 0 0 39.57 29.59 A 30.731 30.731 0 0 0 39.9 25.001 A 29.669 29.669 0 0 0 39.384 19.341 A 22.669 22.669 0 0 0 37.55 13.751 A 19.725 19.725 0 0 0 34.249 8.862 A 17.281 17.281 0 0 0 31.1 6.201 A 16.46 16.46 0 0 0 22.724 3.526 A 20.147 20.147 0 0 0 21.7 3.501 A 17.73 17.73 0 0 0 15.525 4.555 A 16.352 16.352 0 0 0 12.25 6.201 A 17.905 17.905 0 0 0 6.406 12.5 A 21.801 21.801 0 0 0 5.75 13.751 Q 3.4 18.601 3.4 25.001 A 29.628 29.628 0 0 0 3.97 30.937 A 22.991 22.991 0 0 0 5.75 36.301 A 19.552 19.552 0 0 0 9.016 41.174 A 17.114 17.114 0 0 0 12.25 43.901 A 16.779 16.779 0 0 0 20.961 46.587 A 20.346 20.346 0 0 0 21.7 46.601 Z"></path></g></svg>