<svg xmlns="http://www.w3.org/2000/svg" viewBox="0 0 43.201 70.001" height="70.001" width="43.201"><g style="stroke:#000;stroke-width:1mm;fill:#000" fill="#000" stroke-width="1mm" stroke="#000" font-size="9pt" fill-rule="evenodd" stroke-linecap="round" id="svgGroup"><path d="M 41.2 70 L 2 70 A 2.879 2.879 0 0 1 1.209 69.901 Q 0 69.555 0 68 L 0 2 Q 0 0.247 1.306 0.031 A 2.411 2.411 0 0 1 1.7 0 Q 3.298 0 3.394 1.768 A 4.3 4.3 0 0 1 3.4 2 L 3.4 66.5 L 41.2 66.5 Q 42.953 66.5 43.17 67.806 A 2.411 2.411 0 0 1 43.2 68.2 Q 43.2 69.968 41.272 70 A 4.323 4.323 0 0 1 41.2 70 Z"></path></g></svg>