<svg xmlns="http://www.w3.org/2000/svg" viewBox="0 0 46.927 85.601" height="85.601" width="46.927"><g style="stroke:#000;stroke-width:1mm;fill:#000" fill="#000" stroke-width="1mm" stroke="#000" font-size="9pt" fill-rule="evenodd" stroke-linecap="round" id="svgGroup"><path d="M 21.226 83.6 L 21.226 79 A 37.683 37.683 0 0 1 11.191 77.051 A 29.561 29.561 0 0 1 0.726 70.8 Q -0.595 69.479 0.488 68.336 A 2.898 2.898 0 0 1 0.626 68.2 Q 1.66 67.166 2.843 68.063 A 3.749 3.749 0 0 1 3.226 68.4 A 27.811 27.811 0 0 0 15.858 74.722 A 36.993 36.993 0 0 0 21.226 75.5 L 21.226 44.3 A 38.476 38.476 0 0 1 13.3 42.175 Q 1.426 37.436 1.426 25.2 A 19.088 19.088 0 0 1 2.131 19.922 A 16.213 16.213 0 0 1 3.926 15.85 A 18.084 18.084 0 0 1 10.1 9.824 A 21.651 21.651 0 0 1 10.926 9.35 A 22.562 22.562 0 0 1 18.066 6.939 A 28.059 28.059 0 0 1 21.226 6.6 L 21.226 2 Q 21.226 0.247 22.532 0.031 A 2.411 2.411 0 0 1 22.926 0 Q 24.524 0 24.62 1.768 A 4.3 4.3 0 0 1 24.626 2 L 24.626 6.7 A 32.225 32.225 0 0 1 39.143 10.943 A 40.303 40.303 0 0 1 42.426 13 Q 44.124 14.299 43.128 15.597 A 2.502 2.502 0 0 1 43.126 15.6 A 2.496 2.496 0 0 1 42.742 15.998 Q 41.885 16.695 40.766 16.029 A 3.833 3.833 0 0 1 40.426 15.8 A 32.189 32.189 0 0 0 31.735 11.469 A 28.115 28.115 0 0 0 24.626 10.2 L 24.626 41.3 Q 35.346 43.266 40.599 47.146 A 16.326 16.326 0 0 1 41.776 48.1 A 15.021 15.021 0 0 1 46.519 56.624 A 22.353 22.353 0 0 1 46.926 61 Q 46.926 66.5 43.926 70.45 A 19.103 19.103 0 0 1 37.843 75.634 A 23.528 23.528 0 0 1 35.876 76.6 A 28.855 28.855 0 0 1 28.022 78.73 A 35.212 35.212 0 0 1 24.626 79 L 24.626 83.6 Q 24.626 85.353 23.32 85.57 A 2.411 2.411 0 0 1 22.926 85.6 Q 21.328 85.6 21.232 83.833 A 4.3 4.3 0 0 1 21.226 83.6 Z M 24.626 44.8 L 24.626 75.6 Q 29.326 75.4 33.626 73.85 A 17.518 17.518 0 0 0 38.624 71.105 A 16.052 16.052 0 0 0 40.726 69.1 A 11.187 11.187 0 0 0 43.367 63.239 A 15.24 15.24 0 0 0 43.526 61 A 17.998 17.998 0 0 0 43.092 56.974 A 14.787 14.787 0 0 0 42.076 54 Q 40.626 50.9 36.576 48.6 A 22.366 22.366 0 0 0 33.669 47.241 Q 30.565 46.03 26.117 45.098 A 80.467 80.467 0 0 0 24.626 44.8 Z M 21.226 40.7 L 21.226 10.2 A 22.743 22.743 0 0 0 15.572 11.207 A 17.455 17.455 0 0 0 9.626 14.45 A 12.57 12.57 0 0 0 5.201 22.621 A 18.275 18.275 0 0 0 5.026 25.2 A 17.489 17.489 0 0 0 5.53 29.517 A 12.227 12.227 0 0 0 8.926 35.45 Q 11.705 38.122 16.768 39.652 A 39.381 39.381 0 0 0 21.226 40.7 Z"></path></g></svg>