<svg xmlns="http://www.w3.org/2000/svg" viewBox="0 0 47.301 70.001" height="70.001" width="47.301"><g style="stroke:#000;stroke-width:1mm;fill:#000" fill="#000" stroke-width="1mm" stroke="#000" font-size="9pt" fill-rule="evenodd" stroke-linecap="round" id="svgGroup"><path d="M 25.5 70.001 L 1.6 70.001 A 2.303 2.303 0 0 1 0.967 69.921 Q 0.257 69.718 0.068 68.993 A 2.357 2.357 0 0 1 0 68.401 L 0 1.601 A 2.303 2.303 0 0 1 0.08 0.967 Q 0.283 0.257 1.008 0.069 A 2.357 2.357 0 0 1 1.6 0.001 L 23.6 0.001 A 39.068 39.068 0 0 1 29.043 0.352 Q 35.658 1.286 39 4.701 A 15.525 15.525 0 0 1 42.952 11.975 Q 43.56 14.421 43.598 17.313 A 29.502 29.502 0 0 1 43.6 17.701 Q 43.6 23.101 40.9 27.051 Q 38.2 31.001 33.7 33.001 A 21.675 21.675 0 0 1 39.672 36.1 A 18.791 18.791 0 0 1 43.7 40.201 Q 47.3 45.201 47.3 51.401 A 24.646 24.646 0 0 1 46.704 56.99 Q 45.564 61.885 42.25 65.101 Q 37.394 69.812 26.389 69.993 A 54.069 54.069 0 0 1 25.5 70.001 Z M 3.4 34.901 L 3.4 66.501 L 25.5 66.501 Q 35.3 66.501 39.55 62.751 Q 43.344 59.403 43.751 52.989 A 25.06 25.06 0 0 0 43.8 51.401 A 17.236 17.236 0 0 0 42.884 45.664 A 14.672 14.672 0 0 0 38.65 39.451 Q 33.5 34.901 25.1 34.901 L 3.4 34.901 Z M 3.4 3.401 L 3.4 31.501 L 25.1 31.501 A 20.234 20.234 0 0 0 29.609 31.028 Q 32.787 30.302 35.086 28.46 A 12.314 12.314 0 0 0 36.15 27.501 A 13.4 13.4 0 0 0 40.1 17.791 A 16.964 16.964 0 0 0 40.1 17.701 Q 40.1 10.301 36.2 6.851 A 11.581 11.581 0 0 0 32.511 4.715 Q 28.97 3.401 23.6 3.401 L 3.4 3.401 Z"></path></g></svg>