<svg xmlns="http://www.w3.org/2000/svg" viewBox="0 0 44.8 50.001" height="50.001" width="44.8"><g style="stroke:#000;stroke-width:1mm;fill:#000" fill="#000" stroke-width="1mm" stroke="#000" font-size="9pt" fill-rule="evenodd" stroke-linecap="round" id="svgGroup"><path d="M 35.4 26.1 L 35.4 16 Q 35.4 11.273 34.243 8.653 A 7.964 7.964 0 0 0 34 8.15 A 7.393 7.393 0 0 0 29.717 4.54 A 9.565 9.565 0 0 0 29.6 4.5 Q 27.501 3.801 24.472 3.591 A 40.15 40.15 0 0 0 21.7 3.5 Q 18.213 3.5 14.021 4.58 A 43.533 43.533 0 0 0 13.75 4.65 A 42.166 42.166 0 0 0 8.884 6.245 A 34.511 34.511 0 0 0 5.9 7.6 Q 4.316 8.305 3.506 7.304 A 2.28 2.28 0 0 1 3.3 7 Q 2.31 5.516 4.162 4.619 A 4.876 4.876 0 0 1 4.2 4.6 A 37.942 37.942 0 0 1 9.083 2.472 A 48.114 48.114 0 0 1 12.85 1.3 A 41.83 41.83 0 0 1 16.931 0.412 Q 19.45 0 21.7 0 A 36.943 36.943 0 0 1 26.327 0.269 Q 31.237 0.891 34.117 2.952 A 10.306 10.306 0 0 1 34.7 3.4 A 9.457 9.457 0 0 1 37.278 6.942 Q 38.8 10.394 38.8 16 L 38.8 44.6 A 5.252 5.252 0 0 0 38.839 45.264 Q 38.929 45.971 39.232 46.338 A 1.053 1.053 0 0 0 39.55 46.6 Q 40.195 46.944 41.91 46.771 A 17.065 17.065 0 0 0 42.5 46.7 A 6.954 6.954 0 0 1 42.795 46.668 Q 44.8 46.493 44.8 47.8 Q 44.8 49.4 43.1 49.7 Q 41.6 50 40.2 50 Q 38.317 50 37.296 49.6 A 2.746 2.746 0 0 1 36.8 49.35 A 2.329 2.329 0 0 1 35.982 48.401 Q 35.797 48.027 35.691 47.549 A 5.545 5.545 0 0 1 35.6 47 Q 35.4 45.3 35.4 42.3 A 17.105 17.105 0 0 1 30.87 46.028 A 20.337 20.337 0 0 1 29.6 46.7 Q 26.1 48.4 22.15 49.2 A 40.358 40.358 0 0 1 17.117 49.906 A 34.133 34.133 0 0 1 14.6 50 Q 9.189 50 5.526 47.917 A 12.89 12.89 0 0 1 4 46.9 Q 0 43.8 0 37.8 A 11.597 11.597 0 0 1 3.198 29.762 A 14.896 14.896 0 0 1 3.3 29.65 A 21.445 21.445 0 0 1 8.712 25.478 A 26.925 26.925 0 0 1 11.75 24.05 Q 16.9 22 22.4 22 Q 28.198 22 32.086 23.864 A 13.166 13.166 0 0 1 35.4 26.1 Z M 15.1 46.6 A 31.279 31.279 0 0 0 22.654 45.711 A 28.107 28.107 0 0 0 25.2 44.95 Q 29.9 43.3 32.8 40.2 Q 35.7 37.1 35.4 32.6 A 6.18 6.18 0 0 0 32.755 27.969 A 9.268 9.268 0 0 0 31.6 27.25 A 14.442 14.442 0 0 0 28.205 26.002 Q 26.635 25.626 24.799 25.485 A 30.045 30.045 0 0 0 22.5 25.4 Q 18 25.4 13.65 26.95 A 22.051 22.051 0 0 0 9.438 28.95 A 17.941 17.941 0 0 0 6.4 31.3 A 9.726 9.726 0 0 0 4.325 34.132 A 8.695 8.695 0 0 0 3.5 37.9 A 9.629 9.629 0 0 0 3.847 40.566 A 6.727 6.727 0 0 0 6.8 44.5 Q 10.1 46.6 15.1 46.6 Z"></path></g></svg>