<svg xmlns="http://www.w3.org/2000/svg" viewBox="0 0 55.001 72.403" height="72.403" width="55.001"><g style="stroke:#000;stroke-width:1mm;fill:#000" fill="#000" stroke-width="1mm" stroke="#000" font-size="9pt" fill-rule="evenodd" stroke-linecap="round" id="svgGroup"><path d="M 51.501 64.102 L 51.501 40.402 L 36.801 40.402 Q 34.801 40.402 34.801 38.602 Q 34.801 37.003 36.568 36.908 A 4.3 4.3 0 0 1 36.801 36.902 L 53.001 36.902 A 2.879 2.879 0 0 1 53.792 37.001 Q 55.001 37.347 55.001 38.902 L 55.001 64.502 Q 55.001 65.777 54.711 66.185 A 0.52 0.52 0 0 1 54.601 66.302 Q 53.459 67.108 51.775 68.004 A 50.494 50.494 0 0 1 50.001 68.902 A 27.605 27.605 0 0 1 47.413 69.981 Q 46.126 70.448 44.646 70.867 A 52.876 52.876 0 0 1 42.801 71.352 Q 38.501 72.402 32.401 72.402 A 31.781 31.781 0 0 1 21.285 70.493 A 29.429 29.429 0 0 1 15.751 67.752 A 32.111 32.111 0 0 1 4.466 55.411 A 38.056 38.056 0 0 1 4.201 54.902 Q 0.001 46.702 0.001 36.102 A 44.744 44.744 0 0 1 1.152 25.753 A 36.363 36.363 0 0 1 4.201 17.452 A 32.848 32.848 0 0 1 12.66 6.875 A 31.817 31.817 0 0 1 15.751 4.652 Q 23.101 0.002 32.401 0.002 A 33.296 33.296 0 0 1 42.533 1.479 A 27.274 27.274 0 0 1 53.701 8.302 A 3.901 3.901 0 0 1 54.028 8.732 Q 54.825 9.962 53.801 10.902 A 2.162 2.162 0 0 1 53.414 11.213 Q 52.39 11.849 51.162 10.662 A 5.142 5.142 0 0 1 51.101 10.602 A 23.857 23.857 0 0 0 37.426 3.866 A 33.419 33.419 0 0 0 32.401 3.502 A 30.198 30.198 0 0 0 23.725 4.707 A 25.851 25.851 0 0 0 17.251 7.652 A 27.944 27.944 0 0 0 7.282 18.695 A 33.203 33.203 0 0 0 7.051 19.152 Q 3.401 26.502 3.401 36.102 A 43.761 43.761 0 0 0 4.285 45.093 A 34.037 34.037 0 0 0 7.051 53.202 A 29.132 29.132 0 0 0 13.617 62.026 A 27.609 27.609 0 0 0 17.251 64.802 A 26.64 26.64 0 0 0 29.505 68.877 A 33.203 33.203 0 0 0 32.401 69.002 A 49.31 49.31 0 0 0 37.286 68.772 Q 40.248 68.477 42.751 67.802 A 35.413 35.413 0 0 0 50.153 64.851 A 40.274 40.274 0 0 0 51.501 64.102 Z"></path></g></svg>