<svg xmlns="http://www.w3.org/2000/svg" viewBox="0 0 43.401 70.301" height="70.301" width="43.401"><g style="stroke:#000;stroke-width:1mm;fill:#000" fill="#000" stroke-width="1mm" stroke="#000" font-size="9pt" fill-rule="evenodd" stroke-linecap="round" id="svgGroup"><path d="M 0 68.301 L 0 3.201 Q 0 1.201 1.8 1.201 Q 3.398 1.201 3.494 2.968 A 4.3 4.3 0 0 1 3.5 3.201 L 3.5 11.601 A 21.017 21.017 0 0 1 8.478 4.91 A 20.156 20.156 0 0 1 10.85 3.101 A 19.142 19.142 0 0 1 20.085 0.062 A 23.648 23.648 0 0 1 21.8 0.001 A 20.732 20.732 0 0 1 28.685 1.117 A 18.733 18.733 0 0 1 32.95 3.251 Q 37.8 6.501 40.6 12.101 Q 43.4 17.701 43.4 25.001 A 32.508 32.508 0 0 1 42.633 32.205 A 26.275 26.275 0 0 1 40.6 38.001 A 23.438 23.438 0 0 1 36.554 43.887 A 20.732 20.732 0 0 1 32.95 46.901 A 19.45 19.45 0 0 1 23.167 50.062 A 23.91 23.91 0 0 1 21.8 50.101 A 20.724 20.724 0 0 1 15.284 49.104 A 18.389 18.389 0 0 1 10.85 46.951 Q 6.1 43.801 3.5 38.501 L 3.5 68.301 Q 3.5 70.054 2.194 70.27 A 2.411 2.411 0 0 1 1.8 70.301 Q 0.033 70.301 0.001 68.373 A 4.323 4.323 0 0 1 0 68.301 Z M 21.8 46.601 A 17.682 17.682 0 0 0 27.653 45.655 A 15.979 15.979 0 0 0 31.2 43.901 Q 35.3 41.201 37.65 36.301 A 23.556 23.556 0 0 0 39.67 29.59 A 30.731 30.731 0 0 0 40 25.001 A 29.669 29.669 0 0 0 39.484 19.341 A 22.669 22.669 0 0 0 37.65 13.751 A 19.725 19.725 0 0 0 34.349 8.862 A 17.281 17.281 0 0 0 31.2 6.201 A 16.46 16.46 0 0 0 22.824 3.526 A 20.147 20.147 0 0 0 21.8 3.501 A 18.279 18.279 0 0 0 16.292 4.305 A 15.877 15.877 0 0 0 12.3 6.201 Q 8.2 8.901 5.85 13.751 Q 3.5 18.601 3.5 25.001 A 29.628 29.628 0 0 0 4.07 30.937 A 22.991 22.991 0 0 0 5.85 36.301 A 19.877 19.877 0 0 0 8.996 41.06 A 17.115 17.115 0 0 0 12.3 43.901 A 16.434 16.434 0 0 0 20.144 46.535 A 20.459 20.459 0 0 0 21.8 46.601 Z"></path></g></svg>