<svg xmlns="http://www.w3.org/2000/svg" viewBox="0 0 29.601 66.801" height="66.801" width="29.601"><g style="stroke:#000;stroke-width:1mm;fill:#000" fill="#000" stroke-width="1mm" stroke="#000" font-size="9pt" fill-rule="evenodd" stroke-linecap="round" id="svgGroup"><path d="M 10.9 54.7 L 10.9 21.4 L 2 21.4 Q 0 21.4 0 19.6 Q 0 18.002 1.768 17.906 A 4.3 4.3 0 0 1 2 17.9 L 10.9 17.9 L 10.9 2 Q 10.9 0.247 12.206 0.031 A 2.411 2.411 0 0 1 12.6 0 Q 14.199 0 14.294 1.768 A 4.3 4.3 0 0 1 14.3 2 L 14.3 17.9 L 27.6 17.9 Q 29.353 17.9 29.57 19.206 A 2.411 2.411 0 0 1 29.6 19.6 Q 29.6 21.368 27.673 21.4 A 4.323 4.323 0 0 1 27.6 21.4 L 14.3 21.4 L 14.3 54.7 Q 14.3 59.7 16.35 61.55 A 6.203 6.203 0 0 0 18.404 62.748 Q 19.345 63.092 20.516 63.255 A 16.664 16.664 0 0 0 22.8 63.4 A 10.734 10.734 0 0 0 23.971 63.334 A 12.093 12.093 0 0 0 24.25 63.3 A 158.766 158.766 0 0 0 25.525 63.125 A 143.294 143.294 0 0 0 25.7 63.1 Q 27.3 62.9 28.45 62.95 Q 29.468 62.995 29.585 64.174 A 3.306 3.306 0 0 1 29.6 64.5 A 1.553 1.553 0 0 1 28.81 65.873 Q 28.327 66.18 27.55 66.35 Q 25.5 66.8 22.8 66.8 A 21.912 21.912 0 0 1 19.541 66.575 Q 15.862 66.02 13.8 64.1 A 7.654 7.654 0 0 1 11.977 61.381 Q 10.987 58.992 10.907 55.349 A 29.622 29.622 0 0 1 10.9 54.7 Z"></path></g></svg>