<svg xmlns="http://www.w3.org/2000/svg" viewBox="0 0 51.501 70.001" height="70.001" width="51.501"><g style="stroke:#000;stroke-width:1mm;fill:#000" fill="#000" stroke-width="1mm" stroke="#000" font-size="9pt" fill-rule="evenodd" stroke-linecap="round" id="svgGroup"><path d="M 24 68 L 24 3.4 L 2 3.4 Q 0.247 3.4 0.031 2.094 A 2.411 2.411 0 0 1 0 1.7 Q 0 0.102 1.768 0.006 A 4.3 4.3 0 0 1 2 0 L 49.5 0 Q 51.253 0 51.47 1.306 A 2.411 2.411 0 0 1 51.5 1.7 Q 51.5 3.298 49.733 3.394 A 4.3 4.3 0 0 1 49.5 3.4 L 27.5 3.4 L 27.5 68 Q 27.5 69.753 26.194 69.97 A 2.411 2.411 0 0 1 25.8 70 Q 24.033 70 24.001 68.072 A 4.323 4.323 0 0 1 24 68 Z"></path></g></svg>