<svg xmlns="http://www.w3.org/2000/svg" viewBox="0 0 58.9 70.001" height="70.001" width="58.9"><g style="stroke:#000;stroke-width:1mm;fill:#000" fill="#000" stroke-width="1mm" stroke="#000" font-size="9pt" fill-rule="evenodd" stroke-linecap="round" id="svgGroup"><path d="M 0 68.001 L 0 2.001 Q 0 0.291 1.388 0.043 A 2.911 2.911 0 0 1 1.9 0.001 A 2.72 2.72 0 0 1 4.004 0.926 A 3.657 3.657 0 0 1 4.3 1.301 L 29.4 37.301 L 54.4 1.301 Q 55.25 0.074 56.722 0.005 A 3.798 3.798 0 0 1 56.9 0.001 A 2.879 2.879 0 0 1 57.692 0.1 Q 58.9 0.446 58.9 2.001 L 58.9 68.001 Q 58.9 70.001 57.1 70.001 Q 55.333 70.001 55.301 68.073 A 4.323 4.323 0 0 1 55.3 68.001 L 55.3 6.001 L 31.2 41.001 Q 30.517 41.988 29.891 42.225 A 1.096 1.096 0 0 1 29.5 42.301 A 1.434 1.434 0 0 1 28.769 42.086 Q 28.297 41.809 27.825 41.175 A 6.294 6.294 0 0 1 27.7 41.001 L 3.4 6.001 L 3.4 68.001 Q 3.4 69.754 2.094 69.97 A 2.411 2.411 0 0 1 1.7 70.001 Q 0.102 70.001 0.006 68.233 A 4.3 4.3 0 0 1 0 68.001 Z"></path></g></svg>