<svg xmlns="http://www.w3.org/2000/svg" viewBox="0 0 49.301 70.101" height="70.101" width="49.301"><g style="stroke:#000;stroke-width:1mm;fill:#000" fill="#000" stroke-width="1mm" stroke="#000" font-size="9pt" fill-rule="evenodd" stroke-linecap="round" id="svgGroup"><path d="M 0 68.101 L 0 2.001 A 2.879 2.879 0 0 1 0.099 1.209 Q 0.446 0.001 2 0.001 L 29.7 0.001 Q 35.955 0.001 40.175 1.8 A 14.258 14.258 0 0 1 44.5 4.601 A 15.151 15.151 0 0 1 48.832 12.58 A 22.536 22.536 0 0 1 49.3 17.301 A 22.739 22.739 0 0 1 48.751 22.45 Q 47.702 26.965 44.65 29.951 A 14.578 14.578 0 0 1 39.596 33.099 Q 35.713 34.588 30.2 34.701 L 48.3 67.701 A 4.19 4.19 0 0 1 48.504 68.174 Q 48.751 68.872 48.6 69.401 A 1.034 1.034 0 0 1 48.417 69.77 Q 48.234 69.997 47.916 70.068 A 1.446 1.446 0 0 1 47.6 70.101 L 47.2 70.101 A 3.199 3.199 0 0 1 46.235 69.964 Q 45.296 69.668 44.815 68.731 A 3.199 3.199 0 0 1 44.8 68.701 L 26.1 34.701 L 3.4 34.701 L 3.4 68.101 Q 3.4 69.854 2.094 70.07 A 2.411 2.411 0 0 1 1.7 70.101 Q 0.102 70.101 0.006 68.333 A 4.3 4.3 0 0 1 0 68.101 Z M 3.4 3.501 L 3.4 31.201 L 29.7 31.201 A 32.296 32.296 0 0 0 34.021 30.932 Q 39.097 30.244 41.9 27.801 A 10.602 10.602 0 0 0 45 22.975 Q 45.574 21.214 45.736 19.062 A 23.392 23.392 0 0 0 45.8 17.301 Q 45.8 12.56 44.062 9.491 A 9.85 9.85 0 0 0 41.9 6.851 A 11.851 11.851 0 0 0 38.182 4.745 Q 34.865 3.539 30.015 3.502 A 40.51 40.51 0 0 0 29.7 3.501 L 3.4 3.501 Z"></path></g></svg>