<svg xmlns="http://www.w3.org/2000/svg" viewBox="0 0 68.817 72.402" height="72.402" width="68.817"><g style="stroke:#000;stroke-width:1mm;fill:#000" fill="#000" stroke-width="1mm" stroke="#000" font-size="9pt" fill-rule="evenodd" stroke-linecap="round" id="svgGroup"><path d="M 57.101 58.601 L 68.001 67.801 A 3.563 3.563 0 0 1 68.395 68.227 Q 69.237 69.314 68.401 70.401 A 2.437 2.437 0 0 1 68.065 70.755 Q 67.083 71.589 65.814 70.413 A 4.719 4.719 0 0 1 65.801 70.401 L 55.101 61.501 Q 51.001 66.701 44.951 69.551 Q 38.901 72.401 31.501 72.401 A 33.212 33.212 0 0 1 22.29 71.168 A 27.977 27.977 0 0 1 15.001 67.901 A 29.734 29.734 0 0 1 4.719 56.747 A 36.005 36.005 0 0 1 3.951 55.251 A 38.601 38.601 0 0 1 0.653 44.603 A 51.895 51.895 0 0 1 0.001 36.201 A 50.759 50.759 0 0 1 0.84 26.747 A 37.672 37.672 0 0 1 3.951 17.201 A 31.743 31.743 0 0 1 10.492 8.099 A 29.469 29.469 0 0 1 15.001 4.551 A 28.816 28.816 0 0 1 27.777 0.189 A 36.172 36.172 0 0 1 31.501 0.001 Q 40.901 0.001 48.001 4.551 A 30.281 30.281 0 0 1 58.528 16.172 A 36.323 36.323 0 0 1 59.051 17.201 A 38.152 38.152 0 0 1 62.336 27.731 A 51.671 51.671 0 0 1 63.001 36.201 A 51.445 51.445 0 0 1 62.415 44.099 A 43.53 43.53 0 0 1 61.501 48.501 A 36.151 36.151 0 0 1 59.079 55.118 A 30.709 30.709 0 0 1 57.101 58.601 Z M 52.401 59.301 L 41.401 50.001 Q 39.916 48.616 40.978 47.328 A 2.789 2.789 0 0 1 41.001 47.301 A 2.437 2.437 0 0 1 41.336 46.947 Q 42.318 46.113 43.587 47.288 A 4.719 4.719 0 0 1 43.601 47.301 L 54.501 56.401 A 32.546 32.546 0 0 0 56.978 51.13 A 41.183 41.183 0 0 0 58.151 47.401 A 40.274 40.274 0 0 0 59.311 40.635 A 50.349 50.349 0 0 0 59.501 36.201 Q 59.501 25.901 55.901 18.601 A 28.391 28.391 0 0 0 50.86 11.338 A 25.076 25.076 0 0 0 45.951 7.401 A 26.538 26.538 0 0 0 33.498 3.562 A 32.353 32.353 0 0 0 31.501 3.501 A 28.717 28.717 0 0 0 22.499 4.876 A 25.646 25.646 0 0 0 17.051 7.401 A 26.199 26.199 0 0 0 8.257 16.403 A 32.182 32.182 0 0 0 7.051 18.601 A 33.139 33.139 0 0 0 4.203 27.204 Q 3.476 30.982 3.408 35.301 A 57.028 57.028 0 0 0 3.401 36.201 Q 3.401 46.501 7.051 53.851 Q 10.701 61.201 17.051 65.101 A 26.538 26.538 0 0 0 29.503 68.94 A 32.353 32.353 0 0 0 31.501 69.001 Q 38.001 69.001 43.351 66.451 Q 48.701 63.901 52.401 59.301 Z"></path></g></svg>