<svg xmlns="http://www.w3.org/2000/svg" viewBox="0 0 36.976 50.003" height="50.003" width="36.976"><g style="stroke:#000;stroke-width:1mm;fill:#000" fill="#000" stroke-width="1mm" stroke="#000" font-size="9pt" fill-rule="evenodd" stroke-linecap="round" id="svgGroup"><path d="M 14.627 48.845 A 21.116 21.116 0 0 0 21.7 50.003 A 23.92 23.92 0 0 0 21.965 50.001 A 19.73 19.73 0 0 0 36.2 44.003 Q 37.7 42.603 36.3 41.403 Q 35.128 40.481 34.025 41.384 A 3.511 3.511 0 0 0 33.6 41.803 Q 28.6 46.603 21.7 46.603 A 20.346 20.346 0 0 1 20.961 46.589 A 16.779 16.779 0 0 1 12.25 43.903 A 17.114 17.114 0 0 1 9.016 41.176 A 19.552 19.552 0 0 1 5.75 36.303 A 22.991 22.991 0 0 1 3.97 30.939 A 29.628 29.628 0 0 1 3.4 25.003 Q 3.4 18.603 5.75 13.753 A 21.801 21.801 0 0 1 6.406 12.502 A 17.905 17.905 0 0 1 12.25 6.203 A 16.352 16.352 0 0 1 15.525 4.557 A 17.73 17.73 0 0 1 21.7 3.503 Q 28.6 3.503 33.6 8.303 Q 34.753 9.373 35.838 8.884 A 2.334 2.334 0 0 0 36.3 8.603 A 2.937 2.937 0 0 0 36.495 8.42 Q 37.587 7.297 36.2 6.003 Q 30.2 0.003 21.7 0.003 A 24.063 24.063 0 0 0 20.532 0.031 A 19.754 19.754 0 0 0 10.5 3.203 Q 5.6 6.403 2.8 12.053 Q 0 17.703 0 25.003 A 34.232 34.232 0 0 0 0.302 29.616 A 26.754 26.754 0 0 0 2.8 37.953 Q 5.6 43.603 10.5 46.803 A 19.208 19.208 0 0 0 14.627 48.845 Z"></path></g></svg>