<svg version="1.1" xmlns="http://www.w3.org/2000/svg" xmlns:xlink="http://www.w3.org/1999/xlink" width="7.66757" height="1.90734" viewBox="0,0,7.66757,1.90734"><g transform="translate(-235.87365,-178.65523)"><g data-paper-data="{&quot;isPaintingLayer&quot;:true}" fill="#000000" fill-rule="evenodd" stroke="#000000" stroke-width="1" stroke-linecap="round" stroke-linejoin="miter" stroke-miterlimit="10" stroke-dasharray="" stroke-dashoffset="0" style="mix-blend-mode: normal"><path d="M243.21276,180.06257h-6.42546c-0.1,0.00003 -0.1967,-0.03581 -0.27252,-0.10101c-0.01391,-0.01152 -0.02726,-0.0237 -0.04,-0.0365c-0.03662,-0.03589 -0.06748,-0.07721 -0.09151,-0.12251c-0.03056,-0.05865 -0.04635,-0.12388 -0.046,-0.19001c-0.0008,-0.06226 0.00642,-0.12436 0.0215,-0.18476c0.04167,-0.15718 0.14384,-0.25052 0.30652,-0.28002c0.04028,-0.00705 0.08111,-0.01048 0.12201,-0.01025h6.42546c0.06114,-0.0009 0.12207,0.00736 0.18076,0.0245c0.17951,0.0555 0.26927,0.20568 0.26927,0.45053c0.0003,0.11188 -0.04116,0.21984 -0.11626,0.30277c-0.00288,0.00328 -0.0058,0.00653 -0.00875,0.00975c-0.08334,0.09167 -0.19168,0.13751 -0.32502,0.13751z"/></g></g></svg>