<svg xmlns="http://www.w3.org/2000/svg" viewBox="0 0 52.704 77.209" height="77.209" width="52.704"><g style="stroke:#000;stroke-width:0.25mm;fill:#000" fill="#000" stroke-width="0.25mm" stroke="#000" font-size="9pt" fill-rule="evenodd" stroke-linecap="round" id="svgGroup"><path d="M 51.544 51.729 A 73.491 73.491 0 0 0 52.702 38.207 A 71.799 71.799 0 0 0 51.53 24.729 C 50.653 20.153 49.301 16.214 47.536 12.91 A 22.866 22.866 0 0 0 26.402 0.007 A 23.13 23.13 0 0 0 4.649 13.953 C 2.995 17.324 1.746 21.31 0.962 25.915 A 73.402 73.402 0 0 0 0.002 38.207 A 72.131 72.131 0 0 0 1.279 52.286 C 2.22 56.998 3.66 61.059 5.531 64.453 A 22.926 22.926 0 0 0 26.402 77.207 C 39.054 77.207 48.394 68.505 51.544 51.729 Z M 26.402 13.607 A 8.622 8.622 0 0 0 25.3 13.674 C 20.519 14.29 16.802 19.334 16.802 38.207 C 16.802 50.648 18.401 57.287 20.852 60.574 A 6.537 6.537 0 0 0 26.402 63.407 A 6.449 6.449 0 0 0 31.88 60.626 C 34.323 57.358 35.902 50.715 35.902 38.207 C 35.902 26.153 34.421 19.741 32.109 16.52 A 6.557 6.557 0 0 0 26.402 13.607 Z"></path></g></svg>