<svg xmlns="http://www.w3.org/2000/svg" viewBox="0 0 36.201 70" height="70" width="36.201"><g style="stroke:#000;stroke-width:1mm;fill:#000" fill="#000" stroke-width="1mm" stroke="#000" font-size="9pt" fill-rule="evenodd" stroke-linecap="round" id="svgGroup"><path d="M 31.9 3.5 L 2 3.5 Q 0 3.5 0 1.7 Q 0 0.102 1.768 0.006 A 4.3 4.3 0 0 1 2 0 L 34.2 0 A 4.984 4.984 0 0 1 34.88 0.042 Q 36.2 0.225 36.2 1.2 A 5.915 5.915 0 0 1 35.942 2.966 A 5.418 5.418 0 0 1 35.7 3.6 Q 33.505 8.69 31.259 15.175 A 212.098 212.098 0 0 0 31.25 15.2 Q 29 21.7 26.75 28.85 Q 24.5 36 22.55 43.1 A 372.378 372.378 0 0 0 20.082 52.555 A 317.273 317.273 0 0 0 19.1 56.65 A 271.542 271.542 0 0 0 17.903 62.035 Q 17.207 65.331 16.7 68.2 Q 16.439 69.768 15.04 69.97 A 3.074 3.074 0 0 1 14.6 70 A 2.209 2.209 0 0 1 13.98 69.921 Q 12.859 69.593 13.1 67.902 A 9.896 9.896 0 0 1 13.1 67.9 A 180.643 180.643 0 0 1 14.052 62.894 Q 14.501 60.691 15.038 58.292 A 317.785 317.785 0 0 1 16.2 53.3 A 347.12 347.12 0 0 1 19.566 40.456 A 399.468 399.468 0 0 1 20.85 36 Q 23.5 27 26.35 18.55 Q 29.2 10.1 31.9 3.5 Z"></path></g></svg>